/* XPM */
static char *kaaris[] = {
/* columns rows colors chars-per-pixel */
"64 64 201 2 ",
"   c None",
".  c #020101",
"X  c #0A0604",
"o  c #0D0906",
"O  c #0C0B0B",
"+  c #080708",
"@  c #130B07",
"#  c #140D0B",
"$  c #190F0B",
"%  c #14100E",
"&  c #1C120D",
"*  c #0E0F10",
"=  c #0E1115",
"-  c #141312",
";  c #1D1512",
":  c #1D1815",
">  c #1C1A1A",
",  c #14181C",
"<  c #22150F",
"1  c #221611",
"2  c #241914",
"3  c #2A1C15",
"4  c #241D1B",
"5  c #2B1F19",
"6  c #311F19",
"7  c #25201E",
"8  c #2D211B",
"9  c #2E2017",
"0  c #34241D",
"q  c #38261F",
"w  c #39291F",
"e  c #37281F",
"r  c #1F1F21",
"t  c #242321",
"y  c #2C2422",
"u  c #2C2B2A",
"i  c #2C2926",
"p  c #342622",
"a  c #392721",
"s  c #342924",
"d  c #3B2A23",
"f  c #352D2B",
"g  c #3D2E29",
"h  c #33312D",
"j  c #3D312C",
"k  c #3B3432",
"l  c #3B3A3A",
"z  c #363533",
"x  c #412E26",
"c  c #422F28",
"v  c #44332B",
"b  c #49352D",
"n  c #4D392E",
"m  c #433126",
"M  c #433531",
"N  c #4B3630",
"B  c #443934",
"V  c #4D3A32",
"C  c #433E3A",
"Z  c #4A3E3A",
"A  c #523D34",
"S  c #523E38",
"D  c #4B413D",
"F  c #544136",
"G  c #55423A",
"H  c #5A453B",
"J  c #5D493E",
"K  c #584037",
"L  c #60493E",
"P  c #4D4542",
"I  c #494644",
"U  c #534641",
"Y  c #5B4740",
"T  c #544945",
"R  c #5D4A42",
"E  c #534C4A",
"W  c #5A4D49",
"Q  c #55504E",
"!  c #5C534D",
"~  c #5B5957",
"^  c #624C43",
"/  c #644F48",
"(  c #655146",
")  c #695246",
"_  c #64524B",
"`  c #6B554B",
"'  c #6D594D",
"]  c #715A4E",
"[  c #70574B",
"{  c #6A5651",
"}  c #6C5A53",
"|  c #635C5A",
" . c #6B5E5C",
".. c #655953",
"X. c #735D53",
"o. c #745F58",
"O. c #795E53",
"+. c #62625E",
"@. c #6C615C",
"#. c #6F6155",
"$. c #756155",
"%. c #7A6256",
"&. c #76635B",
"*. c #7B655B",
"=. c #7D695E",
"-. c #686664",
";. c #766A65",
":. c #7D6B63",
">. c #746C6A",
",. c #796965",
"<. c #7A726C",
"1. c #76716D",
"2. c #7A7B77",
"3. c #816A5E",
"4. c #81665B",
"5. c #836D63",
"6. c #896D61",
"7. c #826F69",
"8. c #857165",
"9. c #8A7266",
"0. c #84726B",
"q. c #8B756B",
"w. c #8E796E",
"e. c #917A6E",
"r. c #90776C",
"t. c #847572",
"y. c #8B7770",
"u. c #837A76",
"i. c #8D7B73",
"p. c #847C79",
"a. c #8D7E7B",
"s. c #937D73",
"d. c #85837F",
"f. c #8C817D",
"g. c #958176",
"h. c #998275",
"j. c #95827A",
"k. c #9B867C",
"l. c #9D897D",
"z. c #A08B7F",
"x. c #837E81",
"c. c #8D8A86",
"v. c #8C8B89",
"b. c #888583",
"n. c #9B8780",
"m. c #9E8B83",
"M. c #958B88",
"N. c #9B928D",
"B. c #949089",
"V. c #9B9694",
"C. c #A28E84",
"Z. c #A28F88",
"A. c #A49185",
"S. c #A99386",
"D. c #A5928A",
"F. c #AA968C",
"G. c #AC998D",
"H. c #B29B8D",
"J. c #AA9791",
"K. c #AD9B92",
"L. c #A49E9C",
"P. c #B19E94",
"I. c #B29E98",
"U. c #A9A39E",
"Y. c #A1A09C",
"T. c #B5A296",
"R. c #B6A49B",
"E. c #B9A69C",
"W. c #BCAA9E",
"Q. c #A8A5A4",
"!. c #BDABA2",
"~. c #B9B7B5",
"^. c #B8B3AE",
"/. c #C1AEA3",
"(. c #C2AFA9",
"). c #C4B1A6",
"_. c #C4B3AB",
"`. c #C9B6AD",
"'. c #CCB9AF",
"]. c #CDBCB3",
"[. c #D1BFB9",
"{. c #D1BEB7",
"}. c #CFC0B5",
"|. c #D1C1B6",
" X c #D4C3BB",
".X c #DBCABE",
"XX c #C1BCC0",
"oX c #CAC9C8",
"OX c #DBCBC2",
"+X c #D5CAC5",
"@X c #D1D0CF",
"#X c #D8D6D4",
"$X c #DAD9D7",
"%X c #E0D3CA",
"&X c #E7DAD4",
"*X c #E4E5E4",
"=X c #EBEBEA",
"-X c white",
";X c #FEFEFE",
":X c #FFFFFF",
">X c #F1E8E3",
/* pixels */
"-X-X-X-X-X-X-X-X-X-X-X-X-X-X-X-X-X-X-X-X-X-X-X-X-X-X-X-X-X-X-X-X-X-X-X-X-X-X-X-X-X          -X-X-X-X-X-X-X-X-X-X-X-X-X-X-X-X-X-X",
"-X-X-X-X-X-X-X-X-X-X-X-X-X-X-X-X-X-X-X-X-X-X-X-X-X-X-X-X-X-X-X-X-X-X-X-X-X-X-X  G / / Y H A N s   -X-X-X-X-X-X-X-X-X-X-X-X-X-X-X",
"-X-X-X-X-X-X-X-X-X-X-X-X-X-X-X-X-X-X-X-X-X-X-X-X-X-X-X-X-X-X-X-X-X-X-X-X-X  _ ' / L / ) ) / J A N   -X-X-X-X-X-X-X-X-X-X-X-X-X-X",
"-X-X-X-X-X-X-X-X-X-X-X-X-X-X-X-X-X-X-X-X-X-X-X-X-X-X-X-X-X-X-X-X-X-X-X-X  #.( / / ) [ O.*.%.%.X./ N j -X-X-X-X-X-X-X-X-X-X-X-X-X",
"-X-X-X-X-X-X-X-X-X-X-X-X-X-X-X-X-X-X-X-X-X-X-X-X-X-X-X-X-X-X-X-X-X-X-X  f.Y / / ) ] %.3.9.6.6.4.%.' n M -X-X-X-X-X-X-X-X-X-X-X-X",
"-X-X-X-X-X-X-X-X-X-X-X-X-X-X-X-X-X-X-X-X-X-X-X-X-X-X-X-X-X-X-X-X-X-X-X  $Xi.' o.) X.3.9.r.9.3.4.] ] J b j -X-X-X-X-X-X-X-X-X-X-X",
"-X-X-X-X-X-X-X-X-X-X-X-X-X-X-X-X-X-X-X-X-X-X-X-X-X-X-X-X-X-X-X-X-X-X-X#X-X#Xt.X./ X.k._.].R.e.9.O.) _ Y N   -X-X-X-X-X-X-X-X-X-X",
"-X-X-X-X-X-X-X-X-X-X-X-X-X-X-X-X-X-X-X-X-X-X-X-X-X-X-X-X-X-X-X-X-X-X  oX*X=XN.Y H $.W.&X>X Xk.h.3.' X.&.p.  -X-X-X-X-X-X-X-X-X-X",
"-X-X-X-X-X-X-X-X-X-X-X-X-X-X-X-X-X-X-X-X-X-X-X-X-X-X-X-X-X-X-X-X-X-X  V.V.$Xf.v H 5.R.].].!.n.q.%./ _ p.XXx.-X-X-X-X-X-X-X-X-X-X",
"-X-X-X-X-X-X-X-X-X-X-X-X-X-X-X-X-X-X-X-X-X-X-X-X-X-X-X-X-X-X-X-X-X-X  Q.c.@X;.0 A 5.K.J.I.!.y.' ( A N t.Q.~ -X-X-X-X-X-X-X-X-X-X",
"-X-X-X-X-X-X-X-X-X-X-X-X-X-X-X-X-X-X-X-X-X-X-X-X-X-X-X-X-X-X-X-X-X    d.Y.oXp.v G w._.]._./.s.5.*.F v ,.p.l -X-X-X-X-X-X-X-X-X-X",
"-X-X-X-X-X-X-X-X-X-X-X-X-X-X-X-X-X-X-X-X-X-X-X-X-X-X-X-X-X-X-X-X-X .! +.V.Q.E o $ j ;.!.}.k.C.).A.' G ;.| l -X-X-X-X-X-X-X-X-X-X",
"-X-X-X-X-X-X-X-X-X-X-X-X-X-X-X-X-X-X-X-X-X-X-X-X-X-X-X-X-X-X-X-X-Xk U W +.Q l P Z z t B 8.8.w...j $ X P |   -X-X-X-X-X-X-X-X-X-X",
"-X-X-X-X-X-X-X-X-X-X-X-X-X-X-X-X-X-X-X-X-X-X-X-X-X-X-X-X-X-X-X-X-Xf - ~ C X X o > i f i k D j f h f s k Z D -X-X-X-X-X-X-X-X-X-X",
"-X-X-X-X-X-X-X-X-X-X-X-X-X-X-X-X-X-X-X-X-X-X-X-X-X-X-X-X-X-X-X-X-X  k 2.b.X X X X X X X X X X X o $ $ o % t -X-X-X-X-X-X-X-X-X-X",
"-X-X-X-X-X-X-X-X-X-X-X-X-X-X-X-X-X-X-X-X-X-X-X-X-X-X-X-X-X-X-X-X-X  ! 1.b.+ X X X X X X 3 k X X X X X X X   -X-X-X-X-X-X-X-X-X-X",
"-X-X-X-X-X-X-X-X-X-X-X-X-X-X-X-X-X-X-X-X-X-X-X-X-X-X-X-X-X-X-X-X-X  -.Q p.- o X X X X X 9.C.$ X X X X o o   -X-X-X-X-X-X-X-X-X-X",
"-X-X-X-X-X-X-X-X-X-X-X-X-X-X-X-X-X-X-X-X-X-X-X-X-X-X-X-X-X-X-X-X-X  t f _ - = t > - - G H.H.B X X X X > o   -X-X-X-X-X-X-X-X-X-X",
"-X-X-X-X-X-X-X-X-X-X-X-X-X-X-X-X-X-X-X-X-X-X-X-X-X-X-X-X-X-X-X-X-X-Xt - M $ $ 5 Z T Y 5.R./.q.> X X o l y   -X-X-X-X-X-X-X-X-X-X",
"-X-X-X-X-X-X-X-X-X-X-X-X-X-X-X-X-X-X-X-X-X-X-X-X-X-X-X-X-X-X-X-X-X-Xt * o & a / e.S.Z X d j : ! N ; % i -   -X-X-X-X-X-X-X-X-X-X",
"-X-X-X-X-X-X-X-X-X-X-X-X-X-X-X-X-X-X-X-X-X-X-X-X-X-X-X-X-X-X-X-X-X-Xt - X X 9 g _ A.S.9.s 3 f :.*.N ; o o -X-X-X-X-X-X-X-X-X-X-X",
"-X-X-X-X-X-X-X-X-X-X-X-X-X-X-X-X-X-X-X-X-X-X-X-X-X-X-X-X-X-X-X-X-X-X-.> X X $ p Y :.:.i.&.9.9.j.} U 3 X   -X-X-X-X-X-X-X-X-X-X-X",
"-X-X-X-X-X-X-X-X-X-X-X-X-X-X-X-X-X-X-X-X-X-X-X-X-X-X-X-X-X-X      ~ 2., o + X - - ; f W <.@.Z y P k o o   -X-X-X-X-X-X-X-X-X-X-X",
"-X-X-X-X-X-X-X-X-X-X-X-X-X-X-X-X-X-X-X-X-X-X-X    _ } } } &.&.:.;.p.>.o , - o o o y k s y ; ; X - - o - -X-X-X-X-X-X-X-X-X-X-X-X",
"-X-X-X-X-X-X-X-X-X-X-X-X-X-X-X-X-X-X-X-X-X-X_ 9.8.%.X.X.X.X.*.*.D <.Q X - - - o $ 2 Z @...W y % - - -   -X-X-X-X-X-X-X-X-X-X-X-X",
"-X-X-X-X-X-X-X-X-X-X-X-X-X-X-X-X-X-X-X-X  i.w.=.X.$.3.8.g.k.s.*.0 i k X - > o o o + X X o o o o - - - -X-X-X-X-X-X-X-X-X-X-X-X-X",
"-X-X-X-X-X-X-X-X-X-X-X-X-X-X-X-X-X-X-X| m.j.w.9.5.j.K.W./.S.:.n 2 $ 3 X X - o + o + * = o = - o + * - -X-X-X-X-X-X-X-X-X-X-X-X-X",
"-X-X-X-X-X-X-X-X-X-X-X-X-X-X-X-X-X  :.j.m.k.i.m.E.`.[. XE.:.n b v 2 $ o X o - - o o = - * o + o o o 7   -X-X-X-X-X-X-X-X-X-X-X-X",
"-X-X-X-X-X-X-X-X-X-X-X-X-X-X-X  9.=.&.q.m.n.K.]..X.X].K.8.( ( *.J 3 & $ X X = , o o X o o o = o o - Z M g -X-X-X-X-X-X-X-X-X-X-X",
"-X-X-X-X-X-X-X-X-X-X-X-X-X-XV.U.} } ' *.q.j.P./.).!.T.l.q.g.k.l.=.d 2 $ X X X o o X X X o + o o X X 7 D G B -X-X-X-X-X-X-X-X-X-X",
"-X-X-X-X-X-X-X-X-X-X-X-X-XQ.=Xt.' _ ' *.*.X.] X.w.F.W.W.P.P.T.T.k.G 3 & X X X X X X X X X X - + X X $ d ( _ P -X-X-X-X-X-X-X-X-X",
"-X-X-X-X-X-X-X-X-X-X-X-X  -X=XN.' J _ &.q.l.w.X.' *.k.G.A.l.z.G.G.w.N 3 X X X X X X X X X = t X X o & 0 N X.,.  -X-X-X-X-X-X-X-X",
"-X-X-X-X-X-X-X-X-X-X-X  @X-X#Xi.X.' ' *.g.R.!.j.*.%.w.T.T.l.9.3.3.q.3.J 2 X X X X X X X X - > X X & 9 m n N :.~.  -X-X-X-X-X-X-X",
"-X-X-X-X-X-X-X-X-X-X-Xb.*X=Xf./ $.5.*.=.s.F./.R.g.5.9.P.|.OX].R.z.e.3.5.Y % X X X X X X X - r X X 2 v F A v G L.v.-X-X-X-X-X-X-X",
"-X-X-X-X-X-X-X-X-X-X  ^.*XV.Y G $.q.9.w.k.K.!.R.A.s.s.P.'.OX%XOX].]./.z.5.g X X X X X X X X * X o 2 v _ 5.q.=.{ ..T -X-X-X-X-X-X",
"-X-X-X-X-X-X-X-X-X-X>.~.^._ A J *.i.j.Z.P.E.R.F.l.l.C.E.R.!. XOX X].'.!.l.( & X X X X X X X X o ; j @.9.m.E.G.=.v U P -X-X-X-X-X",
"-X-X-X-X-X-X-X-X-X  d.U.;.b A / :.g.F.!./.E.F.m.k.C.G.P.E.T.!.`.{. X.X].R.:.0 X X X X X X X o $ < N a.9.P..XP.%.Y &.t.  -X-X-X-X",
"-X-X-X-X-X-X-X-X-X  p.;.v b G ' 5.k.G.E.R.S.i.s.j.m.F.K.T.E.W.R._. XOX X].m.' 0 @ o o X X o ; ; 0 b } &.F.E.e.' / t.f.;.  -X-X-X",
"-X-X-X-X-X-X-X-X-X>.| M 0 N H ( *.q.q.i.k.i.5.7.j.S.P.E.W.!.).W.E.E._.].].R.q.' G N g 5 $ & 2 9 v G ' ' e.C.s.%./ :.M.c.| -X-X-X",
"-X-X-X-X-X-X-X-X  1.Z 2 9 v G / } &.X.X.*.$.X.X.q.m.I.R.T.R.P.F.F.P./. XOXR.s.8.w.i.&.G 3 2 0 v H ' $.$.=.k.k.3.' X.t.V.x.-X-X-X",
"-X-X-X-X-X-X-X  v.@.y & 5 c N G Y / K J ( ( N Y :.n.K.E.P.F.S.m.m.P./.'.).G.g.8.s.k.q.' v 2 d H ' X.:.5.=.9.q.e.%.' } a.B.  -X-X",
"-X-X-X-X-X-X-X+.B.W % $ 2 0 d v N n b N N v 5 G *.m.I.R.P.F.S.n.n.G./.W.T.A.q.X.5.s.s.3.H s Y ' X.*./ } *.*.5.5.*./ J _ p.  -X-X",
"-X-X-X-X-X-X  c.1.B o @ < 3 3 3 5 0 d 0 3 2 5 N } C.!._.!.R.K.S.F.K.E.E.l.5.' ' 9.F.A.w.( d ] ] X._ N G *.X.' ' ' J F G _ W -X-X",
"-X-X-X-X-X-X| p.W 9 X X $ & & $ $ & & $ o & 3 c ' C.]. X X!.R.J.K.E.G.G.k.] ) *.F./.W.z.3.A H J ( G G B _ o.H F J H A N Z P -X-X",
"-X-X-X-X-X  c.<.j 2 X X $ $ @ X X X X X X & 6 d G 9.R.[. X_.!.R.K.K.T.F.q.X.H X.!.|.W.k.e.q.5.*.=.$.X.v _ o./ v c N N v v k -X-X",
"-X-X-X-X-X| N...0 q 3 @ $ & & $ X X X X X & 2 0 b / q.R.]._.!.R.K.K.A.l.3./ n 5.).|.T.e.q.h.s.%.X._ H _ &.o._ d 3 w v c d y -X-X",
"-X-X-X-X  d.p.Z d v M 9 3 d v b d ; X X X X & 2 0 b / 9.F.E.E.E.K.A.l.q.X./ F j.%X%XE.s.q.s.k.' F N v Y :.7._ s & 3 0 s 0 : -X-X",
"-X-X-X-X  <.T c v N N N b G ( ' ( N 2 X X o & 2 0 c G o.i.S.P.F.A.m.g.5./ A n S.&X XP.s.5.q.h.' ' G G G X.t.T y o $ 2 2 &   -X-X",
"-X-X-X-XW T d b G b v N G ' %.3.X.J 5 X X X $ & 9 d b / &.s.S.K.C.C.s.*.H v G m._.K.z.q.9.q.3.F ' N v A _ { M ; X X X X o   -X-X",
"-X-X-X  Z g 0 G { b d N J ' $.*.] G 2 X X X $ & 3 0 d N } 9.i.m.n.s.i.$.A d N q.S.l.e.5.5.3.$.v v c v s G Z 3 o X X X X X -X-X-X",
"-X-X-X  s 5 d Y :.Y d v H ( ( ( H c $ X X X X $ & 3 0 N ' X.5.y.i.q.5.} N 3 a 9.m.i.8.*.X.' ) / / / A 9 k f - X X X X X o -X-X-X",
"-X-X-X  9 & 0 S *.&.A b H ( / G b 0 X X X X X X $ < 3 b H _ &.*.:.:.&.H 0 $ 9 } 7.:.X.' / / H K H v 2 9 f 3 o X o $ X + - -X-X-X",
"-X-X-Xh 2 & 3 v / X.' S H ( / A d & X X X X X X o & 3 0 v G G Y H H N 9 $ X 2 d F Y H G G F F N v 0 0 p y % X X 5 d ; % 3 -X-X-X",
"-X-X-Xk & $ 3 d S / _ / ( ' Y n 0 X X X X X X X X $ ; ; 2 9 5 p 0 5 & X X 2 N s 9 s d c N v d c g p 5 ; o X X $ v v 2 & 7   -X-X",
"-X-X-Xf $ $ 3 0 v H / ' ' ' H m 2 X X @ $ + X X X X o o X o @ o X X X X 9 G S v 9 ; & 3 0 0 0 0 0 2 ; o X X X & b d 2 2 y   -X-X",
"-X-X  y $ $ 3 0 v A Y ' ] ' H d & X X $ $ $ X X X X X X X X X X X - f g G N d 0 9 $ X o @ $ $ & $ @ $ o X X X 2 v a p 5 p   -X-X",
"-X-X  > $ & 9 v A G Y ( ' ' A 0 o X X @ $ $ & o X X X X X X X $ } m._ c c d N v s 3 o X X X X X X X X X X X X 5 v v g 9 f   -X-X",
"-X-X  - @ ; p N G Y Y ( ' Y v 2 X X X @ & $ & 2 % X X X X & d ( K.<.v a c b { o.G b N 2 X X X X o = X X X X o 0 N v g p p   -X-X",
"-X-X  - $ 2 0 A G Y Y / / N d & X X X o & 2 & 2 5 2 < 0 v H A H :.M.t.Y / G { G q 3 d 3 o X X + , , $ X X X $ d A N g s y   -X-X",
"-X-X  - ; 5 d A S A A H n v 5 o X X X X $ 3 9 & $ 2 a v c p 0 v N _ 9.:.Y d d p 2 2 2 2 2 X X X o - t X X X & v H N d p y   -X-X",
"-X-X  - y 9 d G N v c v v w & X X X X X o 2 v N 3 & 0 v N Y $.s.S.K.J.n.:.Y b d 3 < 2 d  .Z 3 > - - i X X X 2 N F N d p y   -X-X",
"-X-X  t j p v S N 9 < 5 0 2 X X X X $ $ o $ 0 A v 2 0 b S / &.s.S.K.S.j.i.' N c 0 2 2 p Y _ v 3 - o y o X X 5 N A v s p p   -X-X",
"-X-X  9 s d N / G 2 X $ & $ X X o X @ 2 & $ < d d 3 3 0 v A _ i.F.!.R.K.Z.:./ A N b v g v M p 3 > X 7 : X X 3 N A c 9 5 p   -X-X",
"-X-X  3 p v ' *.Y 5 X X X X X X   + $ 5 0 3 2 3 6 3 < < 0 v Y &.n.!.(.K.S.9._ H N b v v M g 5 y 3 X ; 7 X o 0 N N d 3 3 y   -X-X"
};
