/* XPM */
static char *tile03[] = {
/* columns rows colors chars-per-pixel */
"32 32 2 1 ",
"  c black",
". c #838383",
/* pixels */
"                                ",
" .............................. ",
" .    ......................... ",
" . ............................ ",
" . ............................ ",
" . ............................ ",
" .............................. ",
" .............................. ",
" .............................. ",
" .............................. ",
" .............................. ",
" .............................. ",
" .............................. ",
" .............................. ",
" .............................. ",
" .............................. ",
" .............................. ",
" .............................. ",
" .............................. ",
" .............................. ",
" .............................. ",
" .............................. ",
" .............................. ",
" .............................. ",
" .............................. ",
" ........................... .. ",
" ........................... .. ",
" ........................... .. ",
" ........................    .. ",
" .............................. ",
" .............................. ",
"                                "
};
