/* XPM */
static char *harambe[] = {
/* columns rows colors chars-per-pixel */
"64 64 250 2 ",
"   c None",
".  c #040301",
"X  c #090602",
"o  c #0D0A05",
"O  c #0E0D09",
"+  c #120D05",
"@  c #120D0A",
"#  c #1B1305",
"$  c #14120B",
"%  c #1B150C",
"&  c #191509",
"*  c #1A1612",
"=  c #1D1912",
"-  c #251D0D",
";  c #271B08",
":  c #231D13",
">  c #291E13",
",  c #221F1A",
"<  c #28210D",
"1  c #2B2214",
"2  c #2B241B",
"3  c #28241A",
"4  c #31261A",
"5  c #342B1C",
"6  c #372C1A",
"7  c #3A321D",
"8  c #3C3017",
"9  c #2C2821",
"0  c #332C23",
"q  c #392E26",
"w  c #353224",
"e  c #3B3323",
"r  c #36322B",
"t  c #3C342B",
"y  c #3D392D",
"u  c #3F3925",
"i  c #3E3932",
"p  c #3F3730",
"a  c #433B25",
"s  c #43362A",
"d  c #443B2D",
"f  c #4A3B2C",
"g  c #413425",
"h  c #443C33",
"j  c #4B3F32",
"k  c #463D38",
"l  c #653D24",
"z  c #40351E",
"x  c #4B422C",
"c  c #45412E",
"v  c #52452D",
"b  c #534627",
"n  c #454134",
"m  c #4B4333",
"M  c #46413B",
"N  c #4C443A",
"B  c #4E483B",
"V  c #4D4C34",
"C  c #514533",
"Z  c #544A33",
"A  c #53473B",
"S  c #534B3C",
"D  c #5B4D3C",
"F  c #5B4C34",
"G  c #5B523C",
"H  c #595337",
"J  c #5F522F",
"K  c #614C38",
"L  c #64583C",
"P  c #6C4024",
"I  c #4B411F",
"U  c #4E4943",
"Y  c #4C4640",
"T  c #534C44",
"R  c #5A4E43",
"E  c #565144",
"W  c #5B5344",
"Q  c #5B544B",
"!  c #5C574A",
"~  c #5D5850",
"^  c #645546",
"/  c #63564B",
"(  c #645B4C",
")  c #6A5C4C",
"_  c #685A45",
"`  c #655C53",
"'  c #695D53",
"]  c #604F40",
"[  c #6A6349",
"{  c #73654E",
"}  c #74684A",
"|  c #656155",
" . c #6B6254",
".. c #6C645A",
"X. c #6B675A",
"o. c #726454",
"O. c #746B54",
"+. c #7B6C55",
"@. c #72665A",
"#. c #746B5C",
"$. c #7A6C5B",
"%. c #7A6556",
"&. c #7B725C",
"*. c #7C7355",
"=. c #7C784A",
"-. c #746D63",
";. c #796F65",
":. c #7C7364",
">. c #7C746A",
",. c #777366",
"<. c #76736C",
"1. c #885B3E",
"2. c #88664D",
"3. c #856954",
"4. c #83735C",
"5. c #88775A",
"6. c #97745B",
"7. c #91694E",
"8. c #837463",
"9. c #867A64",
"0. c #8A7964",
"q. c #82776A",
"w. c #837B6C",
"e. c #8A7C6B",
"r. c #8C7665",
"t. c #937C68",
"y. c #847D72",
"u. c #8A7E72",
"i. c #836D60",
"p. c #845C42",
"a. c #8D816D",
"s. c #878466",
"d. c #93836D",
"f. c #99856B",
"g. c #8B8375",
"h. c #8C847B",
"j. c #888376",
"k. c #928474",
"l. c #958976",
"z. c #9C8B75",
"x. c #92877A",
"c. c #938B7C",
"v. c #9B8D7C",
"b. c #9C8675",
"n. c #9C917D",
"m. c #9B9271",
"M. c #A38E7B",
"N. c #A48E77",
"B. c #A3947C",
"V. c #A89678",
"C. c #B19274",
"Z. c #B0A47A",
"A. c #948D83",
"S. c #998E84",
"D. c #9B9283",
"F. c #9D958A",
"G. c #9F9C8F",
"H. c #8F8781",
"J. c #A39484",
"K. c #AA9583",
"L. c #A49B8C",
"P. c #AA9D8C",
"I. c #A89988",
"U. c #B39D88",
"Y. c #A69E94",
"T. c #ACA287",
"R. c #B4A48C",
"E. c #B6A98B",
"W. c #BAAC8E",
"Q. c #B9A786",
"!. c #ACA294",
"~. c #A9A399",
"^. c #B2A593",
"/. c #B9A794",
"(. c #BAAD94",
"). c #B3AB9B",
"_. c #BCAC9B",
"`. c #B3A898",
"'. c #BCB29C",
"]. c #BCB196",
"[. c #B9B08B",
"{. c #B4ADA2",
"}. c #B9AFA2",
"|. c #BDB4A4",
" X c #BCB6A9",
".X c #B5B3AD",
"XX c #C7A589",
"oX c #C6AB97",
"OX c #C4B39B",
"+X c #C7B699",
"@X c #CEB994",
"#X c #C5B5A3",
"$X c #CAB6A5",
"%X c #C3B9A4",
"&X c #CBBBA5",
"*X c #C4BCAB",
"=X c #CABCAC",
"-X c #C7B7A9",
";X c #D3BCAC",
":X c #D7BCA4",
">X c #CCBEB1",
",X c #C3BDB3",
"<X c #CAB6AA",
"1X c #D7C999",
"2X c #D5C48A",
"3X c #CBC2AD",
"4X c #CBC0A1",
"5X c #D5C5AB",
"6X c #DCD2A9",
"7X c #CBC3B3",
"8X c #CEC9BA",
"9X c #C9C3B7",
"0X c #D4C4B4",
"qX c #DAC5B2",
"wX c #D3C9B4",
"eX c #D4CBBA",
"rX c #DACCBB",
"tX c #D9C9B6",
"yX c #DCD2BE",
"uX c #DED6B9",
"iX c #E5D7A5",
"pX c #E5D6BB",
"aX c #E1CFBF",
"sX c #E9E4B1",
"dX c #D5CEC3",
"fX c #DACEC1",
"gX c #DCD3C3",
"hX c #DCD6CB",
"jX c #DBD7CB",
"kX c #CCCAC4",
"lX c #E3D4C4",
"zX c #E3DBCB",
"xX c #E6D9C6",
"cX c #E3DDD2",
"vX c #EBDED2",
"bX c #E5CFC0",
"nX c #E9E1CB",
"mX c #F4E5C7",
"MX c #E6E1D3",
"NX c #EBE3D4",
"BX c #EAE6DC",
"VX c #EDE9DC",
"CX c #E5E3DA",
"ZX c #F2EBDC",
"AX c #F5E4D4",
"SX c #F2EEE4",
"DX c #F2EFE8",
"FX c #F4F2EB",
"GX c #F7F5E9",
"HX c #F8F6EF",
/* pixels */
"                                                                                                                                ",
"                                                            T.+X:X:X+XN.                                                        ",
"                                                          3X&XoXXXoXoXXXB.                                                      ",
"                                                        wX^.K.6.7.6.Z.U.e.o.                                                    ",
"                                                      ).%Xe.8.8.k.b.b.M.J.e.                                                    ",
"                                                      MXt.r.!.=X+XoXoXK.J.J.J.                                                  ",
"                                                    8X|.M.t.t.2.1.7.f.R.I.i.D.>.                                                ",
"                                                    NX_.f.3.p.l l l P 7.U.k.8.v.                                                ",
"                                                  ).%Xk.t.3.2.2.3.%.2.6.V.^.v.j.                                                ",
"                                                  uX|.!./.oX5X#X0XtXqX;X&X&XD.j.                                                ",
"                                                  nX*X|.&XB.9.D.L.v.v.P.b.f.9.X.:.                                              ",
"                                                NXlX*X_.d.4 o + # # , % o < v A l.                                              ",
"                                            *XnXgX0X|.P.0.#.A.>.Q r 3 * , 2 7 x 9.#.                                            ",
"                                        D.gXgXrX>X%X*Xl.v.0.~. XhX}.A.....#.Z 4 E A m #.c.                                      ",
"                                  @.9.l.^.%XrX_.F.L.9Xn.P.k.8.!.8X XY./ A D.G e T Y i W !.Y.                                    ",
"                                n.0.4.4.K.#XK.k.l.v.^.n.L.!.l.|.kX9XG.N | B.) A T k k / !.!.A.                                  ",
"                              A.q.r.d.b.M.M.b.b././._.k.e.!.).~.T -.-.>.:.l._ m i t t / ).~.~.                                  ",
"                          !.}.j.#.o.8.b.r.b.t.M.K.J.#Xl.:.L. X X{.Y.jX:.W ..W s 0 0 r N L.).!.!.                                ",
"                        ). XG.w.) ^ %.e.r.t.r.f.K 8.aX_.>.D.#X).,XcX).O./ m W 1 > 0 0 r w.L.!.F.c.                              ",
"                      |.9X).c.#.' ^ %.r.4.%.+.C f rXAXlXD.c.v.c.L.F.#...W s s % - 4 2 2 ..c.!.h.h.                              ",
"                    J.|.|.~.h...A / %.%.^ ] s 1 _.AXNXAX/.u.q.-.8.:.^ s 2 4 4 1 4 4 4 , @.D.c.j...:.                            ",
"                  w.D.*X}.Y.j.' N / ..W s 4 1 J.NXxXxXaXqX8.S s - + # - , 2 0 4 g s 4 , -.Y.y...W #.                            ",
"                w.j.P.|.Y.D.c.` T T h 4 - e c.lXrXqX;XrXNXU.f 1 2 , % # 1 9 e e g f 0 2 w.!.j.#.n /                             ",
"              X.:.v.J.L.h.c.j.` Q r , 2 / D.=X>X>X;XtXlXlXrXt.6 # # % , 1 0 e t s s 0 0 q.L.-.` N A                             ",
"            j.j.c.c.j.D.y.u.q...Q , 2 c.%X>XtXtX0XqXtXrX0X=X_.K # # % , 0 t t h T h = m l.n...B m c m                           ",
"          h.h.j.D.F.L.L.h.h.-.` i 9 t >.*XxXlX0X>X>X=X$X=X$XM.b.^ , > 4 t t k R ' 0 % N u.D.:.A h m s                           ",
"        ;.D.A.A.A.h.h.:.h.>.` N t T k N <XZXZXfX#X#X<X#X<X#XU.aXOXs e t j m T / ) 2 , / k.D.c...m n s                           ",
"        F.A.H.h.H.h.>.t Q Y h r r Q T @.;XVXSXvX0X<X$X$X;X$XU.rX0Xe.f j R / / / m + 0 j.n.v.c.8...W B N                         ",
"      c.F.A.h.h.>.>.Q 3 i U T ~ -.l.c.l.P.>XhXhXNXtX;X;XqX;XR.0XrX$Xb.^ ' #...Z = X 0 D.P.k.I.:.:.#./ E                         ",
"      !.h.` T U Y T s 9 h A A / e.J.e.W ) 4.J.P.fXxXbXqXqXqX$XrXlXqXqX_.k.%.L 6 X X , y.!.a.c.e.o.a.#./                         ",
"    y.F.-.Q Q ~ T h t r k h / q.%.%.o.R / ) +.+.t._.lXvXxXlX5XxXNXtX0XwX'.{ 6 + + X + ` D.L.`.e.o.&.w.#.B                       ",
"    c.>...` ` Q T i h r t R ..` / ../ W { ) ^ ) ^ { v.=XlXxXeXrXgXrX&XT.+.7 # + % o X h c.J.n.k.O.[ a.w.#.                      ",
"  >.Q ' ..` T ` T N N M Y Q ~ E Q ` Q A ) ^ ) ^ S x R @.).'.8.L.&XN.[ I < # , % , o X r #.%.#.%.:.` :.A.#.                      ",
"  ..T ` -...Q -.Q Q Q U U T M E Q / h A / R A ) ) m A R c.e.e.%Xn.b ; # % 1 4 , = O X 2 h A %.e.w.w.>.D.-.X.                    ",
"  ;...Q -...>.>...-...~ Q N i N Q h 0 h 2 s S o.o.A h t q._.|.tX%X) - - 4 s e , = o   2 B W ^ n.%.:.k.c.D.:.|                   ",
"  c...` >.:.>.-.y.y.>.....T t h y @ X @ 1 j ^ ) ) j s 2 R U.+X0X'.9.x e j A t , % +   N ..A 4.5.Z m w.#.y.j.X.Q                 ",
"    #...-.;.-.-.>.:.!.).#Xv.:.:.e $ X X > f _ ) s > , % 0 %.R.OXB.0.o.C m A w * $ %   | ` Q +.5.F 6 :.:.W #.Q Q ..              ",
"    #.~ -.-.-.-.a.*XCXMXNXeXMXjX%X!.j.W > v K m 2 1 e e 0 N b.+XU.b.4.&.e.:.h $ %       E i _ 4.} F ..-.W ~ T h E ;.            ",
"    ../ -.| ..&.eXDXcXgXdXCXSXNXcXgXzX9X..6 7 1 - u v 7 > s / R.+XU.B.R.^.J.m % 1       T , C L S d.b./ A #.T X.| | >.          ",
"      :.| U N !.FXDXhX>XcXSXzXxXzXeXeXgX!.4 v - - a Z m 1 0 j ) /.P.J.J.v.w.0 1         T = 0 ) @.a.R.+.W k.w.| E n c O.        ",
"      c./ t W jXFXDXCXCXSXNXlXrXeX8X8XzXD.= O.m 4 ) ) *.x 0 h N k.L.u.8.-.Q 0           A $ h #.#.o.d.0.S S #...Q B G G         ",
"        9.) ).VXFXFXSXDXMXyXyXgX9X9XgXzXj.X -.J.G k.%.+.G t 4 t ..u.@.` ` t 0             = 2 , i A / e.^ j ) :...W W / &.      ",
"            }.ZXVXNXVXcXwXwXeXgX8XjXjXeXA N (.E.5.R.} 4.G , 0 0 Q >.| T | r               u + 2 s t A a.8.#.%.8.9./ W ..d.      ",
"            ).zXrX5XeXwXwXeXeXgXjXgXzX*X0 * s 6 8 [ b J - * 2 r T #.` ~ ` 2               s < 1 h m ..o.G N ..j.e.@.#.-.9.      ",
"            |.gX3X|.*X*XeXMXcXhX9X8XzX|.0 X X @ X X + X @ % 9 h N M Q Q h                   F Z W / | A C t s ..h.h.y.:.&.      ",
"            9XeX*X9X9X%XzXVXVXgX9XcXzX9XN X X o X o X o % * h A B N M 9 2                     _ W T Q m C g 4 e Q j.w...G O.    ",
"            eXeX#X*X3XyXSXVXMXeXdXhXzX9X..X X 2 = % % * = , h ~ T n 0 *                         H G m m m f 6 % + 6 C m y G     ",
"            gX0X=X9XwXzXMXgXgXeX*XeXyX9X>.O X y #.n w 2 , , h h N 0 % ,                         L } m h t 4 1 - 4 a a G / [     ",
"            zXgX0XzX9X*XeXwX9X*XeXgX9X|.>.* o w D.Y.A.-.2 3 i k t , $                             } G m A 2 1 a f 7 7 m W [ [   ",
"            zXyXlXlX=X*XwXwX*X9XdX9X|.T.-.@ o 0 A.D.h.Y.` 0 9 9 2 o t                               [ x s 4 - 6 v v Z h B W G   ",
"            yXrXyXyX%XwX9X*X*X9X9X|.).D.| $ O 3 h.Y.Y.!.Q Q T E T h j.h.'.xXSXFX}.                  *.H 4 1 < 4 H L F x s n m   ",
"            ).tXaXrX*XwX3X|.9X8X X|.L.w.B = o 3 / c.c.c.y.!.}.|.*X*X*X%X9XyXMXVXHX~.                } L e 1 - < v L H _ W s V   ",
"              tXwXrX%X3X3X|.,X9X}.).D./ w , * 2 .. X XdX,X8X|.*X|.|.|.'.*XgXMXDXFXVX                  s.x 1 1 < z +.s.5._ m V   ",
"              '.tX5X%X%X*X'.*X X).!.:.N , 3 , y j.9XdXdX9X X}.|.|.'.|.%XwXxXVXFXHXVX                  s.x 4 2 1 7 *.s.s.{ c w   ",
"                tX3X'.|.#X(.|.'.).D.X.r o $ * 4 O.|.*X*X|.`.'.|.&X'.4X1X6XpXVXFXFXGX                  =.Z a e e s _ 5.+._ m w c ",
"                &X+X'.#X`._.#X`.L.y.B ` 0 $ = s d.&X%X&X'.`.'.^.oX1X1X+X6XxXNXZXZXAXT.                =.H m e e a a v [ { A y w ",
"                (.R.R.^.P.!.P.w.%.w.*XmXb.1 , s 4.(.'.(.W.U.+X(.(.W.W.XXpXiXxXnXiX2X1X                [ } G w a s a a a   e 1 2 ",
"                P.n.P.L.v.w.) m m 9.Q.@X[ / G B G b.B.T.E.(.+XOX(.(.].5XuXsX6X@XZ.Z.                        a 7 w               ",
"                T.l.a.0.+._ +.S e e % D.L xX+XA [ &.B.V.R.(.R.].W.E.OX6X1XiX@XW.                                                ",
"                  Z.T.8._ a.J.b.{ C e L.V.Q.pXZ.Z.m.b.+XE.V.V.E.T.Q.@X                                                          ",
"                  m.mXAXv.d.&.8.4.+.) 9.5XK sX+XT.[.Z.Q.m.                                                                      ",
"                      @XoX+._ 9.d.5.0.0.gX                                                                                      ",
"                          5.+X_.(.R.R.U.                                                                                        ",
"                                                                                                                                "
};
