/* XPM */
static char *kaaris[] = {
/* columns rows colors chars-per-pixel */
"64 64 200 2 ",
"   c None",
".  c #020101",
"X  c #0A0604",
"o  c #0D0906",
"O  c #0C0B0B",
"+  c #080708",
"@  c #130B07",
"#  c #140D0B",
"$  c #190F0B",
"%  c #14100E",
"&  c #1C120D",
"*  c #0E0F10",
"=  c #0E1115",
"-  c #141312",
";  c #1D1512",
":  c #1D1815",
">  c #1C1A1A",
",  c #14181C",
"<  c #22150F",
"1  c #221611",
"2  c #241914",
"3  c #2A1C15",
"4  c #241D1B",
"5  c #2B1F19",
"6  c #311F19",
"7  c #25201E",
"8  c #2D211B",
"9  c #2E2017",
"0  c #34241D",
"q  c #38261F",
"w  c #39291F",
"e  c #37281F",
"r  c #1F1F21",
"t  c #242321",
"y  c #2C2422",
"u  c #2C2B2A",
"i  c #2C2926",
"p  c #342622",
"a  c #392721",
"s  c #342924",
"d  c #3B2A23",
"f  c #352D2B",
"g  c #3D2E29",
"h  c #33312D",
"j  c #3D312C",
"k  c #3B3432",
"l  c #3B3A3A",
"z  c #363533",
"x  c #412E26",
"c  c #422F28",
"v  c #433126",
"b  c #44332B",
"n  c #49352D",
"m  c #4D392E",
"M  c #433531",
"N  c #4B3630",
"B  c #443934",
"V  c #4D3A32",
"C  c #433E3A",
"Z  c #4A3E3A",
"A  c #523D34",
"S  c #523E38",
"D  c #4B413D",
"F  c #544136",
"G  c #55423A",
"H  c #5A453B",
"J  c #5D493E",
"K  c #584037",
"L  c #60493E",
"P  c #4D4542",
"I  c #494644",
"U  c #534641",
"Y  c #5B4740",
"T  c #544945",
"R  c #5D4A42",
"E  c #534C4A",
"W  c #5A4D49",
"Q  c #55504E",
"!  c #5C534D",
"~  c #5B5957",
"^  c #624C43",
"/  c #644F48",
"(  c #655146",
")  c #695246",
"_  c #64524B",
"`  c #6B554B",
"'  c #6D594D",
"]  c #715A4E",
"[  c #70574B",
"{  c #6A5651",
"}  c #6C5A53",
"|  c #635C5A",
" . c #6B5E5C",
".. c #655953",
"X. c #735D53",
"o. c #745F58",
"O. c #795E53",
"+. c #62625E",
"@. c #6C615C",
"#. c #6F6155",
"$. c #756155",
"%. c #7A6256",
"&. c #76635B",
"*. c #7B655B",
"=. c #7D695E",
"-. c #626261",
";. c #6C6965",
":. c #766A65",
">. c #7D6B63",
",. c #746C6A",
"<. c #796965",
"1. c #76716D",
"2. c #7A726C",
"3. c #7A7B77",
"4. c #816A5E",
"5. c #81665B",
"6. c #836D63",
"7. c #896D61",
"8. c #826F69",
"9. c #857165",
"0. c #8A7266",
"q. c #84726B",
"w. c #8B756B",
"e. c #8E796E",
"r. c #917A6E",
"t. c #90776C",
"y. c #847572",
"u. c #8B7770",
"i. c #837A76",
"p. c #8D7B73",
"a. c #847C79",
"s. c #8D7E7B",
"d. c #937D73",
"f. c #85837F",
"g. c #8C817D",
"h. c #958176",
"j. c #998275",
"k. c #95827A",
"l. c #9B867C",
"z. c #9D897D",
"x. c #A08B7F",
"c. c #837E81",
"v. c #8D8A86",
"b. c #8C8B89",
"n. c #888583",
"m. c #9B8780",
"M. c #9E8B83",
"N. c #958B88",
"B. c #9B928D",
"V. c #949089",
"C. c #9B9694",
"Z. c #A28E84",
"A. c #A28F88",
"S. c #A49185",
"D. c #A99386",
"F. c #A5928A",
"G. c #AA968C",
"H. c #AC998D",
"J. c #B29B8D",
"K. c #AA9791",
"L. c #AD9B92",
"P. c #A49E9C",
"I. c #B19E94",
"U. c #B29E98",
"Y. c #A9A39E",
"T. c #A1A09C",
"R. c #B5A296",
"E. c #B6A49B",
"W. c #B9A69C",
"Q. c #BCAA9E",
"!. c #A8A5A4",
"~. c #BDABA2",
"^. c #B9B7B5",
"/. c #B8B3AE",
"(. c #C1AEA3",
"). c #C2AFA9",
"_. c #C4B1A6",
"`. c #C4B3AB",
"'. c #C9B6AD",
"]. c #CCB9AF",
"[. c #CDBCB3",
"{. c #D1BFB9",
"}. c #D1BEB7",
"|. c #CFC0B5",
" X c #D1C1B6",
".X c #D4C3BB",
"XX c #DBCABE",
"oX c #C1BCC0",
"OX c #CAC9C8",
"+X c #DBCBC2",
"@X c #D5CAC5",
"#X c #D1D0CF",
"$X c #D8D6D4",
"%X c #DAD9D7",
"&X c #E0D3CA",
"*X c #E7DAD4",
"=X c #E4E5E4",
"-X c #EBEBEA",
";X c #FFFFFF",
":X c #F1E8E3",
/* pixels */
"                                                                                                                                ",
"                                                                                G / / Y H A N s                                 ",
"                                                                            _ ' / L / ) ) / J A N                               ",
"                                                                          #.( / / ) [ O.*.%.%.X./ N j                           ",
"                                                                        g.Y / / ) ] %.4.0.7.7.5.%.' m M                         ",
"                                                                        %Xp.' o.) X.4.0.t.0.4.5.] ] J n j                       ",
"                                                                      $X;X$Xy.X./ X.l.`.[.E.r.0.O.) _ Y N                       ",
"                                                                      OX=X-XB.Y H $.Q.*X:X.Xl.j.4.' X.&.a.                      ",
"                                                                      C.C.%Xg.b H 6.E.[.[.~.l.w.%./ _ a.oXc.                    ",
"                                                                      !.v.#X:.0 A 6.L.K.U.~.u.] ( A N y.!.~                     ",
"                                                                      f.T.OXa.b G e.`.[.`.(.d.6.*.F b <.a.l                     ",
"                                                                   .! +.C.!.E o $ j :.~.|.l.Z._.S.' G :.| l                     ",
"                                                                  k T W -.Q l P Z z t B 9.9.e...j $ X P |                       ",
"                                                                  f - ~ C X X o > i f i k D j f h f s k Z D                     ",
"                                                                    k 3.n.X X X X X X X X X X X o $ $ o % t                     ",
"                                                                    ! 1.n.+ X X X X X X 4 k X X X X X X X                       ",
"                                                                    ;.Q a.- o X X X X X 0.Z.$ X X X X o o                       ",
"                                                                    t f _ - = t > - - G J.J.B X X X X > o                       ",
"                                                                    t - M $ $ 5 Z T Y 6.E.(.w.> X X o l y                       ",
"                                                                    t * o % a / r.D.Z X d j : ! N ; % i -                       ",
"                                                                    t - X X 9 g _ S.D.0.s 4 f >.*.N ; o o                       ",
"                                                                    -.> X X $ p Y >.>.p.&.0.0.k.} T 4 X                         ",
"                                                                  ~ 3., o + X - - ; f W 2.@.Z y P k o o                         ",
"                                                  _ } } } &.&.>.:.a.,.o , - o o o y k s y ; ; X - - o -                         ",
"                                            _ 0.9.%.X.X.X.X.*.*.G 2.Q X - - - o $ 2 Z @...W y % - - -                           ",
"                                          p.e.=.X.$.4.9.h.l.d.*.0 s k X - > o o o + X X o o o o - - -                           ",
"                                      | M.k.e.0.6.k.L.Q.(.D.>.m 2 $ 4 X X - o + o + * = o = - o + * -                           ",
"                                    >.k.M.l.p.M.W.'.{..XW.>.m n b 2 $ o X o - - o o = - * o + o o o 7                           ",
"                                0.=.&.w.M.m.L.[.XXXX[.L.9.( ( *.J 3 % $ X X = , o o X o o o = o o - Z M g                       ",
"                            C.Y.} } ' *.w.k.I.(._.~.R.z.w.h.l.z.=.d 2 $ X X X o o X X X o + o o X X 7 D G B                     ",
"                          !.-Xy.' _ ' *.*.X.] X.e.G.Q.Q.I.I.R.R.l.G 3 % X X X X X X X X X X - o X X $ d ( _ P                   ",
"                          ;X-XB.' J _ &.w.z.e.X.' *.l.H.S.z.x.H.H.e.N 3 X X X X X X X X X = t X X o % 0 N X.<.                  ",
"                        #X;X$Xp.X.' ' *.h.E.~.k.*.%.e.R.R.z.0.4.4.w.4.J 2 X X X X X X X X - > X X % 9 v m N >.^.                ",
"                      n.=X-Xg./ $.6.*.=.d.G.(.E.h.6.0.I. X+X[.E.x.r.4.6.Y % X X X X X X X - r X X 2 b F A b G P.b.              ",
"                      /.=XC.Y G $.w.0.e.l.L.~.E.S.d.d.I.].+X&X+X[.[.(.x.6.g X X X X X X X X * X o 2 b _ 6.w.=.{ ..T             ",
"                    ;.^./._ A J *.p.k.A.I.W.E.G.z.z.Z.W.E.~..X+X.X[.].~.z.( % X X X X X X X X o ; j @.0.M.W.H.=.b T P           ",
"                    f.Y.:.n A / >.h.G.~.(.W.G.M.l.Z.H.I.W.R.~.'.}..XXX[.E.>.0 X X X X X X X o $ < N s.0.I.XXI.%.Y &.y.          ",
"                    a.:.b n G ' 6.l.H.W.E.D.p.d.k.M.G.L.R.W.Q.E.`..X+X.X[.M.' 0 @ o o X X o ; ; 0 n } &.G.W.r.' / y.g.:.        ",
"                  ;.| M 0 N H ( *.w.w.p.l.p.6.8.k.D.I.W.Q.~._.Q.W.W.`.[.[.E.w.' G N g 5 $ % 2 9 b G ' ' r.Z.d.%./ >.N.v.|       ",
"                  1.Z 2 9 b G / } &.X.X.*.$.X.X.w.M.U.E.R.E.I.G.G.I.(..X+XE.d.9.e.p.&.G 3 2 0 b H ' $.$.=.l.l.4.' X.y.C.c.      ",
"                b.@.y % 5 c N G Y / K J ( ( N Y >.m.L.W.I.G.D.M.M.I.(.]._.H.h.9.d.l.w.' b 2 d H ' X.>.6.=.0.w.r.%.' } s.V.      ",
"              +.V.W % $ 2 0 d b N m n N N b 5 G *.M.U.E.I.G.D.m.m.H.(.Q.R.S.w.X.6.d.d.4.H s Y ' X.*./ } *.*.6.6.*./ J _ a.      ",
"              v.1.B o @ < 3 3 3 5 0 d 0 3 2 5 N } Z.~.`.~.E.L.D.G.L.W.W.z.6.' ' 0.G.S.e.( d ] ] X._ N G *.X.' ' ' J F G _ W     ",
"            | a.W 9 X X $ % % $ $ % % $ o % 3 x ' Z.[..X.X~.E.K.L.W.H.H.l.] ) *.G.(.Q.x.4.A H J ( G G B _ o.H F J H A N Z P     ",
"            v.2.j 2 X X $ $ @ X X X X X X % 6 d G 0.E.{..X`.~.E.L.L.R.G.w.X.H X.~. XQ.l.r.w.6.*.=.$.X.b _ o./ b x N N b b k     ",
"          | B...0 q 5 @ $ % % $ X X X X X % 2 0 n / w.E.[.`.~.E.L.L.S.z.4./ m 6._. XR.r.w.j.d.%.X._ H _ *.o._ d 3 w b c d y     ",
"          f.a.Z d b N 9 3 d b n d ; X X X X % 3 0 n / 0.G.W.W.W.L.S.z.w.X./ F k.&X&XW.d.w.d.l.' F N b Y >.8._ s % 3 0 s 0 :     ",
"          2.T x b N N N n G ( ] ( N 2 X X o % 2 0 c G o.p.D.I.G.S.M.h.6./ A m D.*X.XI.d.6.w.j.' ' G G G X.y.T y o $ 2 2 %       ",
"        W T d n G n b N G ' %.4.X.J 5 X X X $ % 0 d n / &.d.D.L.Z.Z.d.*.H b G M.`.L.x.w.0.w.4.F ' N b A _ { M ; X X X X o       ",
"        Z g 0 G { n d N J ' $.*.] G 2 X X X $ % 3 0 d N } 0.p.M.m.d.p.$.A d N w.D.z.r.6.6.4.$.b b x b s G Z 4 o X X X X X       ",
"        s 5 d Y >.Y d b H ( ( ( H x $ X X X X $ % 3 0 N ' X.6.u.p.w.6.} N 3 a 0.M.p.9.5.X.' ) / / / A 9 k f - X X X X X o       ",
"        9 % 0 S *.&.A n H ( / G n 0 X X X X X X $ < 3 n H _ &.*.>.>.&.H 0 $ 9 } 8.>.X.' / / H K H b 2 9 g 4 o X o $ X o -       ",
"      h 2 % 3 b / X.' S H ( / A d % X X X X X X o % 3 0 b G G Y H H N 9 $ X 2 d F Y H G G F F N b 0 0 p y % X X 5 d ; % 4       ",
"      k % $ 3 d S / _ / ( ' Y m 0 X X X X X X X X $ ; ; 2 9 5 p 0 5 % X X 2 N s 9 s d x N b d x g p 5 ; o X X $ b b 2 % 7       ",
"      f $ $ 3 0 b H / ' ' ' H v 2 X X @ $ + X X X X o o X o @ o X X X X 9 G S b 9 2 % 3 0 0 0 0 0 2 ; o X X X % n d 2 2 y       ",
"      y $ $ 3 0 b A Y ' ] ' H d % X X $ $ $ X X X X X X X X X X X - f g G N d 0 9 $ X o @ $ $ % $ @ $ o X X X 2 b a p 5 p       ",
"      > $ % 9 b A G Y ) ' ' A 0 o X X @ $ $ % o X X X X X X X $ } M._ c c d N b s 4 o X X X X X X X X X X X X 5 b b g 9 f       ",
"      - @ ; p N G Y Y ( ' Y b 2 X X X @ % $ % 2 % X X X X % d ( L.2.b a c n { o.G n N 2 X X X X o = X X X X o 0 N b g p p       ",
"      - $ 2 0 A G Y Y / / N d % X X X o % 2 % 2 5 2 < 0 b H A H >.N.y.Y / G { G q 3 d 3 o X X + , , $ X X X $ d A N g s y       ",
"      - ; 5 d A S A A H m b 5 o X X X X $ 3 9 % $ 3 d n c p 0 b N _ 0.>.Y d d p 2 2 2 2 2 X X X o - t X X X % b H N d p y       ",
"      - y 9 d G N b x b b w % X X X X X o 2 b N 3 % 0 b N Y $.d.D.L.K.m.>.Y n d 3 < 2 d  .Z 4 > - - i X X X 2 N F N d p y       ",
"      t j p b S N 9 < 5 0 2 X X X X $ $ o $ 0 A b 2 0 n S / &.d.D.L.D.k.p.' N c 0 2 2 p Y _ b 4 - o y o X X 5 N A b s p p       ",
"      9 s d N / G 2 X $ % $ X X o X @ 2 % $ < d d 3 3 0 c A _ p.G.~.E.L.A.>./ A N n b g b M p 4 > X 7 : X X 3 N A x 9 5 p       ",
"      4 p b ' *.Y 5 X X X X X X   + $ 5 0 3 2 3 6 3 < < 0 b Y *.m.~.).L.D.0._ H N n b b M g 5 y 4 X ; 7 X o 0 N N d 3 4 y       "
};
