/* XPM */
static char *k_10[] = {
/* columns rows colors chars-per-pixel */
"64 64 245 2 ",
"   c #06061D",
".  c #09061D",
"X  c #0B0A1C",
"o  c #070519",
"O  c #170B1D",
"+  c #15111E",
"@  c #060622",
"#  c #090623",
"$  c #060923",
"%  c #090924",
"&  c #050629",
"*  c #0B052B",
"=  c #060B2C",
"-  c #0B0B2B",
";  c #140C22",
":  c #110C2C",
">  c #170825",
",  c #0C1129",
"<  c #1B1323",
"1  c #1C142B",
"2  c #141327",
"3  c #0C0D33",
"4  c #060C3C",
"5  c #0D0D3B",
"6  c #0A0735",
"7  c #120D33",
"8  c #110D3C",
"9  c #130735",
"0  c #0D1135",
"q  c #0E123A",
"w  c #03153F",
"e  c #131235",
"r  c #13123B",
"t  c #1A153C",
"y  c #1A1838",
"u  c #240E22",
"i  c #221426",
"p  c #2B1523",
"a  c #271929",
"s  c #341A2A",
"d  c #3A1C28",
"f  c #291935",
"g  c #341E35",
"h  c #3A222E",
"j  c #2B243A",
"k  c #31243C",
"l  c #372438",
"z  c #352834",
"x  c #491F2C",
"c  c #44232B",
"v  c #48252B",
"b  c #4D2C32",
"n  c #462836",
"m  c #562C33",
"M  c #573339",
"N  c #4E3235",
"B  c #673738",
"V  c #763635",
"C  c #65322F",
"Z  c #754338",
"A  c #0A0F43",
"S  c #120E43",
"D  c #170C49",
"F  c #0D1544",
"G  c #0C1C4B",
"H  c #0A1747",
"J  c #141443",
"K  c #1B1643",
"L  c #161944",
"P  c #1A1B44",
"I  c #13144B",
"U  c #151B4B",
"Y  c #1B1C4B",
"T  c #1A154A",
"R  c #0B1B53",
"E  c #141B51",
"W  c #191A54",
"Q  c #241D48",
"!  c #231D56",
"~  c #1C224E",
"^  c #172148",
"/  c #0D2356",
"(  c #152154",
")  c #1D2253",
"_  c #1C235A",
"`  c #1B265D",
"'  c #0D2A53",
"]  c #21224D",
"[  c #242649",
"{  c #382C48",
"}  c #38344A",
"|  c #232354",
" . c #23255B",
".. c #232A5C",
"X. c #292B5D",
"o. c #282558",
"O. c #362D52",
"+. c #2A3452",
"@. c #0C2A63",
"#. c #182661",
"$. c #0B3766",
"%. c #17386B",
"&. c #0D3771",
"*. c #1E3974",
"=. c #2B2C63",
"-. c #282A67",
";. c #322D67",
":. c #2B3365",
">. c #293A79",
",. c #333675",
"<. c #34356A",
"1. c #44354B",
"2. c #573A45",
"3. c #483B56",
"4. c #4A2C42",
"5. c #693C44",
"6. c #703343",
"7. c #19477A",
"8. c #0E4778",
"9. c #354B67",
"0. c #214379",
"q. c #285679",
"w. c #5F4D4B",
"e. c #5B4456",
"r. c #4F4957",
"t. c #6B444B",
"y. c #7A4748",
"u. c #6E4855",
"i. c #765456",
"p. c #734851",
"a. c #495875",
"s. c #53526A",
"d. c #6C5D76",
"f. c #6A546C",
"g. c #6E6D77",
"h. c #656565",
"j. c #813D3C",
"k. c #87534E",
"l. c #8B5458",
"z. c #8A4F55",
"x. c #8B605A",
"c. c #8E5C6A",
"v. c #A55A66",
"b. c #94666E",
"n. c #184887",
"m. c #165689",
"M. c #1F5D96",
"N. c #295687",
"B. c #186696",
"V. c #18769D",
"C. c #286888",
"Z. c #236295",
"A. c #1975A6",
"S. c #1B7AB3",
"D. c #2673A7",
"F. c #745A81",
"G. c #52718F",
"H. c #6E6A91",
"J. c #667EA4",
"K. c #4E5B85",
"L. c #1D8BB3",
"P. c #1C8EBD",
"I. c #158CB8",
"U. c #1194BD",
"Y. c #1C93BD",
"T. c #139ABF",
"R. c #1899BB",
"E. c #1690B7",
"W. c #2689B8",
"Q. c #2193BE",
"!. c #2F8FB0",
"~. c #5094AE",
"^. c #6583AE",
"/. c #0F9EC0",
"(. c #1D96C1",
"). c #1A9BC5",
"_. c #2296C1",
"`. c #2199C3",
"'. c #239ECB",
"]. c #2A9DCE",
"[. c #2E8EC0",
"{. c #1FABD7",
"}. c #1DB6DA",
"|. c #16A8CC",
" X c #25A5CD",
".X c #25ABD4",
"XX c #24AAD8",
"oX c #3AABD2",
"OX c #2CB9DB",
"+X c #24B7DA",
"@X c #38ACCF",
"#X c #18BDE3",
"$X c #2CBBE3",
"%X c #24BAE2",
"&X c #30BDEA",
"*X c #51ABD4",
"=X c #25C1DF",
"-X c #1CC5EB",
";X c #1CC9EB",
":X c #1ED0EA",
">X c #0DCDF5",
",X c #0FCCF9",
"<X c #13C2F7",
"1X c #13CDF6",
"2X c #14C5F9",
"3X c #14CCFA",
"4X c #19CEFC",
"5X c #1ACAF3",
"6X c #0ED3F6",
"7X c #0DDBF4",
"8X c #0ED4FB",
"9X c #0DDBFB",
"0X c #14D2F6",
"qX c #1BD3F5",
"wX c #12D9F6",
"eX c #16D1FA",
"rX c #12D2FD",
"tX c #15D1FE",
"yX c #11D5FE",
"uX c #15D4FB",
"iX c #19D1FE",
"pX c #1AD4FC",
"aX c #14DAFC",
"sX c #1ADBFD",
"dX c #1ED8F6",
"fX c #0CD2EF",
"gX c #25C3E4",
"hX c #2BCBED",
"jX c #27C8EB",
"kX c #35C4E7",
"lX c #23D5EE",
"zX c #23CBF2",
"xX c #23CAF7",
"cX c #22D4FD",
"vX c #23DAFF",
"bX c #25D3F4",
"nX c #32D1EE",
"mX c #0CE1FD",
"MX c #13E2FD",
"NX c #1BE1FE",
"BX c #14E5F8",
"VX c #23E2FE",
"CX c #24F2FF",
"ZX c #8C99BB",
"AX c #82A6C6",
/* pixels */
"P.P.P.P.P.P.Y.Y.Y.Y.Y.Y.Y.Y.(.(.(.(.(.(.`.`.`.`.(.(.(.(.(.(.(.(.R.Y.Y.Q._.`.`.(.`.(.R.T.(._.Y.U.R.Y.Q._.`.Q.Y.Y.(.(.(.(.(.(.Y.Y.",
"<X<X<X<X<X<X<X<X,X,X,X,X2X2X2X2X,X,X2X2X2X2X2X2XeXeXeXeXeXeXeXeXeX8X8XeXeXeXeXeX8XeXeX,X,XeXpXpXeXeXaXeX8X8X8X8XeXeXeX8XeX8X8X8X",
"<X<X<X<X<X<X<X<X2X2X2X2X2X2X2X2X2X2X2X2X2X2X2X2X2X2X2X2X2X2X2X2X2X2X2X4X2X2X8XeX2XeXpXeX2XeX2X4X,X,XeX2X2XpXeX8X2X2X2X2X,X,X,X,X",
"<X<X<X<X<X<X<X<X2X2X2X2X2X2X2X2X2X2X2X2X2X2X4X4X1X1X1X1X1X1X1X1X2X4X4X4X2XeXeXpX>X0X0X1X1XpXeX2XeXeX2X1X1X2X2X2X2X2X2X2X2X2X2X2X",
"<X<X<X<X<X<X<X<X2X2X2X2X2X2X2X2X2X2X2X2X4X4X4X4X4X4X2X2XeXpXpXpXeXeX1X6X2X4XcXcXeXeXeXeXpXpXpX2X1X2XeXeX8X,X2XpXeXeXeX2XeXeX2X2X",
"<X2X2X2X2X2X2X2X2X2X2X2X2X2X2X2X0X0XeXeX2XeXeXeX0XeXeX0XeXeX0XeXqX0X>X1X2X4XeX0X8X-X+X+XgX:X2X8X6X0X0XeXpXpXeX2XeXeXeXeXeXeXeX2X",
"2X2X2X2X2X2X2X2X2XeX2X2X2X2XeXeXeXeXeXeXeXeXeXeXeXeXeXeXeXeXeXeXsXaX8XpXpXaX0X:X@XG.a.r.9.C.W.XX5XpXeX6X2XpXpX,XeXeXeXeXeX2X2X2X",
"1X1X1X1X1X2X2X2X0X0XeXeXeXeXeXeXeXeXeXeXeXeXeXeX0X0X0X0X0X0X0X0XpX8X2X4XpXwX=X*Xw.5.V C m x k +.S.XXcXaX1XpXpX8XeX0XeX0X0X0X0X0X",
"2X2X2X2X2X2X2X2XeXeXpXeXeXeXeXeXeXeXeXeXeXeXeXeXeXeXeXeXeXeXeXeXpXeX4XfXaXcX~.p.V y.y.B m m d s f %.'.aX6XpXcX2XeXeXeXeXeXeXeXeX",
"2X2X2X2X2X2X2X2XeXeXeXeXeXeXeXeXeXeXeXeXeXeXeXeXeXeXeXeXeXeXeXeX8XsXsX0XsX+Xd.6.C C m m m m c d p y N.#XaXeXpXaXeXeXeXeXeXeXeXeX",
"2X2X2X2X2X2X4X4XeXeXeXeXeXeXeXeXeXeXeXeXeXeXeXeXeXeXeXeXeXeXeXeXsXeXeXsXpX!.l.B 5.5.b v c v b h p u :..XMXeXpXaXeXeXeXeXeXeXeXeX",
"2X2X2X2X2X2XeXeXeXpXpXeXeXeXeXeXeXeXeXeXeXeXeXeXeXeXeXeXaXeXeXaX>X9XaXaXkXa.j.Z y.p.B b c c n d a 1.H.OXaXeXaXwXeXeXeXeXeXeXeXeX",
"2X2X2XeXeXeXeXeXeXeXeXeXeXeXeXeXeXeXeXeXeXeXeXeXeXeXeXeXaXeXeXeX8X8XeX0X~.5.V k.k.y.t.M d s s s s f.ZXkXeXaX0X0XeXeXeXeXeXeXeXeX",
"eXeXeXeXeXeXeXeXeXeXeXeXeXeXeXeXaXaXaXaXaXeXaXaXaXaXaXaXaXaXaXaXeX5XvXbXG.x B x.l.B m c p p s n h d.AXnXaXsX0XsXeXeXeXeXeXeXeXeX",
"eXeXeXeXeXeXpXpXeXeXeXeXeXeXeXeXaXaXaXaXeXeXeXeXaXaXaXaXaXaXaXaX8XpXwXhXH.5.b M t.b h a < p h n 6.F.*XdXeXaXeXaXeXeXeXeXeXeXeXeX",
"eXeXeXeXeXeXpXpXeXeXeXeXeXeXaXaXaXaXaXaXaXeXeXeXaXaXaXaXaXaXaXaXeX8X7XlXJ.b.5.a z a < < X i n c u.^.kXmXeX0XaX0XeXeXeXeXeXeXeXeX",
"eXeXeXeXeXeXeXeXeXeXeXeXeXaXaXaXaXaXaXaXaXaXaXeXaXaXaXaXaXaXaXaXsXaX9X+XK.u.2.f : O o , - { 1.e.H.*XeXMXsXqXaXeXaXaXaXaXaXeXeXeX",
"eXeXeXeXeXeXeXeXeXeXeXeXeXaXaXaXaXaXeXeXaXaXaXeXaXaXaXaXaXaXaXaX7X9XVXL.^ i < > ; < X , 2 { 3.f.^.kXaXaXwXwXaXaXaXaXaXaXaXaXeXeX",
"eXeXeXeXeXeXeXeXeXeXeXeXeXaXaXaXaXaXeXeXaXaXaXaXaXaXaXaXaXaXaXaX7XaX$Xq.1 u O i ; < X ; 1 j { G.oXqX9XaX7XaXaXaXaXaXaXaXaXaXaXeX",
"eXeXeXeXeXeXeXeXeXeXeXeXeXaXaXaXaXaXaXaXaXaXaXaXaXaXaXaXaXaXaXaX9XsX!.O.s a a < O ; X > < 1 O.^.zXmXaXsX7XsXeXaXaXaXaXaXaXaXaXaX",
"eXeXeXeXeXeXeXeXeXeXaXaXeXaXaXaXaXaXaXaXaXaXaXaXaXaXaXaXaXaXaXaXeXaXoXN.| y 1 . X X > g a a 3.~.sXMXaXaXwXsXeXsXaXaXaXaXaXaXaXaX",
"eXeXeXeXeXeXeXeXeXaXeXaXaXaXaXaXaXaXaXaXaXaXaXaXaXaXaXaXaXaXaXaXeX9XVX%X|.L.:.g O u g 4.j p [ q.-XsXaXmXaXsXaXsXaXaXaXaXaXaXaXaX",
"eXeXeXeXeXeXeXeXeXeXeXaXaXaXaXaXaXaXaXaXaXaXaXaXaXaXaXaXaXaXaXaXMXaXaXMXCXhXC.e.n b n z a ; & w Y.qXMXaXaXaX9XsXaXaXaXaXaXaXaXaX",
"eXeXeXeXeXeXeXeXeXeXeXaXaXaXaXaXaXaXaXaXaXaXaXaXaXaXaXaXaXaXaXaXMXsX5X+XY.B.9.l.t.t.N < ; : = 9 Z.:XMXsXwX9X9XpXaXaXaXaXaXaXaXaX",
"eXeXeXeXeXeXeXeXeXeXeXaXaXaXaXaXaXaXaXaXaXaXaXaX0XaXaX9XMXVXlX+X'.V.7.&.%./ 1.c.u.n O ; 7 3 5 J R B.+XVX9X9XaXaX9XaXwX7XaXeXeXpX",
"eXeXeXeXeXeXeXeXeXaXeXaXaXaXaXaXaXaXaXaXaXaXaXaXaXsX>XNXgXL.B.0.@.` ` ;.,.=.O.e.l f : 3 q q r P I R m. XdXaXaXNXeXsXaX7X9XeXsXaX",
"eXeXeXeXeXeXeXeXaXaXaXaXaXaXaXaXaXaXaXaXaXaXaXaXpXmXBX=XB.#.E I E ` =.:.,.X.Q j t K Y Y U Y ~ ] _ ! -.N.W.hXVXaXeXaXaXaX9XeXsXaX",
"eXeXeXeXeXeXeXeXaXaXaXaXaXaXaXaXaXaXaXaXaXaXaXaXaXBX}.Z.R W I R ^ ..:.=.=.| Y L t L _ _ _  .X.=.:.<.<.-.>.D.%XsX9XeX0XsXaXaXaX9X",
"eXeXeXeXeXaXaXaXeXaXaXaXaXaXaXaXaXaXaXaXaXaXaXaX7XgXB.W I ( E I Y  .=.=.X.! K J ] ^ Y Y Y Y W W | | ` .. .-.D.gXMXaXaXsXaX9XaXaX",
"eXeXeXeXeXaXaXaXeXeXaXaXaXaXaXaXaXaXaXaXaXaXaXaXbXA.@.E ! _ U Y ..=.=.=.| L t L Y T J U Y Y U J J J J U K Y 0.D.jXsXaXsXaX9XaXaX",
"eXeXeXeXeXeXaXaXeXeXeXaXaXaXaXaXaXaXaXaXaXaXaXaXOX@.S E =. ._ ..;.=. .| Y L L ~ Y Y Y Y L J r r J J 5 8 t J ( *.W.-XaXeXaXaXaXaX",
"eXeXeXeXeXeXeXaXeXeXeXaXaXaXaXaXaXaXaXaXaXaXaXaXV.U 8 Y <.W  ... ._ ( ~ Y ! ] ] t L ^ L r 3 5 8 q 8 8 3 0 8 I #.n.{.aX8XaXaXaX8X",
"6X0XsXpXeXeXsXpXaXaXeXaXeXaXaXaXaX0XaXaXeXaXsX&X( F q X.=.=.=.;.Y U Y | _ ~ Y r q q r r 3 3 3 3 5 r r & 7 8 r U ;.S.aXpXsXaX0XsX",
"6XpX0X6XsXaX6XaXpXsXsXsXsXaXaXaXNX6XaXsX8XMX}.m.F 3 q X.:.=.| ! J P Y | Y Y L r 3 3 3 3 = = 3 3 3 & = e 3 5 5 F ` B.pXeXwXwXeXaX",
"pX>XeXsXeXeXsXpXeXeXeXaXaXaXaXaXaXsXeX9XvX+Xm.F = = 3 =.:. .Y J J J Y | Y L P r 3 3 = * & = = = q r y : r r 3 f k N.kXsXMX0XeXaX",
" X:XaX2XeXaXaX9XaXaXsXsXaXaXaXaXaXeX9XMX.X7.5 * - - 3 X.=._ P r r J Y ] L r r 3 = = = @ = - @ - = - k g 3.g l c.v.F.oX1XNXsXaX6X",
"d.~.:XaXeX1X0XaXsXsXpXaXeXeXeXeXeXMXNX X7.5 * # - - 7 ....U r r r r L Y J r e 3 - - - - - - . y s h i.2.M n t.b.6.s.+XaXNX0X0XeX",
"v.d.!.:XvXeXaXvXeXaXaXaXaXaXaXaXbXhXW.@.3 * $ # # # 7  . .J 3 3 r r K K r 7 7 = o # - . # o X } c.M N b d h n 4.Q N.:XmXsXsXsXsX",
"l.z.s.C. XjX-X}.qXbXbXhX$X X(.I.V.8./ r : - # * $ - 7 o.W r 3 3 r r r r 7 3 3 & $ @ - . . o X r.b.b p z g g k 3.D M.pXeXeXsXsX8X",
"y.i.t.l G $.%.' m.m.8.&.@./ G H I S S 3 = $ = & = = 7 o.Y q 3 7 t e r r 3 3 = @ = @ o . ; o . 3.i.c u a z a k } 8 B.sXaXaXaXpXaX",
"y.v.k.w.< # * 3 5 5 5 8 8 8 8 r 8 5 = $ $ # - = # * I ..J r = 0 y e = = = - - - X . - . # @ ; g.i.N p i k 3.O.Q 5 A.aXaXwXsXaXeX",
"z.v.l.2.X - * * 5 5 5 5 8 8 r J 0 0 = = - @ $ $ $ & U ..J L 7 0 e e = = = - - - X . - . . # X h.w.h a { } O.t 3 5 A.aXMXsXeXeXeX",
"5.6.5.z 2 @ @ = = 3 3 3 3 5 5 8 = : : * # # - - # * Y | 5 L e 3 e = = = - - - - . . . . X # . } 1.k k } O.| r 3 5 V.aXNXsXeX8XeX",
"a.9.9.+.P * = - = = = 3 7 7 = * = = = = = = # # 4 G _ | J L r 7 : = @ # - - - - o # . X . X o y f y 1 : 3 J P L A A.eXaXsXeXeXaX",
"5X#X}.+XW.$.G 6 3 = = = = = = - * = = # * 6 G @.L.!.0.=.Y L r 3 : = # # - $ - - o - . X o X # 7 t : : = 3 q P X.U S.aX0X0XpXaXaX",
"eXeX8XeXcXXX[.m.@./ H 5 5 7 9 9 6 3 4 A / m._.$XqX$X7.! Y K q 3 : - # # - - $ - @ - - - o X - e t = * = = = 5 _ ` W.NXeX0XpXaXeX",
"0X1X4XpXpX1XpXzX%X XP.A.B.m.8.&.m.m.V.Y..XzXeX9XeX+X*.o.| Y 0 3 2 = # - - @ $ - @ - - # @ X o r r 3 = @ = 3 5 E ` W.sXeX0XpXeXeX",
"eX2X2X2X>XeXeXpXaXpX4XxXxXxXzX-XpXpXpXpXeXaXeXeXsX.X>.o.~ J 3 7 e = - - - @ @ - - o @ & @ - o r P r = = 3 q F ` ` S.eXeXpXeXeXaX",
"2X2X2XeXeXeXeXeXeXeXeXeXeXeXeXeXeXeXeXeXeXeXeXeXaX].,. .Y L = e = = = - # # o # - - - - = = 3 q K r w 4 r P ~ -.-.I.eXsX0X0XeXeX",
"2X2X2XeXeXeXeXeXeXeXeXeXeXeXeXeXeXeXeXeXeXeXeXeXaX].>. ._ Y 0 r = = = - # # @ # - - - - = = 0 r ..Y J q 4 J o.,.m.}.sX2X1XsXeX8X",
"2X2X2XeX2XeXeXeXeXeXeXeXeXeXeXeXeXeXeXeXeXeXeXeXeX'.>. .| Y q r = = - - @ # o o - - - - = : e r  .X.Y F U !  .>.).5XaX2XeXsXeX8X",
"2X2X2XeX2XeXeXeXeXeXeXeXeXeXeXeXeXeXeXeXeXeXeXeX6X X*. .| P 3 e = = - - @ @ @ - # # - - - = = e T X._ I E W n.W.5X8X8XeXeX0XeX9X",
"2X2X2X2X2XeXeXeXeXeXeXeXeXeXeXeXeXeXeXeXeXeXeXeXeX.X*. .| J 3 3 = - - $ - - - - # # . o $ - - = J ^ U #.&.n.'.cXeXaXeXeX6X0XeX8X",
"2X2X2X2X2XeXeXeXeXeXeXeXeXeXeXeXeXeXeXeXeXeXeXeXaX%X*.X.| 8 3 7 = - - @ - - - - # - . . o o @ # r 0 4 8.(.}.pXeXeXpXeX>XeXeX0XeX",
"2X2X2X2XeXeXeXeXeXeXeXeXeXeXeXeXeXeXeXeXeXeXeXeXaXgX7.=.| 5 7 e = - # @ $ $ - - # . . . . o - - 7 r 4 B.pXaXeX2XpXpX0X0XaXeX6XeX",
"eXeX2X2X2XeXeXeXeXeXeXeXeXeXeXeXeXeXeXeXeXeXeXeX8XgX7.=.| 3 7 e = = # @ @ $ - - . . . . . - - - * r I A.pX2XeXeXvXpXpXpXeXaXaX0X",
"2X2X2X2X2X2X2XeXeXeXeXeXeXeXeXeXeXeXeXeXeXeXeXeXaXXX7.:.F 3 = 7 = = # @ $ -   o o o o - - - - - * 3 G {.aX0XeXeXeXeX0XeXeXeXeXeX",
"2X2X2X2X2X2X2X2X2X2XeX2X2X2X2X2XeXeXeXeXeXeXeXeX>XjXZ.T 9 3 r * = = - # - - o o $ - - - - . o o = & H {.aXeXaXeXpXpXpXpXpXpXpXeX",
"2X2X2X1X1X2X1X1X1X0X0X0X1X2X2X2X0X0X0X0XeXeXeXeXeX+X8.J 3 7 = = = = - - - - - - = = - - - - . . : & F .XaX2XpX4XeXeXeXeXeXeXeXeX",
"2X2X2X2X2X2X2XeXpXpXpXpX2X2XeXeXeXpXpXeXpXpXpXpX0X X%.Y q 7 # = : = = - = - - - = = = = = = = = = * J  XaX6XeXpXeXeXeXeXeXeXeXeX",
"2X2X2X2X2X2X2X2X2X2X2X2XeXeXeX2XeXeXeXeXeXeXeXeX,X#XZ.I K : = = = = = # - - - - - - = = = = 7 7 0 7 J '.sX0X0XpX2X2XeXeXeXeXeXeX",
"2X2X2X2X2X2X2X2X2X2X2X2X2X2X2X2X2X2X4X2XeXeXeXeXMXzXM.I K r = = = = # # - - - o - - - = = = 7 7 q 8 A (.sXpX8XeX2X2X2X2X2X2X2X2X",
"2X2X2XeX2XpXpXpX4X4X4X4X4XpXpXpXeXpXeXeXeXeXeXeXsXL./ J r t = 7 = - # # o     o o o o - - = = = J T E ).pXpXeXaXeXeXeXeXeXeXeXeX",
"U.U.U.U.U.U.U.T.T.T.T.T.T.T.T.T.T.T.T.T././././.U.@.9 = e > e = - - o o o   o o o o o o o o o o 3 r P L.|.T././.T./././././.T./."
};
