/* XPM */
static char *k_14[] = {
/* columns rows colors chars-per-pixel */
"64 64 246 2 ",
"   c #06041E",
".  c #09061D",
"X  c #0C0A1D",
"o  c #080316",
"O  c #130C1C",
"+  c #16091C",
"@  c #12101D",
"#  c #20121F",
"$  c #060623",
"%  c #090625",
"&  c #070924",
"*  c #0A0926",
"=  c #050629",
"-  c #0B062B",
";  c #0C0A2B",
":  c #060C2D",
">  c #120C22",
",  c #100D2C",
"<  c #150926",
"1  c #0B122E",
"2  c #1C1424",
"3  c #1B142B",
"4  c #181529",
"5  c #0D0631",
"6  c #050B33",
"7  c #0D0D33",
"8  c #0C0E3A",
"9  c #070737",
"0  c #110D33",
"q  c #130D3B",
"w  c #0D1035",
"e  c #0E113B",
"r  c #06143F",
"t  c #131235",
"y  c #13143B",
"u  c #1B153F",
"i  c #121A3E",
"p  c #1A1735",
"a  c #260C25",
"s  c #231524",
"d  c #29182A",
"f  c #321C2B",
"g  c #381B27",
"h  c #271934",
"j  c #361931",
"k  c #39222B",
"l  c #2E2332",
"z  c #2D2539",
"x  c #272239",
"c  c #3B2532",
"v  c #382C38",
"b  c #2F232D",
"n  c #421C2D",
"m  c #44222B",
"M  c #462429",
"N  c #442533",
"B  c #4A2632",
"V  c #492A36",
"C  c #532C34",
"Z  c #53293A",
"A  c #4A313B",
"S  c #59353A",
"D  c #53292D",
"F  c #65353A",
"G  c #6D413E",
"H  c #0B0C44",
"J  c #0D1241",
"K  c #0C1747",
"L  c #131543",
"P  c #191544",
"I  c #1A1B44",
"U  c #14144B",
"Y  c #141B4B",
"T  c #1B1B4C",
"R  c #181648",
"E  c #0D1B51",
"W  c #1B1C53",
"Q  c #151A58",
"!  c #271E45",
"~  c #211F55",
"^  c #311E4C",
"/  c #1E204E",
"(  c #132148",
")  c #0D285A",
"_  c #1D2153",
"`  c #1C215D",
"'  c #192859",
"]  c #122F57",
"[  c #242349",
"{  c #362A45",
"}  c #383449",
"|  c #222353",
" . c #22255C",
".. c #25295A",
"X. c #372B57",
"o. c #313354",
"O. c #1B1C61",
"+. c #0C1B63",
"@. c #0C2D6A",
"#. c #152966",
"$. c #18346B",
"%. c #163B78",
"&. c #0E3669",
"*. c #242764",
"=. c #252B66",
"-. c #2A2A64",
";. c #252C6B",
":. c #2C2D6B",
">. c #332E6C",
",. c #2E326C",
"<. c #243B6F",
"1. c #273173",
"2. c #3B3D7C",
"3. c #353675",
"4. c #34386D",
"5. c #483747",
"6. c #543543",
"7. c #553746",
"8. c #47324D",
"9. c #683B47",
"0. c #6D3F52",
"q. c #433C65",
"w. c #154779",
"e. c #294577",
"r. c #2F517A",
"t. c #384E73",
"y. c #574554",
"u. c #684549",
"i. c #754648",
"p. c #6B4A59",
"a. c #77575B",
"s. c #6D5159",
"d. c #554D64",
"f. c #4B4A71",
"g. c #785265",
"h. c #6A516C",
"j. c #4C6478",
"k. c #766174",
"l. c #8A565B",
"z. c #8A4C56",
"x. c #8A5A78",
"c. c #8C5963",
"v. c #926366",
"b. c #8D6E74",
"n. c #8D656F",
"m. c #A6717D",
"M. c #174985",
"N. c #185588",
"B. c #1E5B91",
"V. c #254683",
"C. c #2C5792",
"Z. c #3C4786",
"A. c #166A99",
"S. c #1C6C91",
"D. c #26769B",
"F. c #276492",
"G. c #1D72A6",
"H. c #1C7AAB",
"J. c #1569A2",
"K. c #246BA0",
"L. c #2377A9",
"P. c #237FB2",
"I. c #454786",
"U. c #4C5F80",
"Y. c #596B96",
"T. c #4F7795",
"R. c #516789",
"E. c #667294",
"W. c #736985",
"Q. c #517DA5",
"!. c #6079A1",
"~. c #946B95",
"^. c #1D8EB9",
"/. c #1982BA",
"(. c #1E95B9",
"). c #1399BE",
"_. c #1D98BA",
"`. c #1296BD",
"'. c #1B82AB",
"]. c #2787B8",
"[. c #2396BC",
"{. c #398FAE",
"}. c #5B96B7",
"|. c #5C8CB4",
" X c #658DB2",
".X c #149DC2",
"XX c #1C98CA",
"oX c #1697C4",
"OX c #2699C6",
"+X c #369AC5",
"@X c #2A9CD1",
"#X c #1AA4C8",
"$X c #1BA9D5",
"%X c #0FA0CD",
"&X c #28A5CE",
"*X c #27AAD5",
"=X c #28B6DC",
"-X c #35B7DC",
";X c #37A7CA",
":X c #19BCE7",
">X c #28B9E3",
",X c #3AB9E2",
"<X c #23AFE2",
"1X c #4D99C2",
"2X c #48B2D6",
"3X c #57AED3",
"4X c #1DC7E9",
"5X c #0FC8F7",
"6X c #0ECDF8",
"7X c #14C3F7",
"8X c #13CCF6",
"9X c #1BCDF5",
"0X c #15C5FB",
"qX c #14CDFB",
"wX c #19CEFB",
"eX c #1EC7F2",
"rX c #0DD4F6",
"tX c #0DDAF6",
"yX c #0ED5FB",
"uX c #0EDBFB",
"iX c #13D3F6",
"pX c #1AD3F4",
"aX c #1CD9F7",
"sX c #15D5FD",
"dX c #15D3FC",
"fX c #1AD4FD",
"gX c #15D8FE",
"hX c #14DAFC",
"jX c #1ADBFE",
"kX c #1BD0EF",
"lX c #2BC4ED",
"zX c #28C8EB",
"xX c #23CBF4",
"cX c #29CBF6",
"vX c #33CFF1",
"bX c #22D5FC",
"nX c #22DAFE",
"mX c #25D6F7",
"MX c #30CBEE",
"NX c #0BE0FD",
"BX c #14E1FE",
"VX c #1AE1FE",
"CX c #4EC5DB",
"ZX c #928080",
"AX c #899BBF",
"SX c #83A5C8",
/* pixels */
"^.^.^.^.^.^.(.(.(.(.(.(.(.(.(.(.(.(.(.(.(.(.(._._._.(.(.(._._._._.(._._._._._._._._._._.[._._._._._._._._._._._._._._._._._.(.(.",
"0X0X0X0X0X0X0X0X6X6X6X0X0X0X0X0XdXdXdXdXdX0XdXdXdXdXdXdXdXdXdXdXdXdXdXdXdXdXdXdXdXdXdXdXdXdXdXdXdXdXdXdXdXdXdXdXdXdXdXdXdXdXdXdX",
"7X7X7X7X7X7X7X0X5X5X5X5X5X0X0X0X0X0X6X0X0X0X0X0X0X0X0X0X0X0X0X0X0X0X0X0X0X0X0X0XdXdXdXdX0X0X0X0XdX0X0X0X0X0XdXdX0X0X0X0X0X0X0X0X",
"7X7X7X7X7X0X0X0X0X0X0X0X0X0X0X0X0X0X0X0X0X0X0X0X0X0X0X0X0X0X0X0X0X0X0X0X0X0X0X0XdX0X0X0X0X0X0X0XdX0X0X0X0X0X0X0X0X0X0X0X0X0X0X0X",
"0X0X0X0X0X0X0X0X0X0X0X0X0X0X0X0X0X0X0X0X0X0XdXdXwXwXwXwXfXfXfXfX0XdXdXdXdX0XdXdXdXdXdXdXdXdXdXdX0X0XdXdXdXdXdXdXdX0X0X0X0X0X0X0X",
"0X0X0X0X0X0X0X0X0X0X0X0X0X0X0X0XdXdXdXdXdXdXdXdXdXdXdXdXdXdXdXdXdXdXdXdXdXdXdXdXfXdXdXdXdXdX0XwX0X0X0X0X0X0X0X0XdXdXdX0XdX0X0X0X",
"8X0X0X0X0X0X0X0X0X0XdX0X0X0X0X0XdXdXdXdX0X0XdXdXdXdX0X0XdXdXdXdXdXdXdXdXdXdXdXdXdXdXdXdXdXdXdXdXdXdXdXdXdXdXdXdXdXdXdXdXdX0X0X0X",
"7X7X0X0X0X0X0X0X0X0XdX0X0XdXdXdXdXdXdXdXdXdXdXdXdXdXdXdXdXdXdXdXdXdXdXdXdXdXdXdXdXfXwXxXxXwXwXdXdXdXdXdXdXdXdXdXdXdXdXdXdXdX0X0X",
"0X0X0X0X0X0X0X0XdXdXdXdXdXdXdXdXdXdXdXdXdXdXdXdXdXdXdXdXdXdXdXdXdXfXdXdXdXfXdXdXfX=X|.j.t.t.D.#XxXiXfXdXiXfXfXdXdXdXdXdXdXdXdXdX",
"0X0X0X0X0X0X0X0XdXdXdXdXdXdXdXdXdXdXdXdXdXdXdXdXdXdXdXdXdXdXdXdXiXrXdXfXdX0XdXfX[.j.u.F F D h ..N.OXmXgXdX8XdXfXdXdXdXdXdXdXdXdX",
"0X0X0X0X0X0X0X0XdXdXdXdXdXdXdXdXdXdXdXdXdXdXdXdXdXdXdXdXdXdXdXdXfXyXdXgXdXfXfX;Xh.9.i.i.F D V n h ' A.lXgXdXdXdXdXdXdXdXdXdXdXdX",
"0X0X0X0X0X0X0XdXdXdXdXdXdXdXdXdXfXfXdXdXdXdXdXdXdXdXdXdXgXdXdXgXfXdXdXjXdXgX4XR.i.C A F F C Z n g a U L.fXjXdXdXdXdXdXdXdXdXdXdX",
"0X0X0X0XdXdXdXdXdXdXdXdXdXdXdXdXdXdXdXdXdXdXdXdXdXdXdXdXgXgXgXgXdXdXdXdXdXdX;Xh.z.C u.Z m B M B n j h e.>XdXfXiXdXdXdXdXdXdXdXdX",
"dXdXdXdX0XdXdXdXdXdXdXdXdXdXdXfXdXdXdXdXgXgXdXdXgXgXgXgXgXgXgXgXdXfXgXgXgX>XT.9.i.G i.S B m m m g s z Y.,XdXdXdXdXdXdXdXdXdXdXdX",
"dXdXdXdXdXdXdXdXdXdXfXdXdXdXdXdXdXgXdXdXgXgXgXgXgXgXgXgXgXgXgXgXdXjXgXdXgX1Xp.F z.l.i.i.S c f g g d d.AXMXgXrXgXdXdXdXdXdXdXdXdX",
"dXdXdXdXdXdXdXdXdXdXfXdXdXdXdXdXgXdXdXdXgXgXgXgXgXgXgXgXgXgXgXgXuXgXgXgXfXQ.Z F l.v.u.C B f d d g f W.SXvXgXgXdXdXdXdXdXdXdXdXdX",
"dXdXdXdXdXdXdXdXdXdXdXdXdXdXdXdXgXgXgXgXgXgXgXgXgXgXgXgXgXgXgXgXgXdXuXjXkXE.c.V C u.C N f 2 O b g m W.3XjXuXiXfXgXgXgXgXdXdXdXgX",
"dXdXdXdXdXfXdXdXdXdXdXdXgXdXdXgXgXgXgXgXgXgXgXgXgXgXgXgXgXgXgXgXgXrXgXgXzXE.m.9.g k f 2 > X 2 f g 6.E.MXgXgXgXdXgXgXgXgXdXdXdXgX",
"dXdXdXdXdXdXdXdXdXdXdXdXdXdXgXgXdXdXgXgXgXgXgXgXgXgXgXgXgXgXgXgXjXgXgXgX&Xq.u.6.s 2 2 o * X l 5.6.W.3XkXuXgXjXdXgXgXgXgXgXgXgXgX",
"dXdXdXdXdXdXdXdXdXdXdXdXdXdXgXgXdXdXgXgXgXgXgXgXgXgXgXgXgXgXgXgXgXuXjXmXA.t a s + @ > > , > } y.W.}.MXgXgXgXgXjXgXgXgXgXgXgXgXgX",
"dXdXdXdXdXdXdXdXdXgXgXgXgXgXgXgXdXgXgXgXgXgXgXgXgXgXgXgXgXgXgXgXgXBXnX[.' 4 s 2 2 2 O > * 2 8.d.|.-XgXgXjXgXdXiXgXgXgXgXgXgXgXgX",
"dXdXdXdXdXdXdXdXgXgXgXgXgXgXgXgXgXgXgXgXgXgXgXgXgXgXgXgXgXgXgXgXgXgXpXD.^ h s s 2 X X > X 2 { R.-XpXgXiXiXgXgXgXgXgXgXgXgXgXgXgX",
"dXdXdXdXdXdXdXdXdXgXgXgXgXgXgXgXgXgXgXgXgXgXgXgXgXgXgXgXgXgXgXgXBXiXjX*XF.] i O X o O 2 s d { !.vXBXuXgXgXgXgXgXgXgXgXgXgXgXgXgX",
"dXdXdXdXdXdXdXdXdXgXgXgXgXgXgXgXgXgXgXgXgXgXgXgXgXgXgXgXgXgXgXgXgXjXuXnXxX*XD.o.3 + s d k d ! r.*XjXgXgXgXgXBXgXgXgXgXgXgXgXgXgX",
"dXfXdXdXdXgXgXdXdXgXgXgXgXgXgXgXgXgXgXgXgXgXgXgXgXgXgXuXgXgXgXgXgXgXgXjXuXBX,Xj.V N A V l 3 ; 6 B.mXBXdXgXgXgXgXgXgXgXgXgXgXgXgX",
"0XdXdXdXdXdXdXdXdXdXgXgXgXgXgXgXgXgXgXgXgXgXgXgXiXtXBXjXgXBXgXgXjXgXgXgXgXbX{.k.i.u.A s > , 6 6 %.-XjXgXgXgXgXiXgXgXgXgXgXgXgXgX",
"0XdXdXfXdXdXdXdXdXdXgXgXgXgXgXgXgXgXgXgXgXgXgXgXjXtXuXVXgXgXgXgXgXuXBXjXMXOXr.n.l.A s * ; y e P ) M.*XnXuXgXdXgXgXgXgXgXgXgXgXgX",
"dX0XfXdXfXgXfXdXdXdXgXgXgXgXgXgXgXgXgXgXgXgXgXgXgXVXuXuXgXgXuXuXgXbXzXOXK.V...g.A d , 6 y e e J K #.M.&XmXiXVXiXgXgXgXgXgXgXgXgX",
"dXdXdXdXfXgXjXgXgXgXgXgXgXgXgXgXgXgXgXgXgXgXgXgXgXgXgXgXgXgXaXcX*XG.V.e.Z.2...x p i R W Y Y _ _ ~ Q ;.M.].cXgXgXgXgXgXgXgXgXgXgX",
"dXdXdXdXdX8XuXgXgXgXgXgXgXgXgXgXgXgXgXgXgXgXgXgXgXgXgXuXVXlX].N.$.;.2.2.Z.,.~ t R R W `  . .,.4.>.>.3.;.%.].mXuXgXgXgXgXgXgXgXgX",
"dXdXdXyXzX1XeXgXgXgXgXgXgXgXgXgXgXgXgXgXgXgXgXgXgXgXgXgXvXA.#.=.-.3.I.2.,.R P I R | _ _  . . . .*.-. .*.;.C.@XjXgXgXgXgXgXgXgXgX",
"iXyXdXyX2X~.2XuXgXgXgXgXgXgXgXgXgXgXgXgXgXgXgXgXgXgXBXmXOX@.;.;.3.I.2.3.=.P I I ~ R Y _ W R R Y Y R Y U W ,.C.>XgXgXgXgXgXgXgXgX",
"dXiXdX8XCXx.T.gXdXgXgXgXgXfXuXgXgXjXjXgXgXgXgXgXgXyXVX-X%.O.3.3.I.2.,. .R R / | _ R | R R R L L K L q L R ~ $.C.xXBXdXgXgXgXrXgX",
"dXdX+XY.T.h.d.>XgXdXdXdXgXgXtXgXgXgXgXgXjXgXuXuXiXVXpXG.#.2.2.I.2.:. . .R / | | L / _ L L L L y y 6 t t e W *.#.$XBXjXgXgXjXdXgX",
"dXfX|.9.6.6.g. XkXgXjXgXgXgXaXgXjXgXBXgXgXgXgXgXBXtX$X@.>.I.2.3.*.W R _ | | | R y I y 6 e e 0 0 0 6 6 t y L  .;.^.jXgXgXgXgXgXgX",
"rXbX X9.9.A a.x.+XgXdXiXgXiXBXjXgXgXgXgXuXgXgXgXuXVX].Q f.2.2.-.U Y R |  .| I y y 8 0 6 6 ; ; 6 = y L e L L W $.].aXgXgXgXdXgXgX",
"yXpX!.0.u.N Z l.U.kXVXdXfXgXtXgXgXdXgXgXgXgXiXtXBX=Xw.U t.3.-.Y 8 I | |  .R y t ; ; ; ; 6 6 = ; 1 y ; p h h u W L.aXuXdXdXdXgXgX",
"yXxXU.V f a B z.y.D.:XgXgXgXiXgXgXjXgXgXjXgXuXBXxXB.r L 3.=.R y e I | | R y t ; ; ; 6 ; ; ; % 3 h > 5.n.v.s.X.W G.jXgXdXdXdXgXdX",
"yXMXU.j a f u.c.9.{ N.>XnXjXjXiXgXjXgXgXgXtXBXxXD.K ; L >._ P 6 y I [ R y 0 ; ; 6 - % % o s A 7.7.f b.m.9.7.[ W /.gXgXfXdXdXgXdX",
"0XvX1Xr.[ 6.u.i.i.c w w.'.#XbXjXgXfXgXBXrXNXjX@XK * * R -./ 0 6 y R R u t ; $ ; ; $ > l c 6.s.M M k u.6.a , e K OXBXyXdXgXdXdXdX",
"rXeXcXlX+Xr.{ M M d % = 5 Q H.>XxXbXjXgXgXBX`.#.; ; = 8 I t & w I I y t t ; ; ; -   + b.i.A c c g g N 8.q * t ) :XgXjXdXdXdXgXdX",
"yXdXdXdXeX=X{.t.h * * ; 6 9 H ] N.H.OX>XmX*Xw.- ; % - 6 i 6 ; t y y t t t ; ; ; %   s n.u.g d c f a { X.L , ; #.:XgXjXdXdXdXgXdX",
"8XdXdX0XyXjXlX@Xw.8 * * - 0 % ; 6 K E &.w.&.e % * % % w e ; 6 y y t t ; ; ; ; ; * o O a.S g s f l z { [ e y 6 #.eXgXdXdXdXdXgXgX",
"0XrXdXgXdXdXgXjX:X&.= , - = 1 % 0 - ; e 8 6 ; * * % * 6 6 6 t L 6 6 ; ; ; ; * * o o l ZXu.c s d } q.[ L L y 5 w.bXgXdXdXdXdXdXgX",
"0X0XdXgXgXdX0XdXwXG.E - < * ; ; ; < ; 1 0 , ; - * % ; 6 6 t y y ; ; ; ; ; ; * * %   4 s.5.c z { o.! R 4.,.W U N.nXgXdXdXgXdXdXgX",
"dXdXdXdXdXdXdXdX0XlXL.E = % % , ; , , ; 0 , = = * % ; w y y y w ; ; ; * ; ; * * % %   3 z z h 3 y q 8  .3.=.E G.jXdXdXdXdXdXdXgX",
"dXdXdXdXdXdXdXdX0XfXcX].] 8 6 - ; ; ; ; w ; - ; * % 6 L R P t w ; ; * * ; * * * % * % % p ; % ; = - ; 8 ` ;.Q ^.jXdXgXdXdXdXdXdX",
"0X0XdXdX0XwXfXdXdXdXdXwX=XL.$.q - ; * % ; ; & % $ % 6 R _ y 6 t ; ; * * ; * * * * o   ; t t ; = = - ; 8 Q #.Q XXgXdXgXdXdXdXdXgX",
"0X0XdXdXdXdXdXdXdXdX0X5XgXnX<X/.#.J - * & % - $ % 6 ~  .R e y y ; ; * % $ * * ;     * ; t t ; * % - 6 K  .=.+.XXgXgXgXgXdXdXdXdX",
"0X0XdXdXdXdXdXdXdXdXdXdXdXdXfXxX=XH.w.) e 5 5 8 E w.<. .P 6 y 6 ; ; * % $ % * ; * *   % t I y ; ; e L W ,.#.M.cXgXgXgXgXdXdXdXdX",
"0X0XdXdXdX0XdXdXdXiXdXdXfXdXdXfXjXnXxX*XG.w.N.G.*X*Xw.U R y u 6 ; ; ; % % * * ; $ $ * * ; I [ 8 e 6 R ;.:.@.XXjXdXdXdXdXdXdXdXdX",
"0X0XdXdX0X0XdXdXdXdXdXdXdXdXdXiXfXdXyXdXbXxXeXjXuX*X@.U ..P u 6 ; ; ; % % ; ; * ; $ * ; ; I ..| Y _ W #.%.].nXgXdXdXdXdXdXdXdXdX",
"0X0X0XdX0X0X0XdX6XdXdXdXdXgXgXdXdXfXfXfXdXdXdXgXuX*X@.` _ L i 0 ; * * % % * * * * * ; t y 8 L | | ' %.J.$XpXdXdXdXdXdXdXdXdXdXdX",
"0X0X0X0X0X0X0X0XdX0X0XdXdXfXdXiXdXdXgXdXdXdXdXyXgX>X@.:.R R y 0 ; * * % * * * * * * ; t I y e 8 J Y ].cXgXuXyXgXdXdXdXdXdXdXdXdX",
"0X0X0X0XdXdXdXdXfXwXdXyXdXdXdXgXdXdXdXfXdXdXfXdXdX$X1.3.U P 0 ; ; * * % & * * * $ $ % % & w L J 8 H &XjXdXdXdXdXdXdXdXdXfXdXdXdX",
"0X0X0X0XdXdXdXdX5XiXiXiXdXfXdXdXdXdXdXfXdXdXdXgXjX%XV.:.J y w ; ; * * & & * * * % * %   & ; y Y r 9 XXfXdXgXdXfXdXdXdXdXfXfXdXdX",
"0X0X0X0X0X0X0X0XdXdXdXdX0X0X0XdXdXdXdXdXdXdXyXyXgX$X%.W J L y ; * * * % % % % % & $ % % * ; e P U H ^.fXgXdXjX0XiXdXdXdXdXdXdXdX",
"0X0X0X0X0X0XdXdXiXiXdXdX0X0XfXfXdX0XdXdXdXdXdXdXgX=X%.L q y w ; % % % % % % * *     % % % $ ; w R Q OXfXdXfXdXdXiXiXiXdXdXdXdXdX",
"0X0X0X0X0X0X0X0X0X0XdXdX0X0XdXdXdXdXdXdXdXdXdXdXuX<X%.L e i w ; * * * * * % % $ $ % % * % $ & ; L @.$XdXdXfXdXfXdXdXdXdXdXdX0X0X",
"8X0X0X0X0X0X0X0X0X0XdXdXdXdXdXdXdXdXdXdXdXdXdXdXyX/.Q P 6 y y ; * ; ; , ; * %   % % % * % $ % ; 6 N.xXfXdXiXfXfXdXdXdXdXdXdXdXdX",
"8X0X0X0X0X0X0XdX0X0X0X0X0X0X0X0X0X0XdXdXdXdX0XdXiXJ.Q ( w q I - % * ; ; ; ; * * % % % % $ $ $ % 6 F.bXfXfXdXwXdX0X0XdXdXdXdX0X0X",
"0X0X0X0X0X0X0X0X0X0X0XdXdXdXdXdX0X0X0XdXdXdXdXdXwXXX%.L 6 w y ; ; ; - - % ; ; , ; ; ; % $ - % $ $ w.xXdXiXfX0X0X0X0XdXdXdXdX0X0X",
"wX0X0X0X0XwX0XdX0X0XdXdXdXdXdXdXfXfXdXdXdXdXdXdXjX4XN.U 8 w y p ; ; - % % % % * * ; ; ; ; ; ; $ 8 %.lXgXdXjXdXdXdXdXdXdXdXdXdXdX",
"`.`.`.`.`.`.`.`.`.`.`.`.`.`.`.`..X.X.X.X.X.X.X.X.XA.E L w - w ; X X o o o o o o     * & ; ; ; $ % ] #X$XXX.X.X%X.X.X.X.X.X.X.X.X"
};
