/* XPM */
static char *k_15[] = {
/* columns rows colors chars-per-pixel */
"64 64 244 2 ",
"   c #05051D",
".  c #0A061C",
"X  c #0B0A1E",
"o  c #050314",
"O  c #150B1E",
"+  c #060423",
"@  c #090624",
"#  c #070825",
"$  c #0A0925",
"%  c #06052B",
"&  c #0A062B",
"*  c #06092D",
"=  c #0B0A2B",
"-  c #120C24",
";  c #110C2D",
":  c #180C23",
">  c #141224",
",  c #1C1324",
"<  c #15122A",
"1  c #1C162B",
"2  c #0B0432",
"3  c #0C0C33",
"4  c #0C0D3B",
"5  c #070737",
"6  c #110D34",
"7  c #110E3A",
"8  c #150A35",
"9  c #0D1036",
"0  c #0E113A",
"q  c #0A153A",
"w  c #111135",
"e  c #13143B",
"r  c #18153C",
"t  c #15183D",
"y  c #1B1839",
"u  c #0F1024",
"i  c #250C28",
"p  c #211424",
"a  c #2B142A",
"s  c #2C1B2A",
"d  c #281928",
"f  c #341C2C",
"g  c #3B1D2A",
"h  c #361A26",
"j  c #261937",
"k  c #361E34",
"l  c #332129",
"z  c #2E2637",
"x  c #382736",
"c  c #2D212F",
"v  c #2F131F",
"b  c #441C24",
"n  c #43252C",
"m  c #49232C",
"M  c #4A2929",
"N  c #51282E",
"B  c #432A35",
"V  c #482836",
"C  c #572B3A",
"Z  c #583338",
"A  c #67383B",
"S  c #602F2A",
"D  c #0C0B42",
"F  c #060B44",
"G  c #140F46",
"H  c #0C1343",
"J  c #0B124C",
"K  c #0D1A4B",
"L  c #131543",
"P  c #1A1643",
"I  c #161A43",
"U  c #1A1B45",
"Y  c #13154C",
"T  c #151A4A",
"R  c #1B1C4C",
"E  c #1A174E",
"W  c #0B1D53",
"Q  c #1C1D53",
"!  c #161A55",
"~  c #211D4D",
"^  c #271D48",
"/  c #221B56",
"(  c #1D204D",
")  c #13204C",
"_  c #0C2657",
"`  c #1E2154",
"'  c #16255B",
"]  c #2D2746",
"[  c #342C44",
"{  c #39344C",
"}  c #222554",
"|  c #23255C",
" . c #232A5A",
".. c #282B58",
"X. c #2C325B",
"o. c #1A1F65",
"O. c #182667",
"+. c #0C3967",
"@. c #183568",
"#. c #193977",
"$. c #103071",
"%. c #272967",
"&. c #322C6C",
"*. c #2A3268",
"=. c #32366C",
"-. c #292D74",
";. c #312F71",
":. c #2A3775",
">. c #333472",
",. c #393978",
"<. c #443544",
"1. c #573849",
"2. c #5E3451",
"3. c #4A304B",
"4. c #683D48",
"5. c #403E7F",
"6. c #14467A",
"7. c #094376",
"8. c #38427B",
"9. c #344977",
"0. c #56414B",
"q. c #584454",
"w. c #4B4558",
"e. c #634145",
"r. c #784547",
"t. c #694655",
"y. c #744855",
"u. c #6B545B",
"i. c #775458",
"p. c #58597A",
"a. c #4C4E6F",
"s. c #685768",
"d. c #785266",
"f. c #624A60",
"g. c #786678",
"h. c #6B607E",
"j. c #536476",
"k. c #854D55",
"l. c #855352",
"z. c #8C576A",
"x. c #94656B",
"c. c #3C3E84",
"v. c #0B4E86",
"b. c #174983",
"n. c #165388",
"m. c #264489",
"M. c #30548B",
"N. c #1E6394",
"B. c #196F90",
"V. c #13668F",
"C. c #23669B",
"Z. c #366F8E",
"A. c #1C73A4",
"S. c #1A78A8",
"D. c #1B70A9",
"F. c #216DA2",
"G. c #2574A7",
"H. c #3778A2",
"J. c #46488A",
"K. c #525389",
"L. c #6D5F80",
"P. c #467899",
"I. c #5B7094",
"U. c #646F94",
"Y. c #9B6E91",
"T. c #1980AB",
"R. c #1D8FBB",
"E. c #1C86B4",
"W. c #1397BD",
"Q. c #1C94BD",
"!. c #139ABE",
"~. c #1E9BBE",
"^. c #0F95BB",
"/. c #298AB9",
"(. c #2496BD",
"). c #2281AF",
"_. c #5390B3",
"`. c #6887A3",
"'. c #1D96C1",
"]. c #129DC1",
"[. c #1D99C2",
"{. c #1E98C9",
"}. c #0B9FC5",
"|. c #269AC6",
" X c #3593C3",
".X c #18ADD6",
"XX c #1AB5DC",
"oX c #18A4C9",
"OX c #29A5CC",
"+X c #37A7CA",
"@X c #26ACD8",
"#X c #34ABD5",
"$X c #28B6DA",
"%X c #39B2D8",
"&X c #1DBDE4",
"*X c #16BFF8",
"=X c #25BCE4",
"-X c #28B7E5",
";X c #3DBDE2",
":X c #4F98C1",
">X c #49ABCF",
",X c #4DBFE1",
"<X c #74B3D2",
"1X c #1DC7EA",
"2X c #0FCBF6",
"3X c #0EC7F3",
"4X c #15C4F6",
"5X c #13CCF6",
"6X c #1CCDF2",
"7X c #14C4F9",
"8X c #14CDFB",
"9X c #19CEFC",
"0X c #0EDAF6",
"qX c #0ED3FB",
"wX c #0EDBFA",
"eX c #0ED5F4",
"rX c #14D3F6",
"tX c #1BD4F5",
"yX c #14DAF6",
"uX c #1BD9F6",
"iX c #15D5FC",
"pX c #16D5FC",
"aX c #15D3FC",
"sX c #1AD4FC",
"dX c #15DAF9",
"fX c #1ADBFC",
"gX c #1ED0EC",
"hX c #28C6EA",
"jX c #37C5E8",
"kX c #24CCF3",
"lX c #29CDF5",
"zX c #23D4F5",
"xX c #22D5FA",
"cX c #24DCFD",
"vX c #2BD3F6",
"bX c #2DCDF4",
"nX c #14E1FD",
"mX c #1CE2FD",
"MX c #0DE1F9",
"NX c #22E2FC",
"BX c #42C5EB",
"VX c #5BC2E5",
"CX c #9E8BA5",
"ZX c #93ABC3",
/* pixels */
"R.R.R.R.R.Q.Q.Q.Q.Q.Q.Q.Q.Q.Q.'.Q.Q.Q.Q.Q.'.'.'.Q.Q.Q.Q.Q.Q.Q.Q.Q.Q.Q.Q.'.'.'.[.[.[.[.[.[.[.[.[.'.'.'.'.'.'.[.'.'.'.'.'.'.'.'.'.",
"7X7X7X7X7X7X7X7X8X8X8X8X8X8X8X8X8X8X8X8X8X8XaX8XaXaXaXaXaXaXaXaXaXaXaXaXaXaXaXaXaXaXaXaXaXaXaXaXaXaXaXaXaXaXaXaXaXaXaXaXaXaXaXaX",
"*X*X7X7X7X7X7X7X3X3X2X2X5X2X8X8X8X8X8X8X8X8X8X8X8X8X8X8X8X8X8X8X8X8X8X8X8X8X8X8X8X8X8X8X8X8X8X8X8X8X8X8X8X8X8X8X8X8X8X8X8X8X8X8X",
"4X4X7X7X7X7X7X7X8X8X8X8X8X8X8X8X8X8X8X8X8X8X8X8X8X8X8X8X8X8X8X8X8X8X8X8X8X8X8X8X8X8X8X8X8X8X8X8X8X8X8X8X8X8X8X8X8X8X8X8X8X8X8X8X",
"4X4X4X4X4X4X8X8X8X8X8X8X8X8X8X8X9X9X8X8X9X9X9X9X8X8X8X8X8X8X8X8X8X8X8XaXaXaXaXaXaXaXaXaXaXaXaXaX8X8X8X8X8X8X8X8X8X8X8X8X8X8X8X8X",
"7X7X7X7X7X8X8X8X8X8X8X8X8X8X8X8X8X8X8X8XaXaX8XaXaXaXaXaXaXaXaXaXaXaXaXaXaXaXaXaXaXaXaXaXaX8X8X8X8X8X8X8X8X8XaX8X8X8X8X8X8X8X8X8X",
"4X7X7X7X8X8X8X8X8X8X8X8X8X8X8X8X8X8X8X8XaXaXaXaXaXaXaXaXaXaXaXaXaXaXaXaXaXaXaXaXaXaXaXaXaXaXaXaXaXaXaXaXaXaXaXaX8X8X8X8X8X8X8X8X",
"7X7X7X8X8X8X8X8X8X8X8X8X8X8XaXaX8X8X8X8XaXaXaXaXaXaXaXaXaXaXaXaXaXaXaXaXaXaXaXaXaXaXaXaXaXaXaXaXaXaXaXaXaXaXaXaXaXaXaXaXaX8X8X8X",
"8X8X8X8X8X8X8X8XaXaXaXaXaXaXaXaXaXaXaXaXaXaXaXaXaXaXaXaXpXpXpXaXpXwXaXrXaXpXaXaXdXkX+XH.Z.Z./.@XkXpX8XqXaXpXaXpXaXaXaXaXaXaXaXaX",
"8X8X8X8X8X8X8X8XaXaXaXaXaXaXaXaXaXaXaXaXaXaXaXaXaXaXaXaXpXpXpXpXaXrXaXdXaXqXaXwX$XP.t.A Z N z  .N.OXlXdXrXpXaXaXaXaXaXaXaXaXaXaX",
"8X8X8X8X8X8X8X8XaXaXaXaXaXaXaXaXaXaXaXaXaXaXaXaXaXaXaXaXpXpXpXpXpXpXaXdXaXaXpX=Xp.y.r.r.A S M g j ' C.hXdXqXaXqXaXaXaXaXaXaXaXaX",
"8X8X8X8X8X8X8XaXaXaXaXaXaXaXaXaXaXaXaXaXaXaXaXaXaXaXaXaXaXaXaXaXaXpXaXdXaXaX6XP.y.N Z A A Z N m g i Q S.kXaXpX8XaXaXaXaXaXaXaXaX",
"8X8X8X8X8XaXaXaXaXaXaXaXaXaXaXaXaXaXaXaXaXaXaXaXaXaXaXaXaXpXpXpXdXdXrXrX8XqX$Xh.k.Z e.Z N m m n g f j @.@XcXaXaXaXaXaXaXaXaXaXaX",
"8X8X8X8XaXaXaXaXaXaXaXpXaXaXaXaXaXaXaXaXaXdXaXaXaXaXaXdXdXdXdXdXyXpXaXpXdX6X_.4.r.A y.Z V m m n g a z K.#XpXwXdXaXaXaXaXaXaXaXaX",
"8X8X8X8XaXaXaXaXaXaXaXaXaXaXaXaXaXaXaXaXdXdXaXaXaXdXdXdXdXdXdXdXaXpXaXrXdX%Xs.A k.k.k.4.Z n g g d d w.CXBXdXdXpXaXaXaXaXaXaXaXaX",
"8X8X8XaXaXaXaXaXaXaXaXaXaXaXaXaXaXaXaXaXdXdXaXaXdXdXdXdXdXdXdXdXdXdXpXdXcX_.C Z l.x.r.A N h d d f f g.ZXjXaXaXaXaXaXaXaXaXaXaXaX",
"aXaXaXaXaXaXaXaXaXaXaXaXaXaXaXdXaXaXaXaXaXaXaXaXdXdXdXdXdXdXdXdX0XdX0XyXzXI.y.C Z i.Z n l p , d g g g.<XzXdX2XdXaXdXdXaXaXaXpXpX",
"aXaXaXaXaXaXaXaXaXaXaXaXaXaXdXdXaXaXaXaXaXaXaXaXdXdXdXdXdXdXdXdXdXdXyXdXkXU.Y.4.l x x d , O , f g 1.L.,XdXaXaXdXdXdXdXdXaXaXaXpX",
"aXaXaXaXaXaXaXaXaXaXaXaXaXaXdXdXdXdXdXdXdXdXdXdXyXyXyXyXdXdXdXdXdXyXyXwX=Xa.d.t.c s > : $ . s <.V L._.hXaXpXdXaXyXdXdXdXyXaXaXpX",
"aXaXaXaXaXaXaXaXaXaXaXaXaXdXdXdXdXdXdXdXdXdXdXyXyXyXyXyXdXdXdXdXdXdXyXmXT.r a a O > $ : < u [ q.s.`.jXdXrXdXyXdXdXyXyXyXdXyXaXaX",
"aXaXaXaXaXaXaXaXaXaXdXdXaXdXdXyXdXdXdXdXdXyXyXyXdXdXdXdXdXdXdXdXyXrXtX@X@.< , , p > > : : > { a.U.+XtXdXrXdXyXyXdXdXdXyXyXdXdXaX",
"aXaXaXaXaXaXaXaXaXaXdXdXdXdXyXyXdXdXdXdXyXyXyXyXdXdXdXdXdXdXdXdXyXyXzXG.^ j p s , X $ . X > ] p.>XvXdXdXdXdXuXyXdXdXdXdXyXdXdXdX",
"aXaXaXaXaXaXaXaXaXaXdXdXdXdXyXyXdXdXdXdXdXdXdXdXyXyXyXyXyXyXyXyXyXdXuXOXM.} j O . o O : , d ] I.jXNX0XdXdXdXyXdXdXdXdXdXdXdXdXdX",
"aXaXaXaXaXaXaXaXaXaXdXdXdXdXyXyXdXdXdXdXdXdXdXdXyXyXyXyXyXyXyXyXdXaXwXcXhXOXB...: O : d s d j 9.@XcXdX0X0XyXyXtXdXdXdXdXdXdXdXaX",
"8XaXaXrX8XpXpXpXaXaXaXdXdXyXyXyXdXdXdXdXdXdXdXdXyXdXyXdXdXyXdXnXmX0XyXdXdXwXlXj.V g n x d < & 2 n.gXnXrXyXrXdXdXyXyXdXdXdXdXdXdX",
"aXaXqXpXpXaXaXpXaXaXaXdXdXyXyXyXdXdXdXdXdXdXdXdXdX0X0XdXdXyXdXdXyXwXyXwXdXmX%Xg.e.e.B , : ; 3 4 #.$XmXdXyXdXdXdXyXyXdXdXdXdXdXdX",
"aX9XaXpXpXaXpXaXaXaXaXdXdXyXyXyXdXdXdXdXdXdXdXdXdXdXdXdXyXyXdXdXdXdXyXdXdXhXH.z.l.Z p $ & 9 0 T ' b.$XcXyXmX2XnXyXyXdXdXdXdXdXdX",
"aXaXpXaXaXpXdXpXaXaXdXdXdXyXyXdXdXdXdXyXyXdXdXdXdXdXyXdXdXdXdXdXyXdXNXlX|.C.=.d.1.d & 0 0 0 e L Y | b.OXvXuXdX0XyXyXdXdXdXdXdXdX",
"5X8XpXaXpXaXtXdXaXpXdXdXdXdXdXyXdXyXdXdXdXdXdXdXdX0XdXdXyXdXmXmXvX@XE.N.m.:.X.z 1 t R T I U R } / ! &.b./.hXyXdXyXyXdXdXdXdXdXdX",
"8X8XpXaXdX6X>XhXpXpXdXdXdXdXdXyXyXyXdXdXdXdXdXdXyXdXdXpXdXNXhX[.F.#.:.c.J.:.~ e ( ( ` ` } *.*.>.>.*.&.-.m. XcXdXyXyXdXdXdXdXdXdX",
"aXaXaXpXaXjXY.>XaXpXdXdXdXdXdXdXdXdXdXdXdXdXdXdXdXdXdXdXmX$XC.#.O.-.J.J.>.Q P ~ } Q Q |  .*.%.| %.| Q %.,.M.#XtXyXyXdXdXdXdXdXdX",
"aXaXpXpXkX,Xx._.aXaXdXdXdXdXdXdXdXdXdXdXdXdXdXdXdXdXdXnXzXS.O.>.%.J.J.5.&.R I ` ~ R Q ` ` | Q L ! Y T Y %.:.C.hXyXyXdXdXdXdXdXdX",
"aXaXaX XK.p.q.a.hXdXpXtXdXwXnXpXdXdXdXdXyXdXdXdXdXyXyXuX|._ :.-.J.J.,. .( ( ( } } R Q R R R L L e L P L T %.-./.tXdXdXdXyXdXyXaX",
"9XdXrX_.2.1.C d._.gXaXdXaXdXnXdXdXdXdXdXdXdXdXdXyXuXnXhX7.*.8.c.J.,.%.Q R } } } T R R L L e L H 8 0 P 4 L Q *.b.6XdXdXdXyXdXyXyX",
"9XpXbX`.4.t.C z.g.+XdXqXdXrXdXdXdXdXdXdXdXdXdXdXyXdXdXT.' 8.,.J.>.| ` } } } } I T L e e e 4 4 4 4 0 7 7 L Q %.m.&XdXdXdXdXdXdXdX",
"aXpXjXI.y.2.k 1.z.P.xXdXpXdXdXdXdXdXdXdXdXdXdXdX0XMXvX6.&.M.,.>.Q T ` ..} ` R e L 4 e 3 4 3 3 3 0 R 7 L L Y ! :.XXdXdXdXdXyXaXdX",
"pXdX;Xa.V a p V k.a.(.cXrXdXpXdXdXdXyXyXdXdXdXwX0XmX(.' &.8.&.` H T } } ` R L 3 3 3 3 & 3 3 3 & 3 8 ; j 8 r / O.XXdXdXdXdXyXpXdX",
"pXpXVXp.a a n y.z.1.X.|.cXdXrXdXdXdXyXyXdXdXdXdXmXOX+.F *.:.Q L 3 U } } R L 4 3 & & & 3 & + : : 8 : 1.d.y.3./ @.&XyXdXdXyXdXaXdX",
"8XpXBX:XM.X.2.r.r.0.k @.(.hXtXdXdXdXdXdXdXdXdXdX$X6.8 F *.%.T 3 9 U } R L 3 3 & & @ + @ . d x 1.a f.CXx.t.3.G #.1XyXyXyXtXdXdXdX",
"pXaXpXkXhX|.9.V b n d & H $.S.zXdXdXdXdXwXwXdXxXn.F 2 4  .} 3 3 e I R R e 3 3 * & @ ; : d t.Z C h q.y.3.< 7 J n.kXyXyXyXtXdXdXdX",
"pXpXaXaX8XdXjXH.{ j > % 2 2 J N.|.hXxXdXdXnXgXN.7 3 & 3 I e & 8 y y U w w & & @     0.t.4.Z V s f f 3.] 2 4 F V.dXpXaXaXdXaXaXaX",
"5XpXaXaXpXaXpX$XB._ & & & 8 8 F K 7.S.[.6XlXS.J 3 & & 3 e 9 & w e e U 9 8 & @ $   X u.x.V v f c s k w.] 3 4 8 N.dXpXaXaXdXaXaXaX",
"aXpXaXaXpXaXqXpXtXA.4 & & & 3 * e 5 F W +.6.W 5 % + @ w 9 * 3 e w e e 3 3 & @ $ # o 0.i.V d d c s [ { e 0 7 8 G.dXdXaXaXdXaXaXaX",
"pX8XaXaXaXpX9XpXdX.X+.2 w & & 3 & 3 4 4 4 F 2 & + + & w 3 5 e e 3 3 e & 3 & @ @ # . u.u.x p , z 3.[ y L H 7 F ).dXdXaXaXaXaXaXaX",
"aX5XpXaXaXaXaXpXpX6X/.' % 3 % & 3 8 9 0 3 5 8 # @ @ & 3 4 3 e e & & 8 & & & @ @ + $ s.s.<.c z { ] U ..,.| E J '.dXdXaXaXaXaXaXaX",
"8X2XaXaXaXaXrXaXaXaX6XE._ 5 % & 3 & & & 3 9 & & @ + & 7 0 0 e e & & 8 & & $ @ @ $   j { [ z j z w 2 R %.>.| O..XdXdXaXpXpXaXaXaX",
"8X5X5XaXpXpX8XaXaXaXwXzX(.b._ 5 * & w & 2 8 & $ & + & P R L e 8 & & 8 & & $ $ $ @ +   < y < @ 8 & 3 4 J &.%.$.=XdXdXaXpXpXaXaXaX",
"8XpXpXaX2XrXaXpX5XpXaXaXpXvX(.6.4 2 & & & & % & & + 8 R } U 3 w & & 8 & & & $ $ $ + @ & y & & & & & 0 H O.%.$.1XdXdXaXpXpXaXaXaX",
"8X8X8X8XaXaXaXaX8X8XaXaXaXaX9XkXS.+.5 & @ & & + & % Q ..~ e e 8 & & & & & & & &   $ @ & w & + $ @ % H Y *.%.#.kXaXaXaXdXdXdXaXaX",
"8X8X8X8XaXaXaXaX8X8XaXaXaXaXaXaXpX@XS.+.H 2 2 3 F +.:.| R 3 e 9 & & & & & $ & & & & + & r r 3 3 & e L | ;.o.G.vXaXaXaXaXdXdXaXaX",
"8X8X8X8XaXaXaXaX8X8XaXaXaXaXaXqXaXpXxXhX~.V.v.C.|.$XC.Q T 3 r 8 & & & $ $ $ & $ & & & & e } R 4 4 H Q &.o.b.-XpXaXaXaXaXaXaXaXaX",
"8X8X8X8X8XaXaXaX8XaXaXaXpXaXaXaXaXaXaXpXpXkXkXpXpXkXb.!  .e e 3 & $ $ $ $ $ $ $ & % & % 3 } ..R K ` / O.v.OXcXaXpXaXaXaXaXaXaXaX",
"8X8X8X8X8X8XaXaXaXaXaXaXaXaXaXaXdXqXaXaXqXqXaXdXdX=X$.%. .L q e & $ $ $ $ $ $ $ # # w e 3 e `  .| %.#.S.-XdXaXpXaXaXaXaXaXaXaXaX",
"8X8X8X8X8X8XaXaXaXaXaXaXaXaXaXaXdXdXaXaXaXaXaXaXwXXX#.;.Q L e 8 $ $ @ $ $ $ $ $ & & & w t e 4 4 G @.#XxXdXwXdXaXaXaXaXaXaXaXaXaX",
"8X8X8X8X8X8X8X8X8XaXaXaXaXaXaXaXaXaXrXaXaXaXaXaXdXXX#.&.Y P 0 % $ $ @ @ + # $ $ + $ + + & e 0 4 5 W %XdXaXaXpXaXaXaXaXaXaXaXaXaX",
"8X8X8X8X8X8X8X8X8X8XaXaXaX9X8X8XaXaXaXdXaXdXdXaXwX.X#.%.L e 3 & & & @ @ + + $ $ @ @ $ $ + 3 y I 4 F |.dXaXqXaXaXaXaXaXaXaXaXaXaX",
"8X8X8X8X8X8X8X8X8X8X8XaXaXaXaXaX8X8XaXaXaXaXaXaXdX.X#./ Y P 8 & $ @ @ $ $ $ $ @ # $ $ + + * 0 L L J oXdXaXaX8X8XpXpXaXaXaXaXaXaX",
"8X8X8X8X8X8X8X8X8X8X8X8X8X8X8XaXaXaXaXaXaXaXaXaXdX=X#.Y 4 e 9 & $ $ $ @ @ @ @ @   +       $ 3 0 I Q @XdX8XpXpXpXaXaXaXaXaXaXaXaX",
"7X8X8X8X8X8X8X8X8X8X8X8X8X8XaXaX8XaXaXaXaXaXaXaXwX=X#.G L I w & @ $ $ $ X . . @   @ @ .   + % 3 G #.=XdXaX9XrXpXaX8XaXaXaXaXaXaX",
"7X8X8X5X8X8X8X8X8X8X8X8XaXaXaXaX8XaXaXaXaXaXaXaXaXE.O.G 0 I 7 * @ & & & $ $ @ @ @ $ $ @ @ + & 3 D N.tXpXpXrXpXtX8XaX8X8X8X8X8XaX",
"7X7X8X8X8X8X8X8X8X8X8X8X8X8X8X8X8X8X8X8X8XaXaXaXrXD.! ) 0 e P 3 & & & ; ; ; & $ @ @ @ . + $ & & 4 F.dXpXpXaXpX5X8X8X8X8X8X8X8X8X",
"7X8X8X8X8X8X8X8X8X8X8X8X8X8X8X8X8X8XaXaXaXaXaXaX9X{.$.Y 7 3 e w & & & $ & ; & & & & @ + % % & @ 5 b.6XaXaXaXaX8X8X8X8X8X8X8XaXaX",
"8X8X8X8X8X8X8X8X8X8XaX8X9X9X9X9XaXaXaXaXaXaXaXaXdX1Xn.E L q t y & & & @ @ @ & & ; ; & & 3 & & $ 5 6.9XdXaXpXaXpXaXaXaXaXaXaXaXaX",
"^.W.W.W.W.W.W.W.W.W.W.W.W.W.W.W.W.W.W.W.].].].].}.V.! Y 7 % e ; X X X X o o   .     # $ & & $ X @ +.oXoXW.W.].W.].].].W.].].W.W."
};
