/* XPM */
static char *k_3[] = {
/* columns rows colors chars-per-pixel */
"64 64 241 2 ",
"   c #030317",
".  c #05041C",
"X  c #09061D",
"o  c #06091D",
"O  c #0A071A",
"+  c #120C1C",
"@  c #0E151D",
"#  c #060623",
"$  c #090625",
"%  c #050924",
"&  c #0A0A25",
"*  c #060529",
"=  c #0B052B",
"-  c #060A2A",
";  c #0B0B2B",
":  c #110C23",
">  c #110C2D",
",  c #160925",
"<  c #0B122D",
"1  c #11122D",
"2  c #1B132A",
"3  c #171524",
"4  c #0A0332",
"5  c #050C31",
"6  c #0C0D32",
"7  c #0B0D3B",
"8  c #060739",
"9  c #110D33",
"0  c #130D3C",
"q  c #130633",
"w  c #0C1133",
"e  c #0C133B",
"r  c #05123A",
"t  c #121234",
"y  c #13143B",
"u  c #141A3D",
"i  c #1B193C",
"p  c #1A1437",
"a  c #23152B",
"s  c #29162C",
"d  c #231B2D",
"f  c #291727",
"g  c #371B2D",
"h  c #251531",
"j  c #281937",
"k  c #311B34",
"l  c #392228",
"z  c #2B2436",
"x  c #3B2638",
"c  c #232126",
"v  c #42212C",
"b  c #462935",
"n  c #572B35",
"m  c #4E3036",
"M  c #573237",
"N  c #582A2E",
"B  c #643539",
"V  c #43172E",
"C  c #52403E",
"Z  c #70433D",
"A  c #0B0C46",
"S  c #140D42",
"D  c #140C4C",
"F  c #0D1342",
"G  c #0D1649",
"H  c #131544",
"J  c #1A1543",
"K  c #151A44",
"L  c #1B1B43",
"P  c #14144B",
"I  c #1B164A",
"U  c #151A4A",
"Y  c #1B1B4B",
"T  c #0E1C56",
"R  c #1B1C52",
"E  c #141957",
"W  c #150E51",
"Q  c #211C45",
"!  c #231E4C",
"~  c #241E57",
"^  c #1B244A",
"/  c #0C2756",
"(  c #1B2251",
")  c #12235E",
"_  c #182656",
"`  c #10315D",
"'  c #24244B",
"]  c #272547",
"[  c #372944",
"{  c #3A3148",
"}  c #222454",
"|  c #24245B",
" . c #2B295A",
".. c #28365E",
"X. c #121C61",
"o. c #241F62",
"O. c #0B2A64",
"+. c #172866",
"@. c #14356E",
"#. c #133866",
"$. c #0D3C77",
"%. c #163976",
"&. c #0C3366",
"*. c #282966",
"=. c #34377A",
"-. c #30346E",
";. c #442A46",
":. c #553749",
">. c #483856",
",. c #4C384E",
"<. c #663945",
"1. c #6E3E4C",
"2. c #39435E",
"3. c #14437B",
"4. c #1B557C",
"5. c #13456E",
"6. c #304969",
"7. c #5C4B59",
"8. c #794447",
"9. c #704E56",
"0. c #5B4F6D",
"q. c #6A506C",
"w. c #606477",
"e. c #814443",
"r. c #8A5757",
"t. c #904E57",
"y. c #865668",
"u. c #906C6E",
"i. c #163F81",
"p. c #283F82",
"a. c #1A4987",
"s. c #0C5786",
"d. c #135C8B",
"f. c #1A598A",
"g. c #145D91",
"h. c #195D91",
"j. c #294686",
"k. c #385588",
"l. c #245C95",
"z. c #274C90",
"x. c #17618D",
"c. c #196798",
"v. c #226299",
"b. c #326D97",
"n. c #267395",
"m. c #20638E",
"M. c #1A77A8",
"N. c #1D7CB3",
"B. c #1664A4",
"V. c #2768A5",
"C. c #2A7BB1",
"Z. c #267AA9",
"A. c #4F6D90",
"S. c #6D708A",
"D. c #807788",
"F. c #1D8EB9",
"G. c #1988B3",
"H. c #0F92BC",
"J. c #1094BE",
"K. c #1D95BA",
"L. c #1399BF",
"P. c #1D9ABC",
"I. c #1F94B5",
"U. c #1787B1",
"Y. c #3787AC",
"T. c #2584B6",
"R. c #2195BA",
"E. c #2696B8",
"W. c #3190B2",
"Q. c #4D89A9",
"!. c #6A96B5",
"~. c #198DC2",
"^. c #149CC3",
"/. c #1A9DC6",
"(. c #0F99C0",
"). c #2797C5",
"_. c #2F92C2",
"`. c #13A1C9",
"'. c #1BA7CA",
"]. c #1DB6DD",
"[. c #1FA9DA",
"{. c #27A5CA",
"}. c #27A8D5",
"|. c #26B5DB",
" X c #36AED2",
".X c #1CBBEA",
"XX c #23BAE3",
"oX c #26B9E5",
"OX c #6599C1",
"+X c #53ABCE",
"@X c #40BEE7",
"#X c #1DC5EA",
"$X c #1ECAED",
"%X c #1DC3E4",
"&X c #0DCCF6",
"*X c #0DCEFC",
"=X c #15C4F6",
"-X c #13CBF6",
";X c #1ACCF4",
":X c #14C5FB",
">X c #14CDFB",
",X c #1ACDFD",
"<X c #1AC5F9",
"1X c #0DD2F5",
"2X c #0DD9F6",
"3X c #0ED3FB",
"4X c #0EDBFC",
"5X c #07D2F6",
"6X c #14D2F6",
"7X c #1CD4F6",
"8X c #12D9F6",
"9X c #1BD9F6",
"0X c #15D1FE",
"qX c #16D1FD",
"wX c #13D4FD",
"eX c #12D4FF",
"rX c #14D4FB",
"tX c #19D1FF",
"yX c #1AD3FC",
"uX c #14DAFC",
"iX c #1ADBFD",
"pX c #18D1EF",
"aX c #24C2E6",
"sX c #29C5EA",
"dX c #33CCEC",
"fX c #23CCF3",
"gX c #28C8F4",
"hX c #23D5F6",
"jX c #21D4FC",
"kX c #22DBFD",
"lX c #2CD7FB",
"zX c #2CD2EF",
"xX c #0DE1FF",
"cX c #14E2FE",
"vX c #1BE2FE",
"bX c #1AE9FF",
"nX c #22E2FF",
"mX c #BC9698",
"MX c #B3A09C",
"NX c #80A2AB",
"BX c #C0988E",
/* pixels */
"F.F.F.F.F.K.K.K.K.K.K.K.K.K.K.K.K.K.K.K.K.K.K.K.R.K.K.P.P.K.K.K.R.P.P.R.K.P.P.R./.K.I.R.R.P.P.).P.P.P.P.P.P.P.P.R.R.R.K.K.K.K.K.",
":X:X:X:X:X:X:X:X:X:X-X-X-X-X-X-X-X-X-X-X0X0X0X0X0X0X0X0X0X0X0X0X-X2X2X2X0X4X8X8X2X8XtX0X0X0X0X0X0X0X0X0X0X0X0X0X0X0X0X0X0X0X0X0X",
":X:X:X:X:X:X:X:X:X:X-X-X-X-X-X-X-X-X-X-X-X-X-X-X-X-X-X-X-X-X-X-X0X-X-X-X-X2X-X,X-X,X,X-X-X0X-X-X-X-X-X-X-X-X-X-X-X-X-X-X-X-X-X-X",
"=X=X=X=X=X=X=X=X:X:X:X-X-X-X-X-X-X-X-X-X-X-X-X-X-X-X-X-X-X-X-X-X0X-X-X-X*X2X0X0X0X0X0X8X0X-X-X;X-X-X-X-X-X-X-X-X-X-X-X-X-X-X-X-X",
":X:X:X:X:X:X:X:X:X-X-X-X-X-X-X-X,X,X,X,XtXtX,XtX-X-X-X-X0X0X0X0X0X-X-X-X-X-X,X0XtX-X&X-X0X0X-X-X0X0X0X0X0X0X0X0X0X0X0X-X0X0X-X-X",
":X-X-X-X-X-X-X-X-X-X,X,X-X-X-X-X-X-X-X-X0X0X0X0X0X0X0X0X0X0X0X0X6X;XtX0X8X0X0X,XtXtX0X0X0XtXtX-X0X0X0X0X0X0X0X0X0X0X0X0X-X6X6X-X",
":X:X-X-X-X-X-X-X-X-X-X-X-X-X0X0X-X-X0X0X0X0X0X0X0X0X0X0X0X0X0X0X-XtXtX0X0X.X}.{.{.XXjX0X0X0X0XtXtXtXtXtXtXtXtXtX0X0X0X0X0X-X0X0X",
":X:X-X-X-X-X-X-X-X-X-X-X-X-X0X0X-X-X0X6X0X0X6X0X6X6X6X6X6X6X6X6XtXiX8X%XW.A.7.:.;.2.n.`.;XtXtX-X0X0X0X0X0X0X0X0X0X0X0X0X-X-X0X-X",
"-X-X-X-X-X-X0X-X0X0X0X0X0X0X0X0X0X0X0X0X0X0X0X0X0X0X0X0X0X0X0X0XtX;XvXQ.9.t.e.8.n v x ^ m.{.2X8X0X0X0X0X0X0X0X0X0X0X0X0X0X6X6X6X",
"-X-X-X-X-X-X0X0X0X0X0X0X0X0X0X0X0X0X0X0X0X0X0X0X0X0X0X0X0X0X0X0XtXkX{.q.t.r.1.N n b g h Y 3.{.8X0X0X0X0X0X0X0X0X0X0X0X0X0X0X6X6X",
"-X-X-X-X-X0X0X0XtX0X0X0X0X0X0X0X0X0X0X0X0X0X0X0X0X0X0X0X0X0X0X0X8X#XA.r.r.m N b x g g f h I v.;X0X0X0X0X0X0X0X0X0X0X0X0X0X0X0X0X",
"-X-X-X-X0X0X0X0XtX0X0X0X0X0X0X0X0X0X0X0X0X0X0X0X0X0X0X0X0X0X0X0X4XoXS.r.Z M 7.b f f f d d j k.gX0X0X0X0X0X0X0X8X0X0X0X0X0X0X0X0X",
"-X-X-X-X0X0X0X0XtXtX0X0X0X0X0X0X0X0X0X0X0X0X0X0X0X0X0X0X0X8X8X8X8X{.w.8.B B 8.M v g a a a ;.!.fX0X0X0X0X0X0X8X8X0X0X0X0X0X0X0X0X",
"-X-X-X0X0X0X0X0XtXtX0X0X0X0X0X0X0X0X0X0X0X0X0X0X0X0X0X0X8X8X8X8XfXQ.9.N B t.e.B m l f f j >.OXtX8X8X8X8X0X0X8X8X8X0X0X0X0X0X0X0X",
"-X-X0X0X0X0X0X0X0X0X0X0X0X0X0X0X8X8X0X0X8X0X0X0X8X8X8X8X8X8X8X8X|.q.<.b M r.8.B g f k d a [ Y.nX8X8X8X8X0X0X0X8X8X8X0X0X0X0X0X0X",
"-X-X0X0X0X0X0X0X0X0X0X0X0X0X8X8X8X0X0X0X8X8X0X0X8X8X8X8X8X8X8X8X Xq.9.<.l m <.v h d f j h j Y.4X8X8X8X8X0X0X8X8X8X8X8X0X0X0X0X0X",
"0X0X0X0X0X0X0X0XtXtXtX0X0X8X8X8X8X8X8X8X8X8X8X8XiX8X8X8X8X8X8XvX~.>.u.y.b f z d 2 & 1 d j k.sX2X8X8X8X8X8X8X8X8X8X8X8X8X0X0X0X0X",
"0X0X0X0X0X0X0X0XtXtX0X0X0X8X8X8X8X8X8X8X8X8X8X8XiX8X8X8X8X8X8XiXU.>.9.:.;.j > & & & d 0.A. X7X4X8X8X8X8X8X8X8X8X8X8X8X8X0X0X0X0X",
"0X0X0X0X0X0X0X0XtX0X0X0X0X8X8X8X8X8X8X8X8X8X8X8X0XtX8X8X8XvX8XjXn.p d d 2 3 1 > : 3 x S.+XvX4XvX8X8X8X8X8X8X8X8X8X8X8X8X0X8X0X0X",
"0X0X0X0X0X0X0X0X0X0X0X0X0X8X8X8X8X8X8X8X8X8X8X8X8XiX8X8XiXvX8XgX5.p d 2 a 2 2 2 > 3 ,.A.dX4X4X8X8X8X8X8X8X8X8X8X8X8X8X8X8X8X8X8X",
"0X0X0X0X0X0X0X0X0X0X8X8X0X8X8X8X8X8X8X8X8X8X8X8X8X8X8X4XiX8X8XgX .h a 2 a a 2 1 : : >.Y.9X8XiX8X8X8X8X8X8X8X8X8X8X8X8X8X8X8X8X8X",
"0X0X0X0X0X0X0X0X8X8X0X8X8X8X8X8X8X8X8X8X8X8X8X8X8X8X8X8X8X8X8XgXb...k f a : + X < , >. XvXiXiX8X8X8X8X8X8X8X8X8X8X8X8X8X8X8X8X8X",
"0X0X0X0X0X0X0X0X0X0X0X8X8X8X8X8X8X8X8X8X8X8X8X8XiX8X8X8X8X8X8XiX9XW.{ a 2 & O + & 2 [ Y.iXvX8X4X8X8X8X8X8X8X8X8X8X8X8X8X8X8X8X8X",
"0X0X0X0X0X0X0X0X0X0X0X8X8X8X8X8X8X8X8X8X8X8X8X8XtX0X8X8X8X4X8XbXoXc.[ x j 2 a 2 2 @ % 5.#XxXiX2X8X8X8X8X8X8X8X8X8X8X8X8X8X8X8X8X",
"0X0X0X0X0X0X0X0X0X0X0X8X8X8X8X8X0X8X0X0X5X8X2X8X4X8XiXvXiX%X`.G.@.F [ <.m N b c : > & G T.zXvX0X8X8XiXiX8X8X8XtX8X8X8X8X8X8X8X8X",
"0X0X0X0X0X0X0X0X0X0X0X8X8X8X8X8XvX8X8XxX8X8XvX8X8X$X}.T.h.$.O.T ( y j :.8.8.b 3 & % ; 7 / Z.dXvX8X8XiXiX8X8X8XiX8X8X8X8X8X8X8X8X",
"0X0X0X0X0X0X0X0X8X8X8X8X8X8X8X8XiX0X8X5X8X8XhX].M.h.@.T P P Y R Q ' Q ;.8.B f ; ; ; - 7 S T c.sXiX8X8X8X8X8X8X0X8X8X8X8X8X8X8X8X",
"0X0X0X0X0X0X0X0X8X8X8X8X8X8X8X8X6X8X8X8XvX%XT.a.T T E E R ( Y Y Y  .! j { j ; 0 p y y K Y P O.l.}.jXvX4XiX8X8XiX8X8X8X8X8X8X8X8X",
"0X0X0X0X0X8X8X8X8X8X8X8X8X8X8X8X8X0X8XnX].Z.*.S H H P U U U Y Y P H J j j u e Y Y J ! ' ( | *.o.z._.jXvX8X8X8XvX8X8X8X8X8X8X8X8X",
"0X0X0X0X0X8X8X8X8X0X8X8X8X8X8X8XiXtXiXoXV.=.U e e 7 7 0 J Y I H H y J Q i y K Y Y Y Y ! ! ( | | *.j.T.aX8XvX8X0X8X8X8X8X8X8X8X8X",
"0X0X0X0X0X0X8X8X0X0X0X8X8X8X8X8X8XvXfXC.-.~ r 7 0 0 y H K K K G Y J Q J t y H H J H Y R S H Y U P ~ +.h.|.iX2X8X8X8X8X8X8X8X8X8X",
"0X0X0X0X0X0X8X8X0X0X0X8X8X8X8X8X4XiX}.%.*.R 5 y F H H U Y Y Y U H J i t e H H K y H I Y I H F u H U U E h.XXbXxX8X8X8X8X8X8X8X8X",
"0X0X0X0X0X0X0X0X8XiX0X2X8X8X0X8X4X9XV.T F y e y e e H Y Y K y y y ' J y y y y y y y y y y y y y y K e y ( v.kX4XtX8X8X8X8X8X8X8X",
"0X0X0X0X0X8X0X0X8XiX6X2X8X8X2X8X8XXXz.P 7 9 y K e H H U K H y y i ' J y y t y y y y y y y y y y y e 7 7 F $.|.iX8X8X8X8X8X8X8X8X",
"0X0X0X0X0X8X8X8X8X8X8X8X8XiXiX8XvX).+.0 7 ; J ^ H H H H y y w 7 J ' y t t 7 t t 7 7 7 7 w 7 w 7 7 7 7 7 5 W N.kX8X8X8X8X8X8X8X8X",
"0X0X0X0X0X8X8X8X0X8X8X9XtXiXiXiXhXV.P 7 ; ; ' } H H H y 7 w ; ; ' i t 7 t 7 7 7 ; ; ; ; ; ; ; ; ; ; t y 7 D a.fXiXiX8X8X8X8X8X8X",
"0X0X0X0X0X0X8X8X0X8X6X6XiX8X2XkX).@.8 ; & ; Q } U H y w 7 ; ; ; ' y 7 7 7 7 ; ; ; ; ; ; ; ; ; ; 7 ; y y K P %.oXiXiX8X8X8X6X6X6X",
"0X0X0X0X0X0X0X0X0X8X8X0X8XvXkX|.%.A 5 ; & ; y } J y w 7 ; ; ; 9 ' t ; ; ; ; ; ; ; ; ; ; & ; & & 7 ; t t y U +.{.4X8X8X8X8X8X8X8X",
"0X0X0X0X0X0X0X0X0X8XiX8X0XkX}.d.7 4 ; & & ; y } J w ; ; ; ; 7 y i 1 1 ; ; ; ; ; & & & & & & & & 7 ; w 7 w e ) ).8X8X8X8X8XiXiX9X",
"0X0X0X0X0X0X0X0X0X8X2X8XkX|.d.8 * ; & % & ; J ( J 7 - ; ; = 7 i t ; t ; ; ; ; ; # # # # # # # # 7 ; w w 7 e E ).vX8X8X7XaX X+X+X",
"jX&X0X0X0X0X0X8X8XiXkXsXR.4.G = % & % # , & < J y - ; ; ; ; > i = = ; & & & & &     & # & & & ; 7 q w r e t e E.iXgXoX+XA.>.:.y.",
"}.gXlX$X7XiX;XaX|.K.c.3.) F - ; = #     # ; u Q w ; 7 ; * ; t i = = ; & & & & &   X & # &   & 9 w > w w e y 0 f.nX+XS.7.:.V b 0.",
"..f.d.s.c.M.d.3.O.T P P H w - & = - & & % ; y J - 7 7 ; ; > i t = = ; & & & & & X X         ; t ; 7 w 7 7 y I 3.dXNXr.m x g x ] ",
"b p 7 8 7 y 0 9 e e e y w ; & , * = ;     t t u - 7 7 ; ; > i ; # # & & # & & &   X         & y t 7 - ; 0 H F #.!.MXr.{ z k ] ..",
"M 3 ; y 9 = 7 7 7 7 w t ; & % % # # < # r 5.K ; ; 7 ; t 7 ; t ; # # # # & & & &       X X   - u y e r ; t H H w.MXBX9.:.g k 6.W.",
":.2 ; > ; 7 7 7 ; ; w w ; ; ; - %   & q d.'.` & w ; ; t t ; > ; # # # # # # # #       X X   - K 7 7 1 ; ; 5 j D.mXu.7.7.2.b.|.7X",
"] w = > & ; ; > ; w 7 ; > > ; # ; & r @.[.lX&.> t ; w t w ; ; ; # # # # # # & & # #   X     - ^ 7 ; 7 w w w 9 ,.7.,.{ 6._.fXiX8X",
"n./ 4 ; % ; ; % = = ; - - - = & = G M.$X8X|._ p u 7 t 7 ; t ; & # # # # # # # & % #         ; ^ w w S U u u e t 2 t J 5.gXvX8X2X",
"aX/.h.&.G 7 4 = # & > ; = 5 F / x.`.jX8X8XT.R ! J 7 t ; & ; ; ; # # # # # # # # % * - %   o & #.! 7 ^ K H Y 0 9 7 = 7 &.aXiX2XtX",
"0X;XgXoX{.N.h.$.@.@.&.&.5.x.G.{.$X6X2X5X;Xh.~ Y J 7 t ; ; 1 ; & # # # # # # # # # = 7 %       _ R I _ ( J Y J 7 w 7 8 %.#X8X0X0X",
"*X-X-X0X0X-X-X:X.XoXXXaXaXfXtX0X8X8X-X8XaXa.| U J 7 t ; ; t & # # # # # # # # #   > t ; =     #.d.+.*.} I } 7 e w 4 E M.7X0XtX4X",
"&X-X-X-X-X*X0XtXtX0X0X2X0X0XtXtX-X8XtXiX/.p.~ I y 7 y 1 1 p & % # # # # # # # #   ; t y i ; * 4.|.%.*.| H Y F r 7 D l.XXtXtX-X8X",
",X,X,X-X-X-X-X-X,X0X0X0X6X0X0X0X0X8X0XtX~.-.R Y 7 7 i t t t ; ; # # # # # # # #   % ; u ' t 7 x.lXC.+.D P F S P +.c.oXiX-XtX8XtX",
"0X-X-X,X,XtX0X0X-X-XtXtX7X7XtXtX0X-X0XiX}.+.I u 7 y i t 1 1 ; ; # # # # # # # # & ; % - u t 0 x.9XdXM.+.W A T j._.aXtX0X6X6XtXtX",
"tX,X-X-X-X0X6X6X0X0X0X0X0X0X0X0X0X-X0X8X;Xh.R 0 y J y ; ; ; ; # # # # # # # # # & - #   # ; U T.iX8XhXR.i.a.M.}.,XvX0X2X8X2X;X8X",
":X,X-X-X-X-X0X0X0X0X0X0X0X0X0X0X2X0X-X2XvX|.@.8 J ' t ; & % ; # # # # # # # # #   # & & # - ` }.kX-X8XiXaX#X7XkX0X&XtX0XtX2X-X-X",
"-X-X-X-X-X-X-X0X0X0X0X0X0X0X0X0X0X2XtX2XiXoXO.P -.! 7 * = ; & &                 & # * ; = 7 &.}.tX0X4X8X6X8X6X6X0X0X0X0X0X0X0X0X",
":X:X-X-X-X-X-X-X-X-X0X-X-X-X-X-X-X2X0X4X0XM.T  . .J 7 * ; ; & & # # # # # # # # X # & # # # r c.tX0X8X0X0X0X0X0X0X0X0X0X0X0X0X0X",
"-X-X-X-X-X-X-X-X0X0X0X0X0X0X0X0X,XtX,X0XtXV.=.-.J 9 # # ; ; & & & & & & & & & & o # & % # & 4 3.tX0X0X0X0X0X0X0X0X0X0X0X0X0X0X0X",
"-X,X-X-X-X-X-X,X0XtXtXtX0X0X0X0X0X0XtX0X,XV.-.H 7 * # # & ; ; & & & & & & & & & # # & - = = 7 f.tX0X0X0X0X0X0X0XtXtXtXtXtXtXtXtX",
"-X-X-X-X-X-X-X-X0X0X-X-X-X-X0X0X-X&X0X2X.XB.E 7 7 ; % & & ; = & # # # & & & & & % % ; - 7 7 7 f.0X0X0X0X0X0X0X6X-X-X-X-X-X-X-X-X",
"-X-X-X-X-X-X-X-X-X-X-X-X-X-X-X-X-X-X-X*XtX~.X.R 7 7 ; & ; ; ; & # # # # & & & ; 1 ; > ; y H A $.0X0X0X0XtX0X0X0X-X-X-X-X-X-X-X-X",
",X,X,X,X,X,X,X,X,X,X,X,X,XtXtXtX,XjX;X-XjX~.+.H y t &   & ; & X #   # # # # # # & > > 7 H R D $.8X8X8X8XiX8X8X8X0X0X0X0X0X0X0X0X",
"H.H.J.J.J.(.(.(.L.L.L.L.^.^.^.^.F./.(.^.H.@.0 9 y 1 %     & &   o o               X X % 4 S P f.`.`.`.`./.`.`.`.^.^.^.^.^.^.^.^."
};
