/* XPM */
static char *k_0[] = {
/* columns rows colors chars-per-pixel */
"64 64 245 2 ",
"   c #0B001A",
".  c #050624",
"X  c #0A0626",
"o  c #060926",
"O  c #0B0B26",
"+  c #060629",
"@  c #0B062C",
"#  c #050A2B",
"$  c #0A0B2A",
"%  c #110B2C",
"&  c #1A0F2A",
"*  c #150B25",
"=  c #0C112E",
"-  c #05142B",
";  c #1C122B",
":  c #181526",
">  c #0C0633",
",  c #050C32",
"<  c #0C0D32",
"1  c #0C0D3B",
"2  c #040A39",
"3  c #110E35",
"4  c #120C3C",
"5  c #120635",
"6  c #0C1135",
"7  c #0D123C",
"8  c #031136",
"9  c #121234",
"0  c #13133C",
"q  c #1A153B",
"w  c #141B3E",
"e  c #1A193B",
"r  c #1A1733",
"t  c #24142C",
"y  c #2D162C",
"u  c #231B2D",
"i  c #2B1D2D",
"p  c #371D29",
"a  c #251B36",
"s  c #321D35",
"d  c #260E30",
"f  c #2A2537",
"g  c #372337",
"h  c #222129",
"j  c #411B2A",
"k  c #411F38",
"l  c #4A262A",
"z  c #452839",
"x  c #572833",
"c  c #49313D",
"v  c #58353A",
"b  c #592729",
"n  c #622F30",
"m  c #683637",
"M  c #72363A",
"N  c #0C0D48",
"B  c #130D45",
"V  c #170B47",
"C  c #0D1442",
"Z  c #0D1A43",
"A  c #0A184A",
"S  c #141543",
"D  c #1B1444",
"F  c #141A45",
"G  c #1B1B44",
"H  c #15144A",
"J  c #1B164A",
"K  c #141B4A",
"L  c #1B1B4C",
"P  c #0D1856",
"I  c #141655",
"U  c #131A53",
"Y  c #1C1B53",
"T  c #1C1B5B",
"R  c #191655",
"E  c #221E55",
"W  c #221F58",
"Q  c #2A1A49",
"!  c #0D2448",
"~  c #1A224B",
"^  c #0C2757",
"/  c #1E2253",
"(  c #13225B",
")  c #1B225A",
"_  c #162756",
"`  c #17375C",
"'  c #24244B",
"]  c #272345",
"[  c #3A2442",
"{  c #372C47",
"}  c #22245D",
"|  c #252556",
" . c #3F3852",
".. c #2E2F55",
"X. c #0F2867",
"o. c #162C67",
"O. c #0B3A76",
"+. c #173974",
"@. c #19346B",
"#. c #282968",
"$. c #333868",
"%. c #243976",
"&. c #33326E",
"*. c #4A3547",
"=. c #573844",
"-. c #463852",
";. c #432C4C",
":. c #7B3D42",
">. c #683747",
",. c #4D3B6B",
"<. c #0D477A",
"1. c #14437B",
"2. c #19457D",
"3. c #195079",
"4. c #2A4B6E",
"5. c #57455C",
"6. c #754A56",
"7. c #754F4E",
"8. c #534C6D",
"9. c #77526D",
"0. c #6C5167",
"q. c #5C687E",
"w. c #8A4D4C",
"e. c #935154",
"r. c #98635B",
"t. c #835865",
"y. c #864B61",
"u. c #8D6F74",
"i. c #A57367",
"p. c #184A87",
"a. c #1A518B",
"s. c #165489",
"d. c #1A5893",
"f. c #0E5B91",
"g. c #274B8B",
"h. c #275A96",
"j. c #2F5092",
"k. c #1B678E",
"l. c #166998",
"z. c #16729B",
"x. c #376B8B",
"c. c #286B97",
"v. c #387B98",
"b. c #1979A6",
"n. c #187CB1",
"m. c #2B6BA3",
"M. c #2575AA",
"N. c #277AB3",
"B. c #3068A3",
"V. c #6C5D86",
"C. c #697B97",
"Z. c #607A9E",
"A. c #1D8EB8",
"S. c #1988B5",
"D. c #1C94B6",
"F. c #1194BE",
"G. c #1C95BA",
"H. c #1B9ABA",
"J. c #189AB4",
"K. c #128BB1",
"L. c #2783AA",
"P. c #2588B5",
"I. c #2198BC",
"U. c #3C95B5",
"Y. c #3780A0",
"T. c #35A1BD",
"R. c #4A8CB4",
"E. c #44A7BC",
"W. c #0E9BC4",
"Q. c #1396C0",
"!. c #139EC3",
"~. c #1896C6",
"^. c #328BC4",
"/. c #2899C5",
"(. c #3296C5",
"). c #2F9AD0",
"_. c #12A1C8",
"`. c #1DA9D6",
"'. c #1BB4DB",
"]. c #0BABD3",
"[. c #25A5CC",
"{. c #26AAD6",
"}. c #25B6DA",
"|. c #32AAD0",
" X c #18BDE4",
".X c #18ABE4",
"XX c #25B8E5",
"oX c #2AB3E6",
"OX c #4AABD6",
"+X c #55B4CC",
"@X c #1CCBEF",
"#X c #1CC5EC",
"$X c #1CD5EF",
"%X c #0DCDF4",
"&X c #0FCBFA",
"*X c #14C4F6",
"=X c #14CCF5",
"-X c #1BCCF2",
";X c #14C5FB",
":X c #14CCFB",
">X c #19CEFD",
",X c #1CC5F3",
"<X c #0ED4F4",
"1X c #0DDAF5",
"2X c #0ED4FC",
"3X c #0EDCFB",
"4X c #07D9F2",
"5X c #13D1F7",
"6X c #14D3F6",
"7X c #1BD3F4",
"8X c #14DAF6",
"9X c #1ADAF6",
"0X c #13D2FA",
"qX c #14D1F9",
"wX c #15D0FB",
"eX c #16D2FA",
"rX c #12D2FE",
"tX c #14D3FF",
"yX c #15D1FD",
"uX c #11D6FF",
"iX c #15D4FB",
"pX c #1AD3FC",
"aX c #14DAFB",
"sX c #1ADBFD",
"dX c #23CBEA",
"fX c #27C5E8",
"gX c #38C7E9",
"hX c #23CCF9",
"jX c #26C8F4",
"kX c #23D3FC",
"lX c #22DBFB",
"zX c #22D3F1",
"xX c #30C0F2",
"cX c #0EE2FC",
"vX c #0EE9FF",
"bX c #15E2FE",
"nX c #1AE2FE",
"mX c #1AEAFF",
"MX c #20E1FF",
"NX c #20E9FF",
"BX c #43C5DB",
"VX c #9F9795",
"CX c #BB9684",
"ZX c #93ABA8",
"AX c #C99484",
/* pixels */
"A.A.A.A.A.A.G.G.G.D.D.D.D.D.H.D.G.G.G.G.G.G.G.G.G.G.G.G.G.G.H.G.D.D.S.G.I.H.H.H.I.H.D.D.I.I.I.D.H.H.H.H.H.H.H.H.H.H.H.H.G.G.G.G.",
";X;X;X;X;X;X;X;X;X;X;X;X;X;X;X;X;X;X;X;X;X;X;X;X0X0X0X0X0X0X0X0X>X0X2X0X0X0X0X;X2X3XaXaX2X2X2X0X0X0X0X0X0X0X0X0X0X0X0X0X0X0X0X0X",
"*X*X*X*X*X*X*X;X;X;X;X;X;X;X;X;X;X;X;X;X;X;X;X;X;X0X0X;X;X;X0X0X0X;X&X&X;X;X;X0X;X;X;X;X;XpX;X=X;X;X;X;X;X;X;X;X;X;X;X;X;X;X;X;X",
"*X*X*X*X;X;X;X;X=X=X=X=X=X=X=X=X=X=X=X=X=X=X=X=X=X=X;X;X;X;X;X;X=X=X=X=X;XpXpX6X%X0XpX0X=X=X=X=X=X=X=X=X=X=X=X=X=X=X=X=X=X=X=X=X",
"*X;X;X;X;X;X;X;X;X;X;X;X;X;X;X;X;X;X;X;X;X;X>X>X>X>X>X>XpXpXpXpX;X0X6X%X=X0X0X;X6X%X=X0X0X%X%XaX0X0X0X0X0X0X0X0X0X0X0X;X0X0X;X;X",
";X;X;X;X;X;X;X;X;X;X;X=X;X>X=X=X0X0X0X0X0X0X0X0X0X0X0X0X0X0X0X0X6X;X;X3X2X=X@X6XpX0X0X0X0X0X6X%X0X0X0X0X0X0X0X0X0X0X;X;X;X;X;X;X",
";X;X;X;X;X;X;X;X;X;X;X>X;X;X0X0X;X;X0X;X0X0X0X0X6X6X6X6X6X6X6X6XaX;X;X#X[.v.x.x.H.}.pX0X2XpXpX;X0X0X0X0X0X0X0X0XpXpXpXpXpX;X>X>X",
";X;X;X;X;X;X;X;X;X;X;X;X;X;X0X0X0X0X0X0X0X0X0X0X=X6X6X6X6X6X6X6XpXpX}.Z.6.M m x g 4.b.'.>X0X0XpX0X0X0X0X0X0X0X0X0X0X0X0X0X0X0X0X",
";X;X;X;X;X;X;X0X0X0X0X0X0X0X0X0X0X0X0X0X0X0X0X0X0X0XpXpX0X0XpX0X3XfXq.w.e.e.M b l j a ` L.=X0XpX0X0X0X0X0X0X0X0X0X0X0X0X0X0X0X0X",
";X;X;X;X;X;X;X0X0X0X0X0X0X0X0X0X0X0X0X0X0X0X0X0X0X0XpXpX0X0XpXaX7XY.t.r.7.>.x x j g a e o.W.aX0X0X0X0X0X0X0X0X0X0X0X0X0X0X0X0X0X",
";X;X;X;X;X;X;X;X;X0X0X0X0X0X0X0X0X0X0X0X0X0X0X0X0X0X0X0X0X0X0X3XXX8.e.w.l z g g y y y s Q N.pX2X0X0X0X0X0X0X0X0X0X0X0X0X0X0X0X0X",
";X;X;X;X;X;X0X0X0X0X0X0X0X0X0X0X0X0X0X0X0X0X0X0X0X0X0X0XpX0XaX3X|.0.w.:.b 5.c i u i y i ;.R.pX0X0X0X0X0X0X0X0X0X0X0X0X0X0X0X0X0X",
";X;X;X0X0X0X0X0X0X0X0X0X0X0X0X0X0X0X0X0X0X0X0X0X0X0X0X0XpXaXaX0XU.9.:.n M 7.x p p i u u 8.OXaXpX0X0X0X0X0X0X0X0X0X0X0X0X0X0X0X0X",
";X;X0X0X0X0X0X0X0X0X0X0X0X0X0X0X0X0X0X0X0X0X0X0X0X0XaXsXsXaXaX=XC.y.n b w.w.m l p i f a ,.OX<XpX0X0XaXaX0X0XaXaX0X0X0X0X0X0X0X0X",
"0X0X0X0X0X0X0X0X0X0X0X0X0X0X0X0X0X0X0X0X0X0X0X0X0X0XaXaXaX3X6XjX9.>.l l 6.7.x p i [ { * D P.6XaXaXaXaXaX0X0X0X0X0X0X0X0X0X0X0X0X",
"0X0X0X0X0X0X0X0X0X0X0X0X0X0X0X0X0X0X0X0X0X0X0X0XaXsXaXaXaX1X6XxX5.6.6.g g c l t ; r r d ..[.nXaXaXaXaXaX0X0X0X0X0X0X0X0X0X0X0X0X",
"0X0X0X0X0X0X0X0X0X0X0X0X0XaXaXaXaXaXaXaX0X0X0XaX8X6XpXaXcXaX8XJ.{ t.t.v h : a * 3 X [ &.N.9XnXaXaXaXaXaXaXaXaXaXaXaX0X0XaXaXaXaX",
"0X0X0X0X0X0X0X0X0X0X0X0X0XaXaXaXaXaXaXaX0X0X0X0XaX6XaXsXaXaXaX~.' *.=.z u % 3 . . f V.R.gXcXcX0XaXaXaXaXaXaXaXaXaX0X0X0XaXaXaXaX",
"0X0X0X0X0X0X0X0X0X0X0X0X0XaXaXaX0XaXaXaX0X0X0X0XaXaXaXsX6XaXMX^.9 : : t & $ 3 $ :  .C.gXnX4X1XaXaXaXaXaXaXaXaXaXaXaX0X0XaXaXaXaX",
"0X0X0X0X0X0X0X0X0X0X0X0X0XaXaXaXaXaXaXaXaXaXaXaX8XaXaX0X<X3X7Xh.; u : * t u r ; ; -.R.7XaX7XsXaXaXaXaXaXaXaXaXaXaXaXaXaXaXaXaXaX",
"0X0X0X0X0X0X0X0X0X0X0XaX0XaXaXaXaXaXaXaXaXaXaXaXaX8XaXaXsXnXdXg.a y u a s i & X * -.R.aXaXsXpX<XaXaXaXaXaXaXaXaXaXaXaXaXaXaXaXaX",
"0X0X0X0X0X0X0X0X0X0X0XaX0XaXaXaXaXaXaXaXaXaXaXaXaX8XaXaX6XaXaX).4.f t r & X X % ;  .T.bXaXnXsXbXaXaXaXaXaXaXaXaXaXaXaXaXaXaXaXaX",
"0X0X0X0X0X0X0X0X0X0X0XaX0XaXaXaXaXaXaXaXaXaXaXaXaX1XnXsX8XaXvXjXv...t * X $ % % % a k.6XnX8X0XbXaXaXaXaXaXaXaXaXaXaXaXaXaXaXaXaX",
";X0X0X0X0X0X0X0X0X0X0XaX0XaXaXaXaXaXaXaXaXaXaXaXnX8XMXsX7XXXF.k._ [ c f t t & : 6   ^  XmXaXaXaXaXaXaXaXaXaXaXaXaXaXaXaXaXaXaXaX",
"0X0X0X0X0X0X0X0XaX0X0XaXaXaXaXaX8XaX<XaXaXnXsXaX$X'.G.l.1.o.( U q a =.m x c t X $ X 7 c.fXnX0XsXsX8XlXlX1XaXsX3XaXaXaXaXaXaXaXaX",
"0X0X0X0X0X0X0X0XaXaX0XaXaXaXaXaXsXnXaXaX9X7X'.S.s.1.X.P R R Y | ' q ;.6.7.g X # + # , A a.}.NX3XsXnXaX8XaXnXaX8XaXaXaXaXaXaXaXaX",
"0X0X0X0X0X0XaXaXaXaXaXaXaXaXaXaXaX<X3X9X}.z.O.X.U R Y Y E / / / | G ] *.;.; $ 0 0 , 7 1 A a.{.lX3XsXsXaXaXnXaX8XaXaXaXaXaXaXaXaX",
"0X0X0X0X0X0XaXaXaXaXaXaXaXaXaXaX0X3XlX/.B.#.B H C S S L K ~ K S S L ' a r 9 0 0 J G L ~ U T g.I.lXbX8XsXnXbX8XcXaXaXaXaXaXaXaXaX",
"0X0X0X0X0X0XaXaX0X0X0XaXaXaXaXaX6X7X|.j.#.H 4 S 0 4 4 S C F S S C H G q q G L F S / | Y | #.#.%.^.dXnX8X8XaX6XaXaXaXaXaXaXaXaXaX",
"0X0X0X0X0X0X0XaX0X0XaXaXaXaXaXaXnX}.h.&.E 2 1 7 S S S K K K S 4 S K F 0 0 S S L K Y W T E _ ) } %.c.}.9X8X8XaXaXaXaXaXaXaXaXaXaX",
"0X0X0X0X0X0X0X0X0X0X0XaXaXaXaXaX7XN.#.L 1 , D C S H H L L L J D 0 L F 0 0 7 S D F D H H S F K J / H 1.[.lXnXaXaXaXaXaXaXaXaXaXaX",
"0X0X0X0X0X0XaXaX0X0X0XaXaXaXaXaXfXp.Y F , 0 7 C C S H K K F S 0 G / 7 9 q 7 F 7 0 Z K J G F F F 0 L U 1.{.MXaXcXaXaXaXaXaXaXaXaX",
"0X0X0X0X0X0XaXaX8XaXaXsX8X1XsXaX^.@.4 1 3 D K w S F 0 S 0 7 0 6 ..G 0 0 q 0 0 0 0 0 0 0 0 0 0 0 7 7 S Y a.hXbX0X3XaXsXsX3X3XaXsX",
"0X0X0X0X0X0XaXaX6X%XaXaX8XbX6XkXB.( 1 , , S K S 0 S 0 0 0 6 0 0 ' G 0 0 0 0 4 0 3 3 3 3 3 3 3 3 6 , 1 N o.[.aXaX0X0X8X9X8XaXaX2X",
"0X0X0X0X0X0XaXaXaXsX<X<XpXsX7XoX%.B X , , S L D 7 0 0 6 0 6 6 ~ ' 0 , 9 0 9 , 3 , , , , , , , , , $ , 1 N M.9XaXsXsXsX0XpXsXsX3X",
"0X0X0X0X0X0XaXaXaXaX6XsX0XnXfXd.J X + # X 0 L D 6 7 0 , 6 , , ' G 9 , , 9 , , , $ $ $ $ $ $ $ $ $ , , C V g.7XaX8XaXsXpXpXpXaX1X",
"0X0X0X0X0X0XaXaXaX1XaX0XsXzXz.B 3 o . # o 3 L S , , , , 6 , , ' 0 9 , , , , $ $ $ $ $ $ $ $ $ $ , 3 0 Z H %.dXaX6X7X9X8X6X3XaXaX",
"0X0X0X0X0X0XaXaXaXsX3XcXzXM.K 5 , # # # o 3 L 0 , , , $ , $ 3 ' 9 $ $ $ $ $ $ $ $ $ $ $ $ $ $ $ , 4 1 C H o.XXaXaXaXaXaXaXsXsXpX",
"0X0X0X0X0X0XaXaXaX6X6XzXb.L 5 # , $ # # X 3 D , , , $ $ $ $ 9 e $ $ $ $ $ $ $ $ $ $ $ $ $ $ $ $ , , 6 7 C ( }.aXkX0X3XaXdX|.U.R.",
"0X0X0X0X0X0XaXaXaXsX=Xb.( , # X $ $ X # # 3 D , , , $ $ $ $ 9 9 $ $ $ $ $ $ $ $ $ $ $ $ $ $ $ $ $ $ 6 0 7 A }.cXaX7XgX+XC.8.*.z ",
"=X0XpX;X=XpXpXlX'.I.3.A > , , + 5 $ = o # L 8 % 9 9 $ $ $ $ ' $ $ $ $ $ $ $ $ $ $ $ . $ . $ 9 , 3 3 # w 3 C S.mX0X0X+Xu.=.z g g ",
"pXsXsXsX@X}./.l.+.( A 1 , $ $ X $ o % $ # q , 4 0 9 + $ $ 9 e $ $ $ $ $ $ $ $ $ $ $ . $ . $ 9 , 3 3 , 7 9 N l.8XlXBXZXi.v k s s ",
"`._.[./.l.O.U V B H S 6 $ o # # = - % X 6 e # J 0 , + . $ e e X $ $ $ $ $ $ $ $ $ $ . $ X $ 9 , $ $ , 6 0 H s.dXE.ZXAXr.*.{ s g ",
"` A A K C 1 1 1 1 C 7 , $ $ $ $ # X X ! F 9 # S 0 $ $ o $ e 9 + $ $ $ $ $ $ $ $ $ $ . $ X $ 9 , $ # $ , w J +.(.VXCXi.u.5.;.` c.",
"+ $ $ X , 9 0 7 0 , X $ , $ # $ 9   7 L.s.7 q G 0 $ $ $ $ 9 $ $ $ $ $ $ $ $ $ $ $ $ . $ $ $ 9 3 , , , , 0 0 _ 4.u.7.v -.8.x./.hX",
"+ $ , # 6 6 , , 6 $ $ $ $ X X $ o C f.jXl.8 w Q , $ , $ $ 9 $ $ $ $ $ $ $ $ $ $ $ $ X $ $ $ 9 9 , , , $ , , 7 D { ;.[ $.P.hXnX3X",
", $ , , $ + $ 9 $ $ . . . X X > ^ S.=X=X+.4 ~ ' , $ $ $ $ $ $ $ $ $ $ $ $ $ $ $ $ $ . $ $ $ 9 9 , , 6 , 7 0 4 4 $ 9 6 2.jXaX<XsX",
"= # $ $ X $ 9 $ 3 $ $ X X , ^ 3.`.0XaX'.) D ~ G , $ $ $ = $ $ X $ $ $ $ $ $ $ $ $ $ . $ $ $ 9 9 4 7 F 7 Z L 4 C $ > 1 2.hXpX$X0X",
"8 , , , > X X + o o , ^ <.n.'.pXpX0XsX~.T J L S 9 $ $ $ $ = 9 + $ $ $ $ $ $ $ $ # % o $ $ $ ` H 0 Z ~ J K ~ S 2 X 6 2 p.#XaX;XpX",
"P.b.l.s.<.<.1.1.p.l.A.'.@X0X0X;X%XaXkXN.T L | S 3 , $ $ $ % $ $ $ $ $ $ $ $ $ $ + % 9 X X 3 ! U B } / S S ~ F > 0 4 N N.kX2XsX%X",
">X>X,X,X,X,X,X,X>XpX0XaX3X0XpXpX6XaX Xh.Y K E D , , , $ = $ $ $ $ $ $ $ $ $ $ $ $ $ e q . + ` +.) #./ K F 7 7 S > N d.XXpX0X0X<X",
"&X;X;X;X;X0X0X0XaX0X0X0X6X6X0X0XpXpX Xg.L K L 3 , 9 , $ 9 $ + $ $ $ $ $ $ $ $ $ $ # 9 G = + 3.P.o.#.) A K Z C V R s.'.0X=X7X<X0X",
";X;X;X=X;X;X>X>X0X0X0X0X0X0X0X0X0XpX=Xp.H L K , 0 9 $ $ 9 $ o $ $ $ $ $ $ $ $ $ $ + 3 , 6 > <.fXs.#.V A A V Y %.N.oXaX3X6X6X0X;X",
";X;X;X;X;X;X>X0X&X0X0X0X0X0X0X2X0XpXpXS.o.V C S G 9 $ $ = $ + $ $ $ $ $ $ $ $ $ $ $ $ # . > l.aX Xs.R N N T a.).hXpXpX0X6X6X0XpX",
";X;X;X;X;X>XpXpX0X0X0X0XpXpX0X0X;X=XaX=Xh.B 1 J ' 9 $ $ $ $ $ $ $ $ $ $ $ $ $ $ o $ o $ o 7 P.aXsX Xn.O.p.n.}.hX3X%XpX0X2X0X;XpX",
";X;X0XpXpX0X6X6X0X0X0X0X0X0X0X0X0X0X&XaXM.H S | ' 9 + $ $ $ $ $ $ $ $ $ $ $ $ $ $ $ % % X Z S.pX0XbX&X*X>X>XpX<X2XpX2XaX;X;XsX6X",
"=X;X;X;X;X;X0X0X0X0X0X0X0X0X0X0X0X=X%X@Xd.I | #.$ $ $ $ $ $ $ $ $ $ $ $ $ $ $ $ # o . + + $ ( .XaXaXaXaXaX0XaX0X0X0X0X0X6X0X6X6X",
";X;X;X;X;X;X0X0X0X0X0X0X0X0X0X0X<X=XpX XO.&.$.C $ $ $ $ $ $ $ $ $ $ $ $ $ $ $ $ X $ X $ # o K .X0X0X0X0X0X0X0X0X0X0X0X0XpXpXpXpX",
"=X=X=X=X;X;X;X;X=X=X6X=X=X=X=X=X0XpX;X#Xh.&.H , $ $ $ $ $ $ $ $ $ $ $ $ $ $ $ $ o $ o $ # $ _ fX0X0X0X0X0X0X0X0X6X6X6X6X6X6X6X6X",
";X;X;X;X;X;X;X0X;X;X;X0X;X;X0X0X;X0X;XXXj.#.2 X $ $ $ $ $ $ $ $ $ $ $ $ $ $ $ $ # $ o $ + , U '.aX0X0X0X0X0X0X0X0X0X0X0X0X0X0X0X",
";X;X;X;X;X;X;X;X;X;X0X0X0X;X;X;X=X;X0X#Xa.U F # $ $ $ $ $ $ $ $ $ $ $ $ $ $ $ $ # $ $ $ 1 4 P .X0X0X0X0X0X0X0X0X=X=X;X0X0X0X=X=X",
";X;X;X;X;X;X;X;X;X;X;X;X;X;X;X;X%X;X3X3XP.( S w $ $ $ $ $ $ $ $ $ $ $ $ $ $ $ $ % $ $ $ S H O.hX0X0X0X0X0X0X0X0X;X;X;X;X0X0X;X;X",
";X;X;X;X;X0X0X0X0X0X0X0XpXpXpX0XlX>XpX7Xm.T K 7 $ $ $ $ $ $ $ $ $ $ $ $ $ $ $ $ X + X # D ) l.kXaXaXaXaXaXaXaXaX0X0X0X0XaXaXaX0X",
"F.F.F.F.F.F.F.F.Q.Q.Q.Q.Q.Q.Q.Q.~.W._.K.( V 7 $ $ $ $ $ $ $ $ $ $ $ $ $ $ $ $ $ $ # 3 8 4 Y c.W._._._.Q.Q.W.Q.Q.Q.Q.Q.Q._._._._."
};
