/* XPM */
static char *k_1[] = {
/* columns rows colors chars-per-pixel */
"64 64 242 2 ",
"   c #05061B",
".  c #0B041D",
"X  c #07081C",
"o  c #09091D",
"O  c #060515",
"+  c #060523",
"@  c #0A0624",
"#  c #040A23",
"$  c #090924",
"%  c #06062A",
"&  c #0B062B",
"*  c #060A2C",
"=  c #0B0B2C",
"-  c #140925",
";  c #110C2D",
":  c #1B0D2B",
">  c #170927",
",  c #0C102D",
"<  c #09112A",
"1  c #12112C",
"2  c #1C132C",
"3  c #1B1628",
"4  c #0B0632",
"5  c #060B32",
"6  c #0D0C33",
"7  c #060D3C",
"8  c #0B0C39",
"9  c #080439",
"0  c #110D34",
"q  c #120D3B",
"w  c #170A39",
"e  c #0D1136",
"r  c #0E123B",
"t  c #041237",
"y  c #121234",
"u  c #13123B",
"i  c #1A143D",
"p  c #14183E",
"a  c #1B1838",
"s  c #230D28",
"d  c #23152B",
"f  c #2A142C",
"g  c #26192B",
"h  c #2A1A2A",
"j  c #31192E",
"k  c #271937",
"l  c #341B34",
"z  c #361D39",
"x  c #2C2338",
"c  c #392234",
"v  c #372438",
"b  c #37212D",
"n  c #451C2F",
"m  c #47242D",
"M  c #55282D",
"N  c #462737",
"B  c #592D30",
"V  c #533C3D",
"C  c #67373C",
"Z  c #703333",
"A  c #0B0D44",
"S  c #0E0E4B",
"D  c #140C41",
"F  c #130B44",
"G  c #0C1442",
"H  c #0A1C4E",
"J  c #0A1748",
"K  c #141443",
"L  c #1A1645",
"P  c #131A44",
"I  c #1B1A43",
"U  c #13144A",
"Y  c #1A164A",
"T  c #141B4B",
"R  c #1C1B4C",
"E  c #0C1A56",
"W  c #1C1B54",
"Q  c #141E59",
"!  c #181954",
"~  c #221D42",
"^  c #221A4C",
"/  c #211D53",
"(  c #261E5A",
")  c #0C244B",
"_  c #0B265A",
"`  c #1B2252",
"'  c #19235C",
"]  c #0E375E",
"[  c #19315C",
"{  c #1B2046",
"}  c #26254A",
"|  c #382742",
" . c #3F3346",
".. c #232454",
"X. c #22225A",
"o. c #262755",
"O. c #353C5E",
"+. c #323157",
"@. c #0A2964",
"#. c #152766",
"$. c #0D386B",
"%. c #133568",
"&. c #093D73",
"*. c #183A77",
"=. c #282763",
"-. c #352D69",
";. c #27356A",
":. c #273779",
">. c #313660",
",. c #49344A",
"<. c #573946",
"1. c #43354D",
"2. c #653B46",
"3. c #194779",
"4. c #114774",
"5. c #28597E",
"6. c #2F4C6B",
"7. c #5A4147",
"8. c #4D425A",
"9. c #5D4C5D",
"0. c #78454B",
"q. c #674657",
"w. c #6E4E52",
"e. c #4C5874",
"r. c #634D61",
"t. c #6B5968",
"y. c #5B617B",
"u. c #7C677A",
"i. c #854B4A",
"p. c #8D524C",
"a. c #884D55",
"s. c #8E5654",
"d. c #A65B58",
"f. c #9A6868",
"g. c #AA7972",
"h. c #164984",
"j. c #165587",
"k. c #175A94",
"l. c #0F5185",
"z. c #264886",
"x. c #305091",
"c. c #186797",
"v. c #116A96",
"b. c #24659B",
"n. c #326499",
"m. c #207091",
"M. c #1B6DA3",
"N. c #1775A8",
"B. c #157BAD",
"V. c #2276AA",
"C. c #267CB2",
"Z. c #3078A7",
"A. c #4B5980",
"S. c #526E8F",
"D. c #666E90",
"F. c #1E81AD",
"G. c #1D8CBA",
"H. c #1B88B3",
"J. c #1194BE",
"K. c #1D94BC",
"L. c #1399BF",
"P. c #1D99BC",
"I. c #1C99B5",
"U. c #238BBA",
"Y. c #2295BD",
"T. c #219ABD",
"R. c #2894B9",
"E. c #318ABA",
"W. c #45869C",
"Q. c #4E8CAE",
"!. c #6495BE",
"~. c #149EC3",
"^. c #1E99C3",
"/. c #1E98C5",
"(. c #1F9FD0",
"). c #268AC5",
"_. c #2596C6",
"`. c #2E9CCC",
"'. c #13A1C9",
"]. c #1CA3C9",
"[. c #18A6D5",
"{. c #1CB5DE",
"}. c #26A6CD",
"|. c #35ADCC",
" X c #22A5D5",
".X c #28AAD7",
"XX c #25B5DB",
"oX c #32B0D5",
"OX c #1CB4E5",
"+X c #23B5E3",
"@X c #2BBCE5",
"#X c #25BDE8",
"$X c #25BFF1",
"%X c #489AC2",
"&X c #47B3D5",
"*X c #1BC6EA",
"=X c #0FCCF6",
"-X c #0ECEFA",
";X c #16C3F6",
":X c #14CCF6",
">X c #1ACCF3",
",X c #14C5FA",
"<X c #14CDFB",
"1X c #1ACEFC",
"2X c #1EC7F7",
"3X c #0DD4F6",
"4X c #0DD5FC",
"5X c #0EDAFB",
"6X c #0CDBF6",
"7X c #14D3F6",
"8X c #1BD3F5",
"9X c #13DAF6",
"0X c #16D1FF",
"qX c #16D2FF",
"wX c #15D2FD",
"eX c #16D5FE",
"rX c #15D4FC",
"tX c #18D2FB",
"yX c #18D2FE",
"uX c #1AD4FD",
"iX c #14DAFC",
"pX c #1BDBFD",
"aX c #15D2EF",
"sX c #23C3EB",
"dX c #26CAEC",
"fX c #23CCF5",
"gX c #27C5F6",
"hX c #23D3F5",
"jX c #23D3FC",
"kX c #24DDFE",
"lX c #2AD6F8",
"zX c #2FD1F1",
"xX c #0BE3FF",
"cX c #13E2FE",
"vX c #1AE1FF",
"bX c #24E5FF",
"nX c #49C2D7",
"mX c #46C6F3",
"MX c #AD8891",
"NX c #8295B6",
"BX c #A1ADAD",
"VX c #C49988",
/* pixels */
"G.G.G.K.K.K.K.K.K.K.K.K.K.K.K.K.K.K.K.K.Y.Y.Y.Y.T.T.T.T.T.T.T.T.I.K.Y.Y.T.T.T.^.P.P.P.I.I.T.T.K.P.P.P.P.P.P.P.P.P.P.P.P.P.P.P.P.",
";X;X;X;X;X;X;X;X;X;X<X<X<X<X<X<X<X<X<X<X<X<X<X<XwXwXwXwXwXwXwXwXwXwX<XwXwX3XwXwXwXwXwXwXwX<XwXwXwXwXwXwXwXwXwXwXyXyXwXwXwXwXwXwX",
";X;X;X;X;X;X;X;X;X<X<X<X<X<X<X<X<X<X<X<X<X<X<X<X<X<X<X<X<X<X<X<XwX<X1X<X<X<XwXwXwX<X<X<XwX<X<XwX<X<X<X<X<X<X<X<X<X<X<X<X<X<X<X<X",
";X;X;X;X;X;X;X;X;X;X;X;X<X<X<X<X<X<X<X<X<X<X<X<X<X<X<X<X<X<X<X<X=X<XwXyX1X<X<XwX3XwXwXwXwX:X>XyX<X<X<X<X<X<X<X<X:X:X:X:X:X:X:X:X",
";X;X;X;X;X;X;X;X;X;X;X<X<X<X<X<X:X:X:X:X:X:X:X:X1X1X1X1X1X1X1X1XwX<X1X1X1XwXwXwXwXwX<X:X1XyXyX<XwXwXwXwXwXwXwXwX<X<X<X<X<X<X<X<X",
";X;X;X;X;X<X<X<X<X<X<X<X<X<X<X<X<X<XwXwXwXwXwXwXwXwXwXwXwXwXyXyX8X<X<XwXwXiXwX=XiXiXwXwX7XyXwX:XwXwXwXwXwXwXwXwX<X<X<X<X<X<X<X<X",
";X;X;X<X<X<X<X<X:X:X:X<X<X<XwXwXwXwXwXwXwXwXwXwXwXwXwXwXwXwXwXwX1XwX3XwXsX.XE.E.].XXfXyXwXwX1XhXyXyXyXyXyXyXyXyXyXyXyXyXwXwXwXwX",
";X;X<X<X<X<X<X<X<X<X<X<X<X<XwXwX<X<XwX<XwXwXwXwXwXwXwXwXwXyXyXyXwXwX:X}.S.r.2.C | O.m.].8XiXwX>XwXwXwXwXwXwXwXwXyXwXwXwXwXwXwXwX",
"<X<X<X<X<X<X<X<XwXwXwXwXwXwXwXwXwXwXyXyXwXwXwXwXwXwXwXwXwXwXwXwXiXxXoXt.i.a.0.Z M n f o.c.XXiX:XwXwXwXwXwXwXwXwXwXwXwXwXwXwXwXwX",
"<X<X<X<X<X<X<X<XyXwXwXwXwXwXwXwXwXwXyXyXwXwXwXwXwXwXwXwXwXwXwXwX7XdXS.a.s.0.C B N m j k ) k.*X3XwXwXwXwXwXwXwXwXwXwXwXwXwXwXwXwX",
"<X<X<X<X<X<X<X<XwXwXwXwXwXwXwXwXwXwXyXyXwXwXwXwXwXwXwXwXwXwXwXwXyX`.r.d.0.m m c j l h f k [  XiXwXwXwXwXwXwXwXwXwXwXwXwXwXwXwXwX",
"<X<X<X<X<X<XwXwXwXwXwXwXwXwXwXwXwXwXyXyXyXyXwXwXwXwXwXwXwXwXwXwX7XW.w.p.C <.7.v f f h g v O..XiXwXwXwXwXwXwXwXwXwXwXwXwXwXwXwXwX",
"<X<X<X<X<XwXwXwXyXwXwXwXwXwXwXwXwXwXwXwXwXwXwXwXwXwXwXwXwXwXwXwX7XD.a.C C C V N c f d g c D.mX3XwXwXwXwXwXwXwXwXwXwXwXwXwXwXwXwX",
"<X<X<X<XwXwXwXwXyXyXwXwXwXwXwXwXwXwXwXwXwXwXwXwXwXwXwXwXiXiXiXiX|.u.0.m Z p.i.B m h g d v D.zX5XwXwXwXwXiXiXwXwXwXwXwXwXwXwXwXwX",
"<X<X<X<XwXwXwXwXwXwXwXwXwXwXwXwXwXwXwXwXwXwXwXwXiXiXiXiXiXiXiXiX!.q.M m C s.0.m n x x l f 6.{.vXwXwXwXwXiXiXiXwXwXwXwXwXwXwXwXwX",
"<X<X<XwXwXwXwXwXwXwXyXwXwXwXwXwXwXwXwXwXwXwXwXwXiXiXiXiXiXiXiXiXW.q.0.<.b V m v l 3 x z f ;.dXiXwXwXwXwXiXiXiXwXwXwXwXwXwXwXwXwX",
"wXwXwXwXwXwXwXwXwXwXyXwXwXiXiXiXiXiXiXiXiXiXiXiXiXiXiXwXwXiXiXiX5.r.f.q.c g d > - 1 3 z -._.iXiXiXiXiXiXiXiXiXiXiXiXwXwXiXiXiXiX",
"wXwXwXwXwXwXwXwXwXwXwXwXwXiXiXiXiXiXiXiXiXiXiXiXiXiXwXwXiXiX5XyX6. .7.<.v d - $ $ 2 1.D.%XdXcXwXiXiXiXiXiXiXiXiXiXiXiXwXiXiXiXiX",
"wXwXwXwXwXwXwXwXwXwXwXwXwXiXiXiXyXiXiXiXiXiXiXiXiXiX5XiXiX5XcX>X;.l l d > o $ 0 1 d e.!.lX9XiXiXiXiXiXiXiXiXiXiXiXiXwXwXiXiXiXiX",
"wXwXwXwXwXwXwXwXwXwXwXwXwXiXiXiXiXiXiXiXiXiXiXiXwXiXiXiXiXiXcX[.` l g - s 2 d 2 1 g y.&XcX9XiXiXiXiXiXiXiXiXiXiXiXiXiXiXiXiXiXiX",
"wXwXwXwXwXwXwXwXwXwXwXiXwXiXiXiXiXiXiXiXiXiXiXiXiXiXwXiXiXvXhX).~ f g 3 g d d 2 $ f e.@X5XvXcX9XiXiXiXiXiXiXiXiXiXiXiXiXiXiXiXiX",
"wXwXwXwXwXwXwXwXwXwXwXiXiXiXiXiXiXiXiXiXiXiXiXiXiXiX3XiXiXiXiX@X5.x g 3 3 o $ : - d e.dXiXiXiXiXiXiXiXiXiXiXiXiXiXiXiXiXiXiXiXiX",
"wXwXwXwXwXwXwXwXwXwXwXiXiXiXiXiXiXiXiXiXiXiXiXiXyXiXiXiXiXiXcX8XoX6.x : - o o > : a 6.XXcXwX5XiXiXiXiXiXiXiXiXiXiXiXiXiXiXiXiXiX",
"wXwXwXwXwXwXwXwXwXwXwXiXiXiXiXiXiXiXiXiXiXiXiXiX6XiXiXiXcXkX#X(.l.}  .v d s s 2 y + 6 M.xX5XiXiXiXiXiXiXiXiXiXiXiXiXiXiXiXiXiXiX",
"wXwXwXwXwXiXiXiXiXwXwXiXiXiXiXiX6X7X5X5XyXyXiXcXvXhX#X}.F.k.*.#.Y 6  .7.M N v 2 $ : ; %.XXvX3XiX9XiXvXiXiX5X9XkXiXiXiXiXiXiXiXiX",
"wXwXwXwXwXiXiXiXiXiXwXiXiXiXiXiXiXvXwXiXiXiXhX#XG.M.h.#.E E Q ' W I z <.w.2.l $ % + % 8 $.}.bX5XiX5XiXiXwXvXcX7XiXiXiXiXiXiXiXiX",
"wXwXwXwXwXwXiXiXiXiXiXiXiXiXiXiXwXiXiXiX8XXXV.4._ ' W W / W W ^ ..o.k N q.N : = 0 6 e 8 9 $.^.kXcXiXiXiXiXiXiXiXiXiXiXiXiXiXiXiX",
"wXwXwXwXwXiXiXiXiXiXiXiXiXiXiXiXiX:XiX>X_.x.Q U G D K K T Y Y Y W / i x v : 0 u u Y L K T U *.U.*XiXiXiXcXiXiXiXiXiXiXiXiXiXiXiX",
"wXwXwXwXwXwXwXwXwXwXwXiXiXiXiXiXwXiX>XF.z.;.T q u u 0 q K K K K K K L ~ a i L K K ` W W ' =.=.%.V.@XbX9XiXiXiXwXiXiXiXiXiXiXiXiX",
"wXwXwXwXwXwXwXwXwXwXiXiXiXiXiXiXiXiX_.z.-.T 5 6 q 8 r r K T Y Y u K ^ i a L I P Y Y W X.X.` X.( ;.b.}.hXiX7XwXcXiXiXiXiXiXiXiXiX",
"wXwXwXwXwXiXwXwXwXwXwXiXiXiXiXiX3X@Xn.=.` r q q K K K L Y Y Y K u Y ^ i 0 K K K Y K K K U U T Y ..' 3.U.dXiXwXiXiXiXiXiXiXiXiXiX",
"wXwXwXwXwXiXiXiXwXwXwXiXiXiXiXiXiX).:.R r r 8 7 K K u K Y Y Y Y i Y Y P r P K K A J p i u G K T q Y ! *._.iXcXiXiXiXiXiXiXiXiXiX",
"wXwXwXwXwXwXiXiXiXiX7XyXiXiXiX5X#Xx.! 6 = u L K K K K K K K u u L o.u 0 i u i u u u u u u K K K K q r U *.XXiXiX5X5XiX9X9XiXiXiX",
"wXwXwXwXwXwXiXiXiX7X8X7XiXiXiXvX.Xz.U 6 & r L K K K K K u u u r I } u 0 u y u u y u u u q q q q u q 8 U ' G.8XiXiX9X9X9XiXiXiXiX",
"wXwXwXwXwXwXwXwXiXiXiXiXiXiX3XbXC.#.8 6 & e I P K u u u u r e e } I y 0 y y y y 6 6 6 6 6 6 6 6 0 6 5 D S j.sXcXiXwXyXiXiXiX3XwX",
"wXwXwXwXwXwXwXwX7XvXiXiXyXiXyX@X3.S 4 = & y I T u u u u 6 6 6 y } y 0 0 6 0 6 6 = = = = = = 6 6 = 6 5 q A #..XiXiXiXiXiXiXiXiXiX",
"wXwXwXwXwXiXiXwXiXiX5XwX7XiXdXM.U 9 = $ = 0 u T u 0 6 6 6 6 6 u } 6 6 0 = 0 = 6 = = = = = = = = = 6 6 u G U U.iXcXcXiXwXwXiXiXiX",
"wXwXwXwXwXiXiXiXiX3X5XwXiXlXF._ 4 4 = $ = 0 r Y u 6 6 6 6 = 0 i I = = = = = = = $ $ $ $ = = = = = 6 u r P U M.iXvXiXiXiXiXiXiXiX",
"wXwXwXwXwXiXiXiXwXiXiX8XdXY.] 4 & * $ $ = 6 r Y y 6 6 6 = = y a y = = = = = = = $ $ $ $ $ $ $ = 6 6 q r K U k.iXiXiXiXiXdXXX|.&X",
"wXwXwXwXwXiXiXiXwXiXiXhX^.%.0 $ 6 # $ $ $ 6 u Y 0 6 = 6 = = y ~ = = = = = = % = $ $ $ $ $ $ $ $ 6 6 q r q J k.iXiX8XdX&XQ.e.8.9.",
"yXwXwXwXyXyXyXiXiXdX}.c._ 8 ; & 6 % X o = * P K % 0 6 = = = a y % = = = $ $ $ $ + $ o o X $ = 6 5 & 6 8 i u 3.8XiXlXNXt.<.N c ,.",
"yXyXyX7X9XhXsX[.V.l.@.H 8 6 0 ; o # < - # = i 8 = 0 6 = = ; a y % & = = $ $ $ $ + $ o X X $ = 6 = = e u u q %.*XiXnXMX0.N l z ,.",
"XX(.^.}.P.v.&.@.U A 8 u u e = + % $ < o X u { & 6 0 6 = = 1 a = $ $ = = $ $ $ $ + $ o X X $ = 0 0 = = q u D ' ].&XBXg.2.N z z | ",
"=.E J H H 7 8 D w u u 6 = = = $ 6 ; % X P P P ; u 0 6 = = y y = $ $ $ $ $ $ $ $ $ $ o X X $ = y 0 = # 0 u Y T Z.BXVXg.9.,.l [ n.",
"6 6 e 6 0 0 y e 0 0 6 e y ; $ $ * $ % _ R.4.0 6 u 6 6 = = y ; % $ $ $ $ $ $ $ $ $ $ o X X $ 6 u 6 6 = 0 0 u G A.MXf.w.8.8.6.R.gX",
"y = = = ; ; = e 5 e 6 = = , = = ; o 8 B.fX4.q ~ u 6 6 = = y = % $ $ $ $ $ $ $ $ $ $ X X X $ 0 u t q 5 6 0 r e +.q.<.| >.Z.@XbXiX",
"e 6 = = 6 0 0 6 * e 0 & = 6 = + 5 ] N.fXXX_ P ^ u 6 0 6 = y = $ $ $ $ $ $ $ $ $ $ $ X X X $ y u e q 8 6 u u r k a k I z.sXiX3X7X",
"6 5 5 6 0 0 = = = = = = 0 & * p 4.XX3XiXF.^ } ..u 6 0 6 = ; = = $ $ $ $ $ $ $ $ $ $ X X X $ y u = D K P P q K 0 6 8 7 l.>XiX7XyX",
"] ) 8 6 6 = & ; o $ = 6 A %.c.Y.fX1X3XiXc.( Y ..u y = % = 0 = $ $ $ $ $ $ $ $ $ + * + # o o ) _ i I ` Y Y T u 6 4 r 4 3.sXcX<X7X",
"XX^.N.c.l.$._ _ ] $.4.v.K.XX8XiXyX1XiXfXb.=.W ^ u e * = y y = $ $ $ $ $ $ $ $ $ % , = # X - r E L Y ..T J P w 5 * 0 9 c.hXiXwXyX",
"wX<X:X>X2X#X+X+X+X#XsX8XiXiXwX1XwXyXiX+Xx.=.W / u 6 * = y y $ $ $ $ $ $ $ $ $ $ $ = 1 1 + % * &.W X.X.T P K 6 t 6 F *. XyX<XiX7X",
"<X<X<X<X<X<X<XwXwXwXyXwX5X5XwX1X3XyXwX X:.W Y / r e = y y 0 $ $ $ $ $ $ $ $ $ $ # = y k u = t F.$.=.=.T K G t K Y %.^.yX<XyXiXwX",
"<X<X-XwX7X>X8XiXiXwXwXwXyXiXyXyXwXyXwX X*.S Y K 8 u y 6 y = $ $ $ $ $ $ $ $ $ $ # & 1 k P 6 t .XH.:.Y T P G U Q j.U.hXiXwXyX=XyX",
"2X1X<XwXwX1X1XwXwXwXwXwXwX:X:X7XyXyXwXsXc.E Y 5 u p u = = = $ $ $ $ $ $ $ $ $ $ $ & # = e = H XXfXN._ F D U *.V.{.lXiXwXwX7X:X1X",
"wX1X1X<X<X1XyXwXyXwX:X<XwXyXwX3XyXwXwXyX].3.U 6 Y I e = = = $ o $ $ $ $ $ $ $ $ $ $ # $ $ 6 *.@XyX*XG.*.%.k.).gXiXiX1XwXwX7XiX7X",
"=X<X:X<XwXyX<X=X<X<X<X1XwXwX7X3XwXiX<X3XlXb.A Y ..I = % = = + o $ $ $ $ $ $ $ $ $ % + o o 6 j.hXwXwXiXsXOXfXhX7X:XyXwXwXyXwX3X7X",
":X<X<X<X<X<X<X<XwXwXwXwXwXwXwXwX<XwXwX3XsX*.Q =.o.K % + = ; $ $ $ $ $ $ $ $ $ $ X $ % ; X t 3.#XiXiXiXiXwXiXiXiXwXwXwXwXwXwXwXwX",
"<X<X<X<X<X<X<X<XwXwXwXwXwXwXwXwXyX<XwXwX[.*.-.-.L 6 + + $ $ $ X $ $ $ $ $ $ $ $ $ = % < % % G N.wXwXwXwXwXwXwXwXwXwXwXwXwXwXwXwX",
";X:X:X:X<X<X<X<X:X<X<X<X<X<X<X<X<X<X-XyX.Xx.;.T 6 = $ $ $ $ $ $ $ $ $ $ $ $ $ $ # = = $ % % 6 N.wXwXwXwXwXwXwX7XwXwXwXwXwXwXwXwX",
"<X<X<X<X<X<X<X<XwXwXwXwXwXwXwXwX-XyX3X-X`.:.T 5 = = $ $ = $ $ $ $ $ $ $ $ $ $ $ X $ = $ % = G _.yXyXyXwXwXyXwXwXwXwXwXwXwXwXwXwX",
"<X:X<X<X<X<X<X<X<X<X<X<X<X<X1X1X1X1XwX=X(.#.U u 6 = + $ $ & + % $ $ $ $ $ $ $ $ = = = + = q 9 C.wXwXwXwXwXwXwXwX<X<X<X<XwX<XwXwX",
";X;X<X<X<X<X<X<X<X<X<X<X<X<XwXwX1X3XwXwXfXh.W U u = $ $ = = = $ $ $ $ $ $ $ $ $ ; = 6 * u K 7 N.yXyXyXyXyXyXwXwX<X<X<X<X<X<X<X<X",
"<X<X<X<X<X<X<X<X1X1X1X1X1X1X1X1XwXwX1X1X+X*.R Y u = $ $ $ $ $ $ $ $ $ $ $ $ $ $ $ $ = , u T H G.iXiXiXiXiXiXiXiXyXyXyXyXyXyXyXyX",
"J.J.J.J.J.J.J.J.L.L.L.L.L.L.L.L.~.K.J.~.k.D e = 6 = $ o $ X X o X X X X X X X X O O X $ 0 U ! G.'.'.'.'.'.'.'.'.~.~.~.~.~.~.~.~."
};
