/* XPM */
static char *k_11[] = {
/* columns rows colors chars-per-pixel */
"64 64 245 2 ",
"   c #06061A",
".  c #0A061C",
"X  c #06081C",
"o  c #090A1D",
"O  c #060715",
"+  c #150D1E",
"@  c #19111F",
"#  c #05020D",
"$  c #050724",
"%  c #0A0523",
"&  c #050B24",
"*  c #0A0A24",
"=  c #0D052C",
"-  c #0C0C2B",
";  c #060A2C",
":  c #120D23",
">  c #1B0D22",
",  c #11052C",
"<  c #110C2C",
"1  c #160928",
"2  c #0E112E",
"3  c #151224",
"4  c #1C1223",
"5  c #12102C",
"6  c #1B1829",
"7  c #0D0C33",
"8  c #0D0D3A",
"9  c #080B32",
"0  c #110732",
"q  c #110C34",
"w  c #130D3C",
"e  c #170A35",
"r  c #0D1134",
"t  c #0E123B",
"y  c #121134",
"u  c #13133C",
"i  c #1A143D",
"p  c #191738",
"a  c #271829",
"s  c #361B29",
"d  c #231A37",
"f  c #331B33",
"g  c #381D36",
"h  c #35222B",
"j  c #32233C",
"k  c #382734",
"l  c #2F2938",
"z  c #411B2A",
"x  c #4B252C",
"c  c #462429",
"v  c #542C2D",
"b  c #452936",
"n  c #512B35",
"m  c #573337",
"M  c #443135",
"N  c #65342E",
"B  c #643839",
"V  c #73323A",
"C  c #76453E",
"Z  c #6F523E",
"A  c #0C0F43",
"S  c #130D42",
"D  c #160A48",
"F  c #0D1544",
"G  c #0C194A",
"H  c #141443",
"J  c #1A1543",
"K  c #151944",
"L  c #1A1A46",
"P  c #14154A",
"I  c #1A1549",
"U  c #161B4B",
"Y  c #1C1C4B",
"T  c #1C1D52",
"R  c #171C56",
"E  c #0D1B5C",
"W  c #221C4D",
"Q  c #241944",
"!  c #221D52",
"~  c #241E5A",
"^  c #321E41",
"/  c #1D214D",
"(  c #192345",
")  c #092858",
"_  c #1E2253",
"`  c #12245D",
"'  c #1D245A",
"]  c #152857",
"[  c #14325D",
"{  c #22214D",
"}  c #2C284B",
"|  c #3A2947",
" . c #212253",
".. c #24235B",
"X. c #252A5C",
"o. c #29275A",
"O. c #3A2E52",
"+. c #0D2963",
"@. c #182765",
"#. c #0B3568",
"$. c #153469",
"%. c #143873",
"&. c #083A71",
"*. c #232562",
"=. c #2A2D6C",
"-. c #262868",
";. c #223C7A",
":. c #2B316A",
">. c #482E4F",
",. c #4C374B",
"<. c #583A49",
"1. c #4A3B59",
"2. c #55395F",
"3. c #623A48",
"4. c #653E50",
"5. c #473C64",
"6. c #16466F",
"7. c #164679",
"8. c #23486E",
"9. c #224777",
"0. c #364A7D",
"q. c #5F4356",
"w. c #504649",
"e. c #66454A",
"r. c #774648",
"t. c #68495B",
"y. c #764B57",
"u. c #765158",
"i. c #6E5C5A",
"p. c #565570",
"a. c #725766",
"s. c #6D5670",
"d. c #5F637E",
"f. c #736E74",
"g. c #81483F",
"h. c #844A49",
"j. c #875254",
"k. c #925754",
"l. c #9A645F",
"z. c #876259",
"x. c #8E596F",
"c. c #8E6D6F",
"v. c #B2595D",
"b. c #194B85",
"n. c #195789",
"m. c #195A94",
"M. c #0A4988",
"N. c #294485",
"B. c #295588",
"V. c #245995",
"C. c #1A669A",
"Z. c #1C759C",
"A. c #136386",
"S. c #25699C",
"D. c #347193",
"F. c #1B77A8",
"G. c #1E7EBA",
"H. c #277AA9",
"J. c #2773A7",
"K. c #536C8A",
"L. c #607A95",
"P. c #A07680",
"I. c #867595",
"U. c #1D81AD",
"Y. c #1E8EBA",
"T. c #1B86B3",
"R. c #1C96BB",
"E. c #1399BF",
"W. c #1C99BD",
"Q. c #1796B9",
"!. c #3989A6",
"~. c #2387B8",
"^. c #2299BD",
"/. c #2696BA",
"(. c #3390B0",
"). c #1BA0BF",
"_. c #488299",
"`. c #5986A7",
"'. c #7692B3",
"]. c #0F9DC1",
"[. c #139DC1",
"{. c #1F96D0",
"}. c #2296C4",
"|. c #2A96D1",
" X c #17A3CA",
".X c #1DADD9",
"XX c #17AAD0",
"oX c #24A3CD",
"OX c #25ACD8",
"+X c #24B3DB",
"@X c #31B8DA",
"#X c #32ADCA",
"$X c #1DBAE4",
"%X c #22BCE4",
"&X c #23BDEA",
"*X c #25B6E1",
"=X c #31BFE3",
"-X c #4C99C4",
";X c #55ADCB",
":X c #49B9E7",
">X c #1BC6E8",
",X c #1AD3ED",
"<X c #0FCCFA",
"1X c #0ECAF7",
"2X c #14C5F6",
"3X c #13CBF5",
"4X c #14C4FA",
"5X c #14CDFB",
"6X c #19CFFC",
"7X c #1DCEF5",
"8X c #0CD4F5",
"9X c #0DDBF5",
"0X c #0DD4FB",
"qX c #0EDBFC",
"wX c #07DAF7",
"eX c #13D4F5",
"rX c #1BD4F4",
"tX c #14DAF6",
"yX c #1ADAF6",
"uX c #14D4FB",
"iX c #17D4FA",
"pX c #13D2FD",
"aX c #14D0FF",
"sX c #14D3FF",
"dX c #15D2FD",
"fX c #15D5FD",
"gX c #15D4FB",
"hX c #1AD4FD",
"jX c #14DBFC",
"kX c #1ADBFC",
"lX c #22C4E5",
"zX c #24C3EA",
"xX c #27C6EA",
"cX c #36C7EB",
"vX c #23CBF4",
"bX c #28CDF5",
"nX c #22DDFF",
"mX c #27D5F8",
"MX c #31D4FD",
"NX c #0CE0FA",
"BX c #14E3FE",
"VX c #1AE1FE",
"CX c #18EAFF",
"ZX c #23E1FE",
"AX c #A396B2",
/* pixels */
"Y.Y.Y.R.R.R.R.R.R.R.R.R.W.W.W.W.R.W.W.W.^.^.^.^.R.R.R.R.R.R.R.R.R.W.W.W.W.W.W.W.Q.Q.R.^.^.Q.Q./.W.W.W.W.R.R.R.W.W.W.W.W.W.W.R.R.",
"4X4X4X4X4X4X4X4X<X<X<X<X4X<X4X4X4X4X4X4X4X4X4X4XpXpXpXpXpXpXpXpXpXpXpXpXpXpXpXpXpXpXpX0X0XpXpXpXpXpXpXiXiXpX0XpXpXpXpXpXpXpXpXpX",
"2X2X2X2X2X2X2X2X2X4X4X4X4X4X4X4X4X4X4X4X4X4X4X4XpXpXpX4X4X4X4XpX4X4X4X4X4X4X4X4X1X4XpXpXpX4X4X<XpX4X4XpXpX4X4XiX4X4X4X4X4X4X4X4X",
"4X4X4X4X4X4X4X4X2X2X2X2X2X2X4X4X2X2X2X2X2X2X6X6X4X4X4X4X4X4X4X4X4X4X2X4X4X4X4X4XpX4X4XpXiX6XpXpXpXpXpXpXpX2X2XpX2X2X2X2X2X2X2X2X",
"4X4X4X4X4X4X4X4X4X4X4X4X4X4X4X4X4X4X4X4X4X4X6X6XiXiXiX6XiXiXiXiXpXpXpXpXpXpXpXpXeXeXeXeXpXpXpXeX2X2X2XpXpXpXeXpXpXpX4X4X4X4X4X4X",
"4X4X4X4X4X4X4X4X4X4X4X4X4X4X4X4XpXpXpXpXpXpXpXpXeXpXeXeXpXpXpXpXpXpXpXpXpXpXpXpX4XiXkXrXiXkXiX6XiXpX4X2XpXpXpXpXpXpX4X4X4X4X4X4X",
"2X2X2X4X4X4X4X4X4X4X4X4X4X4XpXpXpXpXpXpXpXpXpXpXpXpXpXpXpXpXpXpXiXiXiXiXiXiXiXiXrX#X!.D.D.!.oX>XpXkXkXpX4XiXpXpXpXpXpXpXpXpX4X4X",
"4X4X4X4X4X4X4X4XpXpXpXpXpXpXpXpXpXpXpXpXpXpXpXpXiXiXpXpXpXpXpXpXpXpXpXpXpXpXpXpX_.p.B N m b } 8.{.$XkXiXeX6XrXtXpXpXpXpXpXpXpX4X",
"4X4X4X4X4X4X4XpXpXpXpXpXpXpXpXpXpXpXpXpXpXpXpXpXpXpXpXpXpXpXpXpX8XpXpX0XkX0XxX_.C r.h.C N v b g K 8.oXkXpXpXeXiXpXpXpXpXpXpXpXpX",
"4X4X4X4X4X4X4X4XpXpXpXpXpXpXpXpXpXpXpXpXpXpXpXpXpXpXpXpXpXpXpXpXeXiXeXpXiX8X(.a.m B B B B v b z f d 6.+XpXpXpXiXpXpXpXpXpXpXpXpX",
"4X4X4X4X4XpXpXpX4XpXpXpXpXpXpXpXpXpXpXpXpXpXpXpXpXpXpXpXpXpXpXpXpXqXkXiXqX,XK.h.m e.n x v c x x s f J ~.pXiX0XiXpXpXpXpXpXpXpXpX",
"4X4X4X4XpXpXpXpXpXpXpXpXpXpXpXpXiXiXpXpXpXpXiXiXpXpXpXpXiXiXiXiXqXiXiXqXpX#Xt.C B y.B v x c c z s a 1.-XeXqXiXpXpXpXpXpXpXpXpXpX",
"4X4XpXpXpXpXpXpXpXpXpXiXiXpXpXpXiXpXpXpXiXiXiXiXiXiXiXiXiXiXiXiXiXpXeXiXlXd.V g.h.h.r.m x h s s a k I.;XeXpXpXrXpXpXpXpXpXpXpXpX",
"pXpXpXpXpXpXpXpXpXpXpXpXpXpXpXiXiXiXiXiXiXiXiXiXiXiXiXiXiXiXiXiXiXpXiXiX#X<.B j.l.h.B n s a s k s 3.AX;XtXkXpXtXpXpXpXpXpXpXpXpX",
"pXpXpXpXpXpXpXpXpXpXpXpXpXpXiXiXiXiXiXiXiXiXiXiXiXiXiXiXiXiXiXiXiXiXBXiX/.3.m <.u.B x s 4 4 s h v 3.'.cXiXpXkXiXpXpXpXpXpXpXpXpX",
"pXpXpXpXpXpXpXpXpXpXpXpXpXiXiXiXiXiXiXiXiXiXiXiXiXiXiXiXiXiXiXiXiXyXeXiX-Xc.r.s k k a @ o + k z B s.-XiXkXkXtX0XpXpXpXpXpXpXpXpX",
"pXpXpXpXpXpXpXpXpXpXpXiXiXiXiXiXiXiXiXiXiXiXiXiXiXiXiXiXiXiXiXiXiXiXpXmX(.x.y.j p 3 : * : a ,.n u.'.cXqXiXkXiXiXiXiXiXiXiXiXiXiX",
"pXpXpXpXpXpXpXpXpXpXpXiXiXiXiXiXiXiXiXiXiXiXiXiXiXiXiXiXiXiXiXiXyX9XiX,X6.f s 3 > + 3 : 3 d ,.<.d.;XbXiXkXiXpXiXiXiXiXiXiXiXiXiX",
"pXpXpXpXpXpXpXpXpXpXpXiXiXiXiXiXiXiXiXiXiXiXiXiXiXiXiXiXiXiXiXiXtXkXmX}._ > 3 4 a 3 : : 3 d | p.`.@XBXkXkXiXiXBXiXiXiXiXiXiXiXiX",
"iXpXpXpXpXpXpXpXpXpXpXiXiXiXiXiXiXiXiXiXiXiXiXiXiXiXiXiXiXiXiXBXqXnXxX9.i a a a + o . + 4 a j d.:XyXBXkXkXiX8XtXiXiXiXiXiXiXiXiX",
"iXpXpXpXpXpXpXpXpXpXpXiXiXiXiXiXiXiXiXiXiXiXiXiXiXiXiXiXiXiXiXiXkXpX*X0.} d > # X o + a 6 a | L.MXqXiXkXBXBXiXyXiXiXiXiXiXiXiXiX",
"iXiXpXpXpXpXpXpXiXiXiXiXiXiXiXiXiXiXiXiXiXiXiXiXiXiXiXiXBXBXBXBX9XqXmX@XH.A.( d o + s h h f | K.zXiXkXiXBXiXiXtXiXiXiXiXiXiXiXiX",
"pXpXpXpXpXpXpXpXiXiXiXiXiXiXiXiXiXiXiXiXiXiXiXiXBXBXiXiXiXiXBXiXiXCXiXVXvX+X9.O.h s n b l a q ( F.rXkXiXCXiXiXBXiXiXiXiXiXiXiXiX",
"pXpXpXpXpXpXpXpXiXiXiXiXiXiXiXiXiXiXiXiXiXiXiXiXBXBXiXiXiXBXBXiXvX%XE.H.C.&./ t.3.3.e.b a : = = $.>XCXiXCXiXiXBXiXiXiXiXiXiXiXiX",
"pXpXpXpXpXpXpXpXiXiXiXiXiXiXiXiXiXiXBXBXiXiXiXiXVXVXiXnXkX>XOXY.B.#.] _ @.E W y.r.r.M 4 < q q 8 R /.ZXBXtXtXtXiXeXrXkXiXiXqXiXiX",
"iXpXpXpXpXpXiXpXiXiXiXiXiXiXiXiXiXiXiXBXiXBXiXiXVX9XBXbX/.n.$.@.F P W o...@.O.t.u.M > * q u u u R $.T.mXZXtXiXkXBXiXiXiXiXiXiXpX",
"iXiXpXpXpXiXiXiXiXiXiXiXiXiXiXiXiXiXiXiXiXiXBXBXiXZXbXF.` F H J H Y J W X.-.o.f ^ 6 y u u 8 H H H P $.U.bXZXpXiXiXtXiXiXeXiXiXpX",
"iXiXpXpXpXiXiXiXiXiXiXiXiXiXiXiXiXiXiXiXiXiXNXNXNXxXU.$.H H L u K U R  ...] W d w J  ._ T  . . .!  ...;.F.xXZX9XeXeXiXkXtXiXiXiX",
"pXpXpXpXpXiXiXiXiXiXiXiXiXiXiXiXiXiXiXiXiXiXiXiX,XT.$.D H K J u S P .... .Y L L I W ! _ ..X.X.X.:.:.:.=.=.J.lXZXBXtXtXkXqXiXiXiX",
"pXpXpXpXpXiXiXiXiXiXiXiXiXiXiXiXiXiXBXBXiXiXiXkX).%.T H H _ K H !  ... .{ { u u J W Y Y / U U _ ' o.*.-.~ *.S.cXVXBXtXiXiXiXiXiX",
"pXpXpXpXpXiXiXiXiXiXiXiXiXiXiXiXkXiXBXBXiXiXkXiXZ.G S U Y T U Y ] X._ Y Y L L Y / / Y L K U U P K H I Y K D =.S.xXkXNX9XiXiXiXiX",
"pXpXpXpXpXiXiXiXiXiXiXiXiXiXiXiXkXiXBXBXiXkXiXmX$.w w / Y P I J ] X.H Y  .J ! o./ Y { { K H H H t u u u i H ] =.|.mXCX9XiXiXiXkX",
"pXiXkXeX0XpXpXiXqX0X0XpXpXiXiXBXiXiXiXkXiXVXbX~.q 8 8 H Y Y W  .Y H Y {  . . .T L t K u u q q u r 8 y w H H H _ 7. XCX8XiXiXiX0X",
"2XiXiXpXiXiXqXiXiXiXiXiXkXkXkXkXkX8XtXkXBXZX^.[ q 8 8 H Y Y Y Y Y H L / / Y Y Y u 8 u q u y 8 8 y 8 2 $ w 8 8 K -.~.kXiXiXiXiXBX",
"0XpXpXpX4XiXiXeXiXiXiXiXtXiXqXqXkXkXiXBXZX/.) % - - 8 H Y Y Y I H H L / Y Y K u y 8 < = < - - & ; 6 6 j i q >.>.2.D.rXiXiXiXkXtX",
"iXpXpXkXqX8XeXBXtXiXiXiXiXiXiXiXtXiXBXnX/.[ % 5 * - 8 K / Y J H u u L { Y L u 8 - - * * -   6 6 a q.<.e.k <.P.x.t.K.,XiXiXiXkXeX",
"(.lXiX0XpXiXiXiX9XiXiXeXeXiXiXiXiXVX6XT.] , < - * * 8 K / Y H 8 q u L { L i u - - * o o & . 1.t.3.4.m c c 3.y.n O.B.rXiXpXiXkXpX",
"x.`.lXiXpXpXiXpXiXiXiXiXiXiXiXiXmXcXZ.) 8 % - ; * * 8 K Y L u 8 y u L L J u y - * o X X   o a.c.x s k k b g >.Q S m.iXiXiXtXkXiX",
"v.a.!.lXeXeXkXkXkXkXVXVXrX>X+XoXU.n.] 9 - * * - * * y K Y H y - y u J u w q < * o . . o   O i.Z h a a l l j 1.w H Z.kXiXiXiXiXtX",
"j.u.1.8.F.|.~.C.oX}.T.C.n.%.+.` G A H r * o . - * - y K L u 8 - y u u w 8 - - * o . . . o 6 c.r.g f a k j 1.} 9 D F.kXkXVXpXpXiX",
"r.j.e.M : t S 0 F H H S w 8 S P w 8 - = * * * , * - w U F K q - y < - - - - * - *   o   o 6 f.w.h l j O.5.} w i w ~.kXtXkXkXpXpX",
"j.l.z.w.3 $ - r 8 8 q 0 q q u u e 8 - 2 < % % : * & H _ u u q r y - - - - * * * :   O   . : w.k l | 1.O.{ J w 8 8 ~.kXiXkXkXpXiX",
"k.k.r.k o - q - 8 8 8 q y y q q 2 - < - * * * & % r Y _ H K q r y - - - - * * * * o O     % p d l d i L Y K u 8 F }.kXkXkXkXpXiX",
"e.e.<.l - = < * 8 r r r - - - - r - * & & * , % G 6.] P I U 8 r y - * * * * * * o o O   o % - i < - = 8 H U K t G  XVXkXiXiXpXiX",
"!.!.(.Z.6.F 0 - ; ; - - - - < < - - 2 5 , = G 7. X#X9.T ! U u 8 < - * * * * * * % *   o   * 5 u - - y - ; Y X.T ` .XkXiXiXiXpXiX",
"iX6XiXkX&XT.b.+.w q = = = = = = 0 , 0 w G &.T.zXiXzX7..._ K i q 5 * * * * * * * $ < . o   X y u - * * $ - Y ..*.$.&XiXiXqXkXeXiX",
"0X4X6XpXiXiX&X{.H.C.b.&.+.@.` R #.&.7.C.{.%XkXBXiX$X;.*._ K q 0 5 * * * * * * * o * % *     p u - < * $ 8 8 P =.7.vXiXpX9XkXpXpX",
"4X4XpX0XpX0XkXiXiXiXvX&X&X*X+X.X+XlXvXiXkXiXiXiXpX%XN..._ L ; 8 5 - * * * * * * o   * * * * p K - q y r t P T *.b.vXiXeX8XkX8XpX",
"4X4XpXpXpXpXpXpXpXpXpXpXpXiXiXiXiXiXiXiXiXiXiXiXkX*XN.*. .J 9 u - * * * * * * * - * * - - ; u Y F 8 w u K W ..=.M.>XqX0XkXiXiXpX",
"4X4XpXpXpXpXpXpXpXpXpXpXpXpXiXiXiXiXiXiXiXiXiXiXpX*XN.*. .Y 8 u - * * * * * * * - * * - - 8 u { Y 8 u u w Y -.-.G.rXiXpXpXpXiXiX",
"4X4X4XpX4XpXpXpXpXpXpXpXpXpXiXiXiXiXiXiXiXiXiXiXpX$XN.*. .Y t u - * * * * * * * * * * - 2 y L { ..Y t F T ..$.M.zXiXiXpX0X0XiXiX",
"4X4X4XpX4XpXpXpXpXpXpXpXpXpXpXpXiXiXiXiXpXpXpXpXpX$Xb.*._ L w y - * * * * * * * * % * - - y u W :. .F G T @.m.+XiXwXpXiXqXpXiXpX",
"4X4X4X4X4XpXpXpXpXpXpXpXpXpXpXpXpXpXpXpXpXpXiXiXiX>Xb.-._ J q y - * * * * * * * * % % * * - y u W o.] R %.H.%XpXqX8XpXpXiXpXpXpX",
"4X4X4X4X4XpXpXpXpXpXpXpXpXpXpXpXpXpXpXpXpXpXpXpXiXrXV.=. .J q y - * * * * * * * * * . . * - - 8 W L G C.oXbXpX0XpXpXpXpXpXpXpXpX",
"4X4X4X4XpXpXpXpXpXpXpXpXpXpXpXpXpXpXpXpXpXpXpXpXpXrXV.=.T w q y - * * * * * * * * * . . . * - - i J `  XBXkX0XpXiXpXpXiXiXpXpXpX",
"4X4X4X4XpXpXpXpXpXpXpXpXpXpXpXpXpXpXpXpXpXpXpXpX0XrXm.=.Y 8 q y - * * * * * * * * * . . . * - - r t ` +XqX4XpXiXiX4XpXiXiXpXkXpX",
"2X2X2X2X2X2X2X2XpXpXpXpXpXpXpXpXpXpXpXpXpXpXpXpXiXrXC.X.8 % 2 q - * * * * * * * o o o o o o * * < < [ %X4XpXpX8XiXpXpXpXpXpXpXeX",
"4X4X4X4X4X4X4X4XpXpXpXpXpXpXpXpXpXpXpXpXpXpXpXpXkXeXS.I u q - t - - - * * * * - o o o X X o * * $ - $.xXpX4XiXiXpXpXpXpXpXpXpXpX",
"4X4X4X4X4X4X4X4X6XiXpXpX4X6X6X6XeXeXeXeXpXpXpXpXeX>Xb.Q t 8 - u - - - * * * - - * * o X X o * * * * [ xXiXpXiXpXiXiXpXpXpXpXpX4X",
"4X4X6X4X4X4X4XpXiXpXpXpXpXpXiXiXpXpXpXpXpXpXpXpXpX+X#.H t < * y - - * * * * * * - - * * * * * * - % ) >XiXpXpXpXiXiXiXpXpXpXpXpX",
"4X4X4X4X4X4X<X<XpXpXpX4XpXpXpXpXpXpXpXpXpXpXpXpXpX$XS.G H q - y - - * * * * * * 8 - - - - - - - - < [ lXpX2X4XiXpXpXpXpXpXpX<X<X",
"4X4X4X4X4X4X4X4X6X6X4X6X4X4X4X4X6X4X4X4XpXpXpXpXqXiXH.X.H t - y - - * * * * * * - - - - - - - 8 8 , ` $XeX8X8XpX4X4X4X4X4X4X4X4X",
"4X4X4X4XpXpXpXpXiXiXiXiXiXiXiXiXiXiXiXiXpXpXpXpXiXXX#.Q H K - y - * * o o o o * o o o o * - - 8 F w ` *XiXiXiXpXiXiXiXiXiXiXpXpX",
"E.E.E.E.E.E.E.E.E.E.E.E.E.E.E.E.E.E.E.[.[.[.].]. XM.F q i u - ; * * X         X O O O X o * - - r e U R. X].[.[.[.[.[.[.[.[.[.[."
};
