/* XPM */
static char *k_12[] = {
/* columns rows colors chars-per-pixel */
"64 64 238 2 ",
"   c #040514",
".  c #06051D",
"X  c #0A061C",
"o  c #07081C",
"O  c #0B091E",
"+  c #060817",
"@  c #150C1D",
"#  c #30151E",
"$  c #060622",
"%  c #0A0625",
"&  c #060924",
"*  c #0A0924",
"=  c #06062B",
"-  c #0B062A",
";  c #060A2C",
":  c #0B0A2B",
">  c #120B24",
",  c #110C2C",
"<  c #180C24",
"1  c #0C102E",
"2  c #1B132A",
"3  c #1A1427",
"4  c #060A33",
"5  c #0C0D33",
"6  c #0C0E3B",
"7  c #080935",
"8  c #110E33",
"9  c #120E39",
"0  c #0E1134",
"q  c #05113C",
"w  c #0C113C",
"e  c #071338",
"r  c #121235",
"t  c #13133B",
"y  c #19183A",
"u  c #280E26",
"i  c #241324",
"p  c #221A2B",
"a  c #2D1C2B",
"s  c #281827",
"d  c #321D2D",
"f  c #361A28",
"g  c #261937",
"h  c #3C1E30",
"j  c #1F203E",
"k  c #2C222C",
"l  c #38232C",
"z  c #2C2235",
"x  c #382837",
"c  c #421F2E",
"v  c #43222B",
"b  c #4C242B",
"n  c #52282D",
"m  c #4C2B33",
"M  c #482635",
"N  c #572C39",
"B  c #4F3C3B",
"V  c #53313C",
"C  c #593438",
"Z  c #47322F",
"A  c #67383A",
"S  c #713A3F",
"D  c #0B0D42",
"F  c #130E47",
"G  c #0D1243",
"H  c #0C1549",
"J  c #0A1A49",
"K  c #131544",
"L  c #1A1546",
"P  c #151944",
"I  c #1A1A43",
"U  c #15154A",
"Y  c #1A154A",
"T  c #161B4B",
"R  c #1B1C4D",
"E  c #0C1A54",
"W  c #1B1C52",
"Q  c #1D1C5B",
"!  c #141B55",
"~  c #211C4A",
"^  c #211C54",
"/  c #331946",
"(  c #1E214E",
")  c #1A2449",
"_  c #09295C",
"`  c #1D2254",
"'  c #15225C",
"]  c #1C245D",
"[  c #02254F",
"{  c #2B284C",
"}  c #372843",
"|  c #3B3649",
" . c #212354",
".. c #24255B",
"X. c #272A59",
"o. c #282757",
"O. c #3E3A54",
"+. c #2D2E54",
"@. c #181E65",
"#. c #1C2A66",
"$. c #162768",
"%. c #0E3569",
"&. c #15346E",
"*. c #163767",
"=. c #162D70",
"-. c #173878",
";. c #092763",
":. c #262A63",
">. c #2A2B64",
",. c #2C2C6A",
"<. c #252665",
"1. c #28316C",
"2. c #223271",
"3. c #2A3779",
"4. c #323472",
"5. c #47374B",
"6. c #543648",
"7. c #553E55",
"8. c #49324E",
"9. c #653B47",
"0. c #793C45",
"q. c #633C50",
"w. c #523962",
"e. c #0C4576",
"r. c #164679",
"t. c #1E557C",
"y. c #39526D",
"u. c #4B465F",
"i. c #594B55",
"p. c #64444C",
"a. c #694143",
"s. c #774949",
"d. c #69475A",
"f. c #754954",
"g. c #785656",
"h. c #6D5B59",
"j. c #4E5372",
"k. c #6A4C63",
"l. c #6F5B76",
"z. c #74607C",
"x. c #8C5453",
"c. c #93595A",
"v. c #874D56",
"b. c #90546C",
"n. c #956772",
"m. c #AA5866",
"M. c #164884",
"N. c #155B88",
"B. c #145D94",
"V. c #185D94",
"C. c #2A568D",
"Z. c #1A6799",
"A. c #16729F",
"S. c #0F6392",
"D. c #24689A",
"F. c #2D688C",
"G. c #1B6AA3",
"H. c #1878A6",
"J. c #1E7DB3",
"K. c #2779AC",
"L. c #3578AD",
"P. c #5A5A80",
"I. c #605F81",
"U. c #506E8B",
"Y. c #7E6D86",
"T. c #647599",
"R. c #686C96",
"E. c #587FA3",
"W. c #6075A0",
"Q. c #885882",
"!. c #917883",
"~. c #1F83AF",
"^. c #1A86B7",
"/. c #1496BF",
"(. c #1D94BA",
"). c #1598BF",
"_. c #1E99BB",
"`. c #2483AC",
"'. c #2A86A9",
"]. c #2688B7",
"[. c #2198BB",
"{. c #2792BD",
"}. c #3990B3",
"|. c #509FBE",
" X c #149DC4",
".X c #1A96C3",
"XX c #259BC8",
"oX c #16A1C5",
"OX c #18A2CB",
"+X c #19AAD6",
"@X c #17AAD0",
"#X c #24A3CC",
"$X c #29A6CB",
"%X c #34A5C8",
"&X c #2BADD8",
"*X c #33AED3",
"=X c #27B6DD",
"-X c #32B8DE",
";X c #1ABAE3",
":X c #2DBCE3",
">X c #25BBE5",
",X c #32BFE5",
"<X c #4D9BC3",
"1X c #51B1D3",
"2X c #7AA8CC",
"3X c #1DC5EA",
"4X c #1DCBF4",
"5X c #16C5FA",
"6X c #15CDFC",
"7X c #18CEFB",
"8X c #15C7F7",
"9X c #0ED4F5",
"0X c #0DD5FC",
"qX c #0EDCFC",
"wX c #0CD9F5",
"eX c #13D3F6",
"rX c #1BD3F4",
"tX c #13DAF7",
"yX c #15D4FC",
"uX c #18D3FF",
"iX c #19D6FE",
"pX c #19D4FD",
"aX c #14DAFC",
"sX c #1ADBFD",
"dX c #1DD8F7",
"fX c #0FCEF8",
"gX c #27C6EA",
"hX c #36C6EA",
"jX c #23CDF4",
"kX c #28C9F4",
"lX c #22D3FC",
"zX c #23DAFB",
"xX c #26D5F8",
"cX c #21D0EF",
"vX c #13E3FE",
"bX c #19E1FF",
"nX c #26E1FF",
"mX c #8999BD",
/* pixels */
"(.(.(.(.(.(.(.(.(.(.(.(.(.(._.(.(.(._._.(.[._._._._._._._._._._._._.[.[.[.[.[.[._._.[.[.[.[._._._._._._._._._._.[.[.[._._._._._.",
"5X5X5X5X5X5X5X5X6X5X5X5X5XyXyXyX5X5X5XyX5XyXyXyXyXyXyXyXyXyXyXyXyXyXyXyXyXyXyXyXaXyXyXuXuXyXyXyXyXyXyXyXyXyXyXyXyXyXyXyXyXyXyXyX",
"5X5X5X5X5X5X5X5X5X5X5X5X5X5X5X5X5X5X5X5X5X5X5X5XyXyX5X5X5X5XyXyX5X5X5X5XyX5X5X5X5XyXyXyXyXyXyXyX5X5X5XyX5XyXyXyX5X5X5X5X5X5X5X5X",
"5X5X5X5X5X5X5X5X5X5X5X5X5X5X5X5X5X5X5X5X5X5X5X5XyXyXyX5X5X5X5XyX5X5X5X5XyXyX5X5XyXyXuXuXyX5XtX9X5X5X5X5XyX5X5XyX5X5X5X5X5X5X5X6X",
"8X5X5X5X5X5X5X5X5X5X5X5X5X5X5X5X5X5X5X5X5X5XyXyX5X5X5XyX5X5X5X5X5X5X5X5XyXyX5XyXyXyXyXyXyXyXyXuXyXyXyXyXyXyXyXyX5X5X5X5X5X5X5X5X",
"5X5X5X5X5X5X5X5X5X5X5X5X5X5X5X5X5XyXyXyXyX5XyXyXyXyXyXyXyXyXyXyXyXyXyXyXyXyXyXyX5XyXyXyXsXuXyX5X5X5X5X5XyXyX5X5XyXyXyXyXyXyX5X5X",
"5X5X5X5X5X5X5X5X5X5X5XyX5XyXyXyX7XyXyXyX5XyXyXyXyXyXyXyXyXyXyXyXuXuXuXuXyXyXyXyXyXyX7X4X4X4XuXuXyXyXyXyXyXyXyXyXyXyXyXyXyXyX5X5X",
"5X5X5X5X5X5X5X5X5XyXyXyXyXyXyXyXyXyXyXyXyXyXyXyXyXyXyXyXyXyXyXyXyXyXyXyXyXyXyXyXuX=X}.j.y.y.`.OXyXyXyXyXyXyXyXyXyXyXyXyXyXyXyXyX",
"5X5X5X5X5X5X5XuXyXyXyXyXyXyXyXyXyXyXyXyXyXyXyXyXyXyXyXyXyXyXyXyXaXyXaXyXyXuXaXyX}.j.0.S A n h  .t.XXlXaXyXyXuXyXyXyXyXyXyXyXyXyX",
"5X5X5X5X5X5X7XyXyXyXyXyXyXyXyXyXyXyXyXyXyXyXyXyXyXyXyXyXyXyXyXyXsXaX0XyXuX0XyX%Xk.0.s.s.A C n c g  .Z.kXaXyXyXyXyXyXyXyXyXyXyXyX",
"5X5X5X5X5X5X5X5XyXyXyXyXyXyXyXyXyXyXyXyXyXyXyXyXyXyXyXyXyXyXyXyXyXyXyXaXuX0X:XP.0.Z C C C C m b f u R Z.uXuXyXsXyXyXyXyXyXyXyXyX",
"5X5X5X5X5X5X5XyXyXyXyXyXyXyXyXyXyXyXyXyXyXyXyXyXyXyXyXyXyXyXyXyXyXaXyXyXyXyX<Xb.S B p.m v m m b l a g 4.:XaXsXyXyXyXyXyXyXyXyXyX",
"5X5X5XyXyXyXyXyXyXyXyXyXyXyXyXyXyXyXyXyXyXyXyXyXyXyXyXyXyXyXyXyXuXuXaXaXqXgXI.0.0.s.s.A n b v v f u } R.-XaXyX6XyXyXyXyXyXyXyXyX",
"yX5XyXyX5XyXyXyXyXyXyXyXyXyXyXyXyXyXyXyXyXyXyXyXyXaXaXaXyXyXyXyXaXyXrXsXaX|.q.A x.x.s.a.N c f l f a l.mXhX0XuXyXyXyXyXyXyXyXyXyX",
"yXyXyXyXyXyXyXyXyXuXyXyXyXyXyXyXyXyXyXyXyXaXaXaXyXyXaXaXaXyXyXyXyXaXtXaXsXU.n A x.c.s.C v d s f v l Y.2XkX0XsX0XyXyXyXyXyXyXyXyX",
"yXyXyXyXyXyXyXyXuXuXyXyXyXyXyXyXaXyXyXyXaXaXaXaXyXyXaXaXaXyXyXyXuXaXuXuX4XT.f.V B p.m M a 2 2 l M N z.1XuXyXaXyXyXyXyXyXyXyXyXyX",
"yXyXyXyXyXyXyXyXyXyXyXyXyXyXaXyXaXaXaXaXyXaXaXaXaXaXaXaXaXaXaXaXyXaXyXqXgXT.n.p.z z p 3 , * 3 M b d.T.:XsXuXaXuXaXaXaXaXyXyXyXyX",
"yXyXyXyXyXyXyXyXyXyXyXyXyXyXaXyXaXaXaXaXaXaXaXaXaXaXaXaXaXaXaXaXtXsXuXsX=Xj.q.6.g 2 > : : * z V q.Y.1XrXyXsXuXaXaXaXaXaXyXyXyXyX",
"yXyXyXyXyXyXyXyXyXyXyXyXyXyXyXyXaXaXaXaXaXaXaXaXaXaXaXaXaXaXaXaXtXyXqXzXH.I i i 2 > * 1 , 3 | 7.z.|.gXaXaXaXuXaXaXaXaXaXyXaXyXyX",
"yXyXyXyXyXyXyXyXyXyXyXaXyXyXyXaXyXaXaXaXaXaXaXaXaXaXaXaXaXaXaXaXaXsXbX*X*.2 p 2 2 2 3 > > 2 | u.T.*XuXsXaXaXaXtXaXaXaXaXaXaXyXyX",
"yXyXyXyXyXyXyXyXyXyXaXaXyXaXaXaXyXaXaXaXaXaXaXaXaXaXaXaXaXaXaXaXsXaXzX'./ f s i > O O * > 2 z j.<XxXaXaXaXaXaXsXaXaXaXaXaXaXaXyX",
"yXyXyXyXyXyXyXyXyXyXaXaXaXaXaXaXaXaXaXaXaXaXaXaXaXaXaXaXaXaXaXaXsXaXaX#XC.) r < >   @ p p p g P.hXsXsXaXqXaXaXaXaXaXaXaXaXaXaXaX",
"yXyXyXyXyXyXyXyXyXyXaXaXaXaXaXaXaXaXaXaXaXaXaXaXaXaXaXaXaXaXaXaXsXaX0XsXgX$XF.j p @ s l d a z j.hXtX0XaXaXaXaXaXaXaXaXaXaXaXaXaX",
"yXyXyXyXyXyXyXyXyXyXaXaXaXaXaXaXaXaXaXaXaXaXaXaXaXaXaXaXaXaXaXaXsXwXaXqXvXzXK.w.6.M m m l a 3 I S.3XaXaXaXuXsX9XaXaXaXaXaXaXaXaX",
"yXyXyXyXyXyXyXyXyXyXaXaXaXaXaXaXaXaXaXaXaXaXaXaXaXaXaXaXaXaXaXqXaXzXxX3X$XD.` d.s.f.p.m a 3 , $ _ =XvX0XaXaXsXaXaXsXaXaXaXaXaXaX",
"yXyXyXyXyXyXyXyXyXyXaXaXaXaXaXaXaXaXaXaXaXaXaXaXaXqXaXaXqXvXzXzX&X`.B.r.-.' ~ d.c.f.m i > , 5 5 E K.lXaXaXaXaXsXaXaXaXaXaXaXaXaX",
"yXyXyXyXyXyXyXyXaXaXaXaXaXaXaXaXaXaXaXaXaXaXaXaXaXbXqXsXxX=X{.Z.&.' Q <.:.:.{ 6.g.V i % 0 0 w L W $.K.jXaX9XaXaXaXaXaXaXaXaXaXaX",
"yXyXyXyXyXyXyXyXaXaXaXaXaXaXaXaXaXaXaXaXaXaXaXaXsXaXqXxX{.e.' Q U ^ o.>.:.>. .g x g 9 K K w 6 D U F $.].gXsXaXaXaXsXsXaXaXaXaXyX",
"yXyXyXyXyXaXaXaXyXyXaXaXaXaXaXaXaXaXaXaXaXaXaXaX0XaXxX`._ D U U T  .....^ W R I t L W W R  .X.......Q =.K.:XzXaXaXaXaXaXaXaXaXaX",
"yXyXyXyXyXaXaXaXyXyXaXaXaXaXaXaXaXaXaXaXaXaXaXaXaXlX].#.K T W G W ......` W P I K R R R `  .X.>.>.>.1.4.3.K.,XsXaXqXaXaXaXaXaXaX",
"yXyXyXyXyXyXaXaXyXyXaXaXaXaXaXaXaXaXaXaXaXaXaXaXsX#Xr.F K T R R ] :.:. .` ` t L t R ( ( ( R R (  . . .>.<.#.K.hXsXaXaXaXaXaXaXaX",
"yXyXyXyXyXaXaXaXyXyXaXaXaXaXaXaXaXaXaXaXaXaXaXaX>Xe.W R W o.R ` >.:...` W R K R  .( R R R R R T W T R Y R Y #.L.xXlXaXaXaXaXaXyX",
"3XuXyXyXyXyXyXuXaXaXtXtXtXaXaXaXaXtXaXaXaXtXaXvX#XE 6 ..>.W  ...X. .U K  .R R o.( K W ~ ( K U Y K U K t t K ! 2.{.nXqXaXaXuXaXaX",
"<XjXyXyXyXyXwXaXaXaXaXaXaXaXaXaXaXwXaXaXaXtXtXzXG.G 0 :.,.......` U K R R R `  .R K K t t 6 6 t w w K 5 9 r G Q D.gXaXaXaXaXaXaX",
"Q.-XaXuXuXyXyXyXyXaXaXsXuXaXaXaXaXaXwXtXsXaXsX:X%.5 5 :.,... . .K 6 K  .R R  .R K t 6 0 0 5 5 : 1 : 5 5 : 9 t W 3.XXsXaXaXaXaXyX",
"w.F.gXlX7XuXyXaX0XyXaXaXsXaXaXaXaXaXaXvXaXbX>XN.6 - 5 >.,...R U 5 6 I  . .R T K 5 5 : : * % % y z x } g 5.d.k.8.+.K.sXaXsXaXyXaX",
"U.6.U.hXuX5XsX9XyXyXyXyXaXaXaXaXaXaXaX9XvXcXN.e - * : >.:.` K 6 : t I W W R w 5 5 , :   3 x d i.p.9.N x !.n.f.7.} D.sXaXyXyXyXaX",
"u.v.b.E.jX0X5XsXaXaXaXaXaXaXyXyXaXyXaXvXcXA.q - : * - ....T K 5 : t I R R K 5 : : $ % X 6.n.9.V V v m M 6.6.g t Y Z.sXaXaXuXsXaX",
"m p.m.k.'.jXsXyXyXyXaXaXaXaXaXaXaXrXsXgXZ.G - - : * :  .R K t : 5 t I I t 9 5 : *   $   6.n.C # d x d h 8.} : K U J.sXaXaXaXaXaX",
"N N f.f.O.r.XXkXjX4XrXsXsXsXsXsXsXzX:XZ.H % : - = * 9  .K 5 0 : t I I t r 5 : = O X $   i.g.f s a x a a u.I 6 w ! XXbXyXyXyXyXsX",
"M m v.x.p.i w *._ r.`.~.H.`.K.J.A.S.%.w , : & & * $ - I w r 5 5 t t 0 r : : : : %     * !.h.l i s z } O.{ 0 7 6 ;.=XbXyXaXyXyXaX",
"# V x.c.g.k $ % 9 7 G H G K G K G G 6 5 , % $ % % $ : r 5 0 ; 9 t r r 5 : : : : * X   X i.i.x z x 5.O.{ r 5 t 6 %.gXsXyXaXyXyXyX",
"M 7.s.s.B 3 : : ; ; 5 5 5 5 5 9 0 9 5 ; : * % & $ $ ; t 5 ; 1 r r r 5 : : : - : X O X X z | x } | { ) P y t t 7 M.cXsXyXyXaXaXyX",
"L.F.y.| ) 0 5 e : , : : : : : r 5 5 5 = $ * * & & : : 5 5 : r r r : : : : % % : $ X X X * z y g , r t K P t 6 6 B.sXyXuXyXyXaXyX",
"8X4X,X%X`.e.G - & : : : : : : , 5 5 5 5 $ $ * : > % t K 6 t 5 0 : : : : * % % * * X X X $ r : * : : 5 P  ...T G H.bXyXuXyXyXyXyX",
"yX0XyXyXlX=XS.E ; - - % ; : : , : : : : : * * : = K E R G K w r : : : : * * * : * X X O : y 5 % $ $ ; ; T ,.<.H .XvXaXsXyXyXyXyX",
"7X5XyX0X5XuXgXXXe.[ q 5 = - % , % : * : - $ = e N.}.&.W T w 5 9 : : - : : * * * * * O O * y 5 $ : $ ; 5 K ] #.$.=XvXyXyXyXyXyXyX",
"tXyX5XyX5XyXuXjX:XXX`.N.%.E q e 7 - - 6 D J e.~.rXgX-...) t 0 y : : * : * * * *   * * O * I r : : : 0 5 U ] &.-.gXaX0XyXyXyXyX0X",
"5X5X5XuXuXyXyXyXuXuXlXjX>X.X^.H.B.B.B.Z.^.OXgXzXaX>X=...R t t 9 : : * * * * * * O % % $ : y t t 1 6 K I W 2.#.=.uXyXaXyXyXyXyXyX",
"5X5X5XyXyXyXyXyXyXyXyXyXyXyXuXuXuXuXuXuXsXsXaXaXaX+X2.W R t t 9 : : * * * * * *   * : : : I o.t 9 w w 6 ] ,.@.G.yXyXyXyXyXyXyXyX",
"5X5X5XyX5XyXyXyXuXyXyXyXyXyXyXyXyXyXyXaXaXyXyXyXaX+X2.Y ^ K K 9 : : * * * * * * * : - 5 : t X.( K K P ! 1.<.M.3XyXyXyXyXyXaXyXuX",
"5X5X5XyX5XyXyXyXyXyXyXyXyXyXyXyXuXuXuXuXyXyXyXyXyX;X&.Q ..K K r * * * * * * * * : : r y t t R X. .T W Q $.B.&XsXyXyXyXyXyXyXyXyX",
"5X5X5X5XyXyXyXyXyXyXyXyXyXyXuXyXuXyXaXyXyXyXyXyXqX>X&.,. .t t 9 * : * * * * * * : : : r I I P R ` ] E -.].;XsXyXyXyXyXyXyXyXyXyX",
"5X5X5X5X5XyXyXyX7XuXuXuXuXyXyX9XuXuXyXyXyXyXuXuXaX;X-.4.K t 9 : * % * * * * * * & * * : : 0 P R T J Z.=XxX0XyXaXyXyXyXyXyXuXyXyX",
"5X5X7X5XyXyXyXyX6X5X5XyXyXyXyXyXyXyXyXuXuXuXyXyXaX;X-.>.K t t : * * * * & * * * * *   * * : y R U E $XsXaXyXyXyXyXyXuXyXyXuXyXyX",
"5X5X7X7X7XyXyXyX7XuXyXyXyXyXyXyXyXyXyXyXyXyXyXyXyX;Xr.^ K t t 9 : * * & & & * *   O O % $ & r I H E *XsXyXyXyXyXyXuXuXuXyXuXuXyX",
"5X5X5X5X5XyXyXyXyXyXyXyXyXyXyXyXyXyXuXuXuXuXyXyX0XcXC.D K K 9 5 : : * $   O * * X % * * o * 5 K :.! ^.aXyXuXyX5XyXyXyXyXyXyXyXyX",
"5X5X5X5X5X5XyXyXyX5X5XyX5XyX5XyXyXyXyXyXyXyXyXyXyXjXM.K 6 9 t : : * * *   o O     X * * *   : 5  .' .XsXyXuXsXyXuXuXuXuXuXuXuXuX",
"5X5X5X5X5X5X5X5X5X5X5X5X5X5XyXyXyXyXyXyXuXuXyXyXqX+X&.L 0 t y : : * * * * * $ $ X % : * * * * : 5 q XXsXuXuXuXuXyXyXyXyXyXyXyXyX",
"5X5X5XyX5XyXyXyX5X5X5XyXyXyXyXyXyXyXyXyXyXyXyXyXyX.X@.L 5 5 P t % : * * * * * * * * % * * * * : - 7 {.uXtXyXyX7XyXyXyXyXyXyXyXyX",
"5X5X5X5X5X5X5X5X5X5X5XyXyXyX5X5X5X5XyXyXyXyXyXyXuX@Xr.K w 5 t r : : * * * * * * : : * * * * * * : = A.4XtXyXyXyXyXyX5X5X5X5XyX5X",
"5X5X5X5X5X5X5X5X5X5XyXyXyXyXyX5X7X5XyXyXyXyXyXyXyXsXK.W 6 5 t y : : : * * * * * , , : : : : : : > : H.sXyXyXyXyXyXyXyXyXyXyXyXyX",
"5XyXyXyX5XyXyXyXyXyXuXuXuXuXuXuXuXuXuXyXyXyXyXyXuXjXD.W F 6 t r : : * * $ $ $ $ * * * * : : 5 5 , ; ].sXyXuXyXsXuXuXuXuXuXuXuXuX",
").).)..X).).).).).).).).).)..X.X.X.X.X.X.X.X.X.XOXG.H K t 9 : * o o O O o o + +           * r r r % D.OXoXoXoX.XoXoXoX.XoXoXoXoX"
};
