/* XPM */
static char *k_2[] = {
/* columns rows colors chars-per-pixel */
"64 64 239 2 ",
"   c #05061C",
".  c #0A051C",
"X  c #05081C",
"o  c #09091E",
"O  c #050716",
"+  c #130B1D",
"@  c #15091D",
"#  c #060623",
"$  c #0A0525",
"%  c #050A24",
"&  c #0A0924",
"*  c #05062A",
"=  c #0A052B",
"-  c #060B2B",
";  c #0B0B2C",
":  c #120C24",
">  c #1B0C24",
",  c #110C2D",
"<  c #110127",
"1  c #0D112C",
"2  c #02102A",
"3  c #131124",
"4  c #1B1324",
"5  c #1B162A",
"6  c #0D0634",
"7  c #050B32",
"8  c #0D0D32",
"9  c #0C0C3A",
"0  c #07073A",
"q  c #110C34",
"w  c #130E3B",
"e  c #130739",
"r  c #0D1134",
"t  c #0E123B",
"y  c #071538",
"u  c #121234",
"i  c #1A1334",
"p  c #13133B",
"a  c #1B143C",
"s  c #121A3E",
"d  c #1B1A3B",
"f  c #250C27",
"g  c #241424",
"h  c #24152A",
"j  c #241A2A",
"k  c #2B1C2D",
"l  c #2A1528",
"z  c #331C2C",
"x  c #361A26",
"c  c #281938",
"v  c #321C36",
"b  c #3C212B",
"n  c #282338",
"m  c #352438",
"M  c #4A1E28",
"N  c #46252D",
"B  c #5D2A2C",
"V  c #452835",
"C  c #572B35",
"Z  c #58363B",
"A  c #4B333C",
"S  c #67383C",
"D  c #6C3435",
"F  c #0A0B43",
"G  c #090D46",
"H  c #140D44",
"J  c #110743",
"K  c #0D1343",
"L  c #0D1B4D",
"P  c #081448",
"I  c #141443",
"U  c #191644",
"Y  c #151A44",
"T  c #1B1B42",
"R  c #13144B",
"E  c #1A1649",
"W  c #141B4B",
"Q  c #1B1A4A",
"!  c #0C1A54",
"~  c #191550",
"^  c #1D1C53",
"/  c #141954",
"(  c #211B4D",
")  c #221945",
"_  c #231E53",
"`  c #1B214B",
"'  c #15244F",
"]  c #0C2759",
"[  c #1D2351",
"{  c #1C2159",
"}  c #13215A",
"|  c #0E325F",
" . c #0C264E",
".. c #252547",
"X. c #3B2B43",
"o. c #232355",
"O. c #22235B",
"+. c #272759",
"@. c #333659",
"#. c #0E2864",
"$. c #172864",
"%. c #0E3769",
"&. c #16386C",
"*. c #183A78",
"=. c #093C73",
"-. c #292B66",
";. c #332C66",
":. c #2A396A",
">. c #393A6A",
",. c #242F75",
"<. c #23387A",
"1. c #30327C",
"2. c #442941",
"3. c #463445",
"4. c #573A48",
"5. c #493A55",
"6. c #763D43",
"7. c #6E3440",
"8. c #2F435E",
"9. c #18457B",
"0. c #0F456F",
"q. c #2B5476",
"w. c #584953",
"e. c #5A4349",
"r. c #66434C",
"t. c #764549",
"y. c #684758",
"u. c #754E55",
"i. c #5D4962",
"p. c #4C5876",
"a. c #755860",
"s. c #65596D",
"d. c #60617D",
"f. c #8A3C3C",
"g. c #864748",
"h. c #8C5555",
"j. c #98666C",
"k. c #A27975",
"l. c #B1807B",
"z. c #164C84",
"x. c #0F5183",
"c. c #1A588A",
"v. c #175B96",
"b. c #28498A",
"n. c #2B5A96",
"m. c #2C5488",
"M. c #176797",
"N. c #12739A",
"B. c #146A91",
"V. c #2C6797",
"C. c #1B77AA",
"Z. c #1A6DA4",
"A. c #2477AB",
"S. c #2A75A9",
"D. c #537290",
"F. c #6D688E",
"G. c #32819F",
"H. c #1E8EBA",
"J. c #188AB8",
"K. c #0F97BF",
"L. c #1E99B6",
"P. c #1195BD",
"I. c #1E94BB",
"U. c #1298BE",
"Y. c #1D97B8",
"T. c #1B83AB",
"R. c #228CBB",
"E. c #2083BA",
"W. c #2293BB",
"Q. c #2199BB",
"!. c #2094B3",
"~. c #3287B6",
"^. c #4A8CAF",
"/. c #6F95B3",
"(. c #139CC5",
"). c #1C9BCA",
"_. c #1E8CC1",
"`. c #2395C3",
"'. c #249AC4",
"]. c #2E93C8",
"[. c #12A0C6",
"{. c #16A3C7",
"}. c #1FA6D7",
"|. c #1CB4DB",
" X c #0FA1D4",
".X c #26A3CD",
"XX c #33ABCA",
"oX c #25A5D4",
"OX c #38A9D1",
"+X c #25B5DB",
"@X c #31B5D3",
"#X c #1EB6E3",
"$X c #24BBE3",
"%X c #27BBE9",
"&X c #33BCE0",
"*X c #46B2D4",
"=X c #1BC6EB",
"-X c #0ECEF8",
";X c #15C4F6",
":X c #13CCF6",
">X c #1CCCF3",
",X c #14C5FA",
"<X c #14CDFB",
"1X c #19CDFD",
"2X c #0DD3F5",
"3X c #0CDBF7",
"4X c #0ED4FB",
"5X c #0DDBFC",
"6X c #05D7F7",
"7X c #14D3F6",
"8X c #1BD4F6",
"9X c #13DAF7",
"0X c #1BD9F6",
"qX c #12D2FE",
"wX c #15D1FF",
"eX c #16D1FE",
"rX c #16D1FD",
"tX c #12D5FF",
"yX c #15D4FB",
"uX c #18D2FB",
"iX c #1AD4FD",
"pX c #14DAFC",
"aX c #1ADBFE",
"sX c #23CDED",
"dX c #26C6E8",
"fX c #36CAEF",
"gX c #24D1ED",
"hX c #25CAF3",
"jX c #23D4FB",
"kX c #27D6F7",
"lX c #32CBF1",
"zX c #0FE2FE",
"xX c #14E2FE",
"cX c #1AE2FE",
"vX c #24E2FF",
"bX c #4EC1D6",
"nX c #44C8EF",
"mX c #A59B9D",
"MX c #C1948E",
/* pixels */
"H.H.H.H.I.H.I.I.I.I.I.I.I.I.I.I.I.I.I.I.I.I.I.I.Y.Y.Y.Y.Y.Y.Y.Y.!.Y.Y.!.Q.Q.Y.U.'.Y.Y.L.L.L.Y.Q.Q.Q.Q.Q.Q.Q.Q.Q.Q.Q.W.I.I.I.I.I.",
";X;X;X;X;X;X;X;X,X,X,X,X,X,X,X,XqXqXqXqXqXqXqXqXqXqXqXqXqXqXqXqXqX,X-X4XqXpXqXqXqXaXuXqX,XqXqXuXqXqXqXqXqXqXqXqXqXqXqXqXqXqXqXqX",
";X;X;X;X;X;X;X;X,X,X,X,X,X,X,X,X,X,X,X,X,X,X,X,X,X,X,X,X,X,X,X,XqX,X:X,X,XqXqXqXqXqXqX,X,XqXqX:XqXqXqXqXqXqXqXqX,X,X,X,X,X,X,X,X",
";X;X;X;X;X;X;X;X;X,X,X,X,X,X,X,X,X,X,X,X,X>X>X>X:X:X:X:X:X:X:X:X,XqXqXqXqX,X,X2XqXqXqXaXuX7X:XuX,X,X,X,X,X,X,X,X,X,X,X:X:X:X:X:X",
";X;X;X;X;X;X;X;X;X,X>X,X>X>X,X,X>X>X>X>X>X>X>XuX,X,X,X,XqXqXqXqXqXqXqX>X>X,X7X2XuX,X:X>XuXuX,XqXqXqXqXqXqXqXqXqX,X,X,X,X,X,X,X,X",
";X;X,X;X;X,X,X,X,X,X,X,X,X,X,XqXqXqXqXqXqXqXqXqXqXqXqXqXqXqXqXqX7X7X4XqXqXuXqX:XuXuXqXqXqXuXqX2XqXqXqXqXqXqXqXqXqX7X7X7X7X7X7X:X",
",X,X,X,X,X,X,X,X,X,X,X:X:X:X7X7XqXqXqXqXqXqXqXqXqXqXqXqXqXqXqXqX:X4X5XqXdXOX~.~.'.+XhXuXqXqXuXuXuXuXuXuXuXuXuXuXqXqXqXqXqXqXqXqX",
",X,X,X,X,X,X,X,X,X,X,X,X,X,XqX7X:X:XqXqXqXqXqXqX7X7XqXqXqXqXqXqXuXpX>XXXD.y.7.D 2.@.B.{.>XaXuX7XuXqXqXqXqXqXqXqXqXqXqXqXqXqXqX,X",
",X,X,X,X,X,X,XqXuXuXuXqXqXqXqXqXqXqXuXuXqXqXqXqXqXqXqXqXqXqXqXqX,X5XOXs.g.g.f.B B M l ..B.$XpXqXqXqXqXqXqXqXqXqXqXqXqXqXqXqXqXqX",
",X,X,X,X,X,X,X,XuXuXqXqXqXqXqXqXqXqXqXuXqXqXqXqXqXqXqXqXqXqXqXqXqXlXD.h.h.t.S C C b k c { B.;XpXqXqXqXqXqXqXqXqXqXqXqXqXqXqXqXqX",
",X,X,X,X,XqXqXqXuXqXqXqXqXqXqXqXqXqXuXuXuXuXqXqXqXqXqXqXqXqXqXqXjX].y.h.t.N V N z z k l v $..XaXqXqXqXqXqXqXqXqXqXqXqXqXqXqXqXqX",
",X,X,X,XqXqXqXqXuXuXqXqXqXqXqXqXqXqXqXqXqXqXqXqXpXqXqXqXqXqXqXqXuX^.a.h.B Z e.m g l k j m >.OXaXqXqXqXqXqXqXqXqXqXqXqXqXqXqXqXqX",
",X,XqXqXqXqXqXqXuXuXqXqXqXqXqXqXqXqXqXqXqXqXqXqXqXqXqXqXqXqXqXqXgXD.u.D D S Z N z l j h v F.nX-XqXqXqXqXqXqXpXpXqXqXqXqXqXqXqXqX",
"qXqXqXqXqXqXqXqXuXuXqXqXqXqXqXqXpXpXpXpXpXpXqXqXqXqXqXqXpXpXpXpXXXF.6.M 6.h.g.B N z k n m F.fX5XpXpXpXpXqXqXpXpXqXqXqXqXqXqXqXqX",
"qXqXqXqXqXqXqXqXuXuXuXqXqXqXqXqXpXpXpXpXpXpXpXpXqXqXqXpXpXpXpXpX^.y.C N S h.t.C z z m n c 8.+XxXpXpXpXpXqXqXqXpXqXqXqXqXqXqXqXqX",
"qXqXqXqXqXqXqXqXuXuXuXqXqXqXqXqXqXpXpXpXpXpXpXpXpXqXqXpXpXpXpXpXD.r.t.3.l Z A z g 5 n c l :.sX2XpXpXpXpXqXqXqXqXqXqXqXqXqXqXqXqX",
"qXqXqXqXuXqXqXqXuXuXuXqXqXpXpXpXpXpXpXpXpXqXpXqX9XxXpXqXqXuXaXaXc.i.j.r.b k g @ @ 1 5 c ;.'.pXzXpXpXpXpXpXpXpXpXpXpXpXqXpXpXpXpX",
"qXqXqXqXuXqXqXqXuXuXqXqXqXpXpXpXpXpXqXqXpXpXqXpXaXpXqXqXpX5X5XuXq.3.r.4.m h : % o 3 3.D.^.gXxX9XpXpXpXpXpXpXpXpXpXpXpXqXpXpXpXpX",
"qXqXqXqXuXqXqXqXuXqXqXqXqXpXpXpXpXpXqXpXpXpXpXpXpXpXpXpXqXpXxX>X:.v z h f @ : : 3 5 s./.kXpXpXaXpXpXpXpXpXpXpXpXpXpXqXqXpXqXpXpX",
"qXqXuXuXuXqXqXqXqXqXqXqXqXpXpXpXpXpXpXpXpXpXpXpXpXaXaXaXqXpXpX}.' c j > f g j 4 5 c d.*XpX5XpX9XpXpXpXpXpXpXpXpXpXpXpXpXpXpXpXpX",
"qXuXuXuXqXqXqXqXqXqXqXpXqXpXpXpXpXpXpXpXpXpXpXpXpXaXuXpXpXxX8X].) l g 4 j j 5 : 3 c p.dX4XxXpXqXpXpXpXpXpXpXpXpXpXpXpXpXpXpXpXpX",
"uXuXuXuXqXqXqXqXqXqXqXpXpXpXpXpXpXpXpXpXpXpXpXpXpXpXqXpXpXpXaX%Xq...k h 5 o o 4 @ c p.sXaXpXpXpXpXpXpXpXpXpXpXpXpXpXpXpXpXpXpXpX",
"qXqXuXqXqXqXqXqXqXqXqXpXpXpXpXpXpXpXpXpXpXpXpXpXuXpXpXpXpX9XxX0X&Xq.n > > @ @ @ > i 8.+XvXpXpXxXpXpXpXpXpXpXpXpXpXpXpXpXpXpXpXpX",
"qXqXqXqXqXqXqXqXqXqXqXpXpXpXpXpXpXpXpXpXpXpXpXpXpXcXaXaXxXaX=X.Xx...3.m g g f 4 3   , N.xX5X5X0XpXpXpXpXpXpXpXpXpXpXpXpXpXpXpXpX",
"qXqXqXqXqXqXqXqXpXqXqXpXpXpXpXpX5X8X7X5XqXuXpXxXaX8X+X.XT.c.%.} E q X.e.Z A m 3 @ & , &.+XcXqXcXpXpXpXaXpX3X9XjXpXpXpXpXpXpXpXpX",
"qXqXqXqXqXqXqXqXpXpXqXpXpXpXpXpX9XcXpXqXpX5X8X$XR.Z.z.#.! L / { ` T v 4.u.r.k & % , 8 0 *..XcX6X9X5XxXpXpXxXxX2XpXpXpXpXpXpXpXpX",
"qXqXqXqXqXqXqXqXpXpXpXpXpXpXpXpXpXpXqXaX8X|.C.9.] / ~ ~ ^ ^ ^ _ ..o.c 2.y.A > ; 8 8 8 6 F 9.'.jXxX9XpXpXpXpXpX9XpXpXpXpXpXpXpXpX",
"qXqXqXqXqXqXqXqXpXpXpXpXpXpXpXpXaX:XaX>X`.n.{ H Y a U U Y Q Q Q Q ^ a n m i q p ) Y I I L E <.].hXaX9X3XpXpXpXcXpXpXpXpXpXpXpXpX",
"qXqXqXqXqXpXpXpXqXqXqXpXpXpXpXpXpXpX=XE.b.-.I p 8 q q w I I I I E I s c a w T s Q { ^ ^ o.O.-.,.A.%XcX3XqXpXpXaXpXpXpXpXpXpXpXpX",
"qXqXqXqXqXpXqXpXqXqXpXpXpXpXpXpX3X0XW.b.-.W 9 r p p p Y W W E E p U ) a i a Q Y I ( _ O.O.{ O.-.,.V.oXhXaXqXqXpXpXpXpXpXpXpXpXpX",
"qXqXqXqXqXqXqXqXqXqXqXpXpXpXpXpXxX$Xn.-.{ 7 6 p t I I E Q Q E I i ) _ a q p I Y I Y U I W W E W { { 9.W.gXaXqXpXpXpXpXpXpXpXpXpX",
"qXqXqXqXqXqXqXqXqXqXqXpXpXpXpXpXaXR.<.( p r t I I I I I E Q Q Q a U _ I t Y I U I y t ) U K Y Y p Q ~ *.`.0XzXaXpXpXpXpXpXpXpXpX",
"qXqXqXqXqXpXpXqXuXpX7XpXpXpXaX5X%Xn.^ p 8 p I I I I Q I I I p p p +.p 8 p p U p p p I I U I I I I w t E *.+XpXpX5XpXaXuXpXpXpXpX",
"qXqXqXqXqXpXpXqXpX7X8X8XpXpXqXxXoX9.E p 8 p U I I I I p p I t p T ..p 8 p p p p p p p p p p p p p w 9 E } H.8XpXpXpXpXpXpXpXpXqX",
"qXqXqXqXqXpXqXqXpXaXaXpXaXpX2XvXS.$.9 u ; q T Y p p p p t p 8 r ..T p 8 u p p 8 8 8 8 8 8 8 8 8 q 8 7 H G z.dXxXpXpXpXpXpXpX4XqX",
"qXqXqXqXqXpXqXqX8XaXpXaXqXpXuX%X9.K = ; ; u Y Y p u u 8 8 u 8 u ..p u 8 8 u 8 8 ; ; ; ; ; ; 8 8 ; 8 7 w F $.oXpX5X5XpXpXpXpXpXaX",
"qXqXqXqXqXqXqXqXpXpXqXqX:XcXdXZ.L 6 ; & ; 8 p ` p 8 8 ; ; 8 ; u ..8 8 8 ; 8 ; ; ; ; ; ; ; ; ; ; ; 8 8 p K ~ R.aXpXaXaX8XuXaXaXpX",
"qXqXqXqXqXqXqXqXpX4X5XqXaXkXT.} 6 = ; & ; 8 p ` p 8 8 ; ; ; ; d T 8 ; ; ; ; ; ; & & & & ; ; ; ; - 8 p t Y ~ Z.aXaXpXpXpXaXaXaXpX",
"qXqXqXqXqXqXqXqXqXpXpX7XsXW.| 6 ; ; & & & 8 w Q u ; 8 ; ; ; , c u ; ; ; ; ; ; ; & & & & & & & ; ; 8 w t I L v.aXpXpX5X0XsX+XXXOX",
"qXqXqXqXqXqXqXqXqXpXpXhX`.&.q % u % % & & 8 p ( q ; q 8 ; ; u ..; ; ; ; ; ; ; & & & & & & & & & 8 8 w t w P v.aXxX7XlX*X^.p.5.i.",
"uXuXqXqXqXuXuXuXpXsX.XM.] 8 ; & 8 < X   ; q Y I ; u ; ; * ; d d ; ; ; ; & & & & . o o & # % ; 8 7 = 7 8 d p 9.8XpXlX/.a.4.V N 5.",
"qXuXuXqXqXjX$X.XA.z.#.L t 8 , : % & & : - 8 a p ; u ; ; ; r d u ; ; ; & & & & & . o o . # & ; 8 ; ; r p t 8 &.=XaXbXmXt.V k z X.",
"+X).)..X`.N.=.$.E F 9 p u ; &   & = - . # i T = 8 8 8 ; ; u i ; ; & & & & & & & . o o o   & ; 8 q 8 ; w t H } {.bXmXk.4.2.z v ..",
"$.! P L L F 0 w w p p r ; ; & & = q &   s T s ; u 8 8 ; 8 u u % & & & & & & & & & o o o   & ; u q 8 - q p E W G.mXMXk.w.3.v @.V.",
"- 8 8 8 8 q r y w 8 8 r u ; & & % ; < ] !.0.q 8 p 8 8 8 8 u ; # & & & & & & & & & o o   X & 8 p 7 8 7 q q p t p.MXj.u.w.5.q.].lX",
"1 & & ; ; - - y 8 r r ; ; ; ; 1 : . 9 C.hX0.q Q p 8 8 8 ; u ; % & & & & & & & & & & .     & 8 p y 9 7 8 q t r @.i.4.X.>.S.&XaXpX",
"1 ; ; ; 8 8 8 8 2 u , & ; 1 ; & 7 | N.jX#X} p Y p 8 8 8 ; 1 & & & & & & & & & & & & .     & u p r 9 9 r p p 9 a a n T b.dXaX6XqX",
"; % - 8 8 8 ; ; ; ; - ; ; = * s 0.+X4XvXJ.o...Q p 8 8 8 ; ; & & & & & & & & & & & & . O   & u p ; t I s s w I 9 0 7 9 z.>XuXqXuX",
"0.L 7 7 8 = = ; . & 8 8 F #.B.I.>XqX5XaXM._ Q { p u ; * ; ; ; ; & & & & & & & & % - & & o .  .W w U ` Y I Y w 8 6 t 6 9.dXzXqXqX",
"+X`.C.B.x.%.| | | %.9.M.I.|.8XcXuXqXpX>Xv.O.Q ^ p r - ; u q ; & & & & & & & & & & r ; %   . r L U ` o.Q K W a 7 * e 0 M.jXpXuXuX",
"pX,X>X>XhX%X$X#X#X$XhXhXpX5XqX>XpX7XpX|.b.-.W ^ p 8 - ; u u ; & & & & & & & & & & 8 u u # & ; *.^ +.+.W W I w y t J *..XuX,XaX7X",
",X>X,XqXqX>X>XqXqXqXqXqX4X4XqXuX4XuXpX}.<.^ E ^ 8 r r 8 u u ; & & & & & & & & & % ; u c t ; 7 T.&.-.-.W H K P I E %.).jXuXuXaXqX",
";X,XqXqX:X>XuXqXqXqXqXqXuXuXuXuXqXuXpXoX*.E U I 8 p p 8 8 , & & & & & & & & & & % = 1 d T 8 y oXJ.*.~ W Y K L / c.R.jXpXuXuX2XuX",
";X>X>X>X,X,X,X,X7XqXuXuXqX:X>X>XuXqXpX%Xv.! U 8 p Y p ; ; ; & & & & & & & & & & & & % ; p q ] +XhXC.#.F F ~ ,.S.+XkXaX7X2X2X:XuX",
"uX>X:X,X,XqXuXuXuXuXqXqXqXqXqXuXqXqXqXqX).9.F 9 Q T r ; ; ; & o & & & & & & & & & & % X & q *.%XuX=XJ.*.$.v._.lXqXaXuXuXqX7XuX,X",
",X,X:X>XuXqXqXqX,XqXqXqXqX,X7X7X4X5X-X6XjXV.0 Y +.Y - ; 8 ; # & & & & & & & & & &   % o . 8 c.kX4XqXaX=X|.hXjX:X,XqXqXqXuXqX2XqX",
",X,X,X,X,X,XqXqXqXqXqXqXqXqXqXqX:XuXqX4XdX9./ -.( p = = ; ; ; # & & & & & & & & . & & , # y 9.%XpXpXpXpXqXqXpXpX7X7X7X7XqXqXqXqX",
",X,X,X,X,X,X,X,XqXqXqXqXqXqXuXuXuX,XuXqX X*.;.;.p 8 = ; ; ; & & & & & & & & & & o & & ; & = E C.pXpXqXqXqXqXqXqXqXqXqXqXqXqXqXqX",
":X:X:X:X:X:X,X,X7XqXqXqXqXqXqXqXqX,X,XuXoXm.:.W = = & ; & & & o & & & & & & & & X & ; ; & & 0 A.uXqXqXqXqXqXqXqX,X,XqXqXqXqX,X,X",
",X>X,X,X,X,X,X,XuXuXuXuXqXqXqXqX,X,X4X4X].1.^ 0 * * & ; ; & & & & & & & & & & &   ; ; # & ; P W.uXuXuXuXqXqXqXqXuXuXuXuXuXuXuXuX",
",X,X,X,X,X,X,X,XqX,XqXqXqXqXqXqX>X:XqXqX).$.Q p 8 ; & & ; ; & & & & & & & & & & , ; - * 8 q 0 C.qXqXqXqXqXqXqXqXqXqXqXqXqXqXqXqX",
",X,X,X,X,X,X,X,X,X,X,X,X,X,X,X,XuX4XqXqX=X9.W K p ; # & ; ; ; & & & & & & & & & ; ; ; 7 t I F A.uXuXuXuXqXqXqXqX,X,XqXqXqXqX:X:X",
">X>X>X>X,X,X,XqX>X>X>X>X>X>X>X>XqXuX>X,X$X*.~ E u ; # & ; ; & & o o o o o o o o % ; ; r I W / R.aXaXaXaXaXaXaXpXuXuXuXuXuXuXuXuX",
"P.P.P.P.K.(.(.(.U.U.U.U.U.U.U.U.(.I.P.(.B.H r r , &   o & & & & o o o o o o o o .     ; w E } H.{.{.{.{.[.[.[.[.(.(.(.(.(.(.(.(."
};
