/* XPM */
static char *k_4[] = {
/* columns rows colors chars-per-pixel */
"64 64 235 2 ",
"   c #040615",
".  c #05051D",
"X  c #09051D",
"o  c #0A0B1D",
"O  c #06091B",
"+  c #120C1C",
"@  c #110B17",
"#  c #1A101B",
"$  c #28171D",
"%  c #060623",
"&  c #090624",
"*  c #060925",
"=  c #0A0924",
"-  c #060529",
";  c #0B062A",
":  c #05092D",
">  c #0B0B2B",
",  c #140D25",
"<  c #110D2E",
"1  c #1C0E23",
"2  c #0E112D",
"3  c #0F1120",
"4  c #1B1225",
"5  c #12112C",
"6  c #1C142A",
"7  c #171524",
"8  c #0D0D33",
"9  c #0C0E3B",
"0  c #070933",
"q  c #110E33",
"w  c #110D3B",
"e  c #0E1034",
"r  c #0E123C",
"t  c #121234",
"y  c #13143C",
"u  c #1A153C",
"i  c #13183E",
"p  c #1A1A3C",
"a  c #1D1334",
"s  c #240E24",
"d  c #241423",
"f  c #2D1525",
"g  c #22132B",
"h  c #2D1C2C",
"j  c #271928",
"k  c #341B27",
"l  c #2C1F3A",
"z  c #261B37",
"x  c #371B32",
"c  c #2D2436",
"v  c #382537",
"b  c #411828",
"n  c #472528",
"m  c #442C3C",
"M  c #492A33",
"N  c #593436",
"B  c #512B36",
"V  c #78393C",
"C  c #662F34",
"Z  c #72433F",
"A  c #0C0E43",
"S  c #130E4B",
"D  c #0D1343",
"F  c #0D1A45",
"G  c #0D1C4C",
"H  c #071542",
"J  c #131542",
"K  c #1A1545",
"L  c #151944",
"P  c #1B1A43",
"I  c #141B4B",
"U  c #1A1C4B",
"Y  c #15144B",
"T  c #0C1A55",
"R  c #1C1D52",
"E  c #161953",
"W  c #221D44",
"Q  c #211A4C",
"!  c #211F51",
"~  c #1C224D",
"^  c #1F2147",
"/  c #0C235C",
"(  c #0D2859",
")  c #1E2253",
"_  c #1D225D",
"`  c #132158",
"'  c #18345A",
"]  c #232348",
"[  c #342444",
"{  c #342C48",
"}  c #232455",
"|  c #24255B",
" . c #26295E",
".. c #292A5C",
"X. c #242D52",
"o. c #27345C",
"O. c #3D354F",
"+. c #182B66",
"@. c #0D3568",
"#. c #133567",
"$. c #1A3777",
"%. c #0F3C7F",
"&. c #272763",
"*. c #293363",
"=. c #292E74",
"-. c #2D3470",
";. c #473546",
":. c #5C3C45",
">. c #4A3454",
",. c #6B3D43",
"<. c #0C4878",
"1. c #15467B",
"2. c #1C547D",
"3. c #104169",
"4. c #2B486E",
"5. c #274877",
"6. c #334F73",
"7. c #5A465A",
"8. c #694746",
"9. c #734242",
"0. c #734649",
"q. c #694A5A",
"w. c #794D52",
"e. c #564C66",
"r. c #474970",
"t. c #6C5B73",
"y. c #736A72",
"u. c #864948",
"i. c #84524F",
"p. c #945856",
"a. c #8A5258",
"s. c #855B67",
"d. c #957463",
"f. c #C0917D",
"g. c #173E81",
"h. c #2E3D82",
"j. c #134982",
"k. c #145586",
"l. c #1E5793",
"z. c #235995",
"x. c #2B4C8A",
"c. c #18679C",
"v. c #18719E",
"b. c #19608C",
"n. c #226596",
"m. c #29739D",
"M. c #376991",
"N. c #166BA0",
"B. c #1A79A9",
"V. c #2462A1",
"C. c #2679A8",
"Z. c #3D79A1",
"A. c #2878B7",
"S. c #645886",
"D. c #596684",
"F. c #51739B",
"G. c #6F6B86",
"H. c #5C7DA0",
"J. c #7A79A3",
"K. c #8C7CA1",
"L. c #1B8DBA",
"P. c #1786B7",
"I. c #1195BC",
"U. c #1D94BA",
"Y. c #139BBB",
"T. c #1E98BF",
"R. c #1C90B7",
"E. c #1B85AD",
"W. c #2688B7",
"Q. c #328DB7",
"!. c #2096BE",
"~. c #2599BF",
"^. c #3F95B6",
"/. c #0CA0BE",
"(. c #4682A3",
"). c #5485AF",
"_. c #648EB4",
"`. c #1F96C0",
"'. c #149CC1",
"]. c #1B9AC8",
"[. c #0D9DC0",
"{. c #229AC2",
"}. c #2896C8",
"|. c #3798C6",
" X c #279DD3",
".X c #16A5C9",
"XX c #1BA8D8",
"oX c #1BB4DD",
"OX c #28A3CB",
"+X c #2BABD5",
"@X c #22AEDB",
"#X c #26A9D4",
"$X c #24B3DC",
"%X c #37B8DD",
"&X c #33A6DD",
"*X c #1CBBE7",
"=X c #25B9E5",
"-X c #4C9CC1",
";X c #50AED1",
":X c #1CC7ED",
">X c #0ECDF8",
",X c #0FCFF6",
"<X c #14C4F7",
"1X c #14CBF6",
"2X c #14C5FA",
"3X c #15CDFB",
"4X c #19CDFC",
"5X c #1EC9F5",
"6X c #0ED3FC",
"7X c #0ED6FA",
"8X c #13D2F6",
"9X c #15D5FC",
"0X c #14D4FF",
"qX c #17D5FD",
"wX c #15D4FC",
"eX c #19D4FD",
"rX c #15D9FE",
"tX c #1BDAFE",
"yX c #1DD3F6",
"uX c #2AC5ED",
"iX c #27C5EA",
"pX c #24CBF4",
"aX c #22CDFB",
"sX c #27C8F3",
"dX c #33C9F7",
"fX c #22D3FC",
"gX c #22DAFE",
"hX c #28D5F9",
"jX c #36D1F6",
"kX c #1EE0FF",
"lX c #49C7EF",
"zX c #B49382",
"xX c #9195A0",
"cX c #C19187",
"vX c #DAB19D",
/* pixels */
"L.L.L.L.R.R.R.R.R.R.R.R.R.R.R.R.R.R.R.R.R.R.R.!.R.R.R.T.T.R.R.R.!.R.R.R.R.].].{.~.{.}.R.`.}.`.`.T.T.T.T.T.T.T.T.{.{.!.!.!.!.!.!.",
"2X2X2X2X2X2X2X2X3X3X3X3X3X3X3X3X3X3X3X3X3X3XwXwXwXwXwXwXwXwXwXwXwXwXwXwXwXwXwXwX7XwXrXwXwXwXwXwXwXwXwXwXwXwXwXwXwXwXwXwXwXwXwXwX",
"2X2X2X2X2X2X2X2X2X2X2X3X3X3X3X3X3X3X3X3X3X3X3X3X3X3XwXwXwXwX3X3X3X3X3X3X3X3XwXwX3X3X3X3X3X4X4X3X3X3X3X3X3X3XwX3X3X3X3X3X3X4X4X4X",
"<X<X2X2X2X2X2X2X2X2X2X3X3X3X3X3X3X3X3X3X3X3X3X3X3X3X3X3X3X3X3X3X3XwXwXwXwXwXwXwXwXwX3XwX3X3XwXwX3X3X3X3X3X3X3X3X3X3X3X3X3X3X3X3X",
"<X<X2X2X2X2X2X2X<X3X3X3X3X3X3X3X3X3X3X3X3X3X3X3XwXwXwXwXwXwXwXwX3X3XwX3X3XwXwX3XwXwX3X3XwXwXwX3X3X3XwXwXwXwXwXwX3X3X3X3X3X3X3X3X",
"2X2X2X3X3X3X3X3X3X3X3X3X3X3X3X3X3X3X3X3X3X3X3XwXwXwXwXwXwXwXwXwXwXwX3X<X3XwXwX3X3XwXwX3X3XwXwX3X3X3X3X3X3X3X3X3XwXwX3X3X3X3X3X3X",
"<X<X<X3X3X3X3X3X3X3X3X3X3X4X4X3XwXwX3X3X3X3XwXwXwXwXwXwXwXwXwXwXwX3XwX7XrXwXpX=X@XiXfXwXwXwX3XwXwXwXwXwXwXwXwXwXwXwXwXwXwXwX3X3X",
"2X<X2X3X3X3X3X3X3X3X3X3X3X3XwXwXwXwXwXwX3XwXwXwXwXwXwXwXwXwXwXwX8XwXwXwXiX^.D.7.r.6.m.#XpXwXwXwXwXwXwXwXwXwXwXwXwXwXwXwXwXwXwXwX",
"3X3X3X3X3X3X3X3XwXwXwXwXwXwXwXwXwXwXwXwXwXwXwXwXwXwXwXwXwXwXwXwXwXwX7X:XD.Z u.V C n x X.n..XfXwXwXwXwXwXwXwXwXwXwXwXwXwXwXwXwXwX",
"3X3X3X3X3X3X3X3XwXwXwXwXwXwXwXwXwXwXwXwXwXwXwXwXwXwXwXwXwXwXwXwXwX,XyX(.a.u.u.9.N B b x u #.W.rXwXwXwXwXwXwXwXwXwXwXwXwXwXwXwXwX",
"3X3X3X3X3X3X3X3XwXwXwXwXwXwXwXwXwXwXwXwXwXwXwXwXwXwXwXwXwXwXwXwXwXwX~.q.p.C n M M n k k d a #.@XwXwXwXwXwXwXwXwXwXwXwXwXwXwXwXwX",
"3X3X3X3X3X3X3X3XwXwXwXwXwXwXwXwXwXwXwXwXwXwXwXwXwXwXwXwXwXwXwXwX8XfXF.a.i.B 8.;.h f f f h z ..|.wXwXwXwXwXwXwXwXwXwXwXwXwXwXwXwX",
"3X3X3X3X3XwXwXwXwXwXwXwXwXwXwXwXwXwXwXwXwXwXwXwXwXwXwXwXwXwXwXwXwXyXD.u.V C Z N k k f j g z S.;XwXwXwXwXwXwXwXwXwXwXwXwXwXwXwXwX",
"3X3X3XwXwXwXwXwXwXwXwXwXwXwXwXwXwXwXwXwXwXwXwXwXwXwXwXwXwXwXwXwXwX%Xy.,.C i.u.9.B n $ j 6 v J.lXwXwXwXwXwXwXwXwXwXwXwXwXwXwXwXwX",
"3X3X3XwXwXwXwXwXwXwXwXwXwXwXwXwXwXwXwXwXwXwXwXwXwXwXwXwXwXwXwXwXpXH.,.n N p.p.N n k j j g v D.dXwXwXwXwXwXwXwXwXwXwXwXwXwXwXwXwX",
"3X3XwXwXwXwXwXwXwXwXwXwXwXwXwXwXwXwXwXwXwXwXwXwXwXwXwXwXwXwXwXwXfXD.w.:.M N 0.B j g g g s f 6.wXwXwXwXwXwXwXwXwXwXwXwXwXwXwXwXwX",
"wXwXwXwXwXwXwXwXwXwXwXwXwXwXwXwXwXwXwXwXwXwXwXwXrXwXwXwXwXwXwXwXiX6.s.s.m h v h 6 = > 5 s [ |.wXwXwXwXwXwXwXwXwXwXwXwXwXwXwXwXwX",
"wXwXwXwXwXwXwXwXwXwXwXwXwXwXwXwXwXwXwXwXwXwXwXwXwXwXwXwXwXwXwXwXoXo.q.q.m h 6 = X , 3 >.r.Z.uXrXwXwXwXwXwXwXwXwXwXwXwXwXwXwXwXwX",
"wXwXwXwXwXwXwXwXwXwXwXwXwXwXwXwXwXwXwXwXwXwXwXwXwXwXwXwXwXwXwXwX#X~ z z d 4 , , X 4 c G._.dXrX,XwXwXwXwXwXwXwXwXwXwXwXwXwXwXwXwX",
"wXwXwXwXwXwXwXwXwXwXwXwXwXwXwXwXwXwXwXwXwXwXwXwXwXwXwXwXwXwXwXaXm.p 6 6 4 @ g g , 4 [ D.;XfXwX8XwXwXwXwXwXwXwXwXwXwXwXwXwXwXwXwX",
"wXwXwXwXwXwXwXwXwXwXwXwXwXwXwXwXwXwXwXwXwXwXwXwXwXwXwXwXwXwXwXaX*.s $ d d j g 7 , 3 [ F.uXrXwXwXwXwXwXwXwXwXwXwXwXwXwXwXwXwXwXwX",
"wXwXwXwXwXwXwXwXwXwXwXwXwXwXwXwXwXwXwXwXwXwXwXwXwXwXwXwXwXwXwXfXM.X.j d d 1 X @ X @ v (.fX7XwXwXwXwXwXwXwXwXwXwXwXwXwXwXwXwXwXwX",
"wXwXwXwXwXwXwXwXwXwXwXwXwXwXwXwXwXwXwXwXwXwXwXwXwXwXwXwXwXwXwXwXpXOX6.z 7 X X @ @ 1 v M.iXrXwXwXwXwXwXwXwXwXwXwXwXwXwXwXwXwXwXwX",
"wXwXwXwXwXwXwXwXwXwXwXwXwXwXwXwXwXwXwXwXwXwXwXwXwXwXwXwXwXwXwXwXrXrXm.>.{ 1 d # d 5 t L R.rXwXwXwXwXwXwXwXwXwXwXwXwXwXwXwXwXwXwX",
"wXwXwXwXwXwXwXwXwXwXwXwXwXwXwXwXwXwXwX8X8X8XwXwXwXwXwXwXwXwXrXtXsXC.X.7.:.M B v 6 = < ; 2.uXrXwXwXwXwXwXwXwXwXwXwXwXwXwXwXwXwXwX",
"wXwXwXwXwXwXwXwXwXwXwXwXwXwXwXwXwXwXwXtXwXwXtX4XwXwXrXtXfXiX#XP.j.( a :.0.9.:.h = = = > H k.+XgXrXwXwXwX8XwXrX<XwXwXwXwXwXwXwXwX",
"wXwXwXwXwXwXwXwXwXwXwXwXwXwXwXwXwXrXwXwXwXwXwXrXfXfXuXOXN.1.+.` | ..z m w.0.k , = > > 9 9 D 1.}.gX8XtXwXwXtXwXwXwXwXwXwXwXwXwXwX",
"wXwXwXwXwXwXwXwXwXwXwXwXwXwXwXwXwXwXwXwXwXwXwXtX#XB.1.+._ ) | } | ..] z ;.v , q y q u r L U T $.A.uXtXwXwXwXrXwXwXwXwXwXwXwXwXwX",
"wXwXwXwXwXwXwXwXwXwXwXwXwXwXwXwXwXwXwXwX3XtXpXL.@.T E U L I ) } T I U z z t y K L L L } } ..*.&.=.V.=XtXwXwXwXtXwXwXwXwXwXwXwXwX",
"wXwXwXwXwXwXwXwXwXwXwXwXwXwXwXwXwXwXwXwXwXfXQ.+.J D J J L Q ) U L L p a z i i L y W L U } R ) } &.=.z.#XgXwXwXwXwXwXwXwXwXwXwXwX",
"wXwXwXwXwXwXwXwXwXwXwXwXwXwXwXwXwXwX<XwXfX}.x.Y y y J L L I U U L L W p t y u i L L L L y I J y J ) R #.!.hXrXwXwXwXwXwXwXwXwXwX",
"wXwXwXwXwXwXwXwXwXwXwXwXwXwXwXwXwXwXwXwX&Xz._ r J J J J L U U U L y L i y K y y y r L L y y J y L r J I #.}.hXwXwXwXwXwXwXwXwXwX",
"wXwXtXwXwXwXwXwXwXwXwXwXwXwXwXwXwXwXwXpXl.| y J J J L U U U U L t ] ^ e e y y y y y y y y y y y D y y r Y $.}.fXwXwXwXwXwXwXwXwX",
"wXwXwXwXwXwXwXwXwXwXwXwXwXwXwXrXwXwXwX+X+.J r Q U J L U U U L J y ] L e y y y y y y y y y y y y y y t t J G c.pXwXwXwXwXwXwXwXwX",
"wXwXwXwXwXwXwXrXwXwXwXwXwXwXwXwXwXwXgXW.U e : } } L J L L J y y p ] y t y 9 y y q q q q q q q q < t > > y J $.+XwXwXwXwXwXwXwXwX",
"wXwXwXwXwXrXrXwXwXwXwXwXwXwXwXwXwXwXdXk.y 9 9 X...U J y y y 9 9 p ] 9 9 t > t 9 > > > > > > 9 9 > t > > 9 w E W.wXwXwXwXwXwXwXwX",
"wXwXwXwXwXwXwXwXwXwXwXwXwXwXwXwXwXhXW.G > - > } *.U J r 9 9 > > ^ y 9 9 9 > 9 > = = = > > > > > * q y L y y E z.wXwXwXwXwXwXwXwX",
"rXwXwXwXwXwXwXwXwXwXwXwXwXwXrXrXgX{.#.; = > ; } ..U y 9 9 > > > ] t 9 9 > > > > = = = = ; = = = : > 9 y 9 i R x.wXwXwXwXwXwX7XwX",
"iX3XwXwXwXwXwXwXwXwXwXwXwXrXwXwX+X3.0 ; & > t } | J y e > > > < L q q > > > > = ; ; ; ; ; ; ; ; > > q y q e J 5.aXwXwXwXwXwXwXfX",
").=XrX4X<XwXwX8XwXwXwXwXwXwXfXdX1.; : & > & 2 W } J 9 e > > > t u < > > > > ; ; X ; ; ; ; ; ; ; 2 > < 9 t y 9 @.pXwXwXwXwXwXwXdX",
"q.Z.*XrXrXrXrXwXwXrXtXwXtXhXOX<.r > : * & * > J L 9 t 9 = > 5 p > > > > > = & & X . ; . X . & < e > > q 9 y 9 L *XrXtXwX%X-X).K.",
"V >.2.W.]..XpXfXpXpX*X@XOXB.@.r < & ; ; . > q q y t y > & > t p > > > > = = & & X X X . . . & < t > > q 9 y w A '.hXdX-Xe.m ;.t.",
"i.,.l H D H 1.k.j.1.@./ ` G 9 q > ; & ; ; ; > t y y t & & t t p > > & & & = * & X . ; X . . ; < u 9 9 > 9 9 y J v.;XG.e.m h [ r.",
"a.w.v = = > ; 9 w 9 D D r 9 q ; > = ; & & X 2 y t y > & > t p t & & & & ; ; * * . . ; X . . ; t y t > > > 9 y D x.xX9.M x c l ' ",
"0.:.v 2 & > > > t t y y t 9 > > ; & ; & = ; > y 9 p > > t t p > & & & & & & = = . . ; X . . ; t p t > 9 > w r U y.cXV v x j l 4.",
";.{ p = = > > > - 9 t 9 9 t > ; ; & & = X 0 ' i 9 p > t t > t > & & & & & & & = X . ; X . . ; < L q > > > 9 > t.vXf.0.m v l 6.OX",
"Q.m.( ; , > ; 9 2 > > e > > 9 > > = ; > - <.Q.i y y 9 t t > 5 = & & = ; & & & = = ; X . . . & < U q q > e e t G.zXd.y.7.6.C.=XfX",
"4XaXE.( 9 > ; > 9 > = = > > > > q * ; 9 3.].+XI L y 9 t 2 > > * & ; > = & & & = = X X . X . & < o.e y y y Y L { 7.;.O.o.~.fXwXwX",
">XrX<X@XC.@.I 0 ; ; > > > > ; ; & 9 ` B.4XgXW.R } y 9 t > > t > & & & & & & & & & ; & X O   . > 6.U r I R r K 9 < a r G OXwXwXwX",
"3X3X3XwXpX@X}.B.<.@.( G F G ` ( <.B.$XwXrX5Xn.R } y y t > > > & & & & & & & & & * & & = O . & > 5.` K } I U D 9 > * q S {.wXwXwX",
"3X4X3X3XwXwXwX4X5X*XXX.X].].XX=XaXwXtXwXwX=X1.| U y y 9 > t < = & & & & & & . . & & > 5 = & & & b.n._ ..I U L q & 9 - / XXtXwXwX",
"wXwXwX3X3X3X3X>XwXwXwXwXwXwXwXwXwXwXwXwXtX}.=.| U y > > t t 5 = & & & & & & . & & = > t t t ; & v.+X%.&.~ L r e y w ` B.fXwXrX8X",
"3X3XwX3X>X>X3XwX3XwXwXwXwXwXwXwX<XwXwXwXwXA.=.I U 9 > t y t > & & & & & & & . . & * & > p ] t & v.hXP.+.D L 9 w Y +.C.uXwX3XrXwX",
"3X3X3XwX3XwX3XwX3X3XwXwXwXwX3X3X7XwXwXwXwXV.E U i : u L t t > ; & & & & & & & . & & & > t p u 9 c.tX:XN./ A T +.z. XsXtXwX3XwXwX",
"4X4X3XwX>XwX3XwX3X3XwX8X8X8XwXwX3XwXwXwXtXP./ K 9 9 ] L > t > > & & & & & & & & . & ; & & ; 9 w E.wXtXpX}.k.c.].=XgXwXwXwXwXwXwX",
"3X4X3XwX<XwXwX3X4XwXwXwXwXwXwXwXwXwX8X<XrXpXl.G 9 U } y > > = & & & & & & & & . . & & . . & > J ].rX,X7XtXpX5XwXwXwXwXwXwXwX3XwX",
"<X<X<X3X3X3X3X3XwXwXwXwXwXwXwXwXwXwX4XwX3XtX}.T D | U > > 9 - = & & & & & & & & . ; X * > & : +.pXwXwXwXwXwXwXwXwXwXwXwXwXwXwXwX",
"<X<X<X3X3X3X3X3X3X3X3X3X3X3X3X3X3X3XwXwX>XtXB.S | *.U & = t > & = * & . . . . . O X . . = = > U @XkXtXrXwXwXwXwXwXwXwXwXwXwXwXwX",
"3X3X3X3X3X3X3X3X3X3X3X3X3X4XwXwXwX<X<XwXwX*Xg.&.-.U 9 > = > > = & * = = = = & & * = * & > = & r ].wXwXwXrXwXwXwXwXwXwXwXwX3X3X3X",
"<X<X<X<X3X3X3X3X3X3X3XwX3X3X3XwX>XwXwXwXwX*Xx.r.~ 9 * > & = = & & & = > > > = = ; ; & - > ; > y  XwXwXwXrXwXwXwXwXwXwXwXwXwXwXwX",
"3X<X<X<X<X3X3X3X3X3X3X3X3X3X3X3X3X4X3XwXwX Xh.U 9 > * & ; = = = & . . . . = = = = = * & * > 9 y  XrXwX8XwXwXwXwX3X3X3X3X3X3X3X4X",
"<X3X<X3X3X3X3X3X3X3X3X3X3X3X3X3X3X3X3XwXwXXXg.Y J 9 = = > ; > 9 * & & & & & = = > 2 2 > < y J 9 P.wXwX8XwXwXwXwX3X3XwXwXwXwX3X3X",
"3X3X3X3X3X3X3X3X3XwXwXwXwXwXwXwXwXwXwXwXwXwXN.E J 9 > = . & = & . & & = * & . . = = = < q y U D ].gXtXtXtXwXwXrXwXwXwXwXwXwXwXwX",
"I.I.I.I.I.Y.Y.Y.Y.Y.Y.Y.Y.Y.Y.Y.Y.'.'./.[.R.#.q t > > = . . O                   X     = ; : D H E..X.X.X'.].Y..XY.Y.Y.Y.Y.Y.Y.Y."
};
