/* XPM */
static char *k_5[] = {
/* columns rows colors chars-per-pixel */
"64 64 240 2 ",
"   c #06051B",
".  c #09061D",
"X  c #0B0A1C",
"o  c #060619",
"O  c #13091D",
"+  c #170A1A",
"@  c #070622",
"#  c #090624",
"$  c #060A23",
"%  c #090924",
"&  c #07052A",
"*  c #0A052C",
"=  c #060B2B",
"-  c #0C0B2B",
";  c #1A0D23",
":  c #110D2C",
">  c #110B25",
",  c #0D112D",
"<  c #081124",
"1  c #1C1323",
"2  c #171328",
"3  c #0A0633",
"4  c #060B32",
"5  c #0C0C33",
"6  c #0D0C3B",
"7  c #060739",
"8  c #110E36",
"9  c #130D3B",
"0  c #140232",
"q  c #0D1135",
"w  c #0E123B",
"e  c #0F1C3D",
"r  c #121234",
"t  c #13133B",
"y  c #19143E",
"u  c #1A1A3C",
"i  c #181837",
"p  c #230D25",
"a  c #251529",
"s  c #281728",
"d  c #321B2B",
"f  c #371927",
"g  c #231537",
"h  c #361934",
"j  c #39212B",
"k  c #3A2537",
"l  c #2A2839",
"z  c #44252D",
"x  c #4E2A2E",
"c  c #452733",
"v  c #542D32",
"b  c #5A2D35",
"n  c #49373F",
"m  c #573437",
"M  c #552D2D",
"N  c #6A3838",
"B  c #723B36",
"V  c #76473F",
"C  c #0B0D45",
"Z  c #120E42",
"A  c #0C1344",
"S  c #0D1948",
"D  c #141443",
"F  c #191544",
"G  c #151943",
"H  c #1B1B44",
"J  c #14154B",
"K  c #1B1B4B",
"L  c #18184B",
"P  c #0B1C53",
"I  c #151C54",
"U  c #1B1D53",
"Y  c #181A56",
"T  c #211E4C",
"R  c #261C42",
"E  c #231E53",
"W  c #221F58",
"Q  c #1C224C",
"!  c #182545",
"~  c #0A2659",
"^  c #1E2153",
"/  c #182858",
"(  c #112E58",
")  c #22224C",
"_  c #292444",
"`  c #392543",
"'  c #222254",
"]  c #23245A",
"[  c #282859",
"{  c #283457",
"}  c #332D4E",
"|  c #0D2D63",
" . c #1E2A64",
".. c #152C67",
"X. c #0A386B",
"o. c #153868",
"O. c #193A76",
"+. c #0D3B74",
"@. c #2B2B63",
"#. c #292B68",
"$. c #342E6B",
"%. c #2F3166",
"&. c #32336A",
"*. c #253374",
"=. c #383972",
"-. c #422944",
";. c #463247",
":. c #5A3945",
">. c #563F56",
",. c #493356",
"<. c #693D45",
"1. c #793E54",
"2. c #2D415A",
"3. c #1A426C",
"4. c #15497B",
"5. c #0F4A76",
"6. c #364463",
"7. c #274D73",
"8. c #374776",
"9. c #2F4F6E",
"0. c #5C4A5B",
"q. c #694446",
"w. c #78484B",
"e. c #7A4C54",
"r. c #6F525B",
"t. c #474F74",
"y. c #515371",
"u. c #645876",
"i. c #6F566B",
"p. c #706873",
"a. c #884B55",
"s. c #8A5051",
"d. c #835667",
"f. c #8C5C6F",
"g. c #987572",
"h. c #C99E7E",
"j. c #263E84",
"k. c #174B84",
"l. c #165B8B",
"z. c #195586",
"x. c #1C5D91",
"c. c #0C5580",
"v. c #23588C",
"b. c #2E5F8F",
"n. c #17658F",
"m. c #0E679A",
"M. c #16679A",
"N. c #1A719E",
"B. c #2F648A",
"V. c #266998",
"C. c #386A94",
"Z. c #366F8A",
"A. c #197CA8",
"S. c #2676A9",
"D. c #2B74AA",
"F. c #456887",
"G. c #586E8B",
"H. c #6C6B88",
"J. c #8E6784",
"K. c #1584AC",
"L. c #1A8CB6",
"P. c #1C87B6",
"I. c #0F95BD",
"U. c #1C93B6",
"Y. c #1E98B7",
"T. c #1496BD",
"R. c #1E94B9",
"E. c #1D99B9",
"W. c #1098BE",
"Q. c #258AB6",
"!. c #219ABC",
"~. c #2493BB",
"^. c #358CB0",
"/. c #57839C",
"(. c #578EAE",
"). c #6087AF",
"_. c #169DC4",
"`. c #1999C6",
"'. c #1591C2",
"]. c #2599C6",
"[. c #278FC2",
"{. c #14A1C9",
"}. c #15A3C7",
"|. c #17ABD2",
" X c #27A8CE",
".X c #25AAD5",
"XX c #28B4D9",
"oX c #34B7DD",
"OX c #38A8C8",
"+X c #1ABBE7",
"@X c #12BFF7",
"#X c #2BBBE5",
"$X c #25BDE7",
"%X c #31B3E3",
"&X c #43A7CB",
"*X c #72ABDA",
"=X c #61BBE0",
"-X c #1CC5EB",
";X c #0CCDF6",
":X c #0DCEFA",
">X c #14C3F7",
",X c #12CDF6",
"<X c #1BCCF5",
"1X c #15C5FA",
"2X c #14CDFB",
"3X c #1ACEFC",
"4X c #1EC6F2",
"5X c #0DD2F6",
"6X c #0ED2FC",
"7X c #0EDAFF",
"8X c #14D1F6",
"9X c #1CD1F5",
"0X c #12D2FF",
"qX c #12D1FD",
"wX c #14D0FD",
"eX c #15D0FD",
"rX c #15D1FE",
"tX c #16D1FE",
"yX c #16D1FD",
"uX c #11D5FF",
"iX c #16D5FF",
"pX c #15D1FB",
"aX c #19D2FE",
"sX c #1AD3FD",
"dX c #14D9FE",
"fX c #1CDAFF",
"gX c #28C5EB",
"hX c #22CCF3",
"jX c #2BCDF1",
"kX c #25C9F4",
"lX c #22D2F4",
"zX c #23D4FB",
"xX c #27D8FD",
"cX c #35CDEE",
"vX c #25E2FF",
"bX c #42C3E3",
"nX c #9E8781",
"mX c #B38E86",
"MX c #C19280",
"NX c #DBB18B",
/* pixels */
"L.L.L.L.U.U.U.U.U.U.U.U.U.U.U.U.U.U.U.U.U.U.U.U.E.E.E.E.E.E.E.E.`.U.~.!.!.E.E.!.!.!.!.!.!.!.E.E.E.E.E.E.E.E.E.E.E.E.Y.Y.Y.Y.Y.Y.",
"1X1X1X1X1X1X1X1X1X1X1X1X1X1X1X1XeXeXeXeX1XeXeXeXeXeXeXeXeXeXeXeXeXeX1XeXeXeXdX7XeXeXeXeX6XeXeXdXeXeXeXeXeXeXeXeXeXeXeXeXeXeXeXeX",
"@X1X1X>X1X1X1X1X1X1X1X1X1X1X1X1X1X1X1X1X1X1X1X1X1X1X1X1X1X1XeXeX,X1X1XeX6X:X:XeX1XeXeXeXeX1X1X1X1X1X1X1X1X1X1X1X1X1X1X1X1X1X1X1X",
"1X1X1X1X1X1X1X1X1X1X1X1X1X1X1X1X1X1X1X1X1X3X3X3X1X1X1X1X1X1X1X1XeXeXaXeX1X:XeXaXeXeX1X1XeXeXeX8XeXeXeXeXeXeXeXeX1X1X1X1X1X1X1X1X",
"1X1X1X1X1X1X1X1X1X1X1X1X1X,X1X1X3X1X1X1X1X1X3X3XeXeXeXeXeXeXeXeXeX1X1X1XeXeX8X8X1XeXeXeXeXaXaX1XeXeXeXeXeXeXeXeXeX1X1X1X1X1X1X1X",
"1X1X1X1X1X1X1X1X1X1X1X1X1X1X1X1XeXeXeXeXeXeXeXeXeXeXeXeXeXeXeXeXeXaXeXeX1X1X1XeXeXeXdXeXeXeXeXeXeXeXeXeXeXeXeXeXeXeXeX1X1X1X1X1X",
"1X1X1X1X1X1X1X1X1X1X1X1X1X1X1X1XeXeXeXeXeXeXeXeXeXeXeXeXeXeXeXeX1XeXeXeXeXeXaXhXhX4XeXeXeXeXeXaXeXeXeXeXeXeXeXeXeXeXeXeXeXeX1X1X",
"1X1X1X1X1X1X1X1XeXeXeXeXeXeXeXeXeXeXeXeXeXeXeXeXeXeXeXeXeXeXeXeXaXeXeXeXaX#X^.F.9.B.Q.XXhXeXeXeXeXeX1X1X1XeXeXeXeXeXeXeXeXeX1X1X",
"1X1X1X1X1X1XeXeXeXeXeXeXeXeXeXeXeXeXeXeXeXeXeXeXeXeXeXeXeXeXeXeXeX8XeXdXOXu.1.<.N v k { V..XzX6XeXaXaXeXeXeXeXeXeXeXeXeXeXeXeXeX",
"1X1X1X1X1X1XeXeXeXeXeXeXeXeXeXeXeXeXeXeXeXeXeXeXeXeXeXeXeXeXeXeXeX1X6XoXu.a.a.e.N x z h R | A.zXeXeXeXeXeX1XeXeXeXeXeXeXeXeXeXeX",
"1X1X1X1X1X1X1X1XeXeXeXeXeXeXeXeXeXeXeXeXeXeXeXeXeXeXeXeXeXeXeXeX:XeX-XF.a.a.m v b x z j h g / L.aXeXeXeXeXeXeXeXeXeXeXeXeXeXeXeX",
"1X1X1X1X1X1X1XeXeX1XeXeXeXeXeXeXeXeXeXeXeXeXeXeXeXeXeXeXeXeXeXeX6XeXOXr.s.m m :.j d d s d s g B.3XeXeXeXeXeXeXeXeXeXeXeXeXeXeXeX",
"1X1XeXeXeXeXeXeXeXeXeXeXeXeXeXeXeXeXeXeXeXeXeXeXeXeXeXeXeXeXeXeX5XzX^.e.B b q.:.f f d d d a ,.G.hXaXeXeXeXeXeXeXeXeXeXeXeXeXeXeX",
"eXeXeXeXeXeXeXeXeXeXeXeXeXeXeXeXeXeXeXeXeXeXeXeXeXeXeXeXeXeXeXeXeXjX/.w.N a.w.<.x z s s s s u.*X3XaXeXeXeXeXeXeXeXeXeXeXeXeXeXeX",
"eXeXeXeXeXeXeXeXeXeXeXeXeXeXeXeXeXeXeXeXeXeXeXeXeXeXeXeXeXeXeXeXaXOXi.b b f.s.N v z d s a d u.=XeXaXeXeXeXeXeXeXeXeXeXeX8XeXeXeX",
"eXeXeXeXeXeXeXeXeXeXeXeXeXeXeXeXeXeXeXeXeXeXeXeXeXeXeXeXeXeXeXeXaX(.<.:.m w.s.M j s s ; s f } oXeXeXeXeXeX3XaXeXeXeXeXeXeXeXeXeX",
"eXeXeXeXeXeXeXeXeXeXeXeXeXeXeXeXeXeXeXeXeXeXeXeXeXeXeXeXeXeXeXaXzXZ.d.d.c s c z a ; % r p h B.3XeXeXeXeXeXeXeXeXeXeXeXeXeXeXeXeX",
"eXeXeXeXeXeXeXeXeXeXeXeXeXeXeXeXeXeXeXeXeXeXeXeXeXeXeXeXeXeXeXaX4XB.i.f.:.j a 1 X X > _ -.t.&XeXeXeXeXeXeXeXeXeXeXeXeXeXeXeXeXeX",
"eXeXeXeXeXeXeXeXeXeXeXeXeXeXeXeXeXeXeXeXeXeXeXeXeXeXeXeXeXeXeXaXhX3.-.k d 2 > % % % i y.H.(.xXeXeXeXeXeXeXeXeXeXeXeXeXeXeXeXeXeX",
"eXeXeXeXeXeXeXeXeXeXeXeXeXeXeXeXeXeXeXeXeXeXeXeXeXeXeXeXeXeXeXaX XQ s 2 p + ; ; r 2 g u.).gXeXeXeXeXeXeXeXeXeXeXeXeXeXeXeXeXeXeX",
"eXeXeXeXeXeXeXeXeXeXeXeXeXeXeXeXeXeXeXeXeXeXeXeXeXeXeXeXeXeXeXaXB.h s 2 + a s 2 1 ; s t.&XxX1X5XeXeXeXeXeXeXeXeXeXeXeXeXeXeXeXeX",
"eXeXeXeXeXeXeXeXeXeXeXeXeXeXeXeXeXeXeXeXeXeXeXeXeXeXeXeXeXeXaXaXB.g s s s a + O O O s t.oXeXeXeXeXeXeXeXeXeXeXeXeXeXeXeXeXeXeXeX",
"eXeXeXeXeXeXeXeXeXeXeXeXeXeXeXeXeXeXeXeXeXeXeXeXeXeXeXeXeXeXaXaXXXS.7.2 2 + . O O ; s 9.OXaXeXeX8X8X8X8X8X8X8X8XeXeXeXeXeXeXeXeX",
"eXeXeXeXeXeXeXeXeXeXeXeXeXeXeXeXeXeXeXeXeXeXeXeXeXeXeXeXeXeXaXaXeXaXoX9.l 2 X + 2 a : w c.hX1XeX8X8X8X8X8X8X8X8XeXeXeXeXeXeXeXeX",
"eXeXeXeXeXeXeXeXeXeXeXeXeXeXeXeX5XeXeXeXeXeXeXaXeXeXeXaX1XeXeXeXeXvX~.t.0.z f k s 1 : 0 P ].xXaXeX3X,X8XeXeXeXeXeXeXeXeXeXeXeXeX",
"eXeXeXeXeXeXeXeXeXeXeXeXeXeXeXeXeXeXeXeXeXeXeXeXeXeX6X;X1XeX5XfXcX].3.,.e.N q.c 2 % % 5 6 o.K.jXdXeX3XeXeX1XaXeXeXeXeXeXeXeXeXeX",
"eXeXeXeXeXeXeXeXeXeXeXeXeXeXeXeXaXeXeXeX1XeXeXeXeXeXeXaXzXxX$X`.n.+.L ` e.s.m 2 > % $ 5 8 Z ~ V.gXzXeX1XeX8X,X1XeXeXeXeXeXeXeXeX",
"eXeXeXeXeXeXeXeXeXeXeXeXeXeXeXeXaXeXeXeXeXeXeX1X,XxXlX#X].M.k.O.*.#.&._ :.:.2 : 8 t t 8 G K J Y z.].xXaX8X8X6XaXeXeXeXeXeXeXeXeX",
"eXeXeXeXeXeXeXeXeXeXeXeXeXeXeXeXeXeX1XeXeX1XeXeXzX|.M.4...^ @.%.#.#.@.] _ u q F T K K E ] [ ] @.#.*.S.gXdX5XeXeXeXeXeXeXeXeXeXeX",
"eXeXeXeXeXeXeXeXeXeXeXeXeXeXeXeXeXeXeXeXeX:XdXzXQ.X.P U U ] ] [ ] ^ K F G t G G K D K E ] ] ] ] ] $.*.M.-XfX,XeXeXeXeXeXeXeXeXeX",
"eXeXeXeXeXeXeXeXeXeXeXeXeXeXeXeXeXeXeXdX:XeXaX X..J L ^ ] ] ^ ] T R G t u F D t D G K F F D G F J ^ ^ ..M.XXxX9XeXeXeXeXeXeXeXeX",
"eXeXeXeXeXeXeXeXeXeXeXeXeXeXeXeXeXeX1XeX3XzX#Xv.J I J U ^ ] [ T Q G ) G 8 5 D D D F F G D D D w t 6 D J I v.XXxXeXeXeXeXeXeXeXeX",
"eX3XeXaXaX;XeXeXeXeXeXeXeXeXeXeXeX:X,XeXeXkXD.I ^ U ^ ] ] ] U K D G Q t t t G t D D D D D D D D L D w 8 D / x.gXaX1XaXeXeXeX1XeX",
"eXeXeX3XaXdXeXeXeXeXeXeXeXeXaXaXeXeX;XeXaX~. .I ] ] ] ] ] Q K L t K G t t t t t D D D D t t t t D 6 6 8 8 J O.].aX1XaXeXeXeX1XeX",
"aX6X1XeXeXeXeXeXeXeXeXeXeXeXeXeX3X;XeXeXhXv.Z J %.@.] ] K G G t t ) t r t t t t t t t t 8 8 5 5 6 6 5 5 3 Z  .D.zXeXaXaX3XeXeXeX",
"#XfX1XeXeX1XeX1XeXeXeXeXeXeXeXeXeXeXaX5XXX .4 D &.@.] K G t t 5 t ) t r t t 5 r 5 5 5 5 5 5 5 5 5 5 5 6 5 6 I v.hX6XeXaXaXeXaXeX",
"C.gXeXeXeXeXeXeXeXeXeXeXeXeXeXeX6XeX1XlXV.Z 5 t &.@.U D t r 5 - t G r t r r 5 - - - - - - - - - 5 8 8 F D D U O.$XeXeXaX1XaXaXeX",
"0.(.-XdXeXeXeXeXeXeXeXeXeXeXeXeXeX:XfX!.I 3 5 6 @.] K D 5 5 - - u u r t 5 - - - % % - - - $ % - & - 5 8 D D J  ..XdXeXeX1X3X9X8X",
"w.f.^.aXeXeXeXaXeXeXeXeXeXeXeXeXaX8X.XX.3 5 # 5 [ ] J w 5 - - - G t t 8 5 - - % % % % % % % % % = - 5 t w w w I '.fXeX8XeXaX9X9X",
"m a.y.XXfXaXeXeXeXeXeXeXeXeXeXeXfX$X5.6 4 > X - [ ^ D 6 5 - - - u t r 5 5 - - % % % $ $ % % % % - < 5 t t q 5 6 P.eX1X,XeXaXaXaX",
"m q.<.2.L.zXzXaXeXeXeXeXeXeXaXfXXX5.4 & # # # & K Q t 5 r - - t u 5 - - % % %   % % % . . . # - q 5 - 5 r t 5 & k.8X5X6XeXjXcX=X",
"f q.e.;./ 5.n.K.XXlXlXhXzXvXjX X4.S & % % % % - G G 6 5 r 8 - u r - - - % % %   . . . . . . % - t 5 - 5 8 t 8 6 | 4XeXcX&XG.G.J.",
"f w.s.:.2 = 3 A X.z.l.n.M.N.l.| A & % $ % # % q t D 6 5 5 r 5 u r - - - % % %     . . . . . % - G t 5 5 8 t F 6 S !.bX(.>.c -.u.",
";.:.<.n 1 < - 5 3 6 6 D A A A 6 5 - % $ # . # 8 t D 6 5 5 r - u - - - % # % % % . . . . . . % - R r 4 - - 3 D D C H.p.q.z f ` t.",
"F.6.} i < < - - 5 5 5 t t 6 6 w 5 - % # % % # r t t 5 5 5 r - t % % - % # % % % . . . .   . % % R G r - - 5 6 w { g.V c k h h / ",
"#X X^.( & - $ < - - - 5 5 6 q - 5 - % # $ $ # 5 w D 5 5 5 < r r % % % % % % % % . . . .   . . % t G r - - 5 5 _ nXh.q.k k h } 7.",
"1X,XhXP.S & - . - - & - q q q - - = % % % # & S w G 5 r 5 - r - % % % % % % % % % % . .     . # e G 5 q 5 5 r u.NXh.q.n k _ B.oX",
"6X1XeX4XA.o.w % # = = - - - 5 : 5 = = - # # P z.t G 6 t 5 - - - % % % % % % % # % % . . o   . # ! Q q q D F i i.mXg.r.0.6.^.gXaX",
"3X1XeXeX3X.XN.X.D 4 & - % $ - - 5 5 # # A n..XN.D [ 5 q r - : # # # # # # % % % # % % %   .     ! 7.D F L L D T -.;.;.[ N.aXeX3X",
",X3XaXeXeXaX4X+X[.M.+.~ 6 5 5 = & 6 A o.L.lXjXk.E T w t q - r - # # # # % % $ $ # # - - %     X e v.J E ] K S 5 5 - r 3 l.9X6X;X",
",X1X3X3X1XeXeX1XaX4XgX.XP.M.l.k.l.m.].gXeXdXXXo.] K t t - % r - # # # # % % $ $ % # - < r - # . q Q.5.@.] K K D 3 5 3 6 M.3XeXaX",
"1X1X1XeXaXaX3X1X6X6XeXaXaXaX3X4XaXzXaXeXeXaXQ./ ] K w 5 q - r - # # # % % % % % % % % - t t r # 5  X]...W K D A 6 8 C +.`.aXeXeX",
"aX1XeXeX1X1X1XeXeXeXeXeXeXeXeX6XdXeX1X4XaX4Xx.@.] K 5 5 r - r - # # # # % % % % # % % % r G G r 6  XjXM.Y u D 8 L J +.].hXeXeXeX",
"1X1X1X1X3X3X1XeXeXeXeXeXaXeXeX5XeX6XeX3X8X+Xj.E ] D 4 y u < i - # # # # % % % % % %     % r u G A `.fXXXk.P C Y O.S.%XzX6XeX3XeX",
"1X1X1X1XeXaXeXeX1XeX6X6XeXeXeXeXeXeX1XaXfX+XO.J K 6 6 ) t 5 r % # % % % $ $ % % % .     # # 5 t A .XeXzX#XP.m.P.XXhXaX6XeXeX,XeX",
"1XaXaXaX1XeXaXeXeX1X1X1XeX1X1XeX:X6XeXeX1XaXM.J t 5 D ] t - - % % % % % $ $ $ $ X . . % % % - 5 ~ +XeX6XeXzX9X9X8XfX1XeXeX6XeXeX",
"1X1X1X1X1XeXeXeXeXeXeXeXeXeXeXeXeXeXeX3XeXaX$X4.6 D Q ] t - - % % % % # # # # # . # # # # % - 3 z.aX6X1X,XeXeX6XeXeXeXeXeXeXeXeX",
"1X1X1X,X1X1XeXeXeXeX8XeXeXeXeXeXeXeXeXeX1XeXlXx.4 L [ G - - $ % % % % % % X . . . # # # # # & 3 z.3XeXeXeXeX6X1XeXeXeXeXeXeXeXeX",
"1X1X1X1X1X1X1X1X1X1XeXeX1XeXeXeX8XeX1X6X3XeX+Xo.U @.] 5 & - - # # # # # # # # % # % % % % # & & o.-XeXeXeXeXeXeXeXeXeXeXeXeXeXeX",
"1X1X1X1X1X1X1XeXeXeXeXeXeXeXeXeXaXeXaX:XeXeX'.#.=.] 6 - - # - - # # # % % % % - # % % % % # & & o.kXeXeXeX1XeXeXeXeXeXeXeXeXeXeX",
"1X1X1X1X1X1X1X1XeXeXeXeXeXeXeXeXeX,XeXeXeXzXD.8.] 5 - % % % # - % % % % % % % % # # % % - - 3 3 o.gXeXeXeX1X;X8X1X1XeXeXeXeX8X8X",
"1X1X1X1X1X1X1X1X1X1XeXeXeXeX1XeXeXaX:XeX1X3XS.Y 6 6 5 % % % - - % % % % % % % % - - - - 5 8 Z Z P +X1X1X1XeXeXeXeXeXeXeXeXeXeXeX",
"1X1X1X1X1X1XaXaX3XaXaXaX3X3X3X3X1XzXeXeXeXfX.X..D D 5 - -   % - # # # # # # # # % % - - - r D J | -XdXdX6XaXdXeXeXeXeXeXeXeXeXeX",
"I.I.I.W.W.W.W.W.W.W.W.W.W.W.W.W.W._._._.{._.K.S 5 5 r % . X   . . . .   o o o o         $ - 8 D  .}.{.}.{.}.{.{._._._._._._._._."
};
