/* XPM */
static char *k_9[] = {
/* columns rows colors chars-per-pixel */
"64 64 239 2 ",
"   c #040614",
".  c #05051D",
"X  c #09061D",
"o  c #0C0A1C",
"O  c #04091B",
"+  c #160B1E",
"@  c #22121F",
"#  c #060623",
"$  c #090625",
"%  c #050A25",
"&  c #090925",
"*  c #06062A",
"=  c #0B052A",
"-  c #070B2B",
";  c #0C0B2B",
":  c #120D23",
">  c #110E2D",
",  c #180D27",
"<  c #0D112C",
"1  c #1C1223",
"2  c #17122A",
"3  c #060B33",
"4  c #0D0C32",
"5  c #0C0D3B",
"6  c #080634",
"7  c #110E33",
"8  c #140C39",
"9  c #180E31",
"0  c #0D1134",
"q  c #0E123B",
"w  c #09153A",
"e  c #121134",
"r  c #1A1235",
"t  c #13133B",
"y  c #19153C",
"u  c #1A193D",
"i  c #2B1625",
"p  c #2B1925",
"a  c #2D1A2C",
"s  c #261529",
"d  c #341C2C",
"f  c #361D26",
"g  c #261A34",
"h  c #371C35",
"j  c #3C212C",
"k  c #29233A",
"l  c #382638",
"z  c #421A2F",
"x  c #45222C",
"c  c #4F252F",
"v  c #522A2E",
"b  c #482835",
"n  c #562B35",
"m  c #46333B",
"M  c #54333C",
"N  c #5B333A",
"B  c #5B3537",
"V  c #683338",
"C  c #713B3B",
"Z  c #5E403E",
"A  c #0D0B41",
"S  c #130E41",
"D  c #0D1343",
"F  c #0B134A",
"G  c #0B1A47",
"H  c #141443",
"J  c #191643",
"K  c #151A45",
"L  c #1A1B44",
"P  c #14154A",
"I  c #161A4B",
"U  c #1B1D4B",
"Y  c #1B154A",
"T  c #0D1D54",
"R  c #1D1E52",
"E  c #171D58",
"W  c #201F4C",
"Q  c #251D44",
"!  c #221E56",
"~  c #371E46",
"^  c #1C224C",
"/  c #0B2555",
"(  c #1D2254",
")  c #18245C",
"_  c #0A315C",
"`  c #21224C",
"'  c #272447",
"]  c #332C4A",
"[  c #222354",
"{  c #24255A",
"}  c #292B5D",
"|  c #262A59",
" . c #382C56",
".. c #353352",
"X. c #0F2C67",
"o. c #162965",
"O. c #1C326C",
"+. c #13376B",
"@. c #0D3B76",
"#. c #133976",
"$. c #0C366A",
"%. c #252B63",
"&. c #2A2D65",
"*. c #272A67",
"=. c #2A3468",
"-. c #32346B",
";. c #38386B",
":. c #282F72",
">. c #273A75",
",. c #393C73",
"<. c #322C68",
"1. c #473446",
"2. c #583A49",
"3. c #4B3351",
"4. c #653B44",
"5. c #783D46",
"6. c #6D3B54",
"7. c #41386F",
"8. c #15426A",
"9. c #164379",
"0. c #3B4174",
"q. c #2E4F6D",
"w. c #4E4456",
"e. c #694648",
"r. c #7B474B",
"t. c #6D515B",
"y. c #795458",
"u. c #6E4A52",
"i. c #524E6B",
"p. c #635773",
"a. c #785C72",
"s. c #6D5265",
"d. c #766365",
"f. c #824B51",
"g. c #884D52",
"h. c #865363",
"j. c #916C71",
"k. c #A36C7F",
"l. c #174985",
"z. c #145688",
"x. c #165A91",
"c. c #305A86",
"v. c #196596",
"b. c #1B719C",
"n. c #296F9B",
"m. c #25648C",
"M. c #195DA4",
"N. c #1B6DA5",
"B. c #1979AC",
"V. c #226AA3",
"C. c #2577A9",
"Z. c #3579AA",
"A. c #556787",
"S. c #496D90",
"D. c #6E7292",
"F. c #896382",
"G. c #1A8AB6",
"H. c #1C93B7",
"J. c #1D94B9",
"K. c #1D99BB",
"L. c #1799BB",
"P. c #0F9EBC",
"I. c #2686B6",
"U. c #2199BB",
"Y. c #2293BD",
"T. c #3585AE",
"R. c #50859E",
"E. c #4499BD",
"W. c #4A8BAC",
"Q. c #6D91B0",
"!. c #1A8EC0",
"~. c #1395C1",
"^. c #159AC2",
"/. c #1B9BC5",
"(. c #1D9CD0",
"). c #2C8CC2",
"_. c #2697C6",
"`. c #389BC5",
"'. c #15A0C2",
"]. c #19A6CC",
"[. c #1DA9D7",
"{. c #1EB0D7",
"}. c #23A2CB",
"|. c #25ACD3",
" X c #26A9D8",
".X c #24BBDD",
"XX c #25B4DC",
"oX c #37B2DA",
"OX c #36A9CB",
"+X c #1DB4E2",
"@X c #12BFF7",
"#X c #2CBCE4",
"$X c #25BBE6",
"%X c #37BCE6",
"&X c #20AEE0",
"*X c #55ADD1",
"=X c #7FA7CB",
"-X c #57B7EA",
";X c #1BC7E9",
":X c #0FC9FB",
">X c #0DCFF2",
",X c #13C4F7",
"<X c #14CDF6",
"1X c #1CCBF3",
"2X c #14C5FA",
"3X c #14CDFA",
"4X c #1ACEFA",
"5X c #1AC7F1",
"6X c #0DD4F5",
"7X c #0ED3FB",
"8X c #0DDAFC",
"9X c #0CD8F6",
"0X c #14D3F6",
"qX c #1AD4F5",
"wX c #13D9F6",
"eX c #15D1FD",
"rX c #15D5FE",
"tX c #15D3FA",
"yX c #19D3FC",
"uX c #14D9FA",
"iX c #1ADAFD",
"pX c #1BD8F6",
"aX c #15D1EE",
"sX c #25CCEE",
"dX c #2DC9ED",
"fX c #29C4EA",
"gX c #26C9F3",
"hX c #22D1F5",
"jX c #22D5FC",
"kX c #23DCFC",
"lX c #29D4F9",
"zX c #37CCF2",
"xX c #0CE3FF",
"cX c #1BE1FE",
"vX c #15E2FE",
"bX c #28E3FF",
"nX c #44D4EF",
"mX c #A68AA1",
"MX c #9F97A7",
/* pixels */
"H.H.H.H.J.J.J.J.H.J.J.H.H.J.J.J.J.J.J.J.J.J.J.U.J.J.J.J.J.J.J.J.K.H.J.H.K.J.J./.K.U.J.K.U.U.J.K.K.K.K.K.K.K.U.U.K.K.K.K.K.K.J.J.",
"2X2X2X2X2X2X2X2X:X:X:X:X2X2X2X2X2XtX2X2X2X2XtXtXtXtXtXtXtXtXtXtX2X7X7XtXtXtXtXtXtXtXtXtXtXtXyXtXtXtXtXtXtXtXtX7XtXtXtXtXtXtXtXtX",
"@X2X2X,X2X2X2X2X<X<X<X2X2X2X2X2X2X2X2X2X2X2X2X2XtXtXtX2X2X2XtXtX2X2X2X2X2XtXtX<XtX2XtXtX7XtXtX2X2X2X2X2X2X2X2X2X2X2X2X2X2X2X2X2X",
",X,X2X2X2X2X2X2X2X2X2X2X2X2X2X2X2X2X2X2X2X4X4X4XtX2X2X2X2X2X2X2X2X2X2X2XtXtXtXtX2XtXtX2X2X0X0XtXtXtXtXtXtX2X2X2X2X2X2X2X2X2X2X2X",
"2X2X2X2X2X2X2X2X2X<X<X<X2X<X<X<X2X2X2X2X2X4X4X4X0X0X0X<XtX0XtXtX2X2X2XtXtXtXtXtXtXtXtXtXyXyX2X2XtXtX2X2XtXtXtXtX2X2X2X2X2X2X2X2X",
"2X2X2X2X2X2X2X2X2X2X2X2XyX2XyX4XtX2XtXtX2X2XtXtXtXtXtXtXtXtXtXtXtXtXtX<X<X2XtXtXlX#XXX#XsXyXtX7XtXtXtXtXtXtXtXtXtXtXtX2XtX2X2X2X",
"2X2X2X2X2X2X2X2X2X2X2X2X2X4X2X2XtXtXtXtXtXtXtXtXtXtXtXtXtXtXtXtXtXtXtX<XtXtXfXOXA.i.w.q.m.I.XX4XyXtXtXtXtXtXtXtXtXtXtXtXtX2X2X2X",
"2X2X2X2X2X2X2X2X2X2XtX2XtXtXtXtXtXtXtXtXtXtXtXyXtXtXtXtXtXtXtXtXtXtXtX<XtXsXW.s.r.5.V n x h =.V.gX4X2X7X2X4X2XtXtXtXtXtXtXtX2X2X",
"2X2X2X2X2X2X2X2XtXtXtXtX2X2X2X2XtXtXtXtXtXtXtXtXtXtXtXtXtXtXtXtXtXuX0XuXtXE.t.5.r.r.V n c b d s 8. XuXtXtX4XyXtXtXtXtXtXtXtXtXtX",
"2X2X2X2X2X2X2XyXtXtXtXtXtXtX2XtXtXtXtXtXtXtXtXtXtXtXtXtXtXtXtXtX7XtXqXuX{.A.5.v N B n n c x d a r z.gXiX7XtXtXtXtXtXtXtXtXtXtXtX",
"2X2X2X2X2X2X2X2XtXtXtXtXtXtXtXtXtXtXtXtXtXtXtXtXtXtXtXtXyXyXtXtXtXtX0XuXOXy.f.B e.b x x x b f i i &. XtXtX0XtXyXtXtXtXtXtXtXtXtX",
"2X2X2X2X2X2X2X2XtXtXtXtXtXtXtXtXtXtXtXtXtXtXtXtXtXtXtXtXtXtXtXtXtXtX0XdXS.C 5.r.r.N n f j j d i 1.D.%XtXtX7XuXtXtXtXtXtXtXtXtXtX",
"2X2X2X2XtXtXtXtXtXtXtXtXtXtXtXtXtXtXtXtXtXtXtXtXtXtXtXtXtXtXtXtXtXtXiX*X6.V f.h.f.4.N j p p d i p.MXzX7XtXuXtX0XtXtXyXtXtXtXtXtX",
"tXtXtXtXtXtXtXyXtXtXtXtXtXtXtXtXtXtXtXtXtXtXtXtXtXtXtXtXtXtXtXtX0XyXjXR.b N y.j.r.N b p @ i h h a.=XsX8XtXtXtXtXtXtXyXyXtXtXtXtX",
"tXtXtXtXtXtXtXtXtXyXyXtXtXtXtXyXtXtXtXtXtXtXtXtXtXtXuXuXuXuXtXtX0XyXlXR.r.M b e.M j p 1 + a h b p.*XyXiXtXtXuXtXtXtXtXyXtXtXtXtX",
"tXtXtXtXtXtXtXtXtXyXyXtXtXtXtXyXtXtXtXtXtXtXtXtXtXtXuXuXuXuXtXtXyXuXqXR.k.u.f p a 1 2 o 1 l b 2.Q.#X8XyXyXtXtXyXtXtXyXyXtXtXtXtX",
"yXyXyXyXtXtXtXyXtXtXtXtXtXtXuXuXtXtXtXtXtXtXtXtXuXuXuXuXuXuXuXuXuXuX;XS.s.2.h 2 : % & : g 1.2.D.-XkXuXtXiXiXtXiXtXtXuXtXtXtXtXtX",
"yXyXyXtXtXtXtXyXtXtXtXtXtXtXuXuXtXtXtXtXtXtXtXtXuXuXuXuXuXuXuXuXuXcX'.( s s 1 2 : : & , k w.p.R.zXiXiXtX0XwXuXuXtXtXuXuXtXtXtXtX",
"yXyXtXtXtXtXyXyXtXtXtXtXtXtXtXuXtXtXtXtXtXtXtXtXuXuXuXuXuXuXuXuXiXhXm.r 1 1 s 1 1 + o : g 1.A.oXuX8XuXiXuXuXiXuXtXtXuXuXtXtXtXtX",
"2X2XtXtXtXtXyXyXtXtXtXtXtXtXtXuXtXtXtXuXtXtXtXuXuXuXuXuXuXuXuXuXiX|.| a i s s + o X + : s 3.W.lXuXuXuXuXtXuXuXtXuXtXuXuXuXtXtXtX",
"2XtXtXtXtXtXtXtXtXtXtXtXtXtXuXuXtXuXtXtXtXuXuXuXuXuXuXuXuXuXuXuXiXoXc.| g 2 , . o : s i s ..E.kX9XuXuXuX0XuXuXuXuXuXuXuXtXtXuXtX",
"2X2XtXtXtXtXtXtXtXtXtXtXtXtXuXuXuXuXtXuXuXuXuXuXuXuXuXuXuXuXuXuXuXkXfX/.b.8.g > + s l a 2 2 8.;XxX8XtXiXuXiXuXuXuXuXuXuXtXtXuXuX",
"yXyXtXtXtXtXtXtXtXtXtXtXtXtXuXuXuXwXwXwXuXuXuXuXuXuXuXuXuXuXuXuXiXuXuXuXjXW.w.z b m m 1 < $ G U.kXuXuXuXuXqXwXuXuXuXuXuXtXtXtXtX",
"yXtXtXtXtXtXtXtXtXtXtXuXtXtXuXuXuXwXwXuXuXuXuXuXuXuXuXuXuXuXuXuX0XuX9XxXhXS.d.e.e.m 1 & ; = 5 9.}.qXcXtXtXiX8XtXuXuXuXuXuXtXtXtX",
"qXyXtXtXyXtX0X0XtXtXtXtXtXtXuXuXuXuXuXuXuXuXuXuXuXuX0XiXwXuXuXuXwXiXiXdXT.i.j.g.1.s : > q D H D o.C.fXiXuXiXqXwXuXuXtXuXcX0X0XiX",
"tXtXtXtXtXuXtXyXtXtXtXtXuXtXuXuXuXuXuXuXuXuXuXuXiXwXiX0XuXuXkXkXzXXXG.v.>. .t.2.r r y t t t K U E O.x.}.lXiXiXiXuXuXuXuXuXtXuXuX",
"yXyXyXyXtXtXtXuXtXtXuXuXuXuXuXuXuXuXuXuXuXuXuXuX0XiXwXuXbXdXoX_.b.l.>.,.;.] ' e e L L U [ { } } <.<.:.9.I.dXiXuXuXuXuXuXuXuXuXuX",
"2XtXyXtXuXtX0XwXtXtXuXuXuXuXuXuXuXuXuXuXuXuXuXuXwXuXuXkX_.v.9.o.o.<.7.7.;.` t H L ^ L U ( [ [ } &.&.&.%.>.I.dXuXuX0XuXuXuXwXuXuX",
"2XtXtXtXtXuXuXiXtXtXuXuXtXtXuXuXuXuXuXuXuXuXuXuXuX9XcX}.+.R R ) &.,.,.&.R t t L ^ U U U U K K ^ U U K I ( O.C.fXcXwXwXiX0X0XtXuX",
"tXyXtXyXqXwXuXiXtXtXuXuXtXtXuXuXuXuXuXuXuXuXuXuXtXcXXXl.R { | &.-.-.-.-.! t L L ^ H q K I H H t q H H q U R +.n.dXuXwXpXwXwXuXtX",
"fXfXtXtXyX9X0XtXtXtXtXtXtXtXuXuXuXuXuXuXuXuXuXuXiXfXv.E &.| } ,.,.&.} { H H U L K K H H H t t t q t 3 t H P *.*._.pXuXqXuXuXuXuX",
"Q.*X;XtXyXuXtXtXtXtXtXtXtXtXuXuXuXuXuXuXuXuXuXuXjXG.o.%.-.-.-.;.-.{ [ R K L L J t L L H t t w ; e 7 3 w 5 S I *.M.qXiX0X8XiXuXuX",
"Q.F..X8X9XtXtXtXuXuX0XtXyXyXuXuXuXuXuXwXwXwXvXiXXXX.R -.;.-.,.&.U U ^ ^ L L L H t H t t t e 3 e 3 ; ; w 3 q H ` l..XwX0XuX0XiXyX",
"Q.6.T.yX8XtXtXyXyXtXuXuXuXuXuXuXvX9XiXuX9X9XwXkXI.T P ;.,.-.:.( I U ^ U L K H t t t 7 3 3 ; ; ; ; ; e t 7 5 t U O.|.uXyXiX0XuXuX",
"A.4.i.E.aX8XiXuXuX0XtXiX0XwXwXuXwXiX0XuXuXwXcX#X+.5 W 0.-.{ [ U H U U U L t t t 7 7 ; ; ; ; & ; $ $ 3 t y t t U *.}.cXiXiXtXyXuX",
"n M h.F.T.uX8XwXtXtXyXyXuXuXtXuXuXiXuX8XtXcXfXv.q = U 0.&.( J t q L U L L t 3 7 ; ; ; $ ; $ $ & > 3 3 3 q t H H O._.uXuXiXuXpXtX",
"4.N 5.g.p.#X8XtXtXiXtXtXuXiXwXwXtXuXiX7XvXdXb.G * $ U -.{ U t 3 7 L L L t e 3 ; ; ; $ $ & $ $ ; ; 3 t t t 5 3 e I _.nX*X*XsXwXuX",
"y.2.b f.6.q.K.jXiXiXuXuXuXuXwXwXtXuXuXvXsXC.F = $ - [ &.I q 3 3 e t L y t 7 ; ; ; & $ $ & $ $ ; t w w q 3 e g l ` D.mXh.A.$XiXwX",
"2.d f f.f.n ' b._.].;XiXiXuXiXiXwX0XuX;Xb.D 3 ; & - [ { H q 3 3 e e t t 7 7 ; $ $ $ $ X $ $ $ 7 t t 3 > 2 1.2.2.1.6.a.W.#XiXuXuX",
"h i b r.g.B k * 8 G z._.[.{.$XfXsXhX+XN./ = < $ $ $ ` R H 7 3 3 e 7 t t 3 ; ; $ $ $ X X X . $ e K t y 3.2.u.M j d 1.W.yXyX0X9XiX",
"} ~ 1.M V x 1 & < ; 5 F T o.#.9.z.z.$.G 3 > ; = . & L ( q w e t u ; ; ; ; ; ; $ . . . . . . $ 3 Q q Q j.e.x j l i ~ Z.iXyXiX7XtX",
"|.C.c...h k 2 % = e w w 5 S P K F D q 3 ; & & $ . ; W R q e 3 q y ; ; ; ; ; ; & . . . . . . $ 3 ` t 9 d.e.j p a h ' I.uXyXtX7XyX",
"tX0XdX`.n.8.- < 3 7 = 3 t 3 7 t w 3 3 7 ; & & & . ; [ [ t t 3 H e ; ; ; ; ; & & . . . . . . $ ; ` w k j.Z f p s  .;.|.uXtXuXuXtX",
"2X7X7XiXjX'._ = & & ; ; w 3 3 w e 3 3 ; $ $ $ $ O - [ { 5 t 3 8 e ; $ ; & & & & . . . . . . $ ; u e s.mXe.m l ] } >..XuXyXtXtXuX",
"yX2X2XtX8X0XH.l.w * ; ; - 3 ; 7 7 3 3 ; % % $ $ . 3 [ [ S L t 7 > ; $ & & & & & . . . $ . . . $ u u w.d.1...] ..) :.XXyXtXtXyXuX",
"<XyXtXtX2XtXyX$XV.$.F 3 = ; ; ; ; ; ; ; % $ $ % 6 U *.R S J 3 7 ; ; $ $ & & % & $ . $ $ $ . . . ; t r k k k t q P *.).yX8XtXyX0X",
"<X<X2X2XyX2X2XyX4X{.U.z./ D 6 = = ; = $ $ * 3 G v.c.>.W J t 3 w ; ; & $ & $ $ & & $ $ & & . . . - U t t ; % 3 w 5 P v.1X8XtXtXyX",
"tX<XtX<X<XtXtX2XtXyXjXgX XI.z.+./ / F F / #.v._.sXI.O.U L t 3 3 ; ; & $ % $ $ & & $ $ & & . . . & ` ` e - & & ; 3 P l.fXtXtXuXtX",
"2X2XtXtXtXtXtXtXtXtXtXtXtXtX4X4X&X[.(.(.XXfXhXyXyXI.>.U U t 3 3 ; ; ; $ $ $ $ $ $ $ $ ; e ; % . $ ^ K t ; ; 3 3 H o.V.1XuXtXtXuX",
"2X2XtX2XtXtXtXtX2XtXtXtXtXtXtXtXtXyXyXyXyXyXtXtXjXC.:.^ J t 3 e ; ; ; $ $ $ $ $ $ $ $ ; 7 e e ; & L ^ I 5 q 5 F ! >.}.iXtX<XtXtX",
"2X2X2X2XtX2XtXtXtXtXtXyXyXtXtXtXtXtXtXtXtXtXtXtXjXV.<.I 5 J t t ; ; ; $ $ $ $ $ $ $ $ $ 3 t u t w t ^ { P G S R :.C.sX7XyXtXtXyX",
"2X2X2X2X2XtXtXtXtXtXtXtXyXtXtX2XtXtXtXtXtXtXtXtXhXN.*.H t W y y ; ; $ $ $ $ $ $ $ $ $ $ $ 3 t H 7 3 t O.E I ! *.V.#XyXtXtXtXtXtX",
"2X2X2X2X2X2XtXtXtXtXtXtXtXtXtXyXtXtX0X0XyXyXtXtXjXN.) D U [ 8 y ; ; $ $ $ $ $ $ $ $ & % $ $ * 3 t ; 3 b.N.#.l.C.&XjXyXjXyXtXtX7X",
"2X2X2X2X2X2XtXtX4XtXtXtXtXtXtXtXyXyXtX0X0X0XtXtXjX!.) H [ ^ 3 t ; ; $ $ $ $ $ $ & $ . . % $ $ $ t t 6 L.jXgX5XqXyX<XyXtXyXtXtXtX",
"2X2X2X2X2XtXtXtX4X4XyXyXtXtXtXtXtXtXtXtXtXtXtXtXiX|.o.Y [ K 3 7 ; ; $ $ $ $ $ $ . . . . % % $ $ 7 t P /.uXtXuXtXuX2XyX>XtXtXtXtX",
"2X2X2X2XtX2XtXtX2XtX4XyXyXtXtX7XtXtXyXyXtXtXtX2XiX[.) U ^ 3 ; e ; & $ $ $ $ $ $ . . $ $ . $ $ $ ; 3 X.$XyX0XyX7XtXtX0XtX9XtXtXyX",
"2X2X2X2X2XtXtXtXtXtXtXtXtXtXtXtXtXtXtXtXtXtXtXtXiXG.F { ^ 3 7 ; ; $ $ $ . . . . . . $ . $ $ $ $ * 3 8.hX7X0X0X1XtXtXtXtXtXtXtXtX",
"2X2X2X2X2X2X2X2XtXtX2XtX2X2XtXtX2XtXtXtXtXtXtXtXuXB.%.} H 3 = ; ; ; $ $ $ $ & % $ $ $ $ $ $ $ $ $ = _ ;XtXyXtXtX2X2X2X2X2X2X2X2X",
"2X2X2X<X2X2X2X<X2X2X2X2X2X2X2XtXtXtXtXtXtXtXtXtXyXI.=.H ; $ % $ ; ; & $ $ & & & & & $ . . $ $ $ $ $ F XXyXyXtX<XtXtXtXtXtXtXtXtX",
"2X2X2X2X2X2X2X2X2XtXtXtXtXtXtXtXtXtXtXtXtXtXtXtX1Xv.T q 3 ; $ ; ; ; $ $ $ $ & & ; & & $ $ $ ; ; = ; H |.iXtXtXtXtXtXtXtXtXtXtXtX",
"2X2X2X2X2X2X2X2X2X2X2XtXtX2X2X2X<X<X<X2X4X4XyXyX1XN.T H w ; $ - e ; & $ $ . $ $ % & ; ; ; ; ; ; 3 w 5 /.tX<X2XyX0X0X0XtX0XtX0X0X",
"2X2X2X2X2X2X2X2X2X2XtXtX2XtXtXtX<X<X2XtXtXtXtXtXyX).o.Y t ; ; $ 2 ; & $ $ . . . $ $ & ; ; 3 7 7 8 t A !.uXyX2XyX2XtX2X2XtX2X2XtX",
"2X2X2X2XyXtXtXtXtXtXyXyXyXyXyXyXyXyXyXtXyXtXuXuX+X@.F H K y ; - ; & & $ . . . . $ $ $ $ $ ; ; 3 H U E (.iXtXyXtXyXyXyXyXyXyXyXyX",
"~.~.~.~.^.^.^.^.L.L.^.^.^.^.^.^.~.~.^.^.^.^.^.'.z.S 7 > ; ; & & O O .                       . . 3 7 U I.].P.}.'.'.'.^.'.'.'.'.'."
};
