/* XPM */
static char *k_13[] = {
/* columns rows colors chars-per-pixel */
"64 64 239 2 ",
"   c #020116",
".  c #05041C",
"X  c #09051C",
"o  c #0B091C",
"O  c #0A081B",
"+  c #140D1D",
"@  c #14101E",
"#  c #060623",
"$  c #090625",
"%  c #060824",
"&  c #090924",
"*  c #06052A",
"=  c #0B052A",
"-  c #0B0A2B",
";  c #060B2C",
":  c #130D23",
">  c #100E2C",
",  c #170B24",
"<  c #121123",
"1  c #1C1324",
"2  c #1C1329",
"3  c #16142C",
"4  c #0C0633",
"5  c #0D0C33",
"6  c #0C0D3B",
"7  c #080838",
"8  c #120D34",
"9  c #120D3A",
"0  c #160B37",
"q  c #0D1135",
"w  c #0D113B",
"e  c #031E3B",
"r  c #121134",
"t  c #13143C",
"y  c #19143D",
"u  c #1A1738",
"i  c #2C152A",
"p  c #2E1C2B",
"a  c #271626",
"s  c #341C2B",
"d  c #3B1B29",
"f  c #371728",
"g  c #281834",
"h  c #3B1E32",
"j  c #290C38",
"k  c #2E202C",
"l  c #3A242C",
"z  c #352029",
"x  c #2E2238",
"c  c #362937",
"v  c #431E29",
"b  c #43242C",
"n  c #4C272B",
"m  c #54282E",
"M  c #422332",
"N  c #472835",
"B  c #532733",
"V  c #493237",
"C  c #593639",
"Z  c #613A3C",
"A  c #6A3738",
"S  c #703535",
"D  c #79443D",
"F  c #67413E",
"G  c #0B0D44",
"H  c #0D1244",
"J  c #0B1849",
"K  c #131444",
"L  c #191644",
"P  c #151944",
"I  c #1A1A44",
"U  c #14154B",
"Y  c #19154A",
"T  c #15194B",
"R  c #1B1C4C",
"E  c #0C1853",
"W  c #151B53",
"Q  c #1C1D53",
"!  c #1B1D5B",
"~  c #161958",
"^  c #241945",
"/  c #221D54",
"(  c #192348",
")  c #0D2455",
"_  c #1F2153",
"`  c #1C225A",
"'  c #132659",
"]  c #262546",
"[  c #362745",
"{  c #3D3446",
"}  c #222354",
"|  c #24255B",
" . c #25295C",
".. c #2C2857",
"X. c #3B3556",
"o. c #0E2665",
"O. c #1B2464",
"+. c #162968",
"@. c #0C356A",
"#. c #133262",
"$. c #18366C",
"%. c #173976",
"&. c #0D3F7A",
"*. c #242A65",
"=. c #2B2C64",
"-. c #2C2C6A",
";. c #252463",
":. c #2A326A",
">. c #32326C",
",. c #38396F",
"<. c #2B3575",
"1. c #373977",
"2. c #342F6C",
"3. c #443447",
"4. c #573546",
"5. c #473C54",
"6. c #513755",
"7. c #4C2B46",
"8. c #673B49",
"9. c #683A4E",
"0. c #0D4674",
"q. c #16487A",
"w. c #184E71",
"e. c #21486D",
"r. c #384576",
"t. c #35567F",
"y. c #554558",
"u. c #534755",
"i. c #6C444A",
"p. c #734949",
"a. c #6C4653",
"s. c #754555",
"d. c #73595B",
"f. c #7C665B",
"g. c #48496C",
"h. c #564963",
"j. c #51507B",
"k. c #6E546D",
"l. c #5D607F",
"z. c #766177",
"x. c #6E617F",
"c. c #875659",
"v. c #874F50",
"b. c #9B605A",
"n. c #865A69",
"m. c #8F6B72",
"M. c #194A89",
"N. c #17588B",
"B. c #1C5B90",
"V. c #21528D",
"C. c #1B689B",
"Z. c #34799F",
"A. c #286796",
"S. c #1978A6",
"D. c #166DA2",
"F. c #2775A8",
"G. c #3075A7",
"H. c #5D6D93",
"J. c #4F6C8D",
"K. c #697394",
"L. c #756892",
"P. c #1A83AC",
"I. c #198AB6",
"U. c #0F96BD",
"Y. c #0E98BD",
"T. c #1C92B6",
"R. c #1E96B9",
"E. c #129BBF",
"W. c #1E99BB",
"Q. c #2183A9",
"!. c #2585B3",
"~. c #2395BC",
"^. c #2098BB",
"/. c #388DB6",
"(. c #4C8EAB",
"). c #6887A9",
"_. c #0F9EC0",
"`. c #139CC1",
"'. c #1B99C3",
"]. c #1B97CC",
"[. c #279AC6",
"{. c #2E9BC9",
"}. c #15A2CA",
"|. c #1AA9D2",
" X c #1DB2DD",
".X c #0AA4C8",
"XX c #28A5CC",
"oX c #26A8D3",
"OX c #26B3DA",
"+X c #36B5DC",
"@X c #32ACD3",
"#X c #18B9E2",
"$X c #14BFF7",
"%X c #28BBE6",
"&X c #31BEE6",
"*X c #4B9CC2",
"=X c #48A7CE",
"-X c #5CB4DC",
";X c #0ECAF7",
":X c #0FCEF8",
">X c #13CBF6",
",X c #15C4FA",
"<X c #14CDFB",
"1X c #19CEFC",
"2X c #1AC8F5",
"3X c #0ED4F6",
"4X c #0ED9F7",
"5X c #0ED4FC",
"6X c #0EDBFB",
"7X c #14D3F7",
"8X c #13DAF6",
"9X c #15D1FD",
"0X c #12D5FF",
"qX c #15D5FD",
"wX c #14D4FC",
"eX c #1AD4FD",
"rX c #14DAFC",
"tX c #1ADBFD",
"yX c #1DD5F5",
"uX c #1DC2E7",
"iX c #23C4EC",
"pX c #2AC5EC",
"aX c #2ACBED",
"sX c #23CAEC",
"dX c #35C7E9",
"fX c #23CCF3",
"gX c #2AC8F3",
"hX c #22D3F6",
"jX c #23D6FD",
"kX c #23DBFD",
"lX c #29D4F9",
"zX c #2DCEF0",
"xX c #0FE1FE",
"cX c #15E1FE",
"vX c #1CE4FF",
"bX c #22E2FF",
"nX c #45C3E9",
"mX c #818AB1",
"MX c #8AA8CE",
/* pixels */
"I.I.I.T.T.T.T.T.T.T.T.T.T.T.T.T.T.T.T.T.R.R.W.W.W.W.R.R.R.R.R.R.R.R.W.W.W.W.W.W.W.^.^.^.^.^.W.W.W.W.W.W.W.W.W.W.W.W.W.W.W.W.R.R.",
",X,X,X,X,X,X,X,X;X;X;X,X,X,X,X,X9X9X,X9X,X9X9X9X9X9X9X9X9X9X9X9X4X4X4X4X4X4X4X4X4X9X9XrX9X9XrXrX9X9X9X9X9X9X9X9X4X9X9X9X9X9X9X9X",
"$X,X,X,X,X,X,X,X;X;X;X,X<X,X,X,X,X,X,X,X,X,X,X,X9X9X9X,X,X,X,X9X,X,X,X,X,X,X,X,X9X9X9X,X,X,X,X,X9X9X9X,X,X9X9X9X,X,X,X,X,X,X,X,X",
",X,X,X,X,X,X,X,X<X<X<X,X,X,X,X,X1X1X,X,X,X,X,X9X,X,X,X,X,X,X,X,X,X,X,X,X9X,X,X,X1X1X9X9X9X9X9X9X9X9X9X9X9X9X9X9X,X,X,X,X,X,X,X,X",
",X,X,X,X,X,X,X,X<X<X<X<X,X,X,X,X1X,X,X,X,X,X9X9X,X,X,X,X1X1X1X9X9X9X9X9X9X9X9X9X,X9X9X9X9X,X,X,X9X9X9X9X9X9X9X9X9X9X,X,X,X,X,X,X",
",X,X,X,X,X,X,X,X<X,X<X9X,X,X9X9X9X9X9X9X,X9X9X9X9X9X9X9X9X9X9X9X9X9X9X9X9X9X9X9X9X9X4X4X4X4X9X9X9X9X9X9X9X9X9X9X9X9X9X,X,X,X,X,X",
",X,X,X,X,X,X,X,X,X,X,X,X9X9X9X9X9X9X9X9X9X9X9X9X9X9X9X9X9X9X9X9X9X9X9X9X9X9X9X9X9X9X9X9X9X9X9X9X9X9X9X9X9X9X9X9X9X9X9X9X9X9X9X9X",
",X,X,X,X,X,X,X,X<X<X,X,X9X9X9X9X9X9X9X9X,X9X9X9X9X9X9X9X9X9X9X9X9X9X9X9X9X9X9X9XrXsX@X/.Z.!.oXgX9X9X9X9X9X9X9X9X9X9X9X9X9X9X9X9X",
",X,X,X,X,X,X,X,X9X9X9X9X9X9X9X9X9X9X9X9X9X9X9X9X9X9X9X9X9X9X9X9X9X9X9X9X9X9X9X9X+XJ.i.A m B [ e.P.%XtX9X9X4X9X9X9X9X9X9X9X9X9X9X",
",X,X,X,X,X,X,X9X9X9X9X9X9X9X9X9X9X9X9X9X9X9X9X9X9X9X9X9X9X9X9X9XrX9X9X9X9XrX9X&Xl.a.S D A A n f L $.~.yX4X9X9X9X9X9X9X9X9X9X9X9X",
",X,X,X,X,X,X,X,X9X9X9X9X9X9X9X9X9X9X9X9X9X9X9X9X9X9X9X9X9X9X9X9X9X7X9XrX9X9XfXJ.a.n C F Z m m v f g ' T.9X9XtX3X9X9X9X9X9X9X9X9X",
",X,X,X,X,X,X,X9X9X9X9X9X9X9X9X9X9X9X9X9X9X9X9X9X9X9X9X9X9X9X9X9X9XtX9XtXrX4XOXx.p.m i.C n n n b d i j q.iX9X<X9X9X9X9X9X9X9X9X9X",
",X9X,X,X9X9X9X9X9X9X9X9X9X9X9X9X9X9X9X9X9X9X9X9X9X9X9X9X9XrXrXrXtXtX9X9X6XgX(.a.S Z p.C n v b l d a g r.+XrX9X9X9X9X9X9X9X9X9X9X",
"9X9X9X9X9X9X9X9X9X9X9X9X9X9X9X9X9X9X9X9X9X9X9X9X9X9X9X9XrXrXrXrXrX9XtXrX6X=Xy.S v.v.v.i.Z v d l f a u.mXnX3XrX3X9X9X9X9X9X9X9X9X",
"9X9X9X9X9X9X9X9X9X9X9X9X9X9X9X9XrX9X9X9XrXrXrXrX9XrXrXrXrXrXrXrXrXrX9X9XtXJ.B Z v.b.D C V p p p d d z.MXaXrX3X9X9X9X9X9X9X9X9X9X",
"9X9X9X9X9X9X9X9X9X9X9X9X9X9X9X9X9XrX9XrXrXrXrXrXrXrX9XrXrXrXrXrX9X9X9XrXhXH.9.B C p.C b h 1 1 f M v z.-XrX4X9X9X9X9X9X9X9X9X9X9X",
"9X9X9X9X9X9X9X9X9X9X9X9X9XrXrXrXrXrXrXrX9XrXrXrXrXrXrXrXrXrXrXrX9XrX4XtXaXK.m.8.k c c p 1 < 1 a v 4.L.nXxX6XrXrXrXrXrXrX9X9X9X9X",
"9X9X9X9X9X9X9X9X9X9X9X9X9XrXrXrXrXrXrXrXrXrXrXrXrXrXrXrXrXrXrXrX6XtX9XcX Xj.s.9.p 1 @ + , X k 3.b z.(.hXxX7XtX9XrXrXrXrX9X9X9X9X",
"9X9X9X9X9X9X9X9X9X9X9X9X9X9XrXrXrXrXrXrXrXrXrXrXrXrXrXrXrXrXrXrXtX9XrXtXS.^ a a , < < , < < { 6.k.).dX6XrX8XrXrXrXrXrXrXrXrXrXrX",
"9X9X9X9X9X9X9X9X9X9X9X9X9X9XrXrXrXrXrXrXrXrXrXrXrXrXrXrXrXrXrXrX3XrXtXoX$.u 1 2 a 1 < , < 2 5.h.K./.9XrXtXrX9XrXrXrXrXrXrXrXrXrX",
"9X9X9X9X9X9X9X9X9XrXrXrX9XrXrXrX9XrXrXrXrXrXrXrXrXrXrXrXrXrXrXrXrXrXyXF.^ i a 2 1 + o , , 2 x g.*XaXrX9XtX7XtXrXrXrXrXrXrXrXrXrX",
"9X9X9X9X9X9X9X9X9XrXrXrXrXrXrXrXrXrXrXrXrXrXrXrXrXrXrXrXrXrXrXrXrX6XtX{.r.] g + X o + 1 1 a g J.dXtXrXrXcXtXrXrXrXrXrXrXrXrXrXrX",
"9X9X9X9X9X9X9X9X9X9X9XrXrXrXrXrXrXrXrXrXrXrXrXrXrXrXrXrXrXrXrXrXrXrXrXjXdXXXN.( 1 O + a k a x H.dX8XrXrXrXtX8X9XrXrXrXrXrXrXrXrX",
"9X9X9X9X9X9X9X9X9X9X9XrXrXrXrXrXrXrXrXrXrXrXrXrXrXrXrXrXrXrXrXrXrXrXrXcXrXvXXXg.7.f M M l f g ' F.yXcXrX4XrXrX9XrXrXrXrXrXrXrXrX",
"9X9X9X9X9X9X9X9X9X9XrXrXrXrXrXrXrXrXrXrXrXrXrXrXrXtXrXrXrXrXrXrXrXcXrXrXtXpXA.k.i.p.C N a 1 > * $.sXcX9XrXrXrXrXtXrXrXrXrXrXrXrX",
"9X9X9X9X9X9X9X9X9X9XrXrXrXrXrXrXrXrXrXrXrXrXrXrXrXtX4XcXrX9X6XcXrX8XyXpX[.B.} n.c.p.V a , > 5 7 ' ~.jXcX4XtXrXtXrXrXrXrXrXrXrXrX",
"9X9X9X9X9X9X9X9X9X9XrXrXrXrXrXrXrXrXrXrXrXrXrXrXrXrXrXrXtXtXcXyXuX'.C.M.%.-.[ a.c.C a ; q 7 w Y ~ $.P.jXrXrX9X8XrXrXtXrXrXrXrXrX",
"9X9X9X9X9X9X9X9X9X9XrXrXrXrXrXrXrXrXrXrXrXrXrXrXrXrXrX6XbXpXoXP.0.#.*.>.1.>...3.c a 8 K K H K K T Y $.!.gXjXrXcXrXrXtXtXrXrXrXrX",
"9X9X9X9X9XrXrXrX9XrXrXrXrXrXrXrXrXrXrXrXrXrXrXrXrXtX4XtXOXN.$.o.! | 2.=.-.-.} t u L / } Y ` } } | | ;.+.F.&XjXrXrXrXrXrXrXrXrXrX",
"9X9X9X9X9XrXrXrXrXrXrXrXrXrXrXrXrXrXrXrXrXrXrXrXrXrXtX&XM.E J !  .=.=.*.*.` Y ^ L Q Q ` ` |  .=.=.=.>.>.<.G.dXtXrXrXrXrXrXrXrXrX",
"9X9X9X9X9X9XrX9XrXrXrXrXrXrXrXrXrXrXrXrXrXrXrXrXrXcXaXC.E ` Q / *.-.-.=. .Y K L K } } Q Y Q Q } | / ` *.;.O.G.dXtXtXrXrXrXrXrXrX",
"9X9X9X9X9X9X9X9XrXrXrXrXrXrXrXrXrXrXrXrXrXrXrXrXrXtX~.+.! Q |  .-.1.2.=.~ T L Y Q Q Q Y / Q Y T P Y ' ~ / Q <./.jX9XtXrXtXtXrXrX",
"9X*X+X9X9X9X4XrX9XrXrXrXrXrXrXrX6XrX9XrXrXrXrX4XcXOX0.;.-...=.>.>.=.| Q Q Q Y | } Y Y } Y K K P w P K K L U O.<.{.tX6XrXrX9XtXrX",
"yXL.).jX4X9X9XtXrXrXrXrXrXrXrX8XtX8XrXrXrXvXrXcXtXS.E Q 1.,.>.>.| Q Q Q Q ` } } Y K K L t t K K t t 7 w t Y T ;.F.iXrXrXrX9XrXrX",
"jX).j.+X9X9XrXtX9X9X9XrXrXrXrXrXrX8XrXrX6X8XrXxXpXq.7 | r.>. .| T K T ` ` } } Y K w K t 5 t 9 5 5 5 7 t 9 7 U ` q.OXrXrXrXrX9XrX",
"=X(.X.l.+XjX4X9XrXrXrXrXrXrXrXrXrXrXrXrXrXrX8XbX!.~ 4  .1.-.Q K 7 K Y Q } Y P t 5 ; q 5 ; ; ; ; ; 5 t = u 0 L Q *.XXrXrX9XrX9XrX",
"6.y.y.v.K.dXtX9XrXrXrXrXrXrXrXrXtXrX4XrX9XrXhXXX#.5 * } >.` K q 5 K Y _ } Y w 5 5 ; $ # $ X , x l 3.2 { m.n.k.7.| [.rXrX9XrX9XrX",
"4.B 4.b.n.(.gX9XrXrXrXrXrXrXrXrXtX9XrXrX6XvXoX@.5 ; ; ` =.T w ; 5 t Y Y L t r ; * ; & $ x a N d.C 4.f n.m.a.4.[ Q [.rXtX9XrXrXrX",
"9.C b s.c.h.Q.2X8XtXrXrXrXrXrX9XrXrXbX3XtXOX0.7 ; & $ Y | P r ; t t L L t r 5 ; ; # . g m.i.B C b d M 4.7.g 9 U ' oXtXtXrX9XrXrX",
"9.C h 8.c.i.x q.%X%X2X9XtXtXtXtXtXjX7XvXuXq.4 ; # $ $ L T t 8 5 y L L t t 5 ; & . .   f m.i.v f l s f V 5.8 7 G @.OXrXrXtX9XrX9X",
"b a f v.b.d.3.o ( ' @.!.OX X%XiXaXhXhXoXq.w $ & ; # ; K 5 r ; 5 L t t 8 ; ; $ & & . . k f.V i i N l a 5.X.q 8 7 q.hX9X9X9X9XrX9X",
"] [ 4.s.v.p.l X # 5 7 H ' #.@.0.q.N.N.@.J ; $ % & . # 9 5 r * w t t r 5 ; ; $ & X .   h.m.C a a k { { X.t 5 t 7 B.lXtXrX9X9XrX9X",
"/.Z.t.g.V b a o = 5 q 5 8 9 9 9 w H G 7 8 ; # % % . $ t 8 > 5 t t 8 5 ; ; $ # & $ X   { d.V k x c 5...K K t 5 G S.jXrX9X9X9XrX9X",
"9X2X%XXXZ.e.e ; > ; ; ; ; ; 8 8 t 5 5 q ; & # # . X $ t ; ; t t 8 5 ; ; ; # # & $ . . $ { c c [ [ ] Y T U H t H R.jXrXrX9X9X9X9X",
"9X,X9X9XgX&XQ.J = ; ; & > ; 5 ; 5 5 5 ; # $ $ . . : ; w 7 5 5 t ; ; & & $ # $ ; $ . . # > u > > ; t t Y =.| K E |.tXrXrX9XrX9X9X",
",X9X;X9X;X4XfXD.' 4 = # % & # ; ; ; 8 ; ; $ X X . . 5 H K t 5 t ; = $ $ $ # $ & . . . . ; u ; $ # ; % t =.>.O.o.#XrXrXrX9XrX9X9X",
"9X,X,X,X9X4X;XgX{.0.H 5 ; ; % $ * ; ; $ & % # # # 5 K U T K w q ; ; $ & $ & & & . & o   r t ; & # # & 5 U O.+.M.fXrX9XrX9X4X9X9X",
"<X<X9X9X,X,X9X4X9X%XT.C.#.G 5 5 = = & & & # # * J e.#.Q _ w q 8 > ; & & & & & & % . o . ; L ; % & # ; t W +.o.M.lXrX9XrX9X3X9X4X",
",X,X,X9X9X9X9X9X9XtXjXfXOX!.B.&.) H 7 5 4 7 ) 0.}.@X$.` K 5 t r & $ & # # & & & . & & . > L t 5 ; t t U ! :.! M.9X9XrXrXrXrX9X9X",
",X,X9X9X9X9X9X9X9X9X9X9X9XfXiXiX|.'.P.S.S.P.oXsXyX|.+.W U 9 y ; & $ & $ # & & & $ & $ # ; L } w t 7 L U *.-.+.].9X9XrXrX9XrX9X9X",
",X,X9X9X9X9X9X9X9X9X9X9X9XrXrXrXrX9X9X9X9X9XtXrXcX}.+.U ` K t q & $ & $ # & & & ; ; ; ; ; K ..} H K T ~ -.+.C.2X9X9X9X9X9X9X9X9X",
",X,X9X9X9X9X9X9X9X9X9X9X9X9X9X9X9XrX9X9X9XrXrX4X9X X+.!  .P t r & $ & $ # & & & ; 8 r t t K `  .} T Q ! +.C.&XrX9X9X9X9X9X9X9X9X",
",X,X,X9X9X9X9X9X9X9X9X9X9X9X9XrX9X9X9X9X9X9XrXtXrX#X@.;./ L t ; & $ & # # & & & ; ; r t L P K U } ` o.M.[.fXtX9X9X9X9X9X9X9X9X9X",
",X,X,X,X,X9X9X9X9X9X9X9X9X9X9X9XrX9X9X9X9X9X4X9X6X#X%.-.Y L 9 5 & $ & # # & & & % # ; ; 5 t w H 7 ' S.%X9X6X9X9X9X9X9X9X9X9X9X9X",
"9X9X,X,X,X9X9X9X7X9X7X7X7X7X9X9X9X9X9X9XrX9X9X9X6X#X%.*.U L 5 8 & $ & # # & & & . . # # # ; K T 7 ' &XrX9X9X,X9X9X9X9X9X9X9X9X9X",
",X,X,X,X,X,X9X9X1X1X9X9X9X9X9X9X4X9X9X9X9X9X9X4XrX#X%.! U K t ; & $ & # # & & & & & $ $ # * t Y G @.iXrX9X9X9X7X9X9X9X9X9X9X9X9X",
",X,X,X,X,X9X9X9X9X9X9X9X9X9X9X9X9X9X9X9X9X9X4X4X9XsXN.U K K t r & % % % & o X . # . . # # & 8 L ` q.pXrX9X9X9X9X9X9X9X9X9X9X9X9X",
"<X<X,X<X,X,X9X9X9X9X9X9X9X9X9X9X9X9X9X9X9X9X9X9X9XfXV.U K K y ; ; & # # # # # . . . # # # # ; 5 } $.&X9X9X9X9X9X9X9X9X9X9X9X9X9X",
",X,X,X,X,X,X,X,X,X,X9X9X9X9X9X9X9X9X9X9X9X9X9X9XrX|.%.H w y y ; % % % & & & # # # # # $ # # & ; 8 ' OXtX9X9X9X9X9X9X9X9X9X9X,X9X",
",X,X,X,X,X,X,X9X,X,X,X9X,X9X9X9X9X9X9X9X9X9X9X9X9XI.+.Y 9 5 L 5 # # % & & & & $ $ # # # # # ; ; 5 #.%X9X9X9X9X9X9X9X9X9X9X9X9X9X",
"<X<X,X,X,X,X,X,X,X,X9X9X9X9X,X,X9X9X9X9X9X9X9X9X9X'.$.Y w w L 8 ; ; $ # $ ; ; > & & & & # # $ # * J |.9X9X9X<X7X9X9X9X,X,X,X,X9X",
",X,X,X,X,X,X,X,X,X,X9X9X9X9X,X,X9X9X9X9X9X9X9X9XrXlXA.Q 7 7 L y ; ; $ # $ $ ; ; ; > > ; ; 5 ; $ = G }.9X9X,X9X9X9X9X,X,X9X9X9X9X",
",X,X,X,X,X,X,X9X9X9X9X9X9X9X9X9X9X9X9X9X9X9X9X9X9X%XM.~ K K y r ; & $ $ $ $ $ # & ; ; ; ; 8 8 ; 5 ~  XrX9X9X9X9X9X9X9X9X9X9X9X9X",
"U.U.Y.Y.Y.Y.Y.Y.E.E.E.E.E.E.E.E.E.E.E.E.E.`._._._.B.G K t 5 r & & . . . . X X X . . . . X ; > > $ 9 I..X}.}.}..XE.`.`.`.`.`.`.`."
};
