/* XPM */
static char *k_6[] = {
/* columns rows colors chars-per-pixel */
"64 64 244 2 ",
"   c #06061B",
".  c #09071E",
"X  c #06081D",
"o  c #0A0A1E",
"O  c #060516",
"+  c #160A1D",
"@  c #12101D",
"#  c #060622",
"$  c #090624",
"%  c #060925",
"&  c #090924",
"*  c #06052C",
"=  c #0B052C",
"-  c #060B2C",
";  c #0B0B2B",
":  c #140D23",
">  c #110C2E",
",  c #1B0C25",
"<  c #1B1225",
"1  c #12112D",
"2  c #1E152A",
"3  c #181625",
"4  c #0B0534",
"5  c #0D0D33",
"6  c #0D0D3B",
"7  c #060935",
"8  c #110E33",
"9  c #110D3C",
"0  c #100335",
"q  c #0D1134",
"w  c #0E123C",
"e  c #121234",
"r  c #13133B",
"t  c #1A143D",
"y  c #1B193C",
"u  c #191938",
"i  c #0F1427",
"p  c #221225",
"a  c #24162B",
"s  c #291829",
"d  c #3C1D2D",
"f  c #351A2A",
"g  c #271A3B",
"h  c #361A36",
"j  c #320C24",
"k  c #1D213E",
"l  c #2B222C",
"z  c #34232D",
"x  c #3A232D",
"c  c #3A273B",
"v  c #2D2135",
"b  c #461C2D",
"n  c #49262D",
"m  c #532D2D",
"M  c #4A2836",
"N  c #592C35",
"B  c #4B323D",
"V  c #593438",
"C  c #673635",
"Z  c #703F3A",
"A  c #5B4037",
"S  c #70443D",
"D  c #140E42",
"F  c #110D48",
"G  c #0C1444",
"H  c #0B194B",
"J  c #141443",
"K  c #191543",
"L  c #161946",
"P  c #1C1B44",
"I  c #14144A",
"U  c #1A164B",
"Y  c #15194A",
"T  c #1B1B4B",
"R  c #0C1954",
"E  c #141B51",
"W  c #1C1D53",
"Q  c #1A1E59",
"!  c #090C43",
"~  c #221A49",
"^  c #231C53",
"/  c #1F214B",
"(  c #192247",
")  c #0B2557",
"_  c #1C2254",
"`  c #1D2359",
"'  c #152356",
"]  c #143057",
"[  c #242449",
"{  c #392C48",
"}  c #232253",
"|  c #23255B",
" . c #2A245C",
".. c #2A2A5D",
"X. c #262958",
"o. c #323554",
"O. c #1E1F62",
"+. c #0B2B64",
"@. c #1C2966",
"#. c #15366A",
"$. c #0D3E75",
"%. c #183874",
"&. c #0C3261",
"*. c #252A61",
"=. c #2B2C63",
"-. c #282B68",
";. c #312D66",
":. c #223366",
">. c #32336C",
",. c #3F3E66",
"<. c #283876",
"1. c #373975",
"2. c #252E71",
"3. c #5A3B44",
"4. c #483959",
"5. c #533B56",
"6. c #492D48",
"7. c #653946",
"8. c #753E42",
"9. c #503C64",
"0. c #0C4679",
"q. c #184579",
"w. c #315479",
"e. c #58475B",
"r. c #674348",
"t. c #764648",
"y. c #784855",
"u. c #6F505D",
"i. c #4A4B68",
"p. c #684E6C",
"a. c #764B67",
"s. c #795665",
"d. c #785675",
"f. c #5E627C",
"g. c #75687A",
"h. c #8A4A48",
"j. c #875454",
"k. c #8F5557",
"l. c #8B5667",
"z. c #8A6D6F",
"x. c #AA7D6B",
"c. c #164A84",
"v. c #165588",
"b. c #145A90",
"n. c #2B548B",
"m. c #1A6697",
"M. c #1E6994",
"N. c #35688A",
"B. c #236A9B",
"V. c #306D90",
"C. c #285FA0",
"Z. c #1B7AA8",
"A. c #1670A8",
"S. c #2278A7",
"D. c #347BA6",
"F. c #4B7493",
"G. c #686A85",
"H. c #687298",
"J. c #5877A2",
"K. c #575483",
"L. c #946688",
"P. c #1B8DBA",
"I. c #1C85B6",
"U. c #1D95BC",
"Y. c #1C99BD",
"T. c #1596BF",
"R. c #1F80AD",
"E. c #2684AB",
"W. c #2587B6",
"Q. c #2294BC",
"!. c #2199BE",
"~. c #338DB1",
"^. c #418DB4",
"/. c #4695B8",
"(. c #5486B1",
"). c #7195B5",
"_. c #0E9FC4",
"`. c #1599C1",
"'. c #1A9AC4",
"]. c #1D8BC0",
"[. c #2499C4",
"{. c #2D93C9",
"}. c #18A1C5",
"|. c #17A4CA",
" X c #1EADD4",
".X c #1AB6DF",
"XX c #29A5CB",
"oX c #27AAD6",
"OX c #36AAD7",
"+X c #2BB9DE",
"@X c #32B3DB",
"#X c #38A6CE",
"$X c #12BFF9",
"%X c #22ACE1",
"&X c #29BCE4",
"*X c #24B9E5",
"=X c #33BBE5",
"-X c #48ABD2",
";X c #4AB0D0",
":X c #47BDE5",
">X c #1CC3E9",
",X c #0FCDFA",
"<X c #0DCEF5",
"1X c #13CDF5",
"2X c #1CCDF4",
"3X c #15C5FA",
"4X c #14CDFB",
"5X c #19CDFC",
"6X c #17C4F6",
"7X c #0ED4F6",
"8X c #0ED4FB",
"9X c #0ED9FA",
"0X c #0CD8F6",
"qX c #13D3F6",
"wX c #1BD4F6",
"eX c #12DAF6",
"rX c #16D3FB",
"tX c #15D1F9",
"yX c #14D4FB",
"uX c #15D5F9",
"iX c #12D2FE",
"pX c #15D2FD",
"aX c #15D5FF",
"sX c #15D4FB",
"dX c #1AD3FB",
"fX c #14D9FB",
"gX c #1ADBFD",
"hX c #1AD9F6",
"jX c #1CD1EE",
"kX c #23CAEC",
"lX c #24C3EB",
"zX c #36C6EA",
"xX c #23CDF3",
"cX c #25C9F4",
"vX c #24D1F4",
"bX c #23DDFE",
"nX c #28D5FA",
"mX c #33D3FA",
"MX c #30CEF1",
"NX c #16E1FE",
"BX c #0FE0FE",
"VX c #9F8890",
"CX c #8B8BB9",
"ZX c #D8AC97",
/* pixels */
"P.P.P.P.P.U.U.U.U.U.U.U.U.U.U.U.U.U.U.U.U.U.U.U.U.U.U.U.U.U.U.U.U.U.[.'.U.U.U.!.U.U.U.Q.Q.[.'.[.!.!.!.!.!.!.!.!.U.U.U.U.U.U.'.'.",
"3X3X3X3X3X3X3X3X3X3X3X3X3X3X3X3X3X3X3X3XtX3XtXtXtXtXtXtXtXtXtXtX8X8X8XtXtXtXtX8X8X9XfXtXtXtXtXtXtXtXtXtXtXtXtXtXtXtXtXtXtXtXtXtX",
"$X$X3X3X3X3X3X3X3X3X3X3X3X3X3X3X3X3X3X3X3X3X3X3XtXtXtXtXtXtXtXtX1X1X3X3X3X3X3X,X3XtXtXtX3X3X3X3XtXtXtXtXtXtXtXtX3X3X3X3X3X3X3X3X",
"3X3X3X3X3X3X3X3X3X3X3X3X3X3X3X3X3X3X3X3X3X3X3X3X3X3X3X3X3X3X3X3XtXtX3X3X3X3X3X3XtXtXtX3XtXtXtXtXtXtXtXtX3XtX3X3X3X3X3X3X3X3X3X3X",
"6X6X6X3X3X3X3X3X3X3X3X3X3X3X3X3X3X3X3X3XtXtX3X3XdXdXdXdXdXdXdXdXtX3X,X,X3XtXtXtXtXtXtXtXtXtXtXdXtXtXtXtXtXtXtXtXtX3X3X3X3X3X3X3X",
"3X3X3X3X3X3X3X3X3X3X3X3X3X3X3X3X3X3X3X3X3XtXtXtXtXtXtXtXtXtXtXtXtXtXtXtX3X3X3XtXfXtXtXtX1X1XtXtXtXtXtXtXtXtXtXtXtXtXtX3XtXtX3X3X",
"3X3X3X3X3X3X3X3X3X3X3X3X3X3X5X5XdXtXtXtXtXtXtXtXtXtXtXtXtXtXtXtXtXtXtXtXtXtXdXwXwX2X5XtXtXtXtXtXtXdXtXtXtXtXtXtXqXqXtXtXtXtX3X3X",
"3X3X3X3X3X3X3X3XtXtXtX3XtXtXtXtXtXtXtXtXtXtXtXtXtXtXtXtXtXtXtXtXtXqXqXfXfXkXXX^.F.V.E. X2XdXtXtXqXqXqXqXqXtXtXtXtXtXtXtXtXtXtXtX",
"3X3X3X3X3X3X3XtXtXtXtXtXtXtXtXtXtXtXtXtXtXtXtXtXtXtXtXtXtXtXtXtXtXtXwXfXlXF.y.8.C N B o.w.[.xXtXfXtXtXfXtXqXtXtXtXtXtXtXtXtXtXtX",
"3X3X3X3X3X3XtXtXtXtXtXtXtXtXtXtXtXtXtXtXtXtXtXtXtXtXtXtXtXtXtXtXtX8XfXkXF.y.h.h.8.V n d g ` m.lXgXtXtXtXtXtXtXtXtXtXtXtXtXtXtXtX",
"3X3X3X3X3X3X3X3XtXtXtXtXtXtXtXtXtXtXtXtXtXtXtXtXtXtXtXtXtXtXtXtX1XfXqX~.j.h.S S C N n b h s ~ m.vXfXtXqXtXfXtX7XtXtXtXtXtXtXtXtX",
"3X3X3X3X3X3X3XtXtXtXtXtXtXtXtXtXtXtXtXtXtXtXtXtXtXtXtXtXtXtXtXtX8XgX&Xf.k.V M V n d b d s l h :.&XeXfXtXfXtX7XtXtXtXtXtXtXtXtXtX",
"3X3X3XtXtXtXtXtXtXtXtXtXtXtXtXtXtXtXtXtXtXtXtXtXtXtXtXtXtXtXfXfXfXfXoXa.h.V 7.r.d h h f f s h K.=XeXfXtXtXtX7XtXtXtXtXtXtXtXtXtX",
"3X3XtXtXtXtXtXtXtXtXtXtXtXtXtXtXtXtXtXtXfXtXfXfXfXfXfXfXfXfXfXfXfXtX/.y.C S S t.N M f a f p { CXzXfX9XqXfXfXfXtXtXtXtXtXtXtXtXtX",
"tXtXtXtXtXtXdXdXtXtXtXtXtXfXfXfXfXfXtXtXfXtXtXtXfXfXfXfXfXfXfXfXfXzXf.V m k.k.t.V n f s p s 4.CXmXfX9XeXfXfXtXfXtXtXtXfXtXtXtXtX",
"tXtXtXtXtXtXdXdXtXtXtXtXfXfXfXfXfXtXtXfXfXfXtXtXfXfXfXfXfXfXfXfXdX-Xu.V V t.j.C n x 3 : p j h (.gX8XfXfXfXfXdXfXtXtXtXtXfXtXtXtX",
"tXtXtXtXtXtXtXtXtXtXtXtXtXfXtXtXfXfXfXfXfXfXfXfXfXfXfXfXfXfXfXfXgXXXd.s.M x 3.n s 2 o : p j 9.OXfXfXfXfXfXfXfXfXfXfXfXfXfXfXfXfX",
"tXtXtXtXtXtXtXtXtXtXtXtXfXfXtXtXfXfXfXfXfXfXfXfXfXfXfXfXfXfXfXfXfXQ.a.l.7.f s 3 : @ + a c 6.(.nXfXfXfXfXfXfXfXfXfXfXfXfXfXfXfXfX",
"tXtXtXtXtXtXtXtXtXtXtXtXfXfXtXtXfXfXfXfXfXfXfXfXfXfXfXfXfXfXfXfXbXS.6.B c s : : & + : 4.d.J.:XfXfXfXfXfXfXfXfXfXfXfXfXfXfXfXfXfX",
"tXtXtXtXtXtXtXtXtXtXtXfXfXfXtXfXfXfXfXfXfXfXfXfXfXfXfXfXfXfXfXfXzXq.2 3 3 3 , : 1 3 2 e.H.-XbXfXfXfXfXfXfXfXfXfXfXfXfXfXfXfXfXfX",
"tXtXtXtXtXtXtXtXtXfXfXfXtXfXfXfXfXfXfXfXfXfXfXfXfXfXfXfXfXfXfXfX~.[ s s 3 p p 2 : : , 4.J.MXfXtXfXfXfXfXfXfXfXfXfXfXfXfXfXfXfXfX",
"tXtXtXtXtXtXtXtXfXfXfXfXfXfXfXfXfXfXfXfXfXfXfXfXfXfXfXfXfXfXfXfXD.~ j s a 3 3 : . : , o./.gXfXgXfXfXfXfXfXfXfXfXfXfXfXfXfXfXfXfX",
"tXtXtXtXtXtXtXtXfXfXfXfXfXfXfXfXfXfXfXfXfXfXfXfXfXfXfXfXfXfXfXfX=XB.#.k p o O + + 3 2 [ D.kXfXtXfXfXfXfXfXfXfXfXfXfXfXfXfXfXfXfX",
"tXtXtXtXtXtXtXtXtXfXfXfXfXfXfXfXfXfXfXfXfXfXfXfXfXfXfXfXfXfXfXfXfXMX=XV.{ a + + a s a > H XXBXtXfXfXfXfXfXfXfXfXfXfXfXfXfXfXfXfX",
"tXtXtXtXtXfXfXfXfXtXfXfXfXfXfXfXfXfXfXfXfXfXfXfXfX9XtXfXfXgXfXfXeXfXbXD.p.B d c x 2 1 $ 6 M.zXgXfXtXeXfXfXfXfXfXfXfXfXfXfXfXfXfX",
"tXtXtXtXtXfXfXfXfXfXfXfXfXfXfXfXfXfXfXfXfXfXfXfXdXfX7XfXgXtXfXtX9XbXoXn.d.r.r.B p & & 5 6 R b.XXbXgXfXfXfXfXfXfXfXfXfXfXfXfXfXfX",
"tXtXtXtXtXfXfXfXfXfXfXfXfXfXfXfXfXfXfXfXfXfXfXfXfXgXtX9XfXfXNXgX&XW.c.^ a.j.7.f : & 8 8 w G R %.W.=XbXtXtXgXfX8XfXfXfXfXfXfXfXfX",
"tXtXtXtXtXfXfXfXfXfXfXfXfXfXfXfXfXfXfXfXfXfXfXfXgX9XfXgXwXxXoXZ.c.<.1...5.e.a 1 8 r P K K Y Y W @.C.#XnXgXqXqXfXfXfXfXfXfXfXfXfX",
"tXtXtXtXtXtXtXtXtXtXfXfXfXfXfXfXfXfXfXfXfXfXfXfXtXfXjX@XW.b.%.:.1.1.1.:.( g r J ~ ~ Y W  . .*.;.=.=.<.I.xXgXqXfXfXfXfXfXfXfXfXfX",
"tXtXtXtXtXtXtXtXtXtXfXfXfXfXfXfXfXfXfXfXfXfXfXfXBX*Xm.#.@.Q  .>.>.*.*.| T r P K I ~ ~ ^ } W |  .| ;.=.%.W.kXfXeXfXfXfXfXfXfXfXfX",
"tXtXtXtXtXfXtXtXtXtXfXfXfXfXfXfXfXfXfXfXfXfXfXfXlXv.R W W | =.*.=.} ^ D K r I P T I T T I I Y Y I Y W ^ #.W.kXgXfXfXfXfXfXfXfXfX",
"tXtXtXtXtXfXfXtXtXtXfXfXfXfXfXfXfXfXfXfXfXfXfXfXS.R E _ W *.*.;.| } X.T 6 I w I K 9 I I I I I r G I I I U :.W.vXfXfXfXfXfXfXfXfX",
";X1XtXtXqXfXtXgXfXfXfXfXfXfXfXfXfXfXgXeXfX9XgX#X` W _ _ | =.>...T T } I 6 J I I I I I I r I I r D D 9 9 I Y %.].dX9XfXqXdXfXfXeX",
"L.@XtXfXtXtXfXfXfXfXfXfXfXfXfXfXfXgXqXfXfXfX&Xn.W ` | | =.=...W T T / I w I I I I J I r r r r w 9 9 6 6 6 I @.m.vXfXfXeXtXtXfXfX",
"L.J.xXfXtXfXqXtXfXfXfXfXfXfXfXfXtXgXeXfXfXhXZ.E W =.=.=...| W I K T P r r r r r r r r e 5 5 5 5 8 5 5 5 5 9 Q n.lXfXfXfXfXtXfXgX",
"G.4.{.8X8XeXtXtXfXfXfXfXfXfXfXfXgX9XBXfXfXkXv.6 W >.=.| } / J w r ~ P r r r 8 5 ; ; ; ; ; ; ; ; ; 8 8 r r 5 I <.oXgXfXfXgXfXfXgX",
"9.6.G.@XfXwXdXfXfXfXfXfXfXfXfXfXfXfXtXtXbX[.) 4 ` 1.=.W T y r e r P r r r 5 5 5 ; ; ; ; ; & ; ; * > 5 5 r K U @.'.gXfXdXgXfXfXfX",
"M V l.J.lXfX7XqXfXfXfXfXfXfXfXfXfXfX7XBX+Xq.4 4 _ 1.| W I q ; 5 r P r e e 5 ; ; & & & & & % % ; 5 ; q 8 6 r D I I.NXfXqXgXfXfXfX",
"3.3.t.p.^.wXtXdXfXfXfXfXfXfXfXfXgX7XfXkXM.6 8 - T >.W I 6 5 ; ; u u r 8 5 ; ; ; & & & & & & & & - ; q r r w 6 D m.wXfXtXfXfXfXfX",
"s.V 7.y.i.E.xXgXfXfXfXfXfXfXfXfXtXfXnXZ.R $ & $ J =.W I 5 - - 5 u t r 5 5 ; ; & &     & & & & ; ; 8 5 5 r r 6 0 %.lXgXdXfXfXfXfX",
"B f N j.V [ M.oX*X2XfXfXtX9XfXtXfXMXE.) 4 ; # $ r } U 9 e ; ; e u e 8 ; ; ; & &   . . . . $ ; ; e 8 5 8 q w 6 9 E  XfXgXgXgXmX;X",
"f f V h.t.c w ) +.Z.+XvX2XwXgXfXmXW.&.4 $ & # # r [ U 6 e 5 ; e u e 5 ; ; ; & #   . . . . $ ; ; P 8 ; ; ; w I 9 6 I.fXxX:X-X).L.",
"o.{ B C V l & $ 4 G &.c.m.R.P.Q.B.&.6 $ & o $ ; r T U 5 e e ; r r ; ; ; ; ; & # . . o o . . & ; T r 5 ; ; 5 K K D 0.zX/.i.5.5.f.",
"#XD.w.{ c i % ; q 5 5 9 I H R R G 6 ; ; & X & ; r T K 5 e e 5 u e ; ; ; & & # # . . . . . . $ ; P K 5 ; ; $ 9 J Y ,.H.u.b d { /.",
"5XxXOXD.] * ; $ ; - - 5 q w w w 6 5 ; $ $ X # ; r P I 5 e r 5 u ; ; ; ; & & # & . . . . . . . & u T r ; - 5 7 - o.z.r.n x h h n.",
"5XtX5XvXW.G $ & ; ; ; 5 q q q r q ; ; & $ & ; ; r P r 5 e e ; e ; # ; ; $ & # & . . . .     . $ > P I 5 ; 5 - [ z.z.V x v h c w.",
"5XdX3X9XlXb.H ; ; ; ; ; 5 5 5 5 8 ; % % $ $ ; ; r T r 5 e e ; 1 & # ; ; $ & & & . $ $ .     . . ; ( 6 5 ; r u g.ZXx.m c h g N.XX",
"tX3XdX3XtX>X~.] 5 * $ ; ; ; ; q 8 ; ; ; $ # % ; r / r 5 e 5 ; ; & # ; ; & & & & . $ $ .   O   . q :.G r t P u VXZXx.A 3.{ V.&XfX",
"3XdX5X1XtXgXcX%Xm.%.G $ $ & & ; ; * ; % . $ H ] W } r 5 e 5 ; 5 $ $ & & & & & & & & & #     .   - N.' r / P g 5.s.u.e.4.n.cXtX9X",
"3X5X5X5X3XtXtX1XxX&XQ.v.) 6 5 $ $ * $ * 6 %.[.U.T ..r r e ; ; ; $ $ & & & & & & . & & ; & #     $ N.#.^ X.Y w e t e k 9 0.kXfX8X",
"tX3X3XdX5X3XtXdX5X3X5XcXoXZ.v.0.&.) #.v.W.*XgXI.T ..r r 5 ; ; > $ $ & & & & & & & & ; 1 e ; $ # $ M.[.%. .T T 6 6 5 ; * 0.>X8XfX",
"5X3XtX3X3X3X5X5X3X,X,XtXbXbXxX>X%X.X*X>XwXgX1XB.} } I r ; ; e e $ $ & & & & & & & # # ; e e 8 ; $ v.bXm.` I J w 7 9 6 +.I.dXfXtX",
"3X5X3X3XtXtXtX1X,XtXtX3X3XtXtXtXtXfX3XdXtXfX*Xc.| W I 5 e q e ; $ $ & & & & & & & & % ; e P P t $ 0.eXoX#.I I I U R $.].vXfXfXdX",
"tX3X5X5XtXtXtXdXtX3XtXtXdXtXqXtX8XtX8XtX8XtX[.2.} W 6 5 [ 5 e ; $ $ & & & & & & # & % # ; e r r 5 q.qXvXI.q.R ) %.B.@XbXfX8XtXdX",
"5X5X5X3XtXtXdXdX1XqXtXtXtXtXtXfXdXdXtXtXfXfX].O.T Y 6 K [ 5 e ; $ $ & & & & & & o & & & # $ ; ; 0 0.wXtXbX&X[.'.%XcXbXtXtXdXtXtX",
"3X5X3X3X3XdXdX1XtXtXdXtXtXtXtXtXqXtXtXtXtXfXoX+.T 6 r [ P e e ; $ $ & & & & & & . . X o & # $ ; 9 0.dXtXtXfXfXwXtXtXtXgXtXtXtXtX",
"3X3X3X3XtXtXtXtXtXtXtXtXtXtXtXtXtXdXtXtXtXtX2XW.' ! Y _ P e ; % & % % % & & & & $ $ # & & ; - # F A.gXtX7XBX9XfXtXtXtXtXtXtXtXtX",
"5X3X3X5XdXdXdXtXtXtXtXtXtXtXtXtX7XdXqXqXdX1XfX&X*.! _ X.r ; ; % & & % % & & & & . . X   & & # # E [.NXtXtXtXtXtXtXtXtXtXtXtXtXtX",
"3X3X3X3X3X3X3X3XtX3X3X3X3X3XtXtXtX2XtXtXtX3XtX|.R Q =.J * 5 ; ; & & % & & & & & $ $ & & & & % % 6 I.fX8XtX7XqXtXdXdXdXdXdXdXdXdX",
"3X3X3X3X3X3X3X3XtX3X3X3X3X3XtXtXtX1XtX8X<XtX2XA.2.>.W * ; ; ; ; & & & & & & & & $ $ & & & & ; ; 4 A.fXtXtXtXtXtXtXtXtXtXtXtXtXtX",
"3X3X3X3X3X3X3X3XtXtXtXtXtXtXtXtX5X3XtXtXtXtXlXC.1.T - ; & # ; & ; ; ; ; ; ; & & & ; ; & & # ; 5 w E.gXtXdXtXtXtXtXtXtXtXtXtXtXtX",
"3X3X3X3X3X3X3X3X3X3X3X3X3X3X3X3X3XtXtX3XtXtX*XC.E 7 - ; # % ; ; & & & & & & & & > 8 8 ; ; ; 6 D 0 m.dXtXtXtXtXtXtXtXtXtXtXtXtXtX",
"3X3XtXtX5XtXtXtXtXtXtXtXtXtXtXtXtXdXtXtXtXtX6XA.I Y r $ ; ; # ;                 $ & ; ; ; 8 I U D b.bXdXdXfXtXtXtXtXtXtXtXtXtXtX",
"T.`.`.`.`.`.`.`.`.`.`.`.`.`.`.`.T.'.}._.`.|.|.m.D w 5 & $   &               O   O   X o o & 5 I 9 v. X|.'._.|.|.}.}.}.}.}.}.}.}."
};
