/* XPM */
static char *k_7[] = {
/* columns rows colors chars-per-pixel */
"64 64 246 2 ",
"   c #05051D",
".  c #06081B",
"X  c #0B0A1C",
"o  c #060518",
"O  c #150A1E",
"+  c #16131F",
"@  c #0E101F",
"#  c #060623",
"$  c #080726",
"%  c #060A25",
"&  c #090925",
"*  c #050529",
"=  c #0B052A",
"-  c #050A2B",
";  c #0B0B2B",
":  c #120D23",
">  c #110E2D",
",  c #1D0F23",
"<  c #0D112D",
"1  c #1C1424",
"2  c #13112C",
"3  c #181426",
"4  c #0D0C32",
"5  c #0D0D3B",
"6  c #060B37",
"7  c #110E33",
"8  c #110E3C",
"9  c #0D1134",
"0  c #0E123B",
"q  c #05123D",
"w  c #121234",
"e  c #13133C",
"r  c #19153B",
"t  c #1A1A3E",
"y  c #171937",
"u  c #2A0D28",
"i  c #241524",
"p  c #231A29",
"a  c #291829",
"s  c #331B2B",
"d  c #3B1D2C",
"f  c #391925",
"g  c #291A34",
"h  c #361B33",
"j  c #39222D",
"k  c #262034",
"l  c #372235",
"z  c #421D31",
"x  c #4B252C",
"c  c #572A2D",
"v  c #482836",
"b  c #562C36",
"n  c #573339",
"m  c #553334",
"M  c #693B3D",
"N  c #763E3B",
"B  c #693134",
"V  c #77423B",
"C  c #0D1544",
"Z  c #0C1C4C",
"A  c #0E1A42",
"S  c #131542",
"D  c #191542",
"F  c #151944",
"G  c #1A1A44",
"H  c #15194A",
"J  c #1B1C4B",
"K  c #1B164B",
"L  c #0E1D57",
"P  c #1B1D52",
"I  c #171B55",
"U  c #120F44",
"Y  c #231C48",
"T  c #261F5C",
"R  c #1E204D",
"E  c #0D2759",
"W  c #1E2154",
"Q  c #152359",
"!  c #143157",
"~  c #08244B",
"^  c #3A2C45",
"/  c #232253",
"(  c #22245B",
")  c #292759",
"_  c #332E54",
"`  c #2A365B",
"'  c #3A3858",
"]  c #282849",
"[  c #192966",
"{  c #0D3767",
"}  c #15386B",
"|  c #173B74",
" . c #0B2A6B",
".. c #242562",
"X. c #2B2C64",
"o. c #2C2C69",
"O. c #252967",
"+. c #2E336C",
"@. c #2A3367",
"#. c #33326D",
"$. c #2E2F71",
"%. c #2B3473",
"&. c #343673",
"*. c #373A74",
"=. c #322D63",
"-. c #493548",
";. c #463957",
":. c #54344A",
">. c #643B45",
",. c #693851",
"<. c #1A435F",
"1. c #38415E",
"2. c #0F4277",
"3. c #17467A",
"4. c #14537E",
"5. c #2A4974",
"6. c #2A547B",
"7. c #364071",
"8. c #0C607A",
"9. c #59424E",
"0. c #594658",
"q. c #47455B",
"w. c #64424C",
"e. c #684748",
"r. c #784847",
"t. c #684855",
"y. c #78465A",
"u. c #464368",
"i. c #525271",
"p. c #794969",
"a. c #7A5A6A",
"s. c #6B5A6C",
"d. c #7B6064",
"f. c #63647C",
"g. c #875050",
"h. c #89536A",
"j. c #91656F",
"k. c #A27C67",
"l. c #946958",
"z. c #323C83",
"x. c #1A4B83",
"c. c #1D538C",
"v. c #175688",
"b. c #155B92",
"n. c #245D97",
"m. c #295089",
"M. c #1C6898",
"N. c #187F9E",
"B. c #256698",
"V. c #30618D",
"C. c #1E6CA3",
"Z. c #1976A7",
"A. c #187EB5",
"S. c #2274A6",
"D. c #2678B4",
"F. c #434580",
"G. c #457899",
"H. c #57799A",
"J. c #49698E",
"K. c #706C92",
"L. c #507BA2",
"P. c #7677A5",
"I. c #926782",
"U. c #A7648D",
"Y. c #1C89B6",
"T. c #0F96BC",
"R. c #1D94B7",
"E. c #1297BC",
"W. c #1E94BA",
"Q. c #149ABE",
"!. c #1D99BA",
"~. c #2785AB",
"^. c #2384B7",
"/. c #2199BA",
"(. c #2093B8",
"). c #3786AF",
"_. c #4696B7",
"`. c #548CB1",
"'. c #6D86AB",
"]. c #159DC0",
"[. c #1C97C4",
"{. c #2597C6",
"}. c #349CC6",
"|. c #2A8FC3",
" X c #19A3CA",
".X c #1DB6DC",
"XX c #1FA8D4",
"oX c #27A3CA",
"OX c #26A9D5",
"+X c #35ABD8",
"@X c #23B2DB",
"#X c #28B2D9",
"$X c #34B5DC",
"%X c #39A8CA",
"&X c #1EBFE7",
"*X c #14BFF5",
"=X c #24BDE9",
"-X c #28BBE4",
";X c #36BCE4",
":X c #429EC7",
">X c #57B5DB",
",X c #45AED4",
"<X c #68AAD3",
"1X c #41BBE0",
"2X c #689ACD",
"3X c #1CC9ED",
"4X c #0FC7F9",
"5X c #0ECEFA",
"6X c #0FCFF6",
"7X c #14C4F6",
"8X c #13CCF7",
"9X c #1ACEF5",
"0X c #15C5FA",
"qX c #14CDFA",
"wX c #19CEFD",
"eX c #0DD4F7",
"rX c #0ED4FC",
"tX c #0EDAFC",
"yX c #0DDAF5",
"uX c #14D1F6",
"iX c #1BD3F5",
"pX c #13D9F7",
"aX c #12D2FF",
"sX c #15D1FD",
"dX c #11D5FF",
"fX c #15D5FF",
"gX c #14D3FA",
"hX c #1AD4FC",
"jX c #14DAFC",
"kX c #1ADBFD",
"lX c #1FD8F4",
"zX c #27C5EA",
"xX c #33C7EC",
"cX c #23CDF4",
"vX c #26C9F6",
"bX c #33CBF0",
"nX c #21D3F4",
"mX c #23D3FC",
"MX c #21DAFC",
"NX c #2AD4F6",
"BX c #0EE1FE",
"VX c #14E1FE",
"CX c #1AE2FE",
"ZX c #C3A89F",
"AX c #D7B6A7",
"SX c #8CA3CF",
/* pixels */
"R.R.R.R.R.R.R.R.R.R.R.R.R.R.R.R.R.(.R.R.R.R.R.R.R.R.R.R.R.R.R.R.!.R.R.!.!.!.!.]./.!.R.R././././.!.!.!.!.!.!.!.!.!.!.!.!.!.!.R.R.",
"0X0X0X0X0X0X0X0X4X4X4X0X0X0X0X0X0X0X0X0X0X0XsXsXsXsXsXsXsXsXsXsXsXrXrX4XsXsXsXsXrXrXsXsXsXsXsXsXsXsXsXsXsXsXsXsXsXsXsXsXsXsXsXsX",
"*X7X7X7X7X0X0X0X4X4X4X4X0X0X0X0X0X0X0X0X0X0X0X0XsX0X0X0X0X0XsXsX0X4XeXrX0X0X0XsX0X0X0X0X0XsXsXsXsX0XsXsX0XsXsXsX0X0X0X0X0X0X0X0X",
"7X7X7X7X0X0X0X0X0X0X0X0X0X0X0X0X0X0X0X0X0X0X0X0XsXsX0X0X0X0X0X0XsXsXsXsX0X0XsXsX0X0X0XsXsXsXuX8XsXsXsX0XsXsXsXsX0X0X0X0X0X0X0X0X",
"7X7X7X7X7X7X7X0X0X0X0X0X0X0X0X0X0X0X0X0X0X0X0X0XuXuXuXuXuXuXuXuXsX8X0XsXhXsX8XsXhXsXsXsXsXsXsXsXuXuXuXuXsXsXsXsXsXsX0XsX0X0X0X0X",
"7X7X8X8X0X0X0X0X0X0X0X0X0X0X0XsX0XsX0XsXsXsXsXsXsXsXsXsXsXsXsXsXhXhXwXhXsX0X0XsX0XsXsXsXrXsXsX0X8X8X8XuXsX0X8X0XsXsXsXsX0X0X0XsX",
"0X0X0X0X0X0X0X0X0X0X0X0X0X0XsXsXsXsXsXsXsXsXsXsXsXsXsXsXsXsXsXsXrXsXhXsXrXrXsXcX-X=X=X3XsXjXsXsXsXsXsXsXsXsXsXsXsXsXsXsXsXsXsXsX",
"8X8X0X0X0X0X0X0XsX8XsX0XsXuXsXsXsXsXsXsXsXsXsXsXsXsXsXsXsXsXsXsX0XsXsXsXsX9X%XG.0.q.1.6.~..X9XsXsXsXsXsXsXsXsXsXsXsXsXsXsXsXsXsX",
"0X0X0X0X0X8X8X8XsXsXsXsXsXsXsXsXsXsXsXsXsXsXsXsXsXsXsXsXsXsXsXsXsXhXuXrXhX`.t.V V B c x g ` M.-XkXtXuXsXrXsXsXsXsXsXsXsXuXuXuXuX",
"0X0X0X0X8X8X8X0XsXsXsXsXsXsXsXsXsXsXsXsXsXsXsXsXsXsXsXsXsXsXsXsXuXsXsXkX_.y.r.r.r.M m x z h G | OXhXtXsXsXuXsXsXsXsXsXsXsXuXuXuX",
"0X0X0X0X8X0X0X0XsXsXsXsXsXsXsXsXsXsXsXsXsXsXsXsXuXuXuXsXsXsXsXsXsXjXsX@Xf.g.c x n b b x f d a r c.zXtXsXsXsXhXsXsXsXsXsXsXsXsXsX",
"0X0X0X8X0X0X0X8XsXsXsXsXsXsXsXsXsXsXsXsXsXsXsXsXsXsXsXsXsXsXsXsXtXuXjX}.a.g.x e.n d d x d s u g 7.-XjXsXsXsXkXjXsXsXsXsXsXsXsXsX",
"0X8X0X0XsXuXsXsXsXsXsXsXsXsXsXsXsXsXsXsXsXsXsXsXsXsXsXsXjXjXjXjXsXsXhXL.,.N N r.m n v d l s u -.P.xXsXsXsXsXsXsXsXsXsXsXsXsXsXsX",
"0X0X0XsXuXsXsXsXsXsXsXsXsXsXsXsXsXsXsXsXsXsXsXsXsXjXjXjXjXjXjXjXsXsX1Xs.B N l.g.V >.j a a i s a.SXbXsXjXrXhXsXrXsXsXsXsXsXsXsXsX",
"0XsXsXsXsXsXsXsXuXsXsXsXsXsXsXsXsXsXsXsXsXsXsXsXjXjXjXjXjXjXjXjXtXhX`.b x r.j.g.c v s 3 p s h 0.<XnXjXjXeXhXjXsXsXsXsXsXsXsXsXsX",
"sXsXsXsXsXsXsXsXsXsXsXsXsXsXsXsXsXsXsXsXjXsXsXsXjXjXjXjXjXjXjXjXjXkX`.y.B v >.M j a 3 + 3 s z :.>XkXjXhXsXjXtXkXsXsXsXsXsXsXsXsX",
"uXuXsXsXsXsXsXsXsXsXsXsXsXsXsXjXjXjXjXjXjXjXjXjXjXjXjXjXjXjXjXjXtXnXG.j.h.d a h p 3 : : k d :.H.mXhXjXjXjXjXjXjXjXjXjXjXsXsXsXsX",
"uXuXsXsXsXsXsXsXsXsXsXsXsXsXjXjXjXjXjXjXjXjXjXjXjXjXjXjXjXjXjXjXtXiXJ.y.w.v 1 : X ; ; 3 :.0.K.>XjXjXjXjXjXjXjXjXjXjXjXjXsXsXsXsX",
"uXuXsXsXsXsXsXsXsXsXsXsXsXsXjXjXsXjXjXjXjXjXjXjXjXjXjXjXjXjXjXjXVX.X! u i , : @ : : 2 k 0.f.`.NXtXtXjXjXjXjXjXjXjXjXjXjXjXjXjXjX",
"8XsXsXsXsXsXsXsXsXsXsXsXsXjXjXjXsXjXjXjXjXjXjXjXjXjXjXjXjXjXjXjXiX~.t i 3 O i , + X : g ;.H.;XjXjXjXjXjXjXjXjXjXjXjXjXjXjXjXjXjX",
"sXsXsXsXsXsXsXsXsXjXjXjXsXjXjXjXsXjXjXjXjXjXjXjXjXjXjXjXjXjXjXjXzX@.u u i p + X o X : 3 ' _.nXjXkXkXjXjXjXjXjXjXjXjXjXjXjXjXjXjX",
"sXsXsXsXsXsXsXsXjXjXjXjXjXjXjXjXjXjXjXjXjXjXjXjXjXjXjXjXjXjXjXjXbXV.` k i 3 o . X O , p ' _.MXjXjXjXjXjXjXjXjXjXjXjXjXjXjXjXjXjX",
"sXsXsXsXsXsXsXsXsXsXjXjXjXjXjXjXjXjXjXjXjXjXjXjXjXjXjXjXjXjXjXjXpXbXoXN.<.k X X i a a p > } .XVXBXjXjXjXjXjXjXjXjXjXjXjXjXjXjXjX",
"sXsXsXsXsXsXsXsXsXjXjXjXjXjXjXjXjXjXjXjXjXjXjXjXjXjXjXjXjXjXjXjXCXuXjXCX~.0.f s v l 3 ; # 5 R.VXBXjXkXjXjXjXjXjXjXjXjXjXjXjXjXjX",
"9XsXuXuXsXsXsXsXsXsXjXjXjXjXjXjXjXjXjXjXjXjXjXjXjXMXjXCXkXkXjXkXjXpXVXnXJ.a.M >.-.3 ; ; ; 0 { ~.cXkXjXjXkXkXjXkXjXjXjXjXjXjXjXjX",
"sXrXsXsXsXhXjXtXjXjXjXjXjXjXjXjXjXjXjXjXjXjXjXjXVXjXjXjXjXjXjXVXVXCXnX{.u.j.g.w.p X ; 7 0 S H Q B.OXMXVXkXkXjXsXjXjXjXjXjXjXjXjX",
"0XsXsX0XsXjXjXsXjXjXjXjXjXjXjXjXjXjXjXjXjXjXjXjXjXkXkXjXVXjXsXkXcXOXD.x._ a.w.p > 2 r S e H Y K Q 3.^.=XMXkXpXjXjXjXjXjXjXjXjXsX",
"8XuXeXuXsXsXjXuXjXjXjXjXjXjXjXjXjXjXjXjXjXjXjXjXjXCXtXtXkXNX-XoXM.x.z.&._ ^ g w G H H H W ) ) @.X.o.%.B.OXMXjXjXjXjXjXkXjXjXjXhX",
"0XhXsXsXuXsXsXuXsXsXjXjXjXjXjXjXjXjXjXjXjXjXjXjXCXjXkXcXOXZ.x.} %.*.F.&.) Y r D H H H P ( ( ( X.) @...O.n.+XNXyXjXjXjXkXjXjXjXjX",
"sXsXsXrXhXuXtXhXsXsXjXjXjXjXjXjXjXjXjXjXjXjXjXjXtXVXzXb.} Q ..o.*.*.@.( H S e G H S H H H H H P W H H P [ m.}.CXjXjXjXjXkXjXjXjX",
"sX3XzXeXhXhXpXtXsXsXjXjXjXjXjXjXjXjXjXjXjXjXjXjXVXnXZ.[ T ( O.%.%.#.=./ C 5 S G S C A S S F F 0 S S 5 D / Q c.OXhXjXjXjXkXkXjXjX",
"uX,X2X3XjXjXuXrXsXsXjXjXjXjXjXjXjXjXjXjXjXjXjXjXiX{. .....O.+.%.*.X.( Y e D H S r F F S S S 0 w e 4 4 7 e W %.c.hXkXjXjXkXkXjXtX",
"tX<XU.%XtXsXhXsXjXjXjXkXkXkXkXjXjXkXjXjXkXjXjXCX#X2.( X.+.@.&.&.X./ / F S G e e F H F S 0 0 e 9 e 4 4 4 7 e ( %.[.CXpXjXjXjXhXyX",
"nX>Xp.G.hXtXeXjXjXjXjXjXjXjXjXjXkXjXjXjXjXVXjXiXS.[ O.+.+.+.#.( ( P R F S F e e e S e 0 4 4 9 4 4 4 ; ; = 4 H o.^.kXjXjXsXsXhXjX",
"G.H.,.q.$XjXrXjXkXkXkXkXkXjXjXjXjXkXkXVXjXjXkX=X[ K #.&.+.X.X.H H H H F S S e 9 w w 4 4 ; ; ; ; ; 4 7 7 ; 4 S ( C.hXsXjXkXuXjXpX",
",.n b y.K.;XrXsXjXjXsXsXsXjXjXkXjXkXjXCXsXjXMXR.0 S *.%...( / e S H H H S 0 e ; > ; ; ; ; ; ; # ; = 4 7 e e D H n.hXjXjXkXjXtXsX",
"t.m >.y.h.L.pXjXsXsXkXkXjXjXjXjXkXjXjXhXsXVX@X} ; e *.$.T H S 9 e H H G e 4 4 ; ; ; # # ; ; # # ; ; 4 4 4 9 e S | 3XtXjXkXkXjXjX",
"w.e.t.b y.i.oXmXjXjXsXsXjXkXjXjXjXjXjXhXCX3XM.4 # e #.o.P e 7 ; 0 G F e e ; 4 ; ; # # # # # # ; ; 4 4 4 4 4 4 7 [ =XkXjXjXjXsXjX",
"9.w.j d >.w.` ^.MXkXkXjXsXsXjXjXjXjXjXjXcXS.Z = # e o.( H 0 4 ; 0 G e w 4 ; ; ; % # # # # # # ; 9 w w e e 9 4 4 H OXjXhXjXkXiXcX",
"-.h u d r.r.:.! ^.oX&XhXjXtXjXjXjXeXtXkXY.E = ; # D X.I 0 9 > ; e F e 4 ; ; ; ; # # # # # # # ; S 7 4 4 0 e e 4 - |.kXkXbX<X'.G.",
"i.] l v >.M m 2 4 q { {.9XmXsXsXrXBXkXR.E = ; # # G ) e ; ; - 9 r w 7 w ; ; ; # # # . . . # = ; Y 0 4 7 w e e e = v.1X:X'.I.p.G.",
"+X).V.' l v l ; ; - 4 E 2.Z.R. X@XzX!.} 5 ; % ; # D H e 4 ; 4 e r 7 ; ; ; ; ; # . . . . # # # ; Y e 4 7 4 e e e g u.i.:.;.J.,XhX",
"sXhXxX:X6._ y & ; < ; 4 4 U Z E } 2.E 4 ; % . = # G S e ; ; w e e ; ; ; ; ; ; # . . . . . # # # Y G 0 ; ; 4 t ;.p.>.v f ^ ).pXyX",
"rXsXsXnX$X).~ ; ; ; ; 9 9 w 4 S H 8 4 ; ; ; ; % ; G e e ; 4 e e w ; # ; ; ; ; # . . . . . # # # G R S ; ; - ' I.w.v l l h 5.3XyX",
"wX0X0XeXkX=X4.= # = ; ; ; ; 4 5 9 ; ; ; = # # . ; G S e 4 e w w ; ; ; ; ; ; ; # . . . . . . . # w G 0 4 ; ; s.j.x j l s l 6.xXrX",
"sX4XsXsXrXsXoX2.F = ; % ; ; ; 4 7 ; ; ; = # # # - G G e 7 t 4 w ; # ; ; = # ; # # # . . . . . # ; G e 9 7 :.ZXl.x v h Y V.OXiXuX",
"0XsXsX0X0XrXhX=Xv.Z 4 ; ; ; ; 4 ; ; ; # # # * # 4 G G 4 e t ; w ; # # ; # # ; # ; ; # # # . . # % F e e r s.AXk.n 9.l 5.$XhXjXjX",
"sX0X0X0X0XhX8XsXvXY.v.E = # ; - ; ; 4 ; = # # # e H G 4 t w ; 2 ; # # # # # = ; # ; # # # # # # = S G R H ^ d.d.0.;.R { -XsXsXtX",
"0X0XsXsXsXsXsXsXsXhXcXOXM.E 6 * ; = # % # # 6 ! M.[ P S e e ; w ; ; # # # # ; # # # # # # # o o # 4 E P H S e y G t ; Z  XhXsXuX",
"0X0XsXsXsXsXsXsXsXuXsXhXcX@XZ.v.E Z 6 6 C { Z..X{.[ P F G 4 ; < ; ; # # # # ; # # # ; ; ; # . o % - 6.[ K H 8 ; % % * E  XhXsXsX",
"0X0XsXsXsXsXsXsXsXsXsXrXrXsXmXvX@X[.Z.Y. X&X9XkX[.[ ) H e ; ; w ; ; # # # # ; # # # ; 7 w w ; ; o - B.x.K H 6 ; ; = C c.=XhX0XsX",
"0X0XsXsXsXsXsXsXhXsXeXsXsXsXsXrXkXhXhXhXkXjXsXhX^.$.) e - w ; w ; ; # # # # ; # # # ; ; w t t 9 # # B.^.I K F 4 4 C c.+XhXsXsXhX",
"0X0XsXsXsXsXsXuXuXuXuXjXsXsX0X0XuXsXsXeXrXrXjXMXS.o.R 7 e G > 9 ; # # # # # ; # # # # # ; e t w - # 4.-Xb.I Z I | C.@XmXsXuXsXsX",
"0X0X0XsXsXsXuXuXuXsXsX8X8XsXsXsXsXsXeXeXeXsXsXhXB...H 4 G G w y ; # # # # # ; # # # # # # ; ; w S # { iXcXY.Z.Y.@XvXhX0XsXsXeXsX",
"0X0X0X0X0XsXsXsX0XsXsXsXuXsXsXuXtXsXsXsXsXsXsXkXS.Q S e ) G w 2 ; # # # # # ; # ; # # # # # # ; F ; 3.uXjXhXiXjXjXuXsXjXuXsXkXsX",
"0X0X0X0X0X0XsXsX0X0XsXsXsXsX0X0XsXuXsXsXuXuXsXsXOX} 6 H ) D ; ; # # # # # # ; # # . . # ; ; # # e 4 x.jXsXjXsXhX8XrXjXsXsXsXsXuX",
"0X0X0X0X0XsXsXsX0XsXsXsX0XsXsX0XuXuXsXsXsXsXsXsXmXn.q W / 7 ; 4 # # # # # # # # ; # . . . . # # ; S A.kXuXuXsXsXsXsXsXsXsXsXsXsX",
"0X0X0X0X0X0XsX0XuXuXuXsXsXsXsXsXsXsXsXsXsXsXsXsX9X{ 0 ) H - ; = # # # # # # . . # # # # # # # # 7 C oXkXhXjXsXsXsXsXsXsXsXsX0X0X",
"0X0X0X0X0X0X0X0XsXsXsXsXsXsXsXsXsX0XsXsXsXsXsXsXXX{ W ) 4 # ; > = = # # # # # # . . . # # # # # # 4 R.kXsXuXhXsXsXsXsXsXsXsXsXsX",
"0X0X0X0X0X0X0XsX0XsX0XsXsXsXsXsX0X0XsXsXsXsXsXsXOXm.X.e * ; # ; ; ; ; ; ; ; ; ; ; ; # # # # * = # = M.MXsXuXwXsXsXsXsXsXsXsXsXsX",
"8X0X0X8X8X0X0X0X0X0XsXsXsXsX0XsX8X8X8XsXsXsXsXhX|.[ 7 - ; ; # > ; ; % # # # # # ; ; ; # # # # ; w 4 B.hXhXiXsXuXiX9XuXuXuXuXuXuX",
"0X0X0X0X0X0X0X0X0X0X0X0X0X0X0X0X8X8XuXuXsXsXhXhXA.L S w ; # ; ; ; ; # # # # # # ; ; ; ; ; ; ; ; 7 4 | 9XrXsXsXsXsXsXsXsXsXsXsX0X",
"0X0X0X0X0X0XhXhXwXwXwXwXwXwXwXwXhXsXsXsXsXhXhXhXOX[ 8 e 4 * ; ; ; ; # # # # # ; # # # ; ; ; 4 4 H D { mXjXjXsXsXsXsXsXsXsXsXsXsX",
"T.T.T.E.E.T.T.E.E.E.E.E.E.E.E.E.R.E.E.E.].].].].8.9 ; ; ; . . o X . . o o o o . . . . . . X ; ; D 4 } ]. X XE.E.E.E.E.E.].].].!."
};
