/* XPM */
static char *k_8[] = {
/* columns rows colors chars-per-pixel */
"64 64 242 2 ",
"   c #05050E",
".  c #060611",
"X  c #06061E",
"o  c #09071D",
"O  c #06081E",
"+  c #0A091E",
"@  c #080815",
"#  c #170C1C",
"$  c #070722",
"%  c #0A0623",
"&  c #070823",
"*  c #0A0924",
"=  c #0A052B",
"-  c #070A2C",
";  c #0C0B2B",
":  c #05052B",
">  c #140D23",
",  c #110C2D",
"<  c #190A24",
"1  c #0E112D",
"2  c #141124",
"3  c #1C1324",
"4  c #1C122B",
"5  c #15132D",
"6  c #0D0C33",
"7  c #060C3A",
"8  c #0C0C3B",
"9  c #090634",
"0  c #120D35",
"q  c #120E3A",
"w  c #120533",
"e  c #0D1134",
"r  c #0E113B",
"t  c #0F1839",
"y  c #131234",
"u  c #13133B",
"i  c #19153C",
"p  c #181839",
"a  c #2B152B",
"s  c #2D1A2B",
"d  c #251629",
"f  c #321C2D",
"g  c #3C1C29",
"h  c #351928",
"j  c #291D38",
"k  c #331C34",
"l  c #250D25",
"z  c #3A212B",
"x  c #342435",
"c  c #3A2738",
"v  c #33283A",
"b  c #28101D",
"n  c #421F2D",
"m  c #46242B",
"M  c #52282D",
"N  c #432433",
"B  c #472A37",
"V  c #562D38",
"C  c #4B323B",
"Z  c #5B333A",
"A  c #55322E",
"S  c #643638",
"D  c #743E3E",
"F  c #0C0D43",
"G  c #070F44",
"H  c #130D42",
"J  c #0C1244",
"K  c #0C194C",
"L  c #141543",
"P  c #191644",
"I  c #151A45",
"U  c #1B1B45",
"Y  c #141A4A",
"T  c #1B1C4B",
"R  c #161648",
"E  c #0D1B52",
"W  c #0D1955",
"Q  c #1A1D52",
"!  c #141C55",
"~  c #211D4C",
"^  c #251A44",
"/  c #201F55",
"(  c #1D214D",
")  c #11204B",
"_  c #0D235B",
"`  c #0E2454",
"'  c #1D2253",
"]  c #19265B",
"[  c #112953",
"{  c #22214B",
"}  c #2B294B",
"|  c #332944",
" . c #232453",
".. c #24255C",
"X. c #2A2B5B",
"o. c #28275B",
"O. c #38324E",
"+. c #0E2C63",
"@. c #1D2965",
"#. c #0C346A",
"$. c #15366A",
"%. c #163675",
"&. c #262B61",
"*. c #2B2D65",
"=. c #282A68",
"-. c #2D336D",
";. c #273869",
":. c #31326A",
">. c #353976",
",. c #293375",
"<. c #5A3948",
"1. c #443658",
"2. c #513850",
"3. c #673B46",
"4. c #753E4C",
"5. c #5C3E60",
"6. c #633F63",
"7. c #164777",
"8. c #1A547A",
"9. c #144777",
"0. c #36547A",
"q. c #2A4576",
"w. c #504353",
"e. c #794849",
"r. c #664854",
"t. c #6F4A53",
"y. c #5A576B",
"u. c #585A77",
"i. c #524F69",
"p. c #6B5666",
"a. c #7A506B",
"s. c #6F6377",
"d. c #844B48",
"f. c #835459",
"g. c #874F50",
"h. c #8D5668",
"j. c #916A72",
"k. c #283F82",
"l. c #184885",
"z. c #185789",
"x. c #1C5A93",
"c. c #284385",
"v. c #215794",
"b. c #295189",
"n. c #1A6498",
"m. c #23689F",
"M. c #346D90",
"N. c #1677A7",
"B. c #156DA2",
"V. c #2779A7",
"C. c #287CB2",
"Z. c #3C7CA2",
"A. c #40428A",
"S. c #505E85",
"D. c #477697",
"F. c #736B8B",
"G. c #856388",
"H. c #1E8DB5",
"J. c #1E8DBA",
"K. c #1E95BB",
"L. c #1C96B9",
"P. c #2688B9",
"I. c #2199BD",
"U. c #2896BD",
"Y. c #338BAD",
"T. c #508097",
"R. c #5A95B9",
"E. c #4D8CB0",
"W. c #7786AC",
"Q. c #1395C1",
"!. c #179AC3",
"~. c #199BC3",
"^. c #159DCA",
"/. c #249CC9",
"(. c #2798C8",
"). c #319EC5",
"_. c #18A1C7",
"`. c #1CABDB",
"'. c #1EB1DA",
"]. c #26A5CB",
"[. c #26ACD5",
"{. c #33AAD2",
"}. c #21B2DB",
"|. c #2CB6DE",
" X c #2ABADC",
".X c #35B4D8",
"XX c #33AACB",
"oX c #1CBFE5",
"OX c #29BBE4",
"+X c #26B8E4",
"@X c #36BDE4",
"#X c #5D9EC8",
"$X c #46A8CE",
"%X c #6EB3D7",
"&X c #5AB5E1",
"*X c #679CC8",
"=X c #1FC3ED",
"-X c #0FC7FA",
";X c #0FCBFA",
":X c #14C3F7",
">X c #14CDF7",
",X c #1BCCF5",
"<X c #14C5FA",
"1X c #14CDFB",
"2X c #18CEFB",
"3X c #1EC7F2",
"4X c #0ED4F5",
"5X c #0ED3FB",
"6X c #0DDBFC",
"7X c #14D3F6",
"8X c #1CD3F6",
"9X c #14DAF7",
"0X c #12D2FE",
"qX c #14D3FD",
"wX c #15D2FC",
"eX c #16D1FE",
"rX c #12D5FE",
"tX c #15D5FE",
"yX c #15D4FC",
"uX c #19D4FC",
"iX c #14DAFD",
"pX c #1ADBFD",
"aX c #1BDAF7",
"sX c #24C4EB",
"dX c #23CAEE",
"fX c #2AC2E6",
"gX c #23C7F2",
"hX c #22CCF3",
"jX c #29CBF6",
"kX c #3BC9F3",
"lX c #23D5FA",
"zX c #22DAFD",
"xX c #29D3F7",
"cX c #35CEEE",
"vX c #14E1FF",
"bX c #1BE1FF",
"nX c #20E3FF",
"mX c #41C5EB",
"MX c #92818A",
"NX c #80809A",
"BX c #AC8D86",
"VX c #9088AF",
/* pixels */
"J.J.J.J.J.H.H.H.L.L.L.L.L.L.L.L.L.L.L.L.L.L.L.L.K.K.K.I.I.I.K.I.L.L.L.K.K.I.(.!.!.K.K.K.I.I.I.L.K.K.I.L.I.I.I.I.K.K.K.K.K.K.L.L.",
"<X<X<X<X<X<X<X<X-X-X-X-X<X<X<X<X0X0X0X0X<X<X0X0X0X0X0X0X0X0X0X0X0X0X0X0X5X0X0XiX0X0X0X0X0X0X0X0X0X0X0X0X0X0X0X0X0X0X0X0X0X0X0X0X",
"<X<X<X:X:X<X:X:X-X-X-X<X<X<X<X<X<X<X<X<X<X<X<X<X<X<X<X<X<X<X0X0X<X<X<X<X0X<X<X<X<X0X5X0X0X<X<X0X0X0X0X0X<X<X<X<X<X<X<X<X<X<X<X<X",
":X:X<X<X<X<X<X<X<X<X<X<X<X<X<X<X2X2X<X<X<X2X2X2X0X0X<X<X<X<X<X<X0X<X<X<X0X0X0X0X0X<X<X>X0X<X<X<X0X0X0X0X0X<X<X<X<X<X<X<X<X<X<X<X",
"<X<X<X<X<X<X<X<X<X<X<X<X<X<X<X<X2X2X2X2X2X2X2X2XuXuXuXuX0X0XuXuX9X0X0X<X<X>X>X0X0X0X0XuXuX0X0XuXuX0X0X0X0X0X0X0X0X0X<X<X<X<X<X<X",
"<X<X<X<X<X<X<X<X<X<X<X<X<X<X0X0X<X<X0X0X0X0X0X0X0X0X0X0X0X0X0X0X0XuXuX0X<X0X0X0XuX8X8XuX0X5X0X0X0X0X0X0X0X0X0X0X0X0X0X<X<X<X<X<X",
"<X<X<X<X<X<X<X<X<X<X<X<X<X<X<X<X0X0X0X0X0X0XuX0X0X0X0X0X0X0X0X0X0X0X0X9X0XiX,X|.E.Z.M.H.[.,XuXuX0X0X0X0X0X0X0X0X0X0X0X0X0X0X0X0X",
"<X<X<X<X<X<X<X<X0X0X0X0X0X0X0XuX0X0X0X<X0X0X0X0X0X0X0X0X0X0X0X0X9X0X0XuXpX,XY.y.3.S V N } 8.L.sX0X0X0X0X0X0X0X0X0X0X0X0X0X0X0X0X",
"<X<X<X<X<X<X0X0X0X0X0X0X0XuXuXuX0X0X0X0X0X0X0X0X0X0X0X0X0X0X0X0X0X<X0X0XpXE.t.d.d.e.S M m k U 7.{.pXuXiXiX0XpX0X0X0X0X0X0X0X0X0X",
"<X<X<X<X<X<X0X0X0X0X0X0X0X0XuXuX0X0X0X0X0X0X0X0X0X0X0X0X0X0X0X0XpX0XuXiXU.p.4.S S Z V M m g j t 9.}.pX5X0X0X0X0X0X0X0X0X0X0X0X0X",
"<X<X<X<X<X<X0X0X0X0X0X0X0X0X0X0XiX0X0X0X0X0X0X0X0X0X0X0X0XiXiXiX0X0XpXiXD.g.S Z <.B n m n g h a ~ V.8XpX0X0XiX0X0X0X0X0X0X0X0X0X",
"<X<X<X<X<X0X0X0X0X0X0X0X0X0X0X0X0X0X0X0X0X0X0X0X0X0X0X0XiXiXiXiXiXuXiX Xy.e.S e.Z B m m n g a a 1.E.8XiX0X0X0XiX0X0X0X0X0X0X0X0X",
"<X0X<X0X0X0X0X0XuXuX0X0X0X0X0X0XiXiX0X0X0X0X0X0X0X0X0X0XiXiXiXiX5X0X8XR.3.D e.d.e.3.B g h h s c F.%XxX4XiXpX0XiX0X0X0X0X0X0X0X0X",
"0X0X0X0X0X0X0X0X0XuX0X0X0X0X0X0XiXiXiXiX0XiX0X0X0X0X0X0XiXiXiXiXiX0XsXu.M 3.h.h.D Z N s a s g C VX&XuX0XiXiXiX0X0X0X0X0X0X0X0X0X",
"0X0X0X0X0X0XuXuX0X0X0X0X0XiXiX0XiXiXiXiXiXiXiXiXiXiXiXiXiXiXiXiXpX0X.Xr.S Z e.f.M N f 3 3 f g N W.kXpX0X0X0XiXiX0X0X0X0X0X0X0X0X",
"0X0X0X0X0X0XuXuX0X0X0X0XiXiXiXiXiXiXiXiXiXiXiXiXiXiXiXiXiXiXiXiXiXvX[.G.h.n g C z a 3 > d g B <.R.zXiX0XpXiXiXiX0X0X0X0X0X0X0X0X",
"0X0X0X0XuX0X0X0X0X0X0X0X0X0X0X0XiXiXiXiXiXiXiXiXiXiXiXiXiXiXiXiXiXiX].F.h.<.k d 4 + * % v C 2.W.kX8XiXuXiXiXuXiXiXiXiXiX0X0X0X0X",
"0X0X0X0X0X0X0X0X0X0X0X0X0X0X0X0XiXiX0X0XiXiXiXiXiXiXiXiXiXiXiXiXiXpXN.| N f 3 2 2 + 2 4 2.w.F.R.jX9XiXiXiXiXpXiXiXiXiXiX0X0X0X0X",
"0X0X0X0X0X0X0X0X0X0X0X0X0X0X0X0XiXiX0X0XiXiXiXiXiXiXiXiXiXiXiXiXvX+X7.4 d l < < > > > 5 O.i.E..XpXiXiXiXiXiXpXiXiXiXiXiXiXiX0X0X",
"0XuX0X0X0X0X0X0X0X0X0XiXiXiX0XiXiX0X0XiXiXiXiXiXiXiXiXiXiXiXiXiXlXC.^ d d 3 d 3 + > > 2 | S.$XlXiXiXiXiXiXiXiXiXiXiXiXiXiXiX0X0X",
"uX0X0X0X0X0X0X0X0X0XiXiX0XiXiXiXiXiXiXiXiXiXiXiXiXiXiXiXiXiXiXiXxXV.^ j a 3 # X + > < d j D.kXpXiXpXiXiXiXiXiXiXiXiXiXiXiXiXiX0X",
"uX0XuX0XuX0X0X0X0X0XiXiXiXiXiXiXiXiXiXiXiXiXiXiXiXiXiXiXiXiXiXiXzX@XY.8.[ t < @ # a s 4 j q.{.vXiXiXiXiXpXiXiXiXiXiXiXiXiXiXiXiX",
"0X0XuX0XuX0X0X0X0X0XiXiXiXiXiXiXiXiXiXiXiXiXiXiXiXiXiXiXiXiXiXiXpXzX8XxX).0.x l f c x 4 , 9 n.pXiXvXvXiXiXiXiXiXiXiXiXiXiXiXiXiX",
"0XuXuX0XuX0X0X0X0X0XiXiXiXiXiXiXiXiXiXiXiXiXiXiXiXiXiXiXiXiXiXiX6XpXiXbX{.u.r.V <.c 3 > ; 6 #.[.zXiXvXiXiXiXiXiXiXiXiXiXiXiXiXiX",
"8XuX0X0X0X0X0X0X0X0XiXiXiXiXiXiXiXiXiXiXiXiXiXiX9XpXpX4XpXiXiXiXiXiXvXxXV.s.f.e.B d * 6 y u Y ] V.fXbXiXpXaXvXuXiXiXiXuXiX6X0XiX",
"0X0XuX0XiX0X0XiX0X0XiXiXiXiXiXiXiXiXiXiXiXiXiXiXiXiXiXbXiXvXiXiXiXuXOXP.;.p.f.Z d , ; r L L R ! _ l.(.lXvXbXiXiXiX9XiXpXiXiXiXiX",
"uX0X0X0XuXuX0XpX0X0X0X0XiXiXiXiXiXiXiXiXiXiXiXiXiXpX9XiXvXpXzXdX|.N.v.c.:.1.2.p i u L U T T  ...o.=.%.C.OXlXiXiXiXiXiXiXiXiX0XiX",
"0X0X0X0XuX0XiXpX0X0X0XiXiXiXiXiXiXiXiXiXiXiXiXiXiXpXiXbXjX[.P.n.l.,.A.A.-.U i P U T  .(  . .X.X.:.&.:.,.m.OX8XpX6XpXiX6XiXiXiXiX",
"0XuXuX0X9X0XiX0X0XiXiXiXiXiXiXiXiXiXiXiXiXiXiXiX0XiXbX+Xn.7.+.@.-.>.>.>...U P U U T T ( ( ( ( {  . .' / $.m.|.pXiXiXiXiXiXiXiXiX",
"0X0XuXuX0X0X0X0XiXiXiXiXiXiXiXiXiXiXiXiXiXiXiXiXiXvXsXz.@./ ' &.>.>.-.*.U u u I T U L L L Y Y U Y L I L ~ @.x.|.zXiXiXiXiXiXiXiX",
"2XfXfXuXiX0XiXiXiXiXiXiXiXiXiXiXiXiXiXiXiXiXiXiXiXhXP.W ....*.-.>.:.*. .u P T Y L I I L L L J r r L 8 u U Y ;.x.sXiXiXpXiX0XiXiX",
"hX*X#XhX0X9X5X0XiXiXiXiXiXiXiXiXiXiXiXiXiXiXiXiXpX].#...&.*.-.>.>.&. .~ i I T L P T U L L L r 6 u 6 8 0 0 L &.%.^.pXiX0XiX0XpXiX",
"lXW.F..X6X0XpX0XpX0XiXiXiXpXiXiXiXpXiXiX6X6XvXiXfX8.] -.>.>.>.-. .T  .{ I I U u R R L L q u 0 6 ; 6 6 6 6 u Q &.N.lXbXiXiXiX4XiX",
"@XW.6.Z.uXiX0X0XiX0XiXiXiXiX0XiXiXiXiXvXbXiXiXbXH._ ] >.>.>.:.] T T  .( L L L u u u u 6 6 6 6 ; ; 6 6 6 6 6 L Q v.dX9XpX9XpXiXiX",
"u.i.V y.XX,X0XiX0X0XiXiXiXiXiXiX0XiXiXiXiXiXpXjXl.F &.q.-.-.&.Y L T ' T L L u r 6 6 6 ; ; ; ; ; ; 6 0 u u u L T l.hXiX9XiXiXiXiX",
"3.V S h.F.{.iX5XiXiXiXiXiXiXpXpXiXiXiXiXiXvXxXP.` 8 *.>.*. .T u L T ~ T P u 6 0 ; ; ; ; * * * * ; 6 6 y u u u U c.dXiXiXvXiXiXpX",
"<.3.<.4.a.D.xXiXiXiXiXiXiXiXiXiXiXiXiXuXiXbX].$.9 q *.>.X.T u u u T T U L u 6 6 ; ; * * * * * ; ; ; ; 6 y q 8 u @.|.bX4X6XiXpXiX",
"3.t.B C t.i.V.oXiXpXiX0X0XiXpXiXpXiXiXiXbX}.7.8 = 6 X.*.T u u 6 u U U P u 0 ; ; ; * % % % % % ; 6 6 ; e u u q q E ].vXaXxXkXjX0X",
"<.B b N f.3.} z.dXhX8XiXiXiXiXuXiXiXiXbXOXz.7 0 ; 6 X...L u 6 6 u i P u 0 ; ; * * % @ + * % * ; u u 6 e u u 8 6 8 U.dX%XNXu.Y.xX",
"x a s V e.e.C u ] 9.N.+XzXiXiXpX6XiXiXoXz.F 6 ; ; ; X.] L y 6 0 u u u u 6 ; * * * @ @ + + * * , P u 6 6 u u u u 2.u.u.j.a.T..X0X",
"M.;.O.B V m x , % = 7 9.V.P.[.+XgXlX Xn.J = ; % * u ..Y e 6 6 u p y ; ; ; * * X + @ @ @ @ % ; 6 ( u 6 y ; p | p.C B z 5.$XpXpX0X",
"mX{.Y.0.j x d * ; , 0 8 F E +.#.l.z.9.K 0 ; O X X 6  .U 0 6 0 q i , ; ; ; * * X + + @ @ @ * ; ; { u 6 = j p.p.<.c x f 1.{.iXiXpX",
"5X0XhX.XV.0.t * * ; , ; 6 q q L F R L q , ; * * * y  .I - - 0 i y ; ; ; * * * X + + @ @ @ * * = U U r ; j j.3.g c j a ^ /.iXiX0X",
"5X0X<X0XhX{.$.w * ; % , e 6 0 e 0 6 6 ; * * * @ ; u  .I 6 6 y y y ; * * * * * * + + + @ @ @ * % U ( r - c j.A z f d | 0.[.pX0X0X",
"<X<X>X<XiXlXN._ e ; % ; ; ; 0 e 0 6 ; ; * * @ @ ; u Y L 6 q y 1 ; * % * * * * * * + * + @ @ @ % u I u 5 MXBXS C f j 0.|.uXiX0XiX",
"0X<X<X<X5X0XsX/.9.J 9 ; * 1 ; = 6 6 6 ; % X % % % u I u q u y e ; * * * * * * * + * * * + @ @ % e u u p MXBXr.i.O.} b.gX0X6X0X6X",
"<X0X<X0X5X0XuXuX|.n.#.K 9 = = , ; ; , , & & ; % 7 ( Y L r u 6 ; ; * * * * * * * * % % % * + + % * u U i | w.O.} o.L _ /.uX0X0XiX",
"uX0X<X0X<X0X<X<XuX,X+XP.z.` 8 6 = 0 6 - ; = = 8 7.q.] L u i 6 6 ; * * * * * * * % % % % * * + * X t  .~ p 5 y 6 8 L F V.iX0X0XiX",
"<X<X0X0X0X0X0X0X0X0X<XuXhX[.N.9.E J 8 8 G E z.H.jXm...L U t , , ; ; * * * & X X % % % = ; ; * X : e ..' P H 6 6 6 7 W J.0XuXiXiX",
"0X0X<X0X0X0X0X0X0X0X0X0XiXuX,XsX}.J.B.N.L.'.dXpXgXv...T U u ; 5 ; ; * * * * * * * % % ; 6 ; ; & ; *  .' I r 6 7 r H %.`.iX<XiX0X",
"<X<X<X0X<X0X0X0X9X0X0X0X5X0X0XiXiXuXuXuXuXiXiXiXgXb.&.' L u ; y ; ; * * * * * * * & & ; y u u y * * I Q R I 6 7 8 ! V.hX0X0X5X5X",
"0X0X<X0X<X0X0X0X<X0X0XuX0X<X0X0X0X0X0X0X0XiXiX0XsXc.*.L 8 U 0 y ; * * * * * * * & & & * 1 u p p ; & ) b.W R T Q @.n.+XuX5XiX0X0X",
"0X<X<X<X<X0X0X0X0X0X0X0X0X0X0X0X0X0XuXuXiXiXiXiXsXc...8 u { y y * * * * * * * * & & X X * ; y y e % ) ).B.%.%.l.P.OXuX0X0X9XuX0X",
"<X<X<X<X<X0X0X0X0X0X0XuX0X0X0XuX0X0XiXiX0X0X0X0XsXl.Q 8 ~ { y p * * * * * * O * & X + + & & * * y 0 F [.lX'.`.+XhXpX0X<XuX0XiX0X",
"<X<X<X<X0X0X0X0X0X0XuX0X0X0X0X0X0X0X0X0X9X0X0X0X8XN.E R  .U ; y * * * * & & + + @ @ + * * * * * 6 u Y }.pXpXuX5X0X<X0X5X0X0X5XiX",
"<X<X<X<X<X0X0X<X0X0X0X0X0X0X9X9X0X0XiX0X9X0X0X5XpX[._ Q  .U e ; * * * & & & + + @ @ X X % & & X ; Y +.=X5XiX0X5X0X0X0X4X0X0XiX0X",
"<X<X<X<X<X<X0X0X<X0X0X0X0X0X0X0X0X0X0X0X0X0X0X0XiX/.E Q ' q , * & & & & & & & X @ @ @ * * X & & * 8 z.hX0X0X0X0X0X0X0X0X0X0X0X0X",
"<X<X<X<X<X<X<X<X0X0X0X0X0X0X0X0X0X0X0X0X0X0X0X0XpXN.! ' I = , ; & & & & & O O O % % % & & * * ; * 7 z.lX0X0X<X0X0X0X0X0X0X0X0X0X",
"<X<X<X>X<X<X<X>X>X,X9X0X0X0X0X<X0X0X0X0X0X0XuXuX,Xn.-.' 6 ; ; ; ; * * * * * * * * * O X X & * * * & 7.dX0X9X0X0XuXuX0X0XuXuX0X0X",
"<X<X<X<X<X<X0X0X<X<X0X0X0X0X<X<X0X0X0X0X0X0X0XuXsXv.' 6 % * * , ; ; * * * * * * ; * * & & & & ; ; = +.sXiX0X2X<XuXuXuX0X0X0X0X0X",
"<X<X<X<X<X<X<X<X<X<X0X0X0X0X<X<X0X<X<X0X0X0XuXuX`.l.G u ; * @ < * * * X X X O O ; ; ; ; ; ; ; ; : 0 ` +XiX4X9X9XuXuXuXuXuXuX0X0X",
"<X<X<X<X<X<X<X<X<X<X0X0X0X0X<X<X0X0X0X0X0X0X0X0X3Xx.! U ; * * * ; ; * * & X X O ; ; ; ; ; ; 6 6 6 P K }.iX4X0XuX0X0X0X0X0X<X<X<X",
"<X0X<X0X<X0X0X0X0X0X0X0X0XuX0X0XuXuXuX0X0XiXiXiXOXl.J u u 0 & & * * * * + @ @ @ @ @ * * * * ; ; i T _ }.pX0XiXiX0X0X0X0X0X0X0X0X",
"Q.Q.Q.Q.Q.Q.Q.Q.L.K.K.!.!.!.!.!.!.!.!.!.^.^._._.8.: * * * < + @ @ @ @ @ @ @     . @ @   @ @ + + 0 L E L._.!.!._._._._.!.!.!.!.!."
};
