/* XPM */
static char *harambe[] = {
/* columns rows colors chars-per-pixel */
"64 64 251 2 ",
"   c None",
".  c #040301",
"X  c #090602",
"o  c #0D0A05",
"O  c #0E0D09",
"+  c #120D05",
"@  c #120D0A",
"#  c #1B1305",
"$  c #14120B",
"%  c #1B150C",
"&  c #191509",
"*  c #1A1612",
"=  c #1D1912",
"-  c #251D0D",
";  c #271B08",
":  c #231D13",
">  c #291E13",
",  c #221F1A",
"<  c #28210D",
"1  c #2B2214",
"2  c #2B241B",
"3  c #28241A",
"4  c #31261A",
"5  c #342B1C",
"6  c #372C1A",
"7  c #3A321D",
"8  c #3C3017",
"9  c #2C2821",
"0  c #332C23",
"q  c #392E26",
"w  c #353224",
"e  c #3B3323",
"r  c #36322B",
"t  c #3C342B",
"y  c #3D392D",
"u  c #3F3925",
"i  c #3E3932",
"p  c #3F3730",
"a  c #433B25",
"s  c #43362A",
"d  c #443B2D",
"f  c #4A3B2C",
"g  c #413425",
"h  c #443C33",
"j  c #4B3F32",
"k  c #463D38",
"l  c #653D24",
"z  c #40351E",
"x  c #4B422C",
"c  c #45412E",
"v  c #52452D",
"b  c #534627",
"n  c #454134",
"m  c #4B4333",
"M  c #46413B",
"N  c #4C443A",
"B  c #4E483B",
"V  c #4D4C34",
"C  c #514533",
"Z  c #544A33",
"A  c #53473B",
"S  c #534B3C",
"D  c #5B4D3C",
"F  c #5B4C34",
"G  c #5B523C",
"H  c #595337",
"J  c #5F522F",
"K  c #614C38",
"L  c #64583C",
"P  c #6C4024",
"I  c #4B411F",
"U  c #4D4842",
"Y  c #534C44",
"T  c #5A4E43",
"R  c #565144",
"E  c #5B5344",
"W  c #5B544B",
"Q  c #5C574A",
"!  c #5D5850",
"~  c #645546",
"^  c #63564B",
"/  c #645B4C",
"(  c #6A5C4C",
")  c #685A45",
"_  c #655C53",
"`  c #695D53",
"'  c #604F40",
"]  c #6A6349",
"[  c #73654E",
"{  c #74684A",
"}  c #656155",
"|  c #6B6254",
" . c #6C645A",
".. c #6B675A",
"X. c #726454",
"o. c #746B54",
"O. c #7B6C55",
"+. c #72665A",
"@. c #746B5C",
"#. c #7A6C5B",
"$. c #7A6556",
"%. c #7B725C",
"&. c #7C7355",
"*. c #7C784A",
"=. c #746D63",
"-. c #796F65",
";. c #7C7364",
":. c #7C746A",
">. c #777366",
",. c #76736C",
"<. c #885B3E",
"1. c #88664D",
"2. c #856954",
"3. c #83735C",
"4. c #88775A",
"5. c #97745B",
"6. c #91694E",
"7. c #837463",
"8. c #867A64",
"9. c #8A7964",
"0. c #82776A",
"q. c #837B6C",
"w. c #8A7C6B",
"e. c #8C7665",
"r. c #937C68",
"t. c #847D72",
"y. c #8A7E72",
"u. c #836D60",
"i. c #845C42",
"p. c #8D816D",
"a. c #878466",
"s. c #93836D",
"d. c #99856B",
"f. c #8B8375",
"g. c #8C847B",
"h. c #888376",
"j. c #928474",
"k. c #958976",
"l. c #9C8B75",
"z. c #92877A",
"x. c #938B7C",
"c. c #9B8D7C",
"v. c #9C8675",
"b. c #9C917D",
"n. c #9B9271",
"m. c #A38E7B",
"M. c #A48E77",
"N. c #A3947C",
"B. c #A89678",
"V. c #B19274",
"C. c #B0A47A",
"Z. c #948D83",
"A. c #998E84",
"S. c #9B9283",
"D. c #9D958A",
"F. c #9F9C8F",
"G. c #8F8781",
"H. c #A39484",
"J. c #AA9583",
"K. c #A49B8C",
"L. c #AA9D8C",
"P. c #A89988",
"I. c #B39D88",
"U. c #A69E94",
"Y. c #ACA287",
"T. c #B4A48C",
"R. c #B6A98B",
"E. c #BAAC8E",
"W. c #B9A786",
"Q. c #ACA294",
"!. c #A9A399",
"~. c #B2A593",
"^. c #B9A794",
"/. c #BAAD94",
"(. c #B3AB9B",
"). c #BCAC9B",
"_. c #B3A898",
"`. c #BCB29C",
"'. c #BCB196",
"]. c #B9B08B",
"[. c #B4ADA2",
"{. c #B9AFA2",
"}. c #BDB4A4",
"|. c #BCB6A9",
" X c #B5B3AD",
".X c #C7A589",
"XX c #C6AB97",
"oX c #C4B39B",
"OX c #C7B699",
"+X c #CEB994",
"@X c #C5B5A3",
"#X c #CAB6A5",
"$X c #C3B9A4",
"%X c #CBBBA5",
"&X c #C4BCAB",
"*X c #CABCAC",
"=X c #C7B7A9",
"-X c #D3BCAC",
";X c #D7BCA4",
":X c #CCBEB1",
">X c #C3BDB3",
",X c #CAB6AA",
"<X c #D7C999",
"1X c #D5C48A",
"2X c #CBC2AD",
"3X c #CBC0A1",
"4X c #D5C5AB",
"5X c #DCD2A9",
"6X c #CBC3B3",
"7X c #CEC9BA",
"8X c #C9C3B7",
"9X c #D4C4B4",
"0X c #DAC5B2",
"qX c #D3C9B4",
"wX c #D4CBBA",
"eX c #DACCBB",
"rX c #D9C9B6",
"tX c #DCD2BE",
"yX c #DED6B9",
"uX c #E5D7A5",
"iX c #E5D6BB",
"pX c #E1CFBF",
"aX c #E9E4B1",
"sX c #D5CEC3",
"dX c #DACEC1",
"fX c #DCD3C3",
"gX c #DCD6CB",
"hX c #DBD7CB",
"jX c #CCCAC4",
"kX c #E3D4C4",
"lX c #E3DBCB",
"zX c #E6D9C6",
"xX c #E3DDD2",
"cX c #EBDED2",
"vX c #E5CFC0",
"bX c #E9E1CB",
"nX c #F4E5C7",
"mX c #E6E1D3",
"MX c #EBE3D4",
"NX c #EAE6DC",
"BX c #EDE9DC",
"VX c #E5E3DA",
"CX c #F2EBDC",
"ZX c #F5E4D4",
"AX c #F2EEE4",
"SX c #F2EFE8",
"DX c #F4F2EB",
"FX c #F7F5E9",
"GX c #FFFFFF",
"HX c #FCFBF5",
"JX c #EFEDE2",
/* pixels */
"GXGXGXGXGXGXGXGXGXGXGXGXGXGXGXGXGXGXGXGXGXGXGXGXGXGXGXGXGXGXGX        GXGXGXGXGXGXGXGXGXGXGXGXGXGXGXGXGXGXGXGXGXGXGXGXGXGXGXGXGX",
"GXGXGXGXGXGXGXGXGXGXGXGXGXGXGXGXGXGXGXGXGXGXGXGXGXGXGXGXGX  Y.OX;X;XOXM.  GXGXGXGXGXGXGXGXGXGXGXGXGXGXGXGXGXGXGXGXGXGXGXGXGXGXGX",
"GXGXGXGXGXGXGXGXGXGXGXGXGXGXGXGXGXGXGXGXGXGXGXGXGXGXGXGX  2X%XXX.XXXXX.XN.  GXGXGXGXGXGXGXGXGXGXGXGXGXGXGXGXGXGXGXGXGXGXGXGXGXGX",
"GXGXGXGXGXGXGXGXGXGXGXGXGXGXGXGXGXGXGXGXGXGXGXGXGXGXGXGXqX~.J.5.6.5.C.I.w.X.GXGXGXGXGXGXGXGXGXGXGXGXGXGXGXGXGXGXGXGXGXGXGXGXGXGX",
"GXGXGXGXGXGXGXGXGXGXGXGXGXGXGXGXGXGXGXGXGXGXGXGXGXGXGX(.$Xw.7.7.j.v.v.m.H.w.  GXGXGXGXGXGXGXGXGXGXGXGXGXGXGXGXGXGXGXGXGXGXGXGXGX",
"GXGXGXGXGXGXGXGXGXGXGXGXGXGXGXGXGXGXGXGXGXGXGXGXGXGX  mXr.e.Q.*XOXXXXXJ.H.H.H.  GXGXGXGXGXGXGXGXGXGXGXGXGXGXGXGXGXGXGXGXGXGXGXGX",
"GXGXGXGXGXGXGXGXGXGXGXGXGXGXGXGXGXGXGXGXGXGXGXGXGXGX7X}.m.r.r.1.<.6.d.T.P.u.S.:.GXGXGXGXGXGXGXGXGXGXGXGXGXGXGXGXGXGXGXGXGXGXGXGX",
"GXGXGXGXGXGXGXGXGXGXGXGXGXGXGXGXGXGXGXGXGXGXGXGXGX  MX).d.2.i.l l l P 6.I.j.7.c.  GXGXGXGXGXGXGXGXGXGXGXGXGXGXGXGXGXGXGXGXGXGXGX",
"GXGXGXGXGXGXGXGXGXGXGXGXGXGXGXGXGXGXGXGXGXGXGXGXGX(.$Xj.r.2.1.1.2.X.1.5.B.~.c.h.  GXGXGXGXGXGXGXGXGXGXGXGXGXGXGXGXGXGXGXGXGXGXGX",
"GXGXGXGXGXGXGXGXGXGXGXGXGXGXGXGXGXGXGXGXGXGXGXGXGXyX}.Q.^.XX4X@X9XrX0X-X%X%XS.h.  GXGXGXGXGXGXGXGXGXGXGXGXGXGXGXGXGXGXGXGXGXGXGX",
"GXGXGXGXGXGXGXGXGXGXGXGXGXGXGXGXGXGXGXGXGXGXGXGX  bX&X}.%XN.8.S.K.c.c.L.v.d.8...;.GXGXGXGXGXGXGXGXGXGXGXGXGXGXGXGXGXGXGXGXGXGXGX",
"GXGXGXGXGXGXGXGXGXGXGXGXGXGXGXGXGXGXGXGXGXGXGX  MXkX&X).s.4 o + # # , % o < v A k.GXGXGXGXGXGXGXGXGXGXGXGXGXGXGXGXGXGXGXGXGXGXGX",
"GXGXGXGXGXGXGXGXGXGXGXGXGXGXGXGXGXGXGXGXGX  &XbXfX9X}.L.9.@.Z.:.W t 3 * , 2 7 x 8.@.  GXGXGXGXGXGXGXGXGXGXGXGXGXGXGXGXGXGXGXGXGX",
"GXGXGXGXGXGXGXGXGXGXGXGXGXGXGXGXGXGXGX  S.fXfXeX:X$X&Xk.c.9.!.|.gX{.Z. .} @.Z 4 R A m @.x.  GXGXGXGXGXGXGXGXGXGXGXGXGXGXGXGXGXGX",
"GXGXGXGXGXGXGXGXGXGXGXGXGXGXGXGX  +.8.k.~.$XeX).D.K.8Xb.L.j.7.Q.7X|.U.^ A S.G e Y U i E Q.U.  GXGXGXGXGXGXGXGXGXGXGXGXGXGXGXGXGX",
"GXGXGXGXGXGXGXGXGXGXGXGXGXGXGX  b.9.3.3.J.@XJ.j.k.c.~.b.K.Q.k.}.jX8XF.N } N.( A Y k k ^ Q.Q.Z.GXGXGXGXGXGXGXGXGXGXGXGXGXGXGXGXGX",
"GXGXGXGXGXGXGXGXGXGXGXGXGXGX  Z.0.e.s.v.m.m.v.v.^.^.).j.w.Q.(.!.Y =.=.:.;.k.) m i t t ^ (.!.!.  GXGXGXGXGXGXGXGXGXGXGXGXGXGXGXGX",
"GXGXGXGXGXGXGXGXGXGXGXGXGXQ.{.h.@.X.7.v.e.v.r.m.J.H.@Xk.;.K.|.|.[.U.hX;.E  .E s 0 0 r N K.(.Q.Q.  GXGXGXGXGXGXGXGXGXGXGXGXGXGXGX",
"GXGXGXGXGXGXGXGXGXGXGX  (.|.F.q.( ~ $.w.e.r.e.d.K 7.pX).:.S.@X(.>XxX(.o.^ m E 1 > 0 0 r q.K.Q.D.x.GXGXGXGXGXGXGXGXGXGXGXGXGXGXGX",
"GXGXGXGXGXGXGXGXGXGX  }.8X(.x.@.` ~ $.e.3.$.O.C f eXZXkXS.x.c.x.K.D.@. .E s s % - 4 2 2  .x.Q.g.g.  GXGXGXGXGXGXGXGXGXGXGXGXGXGX",
"GXGXGXGXGXGXGXGXGX  H.}.}.!.g. .A ^ $.$.~ ' s 1 ).ZXMXZX^.y.0.=.7.;.~ s 2 4 4 1 4 4 4 , +.S.x.h. .;.GXGXGXGXGXGXGXGXGXGXGXGXGXGX",
"GXGXGXGXGXGXGXGX  q.S.&X{.U.h.` N ^  .E s 4 1 H.MXzXzXpX0X7.S s - + # - , 2 0 4 g s 4 , =.U.t. .E @.GXGXGXGXGXGXGXGXGXGXGXGXGXGX",
"GXGXGXGXGXGXGX  q.h.L.}.U.S.x._ Y Y h 4 - e x.kXeX0X-XeXMXI.f 1 2 , % # 1 9 e e g f 0 2 q.Q.h.@.n ^   GXGXGXGXGXGXGXGXGXGXGXGXGX",
"GXGXGXGXGXGX  ..;.c.H.K.g.x.h._ W r , 2 ^ S.*X:X:X-XrXkXkXeXr.6 # # % , 1 0 e t s s 0 0 0.K.=._ N A   GXGXGXGXGXGXGXGXGXGXGXGXGX",
"GXGXGXGXGXGXh.h.x.x.h.S.t.y.0. .W , 2 x.$X:XrXrX9X0XrXeX9X*X).K # # % , 0 t t h Y h = m k.b. .B m c m GXGXGXGXGXGXGXGXGXGXGXGXGX",
"GXGXGXGXGXg.g.h.S.D.K.K.g.g.=._ i 9 t :.&XzXkX9X:X:X*X#X*X#Xm.v.~ , > 4 t t k T ` 0 % N y.S.;.A h m s   GXGXGXGXGXGXGXGXGXGXGXGX",
"GXGXGXGX-.S.Z.Z.Z.g.g.;.g.:._ N t Y k N ,XCXCXdX@X@X,X@X,X@XI.pXoXs e t j m Y ^ ( 2 , ^ j.S.x. .m n s   GXGXGXGXGXGXGXGXGXGXGXGX",
"GXGXGX  D.Z.G.g.G.g.:.t W U h r r W Y +.-XBXAXcX9X,X#X#X-X#XI.eX9Xw.f j T ^ ^ ^ m + 0 h.b.c.x.7. .E B N GXGXGXGXGXGXGXGXGXGXGXGX",
"GXGXGXx.D.Z.g.g.:.:.W 3 i U Y ! =.k.x.k.L.:XgXgXMXrX-X-X0X-XT.9XeX#Xv.~ ` @. .Z = X 0 S.L.j.P.;.;.@.^ R   GXGXGXGXGXGXGXGXGXGXGX",
"GXGX  Q.g._ Y U U Y s 9 h A A ^ w.H.w.E ( 3.H.L.dXzXvX0X0X0X#XeXkX0X0X).j.$.L 6 X X , t.Q.p.x.w.X.p.@.^   GXGXGXGXGXGXGXGXGXGXGX",
"GXGXt.D.=.W W ! Y h t r k h ^ 0.$.$.X.T ^ ( O.O.r.).kXcXzXkX4XzXMXrX9XqX`.[ 6 + + X + _ S.K._.w.X.%.q.@.B GXGXGXGXGXGXGXGXGXGXGX",
"GX  x.:. ._ _ W Y i h r t T  ._ ^  .^ E [ ( ~ ( ~ [ c.*XkXzXwXeXfXeX%XY.O.7 # + % o X h x.H.b.j.o.] p.q.@.GXGXGXGXGXGXGXGXGXGXGX",
"GX:.W `  ._ Y _ Y N N M U W ! R W _ W A ( ~ ( ~ S x T +.(.`.7.K.%XM.] I < # , % , o X r @.$.@.$.;._ ;.Z.@.  GXGXGXGXGXGXGXGXGXGX",
"   .Y _ =. .W =.W W W U U Y M R W ^ h A ^ T A ( ( m A T x.w.w.$Xb.b ; # % 1 4 , = O X 2 h A $.w.q.q.:.S.=...  GXGXGXGXGXGXGXGXGX",
"  -. .W =. .:.:. .=. .! W N i N W h 0 h 2 s S X.X.A h t 0.).}.rX$X( - - 4 s e , = o   2 B E ~ b.$.;.j.x.S.;.} GXGXGXGXGXGXGXGXGX",
"  x. ._ :.;.:.=.t.t.:. . .Y t h y @ X @ 1 j ~ ( ( j s 2 T I.OX9X`.8.x e j A t , % +   N  .A 3.4.Z m q.@.t.h...W GXGXGXGXGXGXGXGX",
"GX  @. .=.-.=.=.:.;.Q.(.@Xc.;.;.e $ X X > f ) ( s > , % 0 $.T.oXN.9.X.C m A w * $ % GX} _ W O.4.F 6 ;.;.E @.W W  .  GXGXGXGXGXGX",
"GX  @.! =.=.=.=.p.&XVXmXMXwXmXhX$XQ.h.E > v K m 2 1 e e 0 N v.OXI.v.3.%.w.;.h $ %   GX  R i ) 3.{ F  .=.E ! Y h R -.  GXGXGXGXGX",
"GXGX .^ =.}  .%.wXSXxXfXsXVXJXMXxXfXlX8X .6 7 1 - u v 7 > s ^ T.OXI.N.T.~.H.m % 1 GXGX  Y , C L S s.v.^ A @.Y ..} } :.  GXGXGXGX",
"GXGX  ;.} U N Q.DXSXgX:XxXAXlXzXlXwXwXfXQ.4 v - - a Z m 1 0 j ( ^.L.H.H.c.q.0 1   GXGX  Y = 0 ( +.p.T.O.E j.q.} R n c o.  GXGXGX",
"GXGXGXx.^ t E hXDXSXVXVXAXMXkXeXwX7X7XlXS.= o.m 4 ( ( &.x 0 h N j.K.y.7.=.W 0   GXGXGXGXA $ h @.@.X.s.9.S S @. .W B G G   GXGXGX",
"GXGXGX  8.( (.BXDXDXAXSXmXtXtXfX8X8XfXlXh.X =.H.G j.$.O.G t 4 t  .y.+._ _ t 0 GXGXGXGXGX  = 2 , i A ^ w.~ j ( ;. .E E ^ %.GXGXGX",
"GXGXGXGXGXGX{.CXBXMXBXxXqXqXwXfX7XhXhXwXA N /.R.4.T.{ 3.G , 0 0 W :.} Y } r   GXGXGXGXGX  u + 2 s t A p.7.@.$.7.8.^ E  .s.  GXGX",
"GXGXGXGXGXGX(.lXeX4XwXqXqXwXwXfXhXfXlX&X0 * s 6 8 ] b J - * 2 r Y @._ ! _ 2 GXGXGXGXGXGXGXs < 1 h m  .X.G N  .h.w.+.@.=.8.  GXGX",
"GXGXGXGXGXGX}.fX2X}.&X&XwXmXxXgX8X7XlX}.0 X X @ X X + X @ % 9 h N M W W h   GXGXGXGXGXGXGX  F Z E ^ } A C t s  .g.g.t.;.%.  GXGX",
"GXGXGXGXGXGX8XqX&X8X8X$XlXBXBXfX8XxXlX8XN X X o X o X o % * h A B N M 9 2 GXGXGXGXGXGXGXGXGX  ) E Y W m C g 4 e W h.q. .G o.GXGX",
"GXGXGXGXGXGXwXwX@X&X2XtXAXBXmXwXsXgXlX8X .X X 2 = % % * = , h ! Y n 0 *   GXGXGXGXGXGXGXGXGXGX  H G m m m f 6 % + 6 C m y G   GX",
"GXGXGXGXGXGXfX9X*X8XqXlXmXfXfXwX&XwXtX8X:.O X y @.n w 2 , , h h N 0 % , GXGXGXGXGXGXGXGXGXGXGXGXL { m h t 4 1 - 4 a a G ^ ]   GX",
"GXGXGXGXGXGXlXfX9XlX8X&XwXqX8X&XwXfX8X}.:.* o w S.U.Z.=.2 3 i k t , $   GXGXGXGXGXGXGXGXGXGXGXGX  { G m A 2 1 a f 7 7 m E ] ] GX",
"GXGXGXGXGXGXlXtXkXkX*X&XqXqX&X8XsX8X}.Y.=.@ o 0 Z.S.g.U._ 0 9 9 2 o t           GXGXGXGXGXGXGXGXGX  ] x s 4 - 6 v v Z h B E G GX",
"GXGXGXGXGXGXtXeXtXtX$XqX8X&X&X8X8X}.(.S.} $ O 3 g.U.U.Q.W W Y R Y h h.g.`.zXAXDX{.GXGXGXGXGXGXGXGXGX&.H 4 1 < 4 H L F x s n m   ",
"GXGXGXGXGXGX(.rXpXeX&XqX2X}.8X7X|.}.K.q.B = o 3 ^ x.x.x.t.Q.{.}.&X&X&X$X8XtXmXBXHX!.GXGXGXGXGXGXGXGX{ L e 1 - < v L H ) E s V   ",
"GXGXGXGXGXGX  rXqXeX$X2X2X}.>X8X{.(.S.^ w , * 2  .|.|.sX>X7X}.&X}.}.}.`.&XfXmXSXDXBX  GXGXGXGXGXGXGX  a.x 1 1 < z O.a.4.) m V   ",
"GXGXGXGXGXGXGX`.rX4X$X$X&X`.&X|.(.Q.;.N , 3 , y h.8XsXsX8X|.{.}.}.`.}.$XqXzXBXDXHXBX  GXGXGXGXGXGXGX  a.x 4 2 1 7 &.a.a.[ c w   ",
"GXGXGXGXGXGXGX  rX2X`.}.@X/.}.`.(.S...r o $ * 4 o.}.&X&X}._.`.}.%X`.3X<X5XiXBXDXDXFX  GXGXGXGXGXGXGX  *.Z a e e s ) 4.O.) m w c ",
"GXGXGXGXGXGXGX  %XOX`.@X_.).@X_.K.t.B _ 0 $ = s s.%X$X%X`._.`.~.XX<X<XOX5XzXMXCXCXZXY.GXGXGXGXGXGXGX  *.H m e e a a v ] [ A y w ",
"GXGXGXGXGXGXGX  /.T.T.~.L.Q.L.q.$.q.&XnXv.1 , s 3./.`./.E.I.OX/./.E.E..XiXuXzXbXuX1X<XGXGXGXGXGXGXGXGX] { G w a s a a a   e 1 2 ",
"GXGXGXGXGXGXGX  L.b.L.K.c.q.( m m 8.W.+X] ^ G B G v.N.Y.R./.OXoX/./.'.4XyXaX5X+XC.C.  GXGXGXGXGXGXGXGXGX    a 7 w   GXGXGX      ",
"GXGXGXGXGXGXGX  Y.k.p.9.O.) O.S e e % S.L zXOXA ] %.N.B.T./.T.'.E.R.oX5X<XuX+XE.    GXGXGXGXGXGXGXGXGXGXGXGXGXGXGXGXGXGXGXGXGXGX",
"GXGXGXGXGXGXGXGX  C.Y.7.) p.H.v.[ C e K.M.W.iXC.C.n.v.OXR.B.B.R.Y.W.+X          GXGXGXGXGXGXGXGXGXGXGXGXGXGXGXGXGXGXGXGXGXGXGXGX",
"GXGXGXGXGXGXGXGXGXn.nXZXc.s.%.7.3.O.( 8.4XK aXOXY.].C.W.n.          GXGXGXGXGXGXGXGXGXGXGXGXGXGXGXGXGXGXGXGXGXGXGXGXGXGXGXGXGXGX",
"GXGXGXGXGXGXGXGXGXGX  +XXXO.) 8.s.4.9.9.fX          GXGXGXGXGXGXGXGXGXGXGXGXGXGXGXGXGXGXGXGXGXGXGXGXGXGXGXGXGXGXGXGXGXGXGXGXGXGX",
"GXGXGXGXGXGXGXGXGXGXGXGX  4.OX)./.T.T.I.  GXGXGXGXGXGXGXGXGXGXGXGXGXGXGXGXGXGXGXGXGXGXGXGXGXGXGXGXGXGXGXGXGXGXGXGXGXGXGXGXGXGXGX",
"GXGXGXGXGXGXGXGXGXGXGXGXGXGXGX          GXGXGXGXGXGXGXGXGXGXGXGXGXGXGXGXGXGXGXGXGXGXGXGXGXGXGXGXGXGXGXGXGXGXGXGXGXGXGXGXGXGXGXGX"
};
